<svg width="1440" height="272" viewBox="0 0 1440 272" fill="none" xmlns="http://www.w3.org/2000/svg">
<g clip-path="url(#clip0_307_7809)">
<rect width="1440" height="271.344" fill="#FFFCF9"/>
<path d="M215.899 115.954C214.226 115.954 212.822 115.387 211.689 114.253C210.555 113.12 209.988 111.716 209.988 110.043C209.988 108.369 210.555 106.966 211.689 105.832C212.822 104.699 214.226 104.132 215.899 104.132C217.519 104.132 218.895 104.699 220.029 105.832C221.163 106.966 221.729 108.369 221.729 110.043C221.729 111.716 221.163 113.12 220.029 114.253C218.895 115.387 217.519 115.954 215.899 115.954ZM220.434 121.865V166.481H211.203V121.865H220.434Z" fill="#101828"/>
<path d="M189.344 128.345C190.694 126.078 192.475 124.324 194.688 123.082C196.956 121.786 199.628 121.139 202.705 121.139V130.693H200.356C196.74 130.693 193.987 131.611 192.097 133.447C190.262 135.282 189.344 138.467 189.344 143.001V166.483H180.113V121.867H189.344V128.345Z" fill="#101828"/>
<path d="M122.174 143.973C122.174 139.492 123.092 135.525 124.927 132.07C126.816 128.615 129.353 125.943 132.538 124.054C135.777 122.11 139.34 121.139 143.227 121.139C146.736 121.139 149.785 121.84 152.377 123.244C155.022 124.594 157.127 126.294 158.692 128.345V121.867H168.004V166.483H158.692V159.844C157.127 161.949 154.995 163.703 152.296 165.107C149.597 166.51 146.52 167.212 143.065 167.212C139.232 167.212 135.723 166.24 132.538 164.297C129.353 162.3 126.816 159.547 124.927 156.038C123.092 152.475 122.174 148.453 122.174 143.973ZM158.692 144.135C158.692 141.058 158.045 138.386 156.749 136.119C155.508 133.851 153.861 132.124 151.81 130.936C149.758 129.749 147.545 129.155 145.17 129.155C142.795 129.155 140.582 129.749 138.53 130.936C136.479 132.07 134.806 133.77 133.51 136.038C132.268 138.251 131.648 140.896 131.648 143.973C131.648 147.05 132.268 149.749 133.51 152.07C134.806 154.391 136.479 156.173 138.53 157.414C140.636 158.602 142.849 159.196 145.17 159.196C147.545 159.196 149.758 158.602 151.81 157.414C153.861 156.227 155.508 154.499 156.749 152.232C158.045 149.911 158.692 147.212 158.692 144.135Z" fill="#101828"/>
<path d="M67.291 143.973C67.291 139.492 68.2087 135.525 70.0441 132.07C71.9334 128.615 74.4706 125.943 77.6555 124.054C80.8944 122.11 84.4572 121.139 88.3439 121.139C91.8527 121.139 94.9027 121.84 97.4938 123.244C100.139 124.594 102.244 126.294 103.81 128.345V121.867H113.122V166.483H103.81V159.844C102.244 161.949 100.112 163.703 97.4128 165.107C94.7137 166.51 91.6368 167.212 88.1819 167.212C84.3492 167.212 80.8404 166.24 77.6555 164.297C74.4706 162.3 71.9334 159.547 70.0441 156.038C68.2087 152.475 67.291 148.453 67.291 143.973ZM103.81 144.135C103.81 141.058 103.162 138.386 101.866 136.119C100.625 133.851 98.9783 132.124 96.927 130.936C94.8757 129.749 92.6624 129.155 90.2872 129.155C87.912 129.155 85.6988 129.749 83.6475 130.936C81.5962 132.07 79.9227 133.77 78.6272 136.038C77.3856 138.251 76.7648 140.896 76.7648 143.973C76.7648 147.05 77.3856 149.749 78.6272 152.07C79.9227 154.391 81.5962 156.173 83.6475 157.414C85.7528 158.602 87.966 159.196 90.2872 159.196C92.6624 159.196 94.8757 158.602 96.927 157.414C98.9783 156.227 100.625 154.499 101.866 152.232C103.162 149.911 103.81 147.212 103.81 144.135Z" fill="#101828"/>
<path d="M58.2354 166.485H49.0045L21.2309 124.46V166.485H12V110.128H21.2309L49.0045 152.072V110.128H58.2354V166.485Z" fill="#101828"/>
<path d="M390.252 108.006C394.146 108.006 397.409 108.822 400.04 110.453C402.671 112.031 404.644 114.163 405.96 116.846C407.275 119.477 407.933 122.372 407.933 125.529C407.933 126.371 407.854 127.292 407.696 128.292C407.591 129.239 407.433 130.002 407.223 130.581L400.671 127.502C400.724 127.292 400.75 127.081 400.75 126.871C400.75 126.608 400.75 126.397 400.75 126.239C400.75 124.608 400.434 122.924 399.803 121.188C399.224 119.399 398.172 117.899 396.646 116.689C395.12 115.478 392.988 114.873 390.252 114.873C387.884 114.873 386.174 115.373 385.121 116.373C384.122 117.373 383.622 118.557 383.622 119.925C383.622 121.135 383.911 122.161 384.49 123.003C385.121 123.845 385.963 124.582 387.016 125.213L379.359 127.187C378.307 126.134 377.517 124.95 376.991 123.635C376.518 122.266 376.281 120.872 376.281 119.451C376.281 117.399 376.754 115.505 377.702 113.768C378.701 112.031 380.227 110.637 382.28 109.585C384.332 108.532 386.989 108.006 390.252 108.006ZM370.598 143.684C370.598 139.632 371.466 136.053 373.202 132.949C374.939 129.791 377.36 127.318 380.464 125.529C383.622 123.74 387.358 122.845 391.673 122.845C396.04 122.845 399.777 123.714 402.881 125.45C406.039 127.187 408.459 129.607 410.143 132.712C411.88 135.817 412.748 139.448 412.748 143.605C412.748 147.499 411.906 150.945 410.222 153.945C408.591 156.892 406.196 159.181 403.039 160.812C399.882 162.443 396.093 163.259 391.673 163.259C387.305 163.259 383.543 162.443 380.385 160.812C377.281 159.128 374.86 156.839 373.124 153.945C371.44 150.998 370.598 147.578 370.598 143.684ZM378.491 142.736C378.491 146.683 379.596 149.893 381.806 152.366C384.016 154.84 387.305 156.076 391.673 156.076C394.62 156.076 397.067 155.524 399.014 154.419C400.961 153.313 402.434 151.787 403.434 149.84C404.434 147.841 404.934 145.604 404.934 143.131C404.934 140.658 404.434 138.395 403.434 136.343C402.487 134.291 401.04 132.659 399.093 131.449C397.145 130.239 394.672 129.634 391.673 129.634C388.673 129.634 386.2 130.239 384.253 131.449C382.306 132.659 380.859 134.264 379.912 136.264C378.965 138.211 378.491 140.368 378.491 142.736Z" fill="#101828"/>
<path d="M322.038 163.258C319.617 163.258 317.46 162.89 315.565 162.153C313.671 161.364 311.829 160.154 310.04 158.522C308.303 156.839 306.356 154.655 304.199 151.971C303.094 150.55 302.173 149.445 301.436 148.656C300.699 147.814 300.015 147.235 299.384 146.919C298.805 146.551 298.121 146.367 297.332 146.367C296.279 146.367 295.385 146.814 294.648 147.709C293.911 148.551 293.543 149.656 293.543 151.024C293.543 152.708 293.859 154.339 294.49 155.918C295.122 157.496 296.042 159.128 297.253 160.812L289.517 163.337C288.412 161.496 287.491 159.575 286.755 157.575C286.071 155.576 285.729 153.366 285.729 150.945C285.729 148.682 286.228 146.683 287.228 144.946C288.228 143.209 289.596 141.841 291.333 140.841C293.069 139.789 295.043 139.263 297.253 139.263C299.463 139.263 301.331 139.631 302.857 140.368C304.383 141.105 305.778 142.131 307.04 143.446C308.356 144.762 309.75 146.34 311.224 148.182C312.803 150.129 314.144 151.682 315.249 152.839C316.407 153.944 317.539 154.76 318.644 155.286C319.749 155.812 321.064 156.076 322.59 156.076C324.906 156.076 326.721 155.313 328.037 153.787C329.352 152.26 330.01 150.024 330.01 147.077C330.01 143.815 329.221 140.999 327.642 138.631C326.063 136.211 324.011 134.237 321.485 132.711C318.959 131.133 316.197 129.949 313.197 129.159L327.089 128.528C329.194 129.528 331.036 130.949 332.615 132.79C334.246 134.579 335.509 136.658 336.404 139.026C337.351 141.394 337.824 143.946 337.824 146.683C337.824 150.05 337.219 152.997 336.009 155.523C334.799 157.996 333.036 159.917 330.72 161.285C328.405 162.601 325.511 163.258 322.038 163.258ZM355.111 145.814C353.058 145.814 351.296 145.499 349.822 144.867C348.349 144.236 347.191 143.42 346.349 142.42C345.507 141.368 344.876 140.263 344.455 139.105C344.086 137.895 343.902 136.737 343.902 135.632C343.902 133.843 344.165 132.317 344.692 131.054C345.27 129.791 345.928 128.581 346.665 127.423L354.085 127.265C352.822 128.528 351.874 129.765 351.243 130.975C350.612 132.133 350.296 133.395 350.296 134.764C350.296 136.29 350.743 137.526 351.638 138.473C352.532 139.368 353.769 139.815 355.348 139.815C357.137 139.815 358.4 139.368 359.136 138.473C359.873 137.579 360.241 136.448 360.241 135.079C360.241 133.08 359.584 131.685 358.268 130.896C356.952 130.054 355.137 129.633 352.822 129.633H292.043V122.845H348.48C351.006 122.845 353.137 122.95 354.874 123.16C356.61 123.318 358.11 123.634 359.373 124.108C360.636 124.529 361.767 125.16 362.767 126.002C363.978 126.897 364.925 128.081 365.609 129.554C366.346 131.027 366.714 132.79 366.714 134.843C366.714 138.21 365.661 140.894 363.557 142.894C361.504 144.841 358.689 145.814 355.111 145.814Z" fill="#101828"/>
<path d="M611.668 119.237V125.226H603.366V169.593H596.221V125.226H587.919V119.237H596.425V116.448C596.425 113.816 595.926 111.616 594.928 109.847C593.93 108.032 592.161 107.125 589.62 107.125C587.08 107.125 585.288 108.032 584.244 109.847C583.201 111.616 582.679 113.816 582.679 116.448V120.871H575.738V116.788C575.738 112.024 576.85 108.236 579.073 105.424C581.296 102.566 584.811 101.137 589.62 101.137C594.52 101.137 598.035 102.543 600.168 105.356C602.3 108.168 603.366 111.979 603.366 116.788V119.237H611.668Z" fill="#101828"/>
<path d="M565.452 147.343V155.849C565.452 158.344 566.019 160.34 567.153 161.837C568.287 163.334 569.966 164.083 572.189 164.083C574.23 164.083 575.841 163.402 577.02 162.041C578.245 160.635 578.858 158.775 578.858 156.462V154.964H585.73V156.257C585.73 160.522 584.528 163.924 582.124 166.465C579.765 168.96 576.499 170.207 572.325 170.207C567.834 170.207 564.386 168.869 561.982 166.192C559.623 163.47 558.443 159.909 558.443 155.509V141.491H565.52C572.915 141.491 576.612 137.952 576.612 130.875V125.227H551.57V119.239H591.174V125.227H583.689V130.875C583.689 136.138 582.419 140.198 579.878 143.056C577.338 145.914 573.391 147.343 568.038 147.343H565.452Z" fill="#101828"/>
<path d="M539.403 169.595V125.227H531.102V119.239H554.85V125.227H546.548V169.595H539.403Z" fill="#101828"/>
<path d="M534.385 125.227H526.083V169.595H518.938V141.423H507.097C509.139 143.782 510.16 146.617 510.16 149.929C510.16 152.515 509.57 154.783 508.39 156.734C507.211 158.639 505.578 160.091 503.491 161.089C501.449 162.087 499.159 162.586 496.618 162.586C493.987 162.586 491.583 162.041 489.405 160.953C487.227 159.819 485.504 158.231 484.233 156.189C483.008 154.148 482.396 151.766 482.396 149.044C482.396 146.186 483.031 143.737 484.301 141.695C485.617 139.654 487.386 138.111 489.609 137.068C491.877 135.979 494.418 135.435 497.231 135.435H518.938V125.227H476.748V119.239H534.385V125.227ZM496.754 156.53C499.022 156.53 500.86 155.826 502.266 154.42C503.718 153.014 504.444 151.199 504.444 148.976C504.444 146.799 503.718 145.007 502.266 143.6C500.814 142.149 498.977 141.423 496.754 141.423C494.441 141.423 492.535 142.149 491.038 143.6C489.586 145.007 488.861 146.821 488.861 149.044C488.861 151.267 489.586 153.082 491.038 154.488C492.49 155.849 494.395 156.53 496.754 156.53Z" fill="#101828"/>
<path d="M777.427 161.394C773.525 161.394 770.077 160.691 767.083 159.284C764.089 157.878 761.753 155.746 760.074 152.888C758.396 150.03 757.557 146.401 757.557 142C757.557 139.369 758.01 136.965 758.918 134.787C759.87 132.61 761.118 130.704 762.66 129.071C761.708 127.756 760.959 126.372 760.415 124.92C759.87 123.468 759.598 122.039 759.598 120.633C759.598 117.911 760.211 115.756 761.435 114.169C762.706 112.535 764.384 111.379 766.471 110.698C768.558 109.972 770.826 109.609 773.276 109.609C776.86 109.609 779.967 110.244 782.598 111.515C785.275 112.785 787.611 114.532 789.607 116.754C792.556 120.066 794.575 123.809 795.664 127.982C796.752 132.156 797.297 136.42 797.297 140.775C797.297 147.58 795.527 152.729 791.989 156.222C788.45 159.67 783.596 161.394 777.427 161.394ZM776.95 123.015C779.944 123.015 782.508 123.537 784.64 124.58C786.817 125.623 788.7 127.256 790.288 129.479L790.56 129.343C789.653 126.939 788.405 124.716 786.817 122.675C785.275 120.633 783.415 119 781.237 117.775C779.06 116.505 776.587 115.87 773.82 115.87C771.007 115.87 769.011 116.369 767.832 117.367C766.698 118.365 766.131 119.658 766.131 121.246C766.131 122.697 766.607 124.081 767.56 125.397C770.508 123.809 773.639 123.015 776.95 123.015ZM777.495 154.929C780.398 154.929 782.802 154.362 784.708 153.228C786.613 152.049 788.042 150.506 788.995 148.601C789.948 146.65 790.424 144.495 790.424 142.136C790.424 138.099 789.199 134.946 786.749 132.678C784.345 130.409 781.283 129.275 777.563 129.275C773.525 129.275 770.327 130.477 767.968 132.882C765.609 135.241 764.429 138.326 764.429 142.136C764.429 146.174 765.609 149.327 767.968 151.595C770.372 153.818 773.548 154.929 777.495 154.929Z" fill="#101828"/>
<path d="M752.116 144.042C752.116 149.576 750.778 153.863 748.101 156.903C745.47 159.897 741.773 161.394 737.009 161.394C732.972 161.394 729.887 160.328 727.755 158.196C725.668 156.018 724.625 153.319 724.625 150.098C724.625 147.195 725.373 144.949 726.87 143.361C728.367 141.774 730.273 140.98 732.586 140.98C734.401 140.98 735.785 141.433 736.737 142.341C737.69 143.203 738.166 144.359 738.166 145.811C738.166 147.127 737.803 148.193 737.077 149.009C736.352 149.781 735.399 150.166 734.219 150.166C733.312 150.166 732.518 149.962 731.838 149.554C731.157 149.145 730.681 148.51 730.409 147.648C730.318 148.193 730.273 148.828 730.273 149.554C730.273 151.051 730.749 152.412 731.702 153.637C732.654 154.861 734.333 155.474 736.737 155.474C739.368 155.474 741.433 154.521 742.93 152.616C744.472 150.711 745.243 147.852 745.243 144.042C745.243 139.324 743.996 135.74 741.501 133.29C740.639 132.383 739.641 131.634 738.506 131.045C737.418 130.455 735.989 130.024 734.219 129.752C732.496 129.434 730.273 129.275 727.551 129.275H710.471V123.083H728.98C733.698 123.083 737.44 123.605 740.208 124.648C743.02 125.646 745.334 127.143 747.149 129.139C750.46 132.632 752.116 137.6 752.116 144.042Z" fill="#101828"/>
<path d="M707.174 161.394C704.77 161.394 702.751 160.963 701.118 160.101C699.485 159.239 698.056 158.105 696.831 156.699C695.651 155.292 694.517 153.75 693.429 152.071C692.43 150.393 691.569 149.123 690.843 148.261C690.117 147.353 689.436 146.741 688.801 146.423C688.211 146.106 687.531 145.947 686.76 145.947C685.353 145.947 684.287 146.401 683.562 147.308C682.836 148.17 682.473 149.327 682.473 150.779C682.473 152.185 682.768 153.591 683.357 154.998C683.947 156.404 684.741 157.81 685.739 159.217L679.411 161.734C678.322 160.283 677.415 158.581 676.689 156.631C676.008 154.68 675.668 152.752 675.668 150.847C675.668 147.626 676.666 144.972 678.662 142.885C680.704 140.798 683.335 139.755 686.556 139.755C689.278 139.755 691.5 140.39 693.224 141.66C694.948 142.885 696.672 144.858 698.396 147.58C699.938 150.03 701.322 151.89 702.547 153.16C703.817 154.43 705.496 155.066 707.582 155.066C709.715 155.066 711.234 154.34 712.142 152.888C713.094 151.391 713.571 149.531 713.571 147.308C713.571 144.45 712.958 141.796 711.733 139.346C710.509 136.851 708.83 134.742 706.698 133.018C704.611 131.249 702.229 130.001 699.553 129.275H675.804V123.083H712.686V129.275H710.917C713.911 131.408 716.247 133.971 717.926 136.965C719.604 139.959 720.444 143.316 720.444 147.036C720.444 151.618 719.287 155.156 716.973 157.651C714.705 160.146 711.439 161.394 707.174 161.394Z" fill="#101828"/>
<path d="M997.863 96C1000.63 96 1003.1 96.431 1005.28 97.2929C1007.5 98.1549 1009.39 99.3797 1010.93 100.968C1011.97 102.011 1012.88 103.327 1013.65 104.914C1014.47 106.457 1015.1 108.498 1015.56 111.039C1016.01 113.534 1016.24 116.732 1016.24 120.633V153.501H1009.09V122.267C1009.09 118.955 1008.96 116.188 1008.68 113.965C1008.41 111.742 1008 109.904 1007.46 108.453C1006.91 107.001 1006.21 105.799 1005.35 104.846C1004.4 103.757 1003.28 102.964 1002.01 102.465C1000.74 101.92 999.36 101.648 997.863 101.648C995.913 101.648 994.279 102.034 992.964 102.805C991.648 103.531 990.673 104.529 990.038 105.799C989.403 107.069 989.085 108.521 989.085 110.154C989.085 111.424 989.267 112.785 989.63 114.237C989.992 115.689 990.559 117.095 991.331 118.456H983.982C983.392 117.186 982.938 115.847 982.621 114.441C982.258 113.035 982.076 111.628 982.076 110.222C982.076 107.727 982.53 105.595 983.437 103.826C984.299 102.011 985.479 100.537 986.976 99.4024C988.427 98.2683 990.106 97.429 992.011 96.8846C993.917 96.2949 995.867 96 997.863 96Z" fill="#101828"/>
<path d="M975.928 167.927L971.301 163.64L983.958 151.663V121.246H971.573V153.501H964.428V115.666H1002.13V121.246H991.103V153.501L975.928 167.927Z" fill="#101828"/>
<path d="M919.77 153.501V115.666H957.468V121.246H946.444V153.501H939.299V121.246H926.915V153.501H919.77Z" fill="#101828"/>
<path d="M897.771 128.867C900.22 128.867 902.421 129.457 904.371 130.637C906.367 131.816 907.932 133.585 909.067 135.944C910.246 138.258 910.836 141.116 910.836 144.518C910.836 148.556 910.223 151.777 908.999 154.181C907.774 156.631 906.095 158.604 903.963 160.101C902.466 161.145 900.765 161.984 898.859 162.619C896.954 163.3 894.754 163.753 892.259 163.98C889.809 164.252 886.951 164.388 883.685 164.388H878.309C876.131 164.388 874.498 164.525 873.409 164.797C872.366 165.069 871.481 165.454 870.756 165.954C870.03 166.453 869.463 167.133 869.054 167.995C868.646 168.902 868.442 170.104 868.442 171.602C868.442 172.191 868.465 172.758 868.51 173.303C868.555 173.892 868.601 174.46 868.646 175.004L861.773 175.344C861.637 174.482 861.524 173.575 861.433 172.622C861.342 171.67 861.297 170.762 861.297 169.9C861.297 167.859 861.66 166.135 862.386 164.729C863.157 163.322 864.155 162.166 865.38 161.258C866.196 160.668 867.081 160.192 868.034 159.829C868.986 159.466 870.12 159.194 871.436 159.013C872.752 158.877 874.317 158.808 876.131 158.808H882.868C886.497 158.808 889.423 158.65 891.646 158.332C893.915 158.015 895.752 157.516 897.158 156.835C898.565 156.2 899.767 155.338 900.765 154.249C901.627 153.297 902.33 152.049 902.874 150.507C903.464 148.919 903.759 146.991 903.759 144.723C903.759 142.454 903.464 140.572 902.874 139.075C902.284 137.577 901.423 136.443 900.288 135.672C899.154 134.901 897.748 134.515 896.069 134.515C894.799 134.515 893.552 134.788 892.327 135.332C891.147 135.831 890.104 136.443 889.197 137.169L888.992 131.453C890.172 130.773 891.465 130.183 892.871 129.684C894.323 129.14 895.956 128.867 897.771 128.867ZM864.019 153.501V115.666H900.901V121.246H889.605V153.501H882.528V121.246H871.164V153.501H864.019Z" fill="#101828"/>
<path d="M1226.72 106.513C1228.54 106.513 1230.12 106.694 1231.48 107.057C1232.84 107.42 1234.07 107.987 1235.16 108.758C1236.52 109.756 1237.59 110.913 1238.36 112.229C1239.13 113.544 1239.67 115.246 1239.99 117.332C1240.35 119.419 1240.53 122.186 1240.53 125.634V164.013H1233.46V127.267C1233.46 124.954 1233.39 122.958 1233.25 121.279C1233.16 119.555 1232.98 118.126 1232.71 116.992C1232.44 115.813 1232.03 114.883 1231.48 114.202C1230.98 113.476 1230.35 112.932 1229.58 112.569C1228.85 112.161 1227.92 111.957 1226.79 111.957C1225.84 111.957 1224.91 112.161 1224 112.569C1223.09 112.977 1222.37 113.612 1221.82 114.474C1221.23 115.336 1220.94 116.493 1220.94 117.945C1220.94 118.353 1220.98 118.784 1221.07 119.238C1221.12 119.646 1221.16 120.032 1221.21 120.394L1214.34 121.483C1214.2 120.939 1214.09 120.372 1214 119.782C1213.9 119.192 1213.86 118.625 1213.86 118.081C1213.86 115.495 1214.45 113.34 1215.63 111.616C1216.76 109.892 1218.31 108.622 1220.26 107.806C1222.21 106.944 1224.36 106.513 1226.72 106.513Z" fill="#101828"/>
<path d="M1202.44 125.363C1206.44 125.363 1209.91 125.93 1212.86 127.064C1215.8 128.153 1218.25 129.718 1220.21 131.76C1222.2 133.756 1223.7 136.115 1224.7 138.837C1225.69 141.559 1226.19 144.507 1226.19 147.683C1226.19 151.675 1225.54 154.941 1224.22 157.482C1222.95 160.022 1221.18 161.882 1218.91 163.062C1216.69 164.241 1214.1 164.831 1211.15 164.831C1208.02 164.831 1205.44 164.173 1203.4 162.858C1201.4 161.497 1199.9 159.728 1198.91 157.55C1197.95 155.372 1197.48 153.013 1197.48 150.473C1197.48 146.209 1198.63 142.806 1200.95 140.266C1203.26 137.68 1206.44 136.387 1210.47 136.387C1213.06 136.387 1215.33 137.068 1217.28 138.429C1219.23 139.744 1220.75 141.445 1221.84 143.532C1222.97 145.574 1223.61 147.751 1223.74 150.065L1221.43 149.861C1221.11 148.5 1220.55 147.207 1219.73 145.982C1218.91 144.757 1217.85 143.759 1216.53 142.988C1215.21 142.171 1213.72 141.763 1212.04 141.763C1209.36 141.763 1207.41 142.557 1206.19 144.145C1204.96 145.732 1204.35 147.842 1204.35 150.473C1204.35 152.242 1204.58 153.807 1205.03 155.168C1205.53 156.484 1206.28 157.527 1207.28 158.299C1208.32 159.024 1209.66 159.387 1211.29 159.387C1213.01 159.387 1214.47 158.979 1215.65 158.162C1216.83 157.346 1217.73 156.053 1218.37 154.284C1219 152.514 1219.32 150.201 1219.32 147.343C1219.32 147.071 1219.28 146.504 1219.18 145.642C1219.14 144.734 1219.03 143.85 1218.84 142.988C1218.8 142.761 1218.78 142.489 1218.78 142.171C1218.78 141.808 1218.73 141.536 1218.64 141.355C1218.28 139.495 1217.42 137.771 1216.05 136.183C1214.74 134.595 1212.97 133.325 1210.75 132.372C1208.57 131.42 1205.91 130.943 1202.78 130.943C1199.43 130.943 1196.57 131.51 1194.21 132.644C1191.85 133.779 1190.04 135.412 1188.77 137.544C1187.54 139.676 1186.93 142.262 1186.93 145.301C1186.93 147.57 1187.25 149.611 1187.88 151.426C1188.52 153.24 1189.42 154.851 1190.6 156.257C1191.83 157.663 1193.26 158.956 1194.89 160.136L1190.47 164.695C1188.52 163.379 1186.73 161.814 1185.09 160C1183.46 158.185 1182.14 156.03 1181.15 153.535C1180.15 151.04 1179.65 148.227 1179.65 145.097C1179.65 142.557 1180.08 140.107 1180.94 137.748C1181.85 135.344 1183.21 133.211 1185.02 131.352C1186.88 129.492 1189.24 128.04 1192.1 126.996C1195 125.908 1198.45 125.363 1202.44 125.363Z" fill="#101828"/>
<path d="M1174.25 144.961C1174.25 147.592 1173.97 150.11 1173.43 152.514C1172.89 154.873 1171.98 156.983 1170.71 158.843C1169.44 160.703 1167.76 162.177 1165.67 163.266C1163.59 164.309 1160.96 164.831 1157.78 164.831C1155.28 164.831 1153.13 164.446 1151.31 163.674C1149.5 162.903 1147.98 161.905 1146.76 160.68C1145.58 159.41 1144.65 158.049 1143.97 156.597C1143.29 155.1 1142.79 153.649 1142.47 152.242L1149.61 150.949C1149.93 152.129 1150.39 153.376 1150.97 154.692C1151.56 156.008 1152.4 157.119 1153.49 158.026C1154.58 158.934 1156.01 159.387 1157.78 159.387C1160 159.387 1161.77 158.775 1163.09 157.55C1164.45 156.325 1165.42 154.647 1166.01 152.514C1166.65 150.337 1166.97 147.842 1166.97 145.029C1166.97 142.217 1166.65 139.744 1166.01 137.612C1165.42 135.48 1164.47 133.824 1163.16 132.644C1161.84 131.42 1160.14 130.807 1158.05 130.807C1156.37 130.807 1154.97 131.261 1153.83 132.168C1152.74 133.03 1151.88 134.096 1151.25 135.366C1150.61 136.637 1150.14 137.884 1149.82 139.109L1142.74 137.816C1143.15 136.319 1143.74 134.845 1144.51 133.393C1145.28 131.941 1146.28 130.603 1147.5 129.378C1148.73 128.153 1150.25 127.178 1152.06 126.452C1153.88 125.726 1156.01 125.363 1158.46 125.363C1161.45 125.363 1163.95 125.908 1165.95 126.996C1167.94 128.04 1169.55 129.492 1170.78 131.352C1172 133.166 1172.89 135.253 1173.43 137.612C1173.97 139.926 1174.25 142.375 1174.25 144.961Z" fill="#101828"/>
<path d="M1097.79 125.363C1099.88 125.363 1101.65 125.635 1103.1 126.18C1104.6 126.724 1105.89 127.473 1106.98 128.425C1108.07 129.333 1109.04 130.422 1109.91 131.692H1109.02C1110.52 129.469 1112.26 127.858 1114.26 126.86C1116.26 125.862 1118.73 125.363 1121.68 125.363C1125.26 125.363 1128.32 126.18 1130.86 127.813C1133.4 129.446 1135.33 131.669 1136.65 134.482C1138.01 137.294 1138.69 140.47 1138.69 144.008C1138.69 146.957 1138.28 149.656 1137.46 152.106C1136.69 154.511 1135.54 156.756 1133.99 158.843C1132.5 160.884 1130.64 162.812 1128.41 164.627L1123.72 160.204C1125.31 158.888 1126.67 157.459 1127.8 155.917C1128.98 154.329 1129.89 152.582 1130.52 150.677C1131.16 148.726 1131.48 146.572 1131.48 144.213C1131.48 141.536 1131.05 139.2 1130.18 137.204C1129.32 135.208 1128.12 133.665 1126.58 132.576C1125.03 131.488 1123.27 130.943 1121.27 130.943C1119.59 130.943 1118.21 131.238 1117.12 131.828C1116.03 132.418 1115.14 133.257 1114.46 134.346C1113.87 135.298 1113.47 136.478 1113.24 137.884C1113.06 139.245 1112.97 141.15 1112.97 143.6V164.015H1105.89V143.6C1105.89 141.15 1105.8 139.245 1105.62 137.884C1105.44 136.478 1105.03 135.298 1104.39 134.346C1103.71 133.211 1102.83 132.372 1101.74 131.828C1100.65 131.238 1099.34 130.943 1097.79 130.943C1095.84 130.943 1094.07 131.488 1092.48 132.576C1090.94 133.665 1089.72 135.208 1088.81 137.204C1087.9 139.154 1087.45 141.445 1087.45 144.076C1087.45 146.572 1087.77 148.794 1088.4 150.745C1089.08 152.696 1089.99 154.442 1091.12 155.985C1092.3 157.482 1093.64 158.843 1095.14 160.068L1090.31 164.627C1088.31 162.948 1086.56 161.134 1085.07 159.183C1083.57 157.232 1082.39 155.032 1081.53 152.582C1080.67 150.087 1080.24 147.252 1080.24 144.076C1080.24 140.402 1080.94 137.181 1082.35 134.414C1083.8 131.601 1085.82 129.401 1088.4 127.813C1091.03 126.18 1094.16 125.363 1097.79 125.363Z" fill="#101828"/>
<path d="M1414.71 143.973C1414.71 139.492 1415.63 135.525 1417.46 132.07C1419.35 128.615 1421.89 125.943 1425.07 124.054C1428.31 122.11 1431.88 121.139 1435.76 121.139C1439.27 121.139 1442.32 121.84 1444.91 123.244C1447.56 124.594 1449.66 126.294 1451.23 128.345V121.867H1460.54V166.483H1451.23V159.844C1449.66 161.949 1447.53 163.703 1444.83 165.107C1442.13 166.51 1439.05 167.212 1435.6 167.212C1431.77 167.212 1428.26 166.24 1425.07 164.297C1421.89 162.3 1419.35 159.547 1417.46 156.038C1415.63 152.475 1414.71 148.453 1414.71 143.973ZM1451.23 144.135C1451.23 141.058 1450.58 138.386 1449.28 136.119C1448.04 133.851 1446.4 132.124 1444.34 130.936C1442.29 129.749 1440.08 129.155 1437.71 129.155C1435.33 129.155 1433.12 129.749 1431.07 130.936C1429.01 132.07 1427.34 133.77 1426.05 136.038C1424.8 138.251 1424.18 140.896 1424.18 143.973C1424.18 147.05 1424.8 149.749 1426.05 152.07C1427.34 154.391 1429.01 156.173 1431.07 157.414C1433.17 158.602 1435.38 159.196 1437.71 159.196C1440.08 159.196 1442.29 158.602 1444.34 157.414C1446.4 156.227 1448.04 154.499 1449.28 152.232C1450.58 149.911 1451.23 147.212 1451.23 144.135Z" fill="#101828"/>
<path d="M1359.83 143.973C1359.83 139.492 1360.74 135.525 1362.58 132.07C1364.47 128.615 1367.01 125.943 1370.19 124.054C1373.43 122.11 1376.99 121.139 1380.88 121.139C1384.39 121.139 1387.44 121.84 1390.03 123.244C1392.67 124.594 1394.78 126.294 1396.34 128.345V121.867H1405.66V166.483H1396.34V159.844C1394.78 161.949 1392.65 163.703 1389.95 165.107C1387.25 166.51 1384.17 167.212 1380.72 167.212C1376.88 167.212 1373.38 166.24 1370.19 164.297C1367.01 162.3 1364.47 159.547 1362.58 156.038C1360.74 152.475 1359.83 148.453 1359.83 143.973ZM1396.34 144.135C1396.34 141.058 1395.7 138.386 1394.4 136.119C1393.16 133.851 1391.51 132.124 1389.46 130.936C1387.41 129.749 1385.2 129.155 1382.82 129.155C1380.45 129.155 1378.23 129.749 1376.18 130.936C1374.13 132.07 1372.46 133.77 1371.16 136.038C1369.92 138.251 1369.3 140.896 1369.3 143.973C1369.3 147.05 1369.92 149.749 1371.16 152.07C1372.46 154.391 1374.13 156.173 1376.18 157.414C1378.29 158.602 1380.5 159.196 1382.82 159.196C1385.2 159.196 1387.41 158.602 1389.46 157.414C1391.51 156.227 1393.16 154.499 1394.4 152.232C1395.7 149.911 1396.34 147.212 1396.34 144.135Z" fill="#101828"/>
<path d="M1350.77 166.485H1341.54L1313.77 124.46V166.485H1304.54V110.128H1313.77L1341.54 152.072V110.128H1350.77V166.485Z" fill="#101828"/>
</g>
<defs>
<clipPath id="clip0_307_7809">
<rect width="1440" height="271.344" fill="white"/>
</clipPath>
</defs>
</svg>
