<svg width="56" height="56" viewBox="0 0 56 56" fill="none" xmlns="http://www.w3.org/2000/svg">
<rect x="4" y="4" width="48" height="48" rx="24" fill="#F4EBFF"/>
<rect x="4" y="4" width="48" height="48" rx="24" stroke="#F9F5FF" stroke-width="8"/>
<path fill-rule="evenodd" clip-rule="evenodd" d="M31.7274 30.0838C31.2771 29.8296 30.7721 29.6985 30.2602 29.7015H30.2558H27.8735C28.0435 32.9798 28.1318 34.7913 28.1776 35.7891C28.1862 35.9775 28.1934 36.137 28.1993 36.2721H30.0239C31.0452 36.2702 31.8571 35.7434 32.6757 34.8742L33.2138 34.3027L33.7617 34.8648C33.9325 35.04 34.0832 35.2529 34.204 35.4289C34.2396 35.4806 34.2731 35.53 34.3053 35.5774C34.3944 35.7088 34.4736 35.8258 34.5598 35.9396C34.7799 36.2309 34.8795 36.2683 34.8838 36.2721H38.6329C39.0416 36.2721 39.4906 35.8271 39.4906 35.2829C39.4906 34.7404 39.0439 34.2938 38.5428 34.2938H36.2336L36.0928 34.2339C35.0078 33.773 34.2558 32.8227 33.6383 32.0343C33.621 32.0123 33.6039 31.9903 33.5867 31.9684C32.9428 31.1461 32.4144 30.4713 31.7274 30.0838ZM32.4667 28.7738C31.7901 28.392 31.0282 28.1932 30.2537 28.1973H26.2891L26.3304 28.9885C26.5274 32.7704 26.6258 34.7873 26.675 35.8581C26.6996 36.3936 26.7119 36.6913 26.7179 36.8542C26.7209 36.9357 26.7223 36.9824 26.723 37.0077L26.7235 37.029L26.7236 37.7763H30.0264C31.303 37.7741 32.3048 37.2358 33.1296 36.5236C33.2022 36.6296 33.2807 36.7419 33.3598 36.8466C33.6133 37.1819 34.1072 37.7763 34.8721 37.7763H38.6329C40.0395 37.7763 40.9947 36.4801 40.9947 35.2829C40.9947 33.9641 39.9281 32.7896 38.5428 32.7896H36.5515C35.9394 32.4826 35.4364 31.8905 34.8225 31.1068C34.7844 31.0582 34.7458 31.0088 34.7067 30.9586C34.1234 30.2109 33.4235 29.3136 32.4667 28.7738Z" fill="#6941C6"/>
<path fill-rule="evenodd" clip-rule="evenodd" d="M19.3744 34.017H16.5541C15.9311 34.017 15.426 34.5221 15.426 35.1451C15.426 35.7681 15.9311 36.2732 16.5541 36.2732H19.9385C20.2935 36.2732 20.6279 36.106 20.8409 35.822L23.0972 32.8137C23.471 32.3153 23.3699 31.6082 22.8715 31.2343C22.3731 30.8605 21.666 30.9615 21.2922 31.4599L19.3744 34.017ZM18.6223 32.5128H16.5541C15.1004 32.5128 13.9219 33.6913 13.9219 35.1451C13.9219 36.5989 15.1004 37.7774 16.5541 37.7774H19.9385C20.767 37.7774 21.5471 37.3873 22.0443 36.7245L24.3005 33.7162C25.1727 32.5532 24.937 30.9033 23.774 30.031C22.611 29.1587 20.9611 29.3944 20.0889 30.5575L18.6223 32.5128Z" fill="#6941C6"/>
<path fill-rule="evenodd" clip-rule="evenodd" d="M36.1072 26.4964C37.9763 26.4964 39.4916 24.9812 39.4916 23.1121C39.4916 21.243 37.9763 19.7278 36.1072 19.7278C34.2381 19.7278 32.7229 21.243 32.7229 23.1121C32.7229 24.9812 34.2381 26.4964 36.1072 26.4964ZM36.1072 28.0006C38.8071 28.0006 40.9957 25.812 40.9957 23.1121C40.9957 20.4122 38.8071 18.2236 36.1072 18.2236C33.4074 18.2236 31.2188 20.4122 31.2188 23.1121C31.2188 25.812 33.4074 28.0006 36.1072 28.0006Z" fill="#6941C6"/>
</svg>
