<svg width="56" height="56" viewBox="0 0 56 56" fill="none" xmlns="http://www.w3.org/2000/svg">
<rect x="4" y="4" width="48" height="48" rx="24" fill="#F4EBFF"/>
<rect x="4" y="4" width="48" height="48" rx="24" stroke="#F9F5FF" stroke-width="8"/>
<path fill-rule="evenodd" clip-rule="evenodd" d="M27.8751 20.9237C27.9263 20.9128 27.9774 20.9019 28.0282 20.8913C30.9945 19.4622 33.5508 18.4351 37.0938 19.3423C37.6231 19.4778 37.9689 19.9573 37.9689 20.4795V20.6465C38.3965 20.7323 38.8392 20.8306 39.3009 20.9418C39.5654 21.0056 39.7502 21.2432 39.7502 21.5152V36.6788C39.7502 37.0546 39.4042 37.3352 39.0351 37.2648C35.3464 36.5611 32.8597 36.5118 29.4629 37.0269C29.1683 37.6045 28.5679 38 27.8751 38C27.1822 38 26.5818 37.6045 26.2873 37.0269C22.8905 36.5118 20.4038 36.5611 16.715 37.2648C16.346 37.3352 16 37.0546 16 36.6788V21.5152C16 21.2432 16.1848 21.0056 16.4492 20.9418C16.911 20.8306 17.3537 20.7323 17.7813 20.6465V20.4795C17.7813 19.9573 18.1271 19.4778 18.6564 19.3423C22.1994 18.4351 24.7557 19.4622 27.722 20.8913C27.7728 20.9019 27.8238 20.9128 27.8751 20.9237ZM28.4688 21.9966C31.4253 20.5689 33.6546 19.693 36.7814 20.4881V33.8765C36.7814 33.8765 36.7794 33.8795 36.777 33.8814C36.7685 33.8882 36.7575 33.8913 36.7455 33.8891C33.8368 33.3554 31.5914 33.9106 29.1485 34.9732C28.96 34.7805 28.7282 34.6305 28.4688 34.5388V21.9966ZM27.2813 21.9972V34.5388C27.022 34.6305 26.7902 34.7805 26.6017 34.9732C24.1588 33.9106 21.9134 33.3554 19.0047 33.8891C18.9927 33.8913 18.9817 33.8882 18.9732 33.8814L18.9723 33.8806C18.9703 33.8787 18.9688 33.8765 18.9688 33.8765V20.4881C22.0955 19.693 24.3249 20.5695 27.2813 21.9972ZM38.5627 21.9884C38.361 21.9424 38.1633 21.8992 37.9689 21.8585V33.8765C37.9689 34.6544 37.2502 35.189 36.5312 35.0571C34.2893 34.6457 32.4936 34.9429 30.5506 35.6822C33.2659 35.3654 35.5549 35.4435 38.5627 35.971V21.9884ZM25.1996 35.6822C23.2567 34.9429 21.4609 34.6457 19.219 35.0571C18.4999 35.189 17.7813 34.6544 17.7813 33.8765V21.8585C17.5869 21.8992 17.3892 21.9424 17.1875 21.9884V35.971C20.1952 35.4435 22.4843 35.3654 25.1996 35.6822Z" fill="#6941C6"/>
</svg>
