<svg width="56" height="56" viewBox="0 0 56 56" fill="none" xmlns="http://www.w3.org/2000/svg">
<rect x="4" y="4" width="48" height="48" rx="24" fill="#F4EBFF"/>
<rect x="4" y="4" width="48" height="48" rx="24" stroke="#F9F5FF" stroke-width="8"/>
<path fill-rule="evenodd" clip-rule="evenodd" d="M31.0014 22.6667C31.0014 24.1401 29.808 25.3334 28.3347 25.3334C26.8613 25.3334 25.668 24.1401 25.668 22.6667C25.668 21.1934 26.8613 20 28.3347 20C29.808 20 31.0014 21.1934 31.0014 22.6667ZM29.668 22.6667C29.668 23.4037 29.0716 24.0001 28.3347 24.0001C27.5977 24.0001 27.0013 23.4037 27.0013 22.6667C27.0013 21.9298 27.5977 21.3334 28.3347 21.3334C29.0716 21.3334 29.668 21.9298 29.668 22.6667Z" fill="#6941C6"/>
<path fill-rule="evenodd" clip-rule="evenodd" d="M24.336 23.6666C24.336 25.324 22.9935 26.6666 21.336 26.6666C19.6785 26.6666 18.3359 25.324 18.3359 23.6666C18.3359 22.009 19.6785 20.6665 21.336 20.6665C22.9935 20.6665 24.336 22.009 24.336 23.6666ZM23.0027 23.6666C23.0027 24.5877 22.2571 25.3332 21.336 25.3332C20.4148 25.3332 19.6693 24.5877 19.6693 23.6666C19.6693 22.7454 20.4148 21.9999 21.336 21.9999C22.2571 21.9999 23.0027 22.7454 23.0027 23.6666Z" fill="#6941C6"/>
<path fill-rule="evenodd" clip-rule="evenodd" d="M15 31.6363C15 29.2181 19.4417 27.9999 21.6668 27.9999C22.2009 27.9999 22.8628 28.0701 23.5603 28.2102C24.4222 27.5395 26.1155 26.6665 28.3335 26.6665C30.5516 26.6665 32.2449 27.5395 33.1068 28.2102C33.8043 28.0701 34.4662 27.9999 35.0003 27.9999C37.2254 27.9999 41.6671 29.2181 41.6671 31.6363V36H15V31.6363ZM16.3334 31.6363C16.3334 31.4784 16.3959 31.2683 16.6748 30.9875C16.9659 30.6944 17.4269 30.3979 18.0329 30.133C19.2522 29.6002 20.737 29.3332 21.6668 29.3332C22.5965 29.3332 24.0813 29.6002 25.3006 30.133C25.9066 30.3979 26.3677 30.6944 26.6587 30.9875C26.9376 31.2683 27.0002 31.4784 27.0002 31.6363V34.6666H16.3334V31.6363ZM31.3675 28.6968C30.6219 28.3301 29.5837 27.9999 28.3335 27.9999C27.0834 27.9999 26.0452 28.3301 25.2996 28.6968C26.9265 29.2943 28.3335 30.2752 28.3335 31.6363C28.3335 30.2752 29.7406 29.2943 31.3675 28.6968ZM30.0084 30.9875C29.7295 31.2683 29.6669 31.4784 29.6669 31.6363V34.6666H40.3337V31.6363C40.3337 31.4784 40.2711 31.2683 39.9923 30.9875C39.7012 30.6944 39.2402 30.3979 38.6342 30.133C37.4149 29.6002 35.9301 29.3332 35.0003 29.3332C34.0706 29.3332 32.5858 29.6002 31.3665 30.133C30.7605 30.3979 30.2994 30.6944 30.0084 30.9875Z" fill="#6941C6"/>
<path fill-rule="evenodd" clip-rule="evenodd" d="M35.336 26.6666C36.9935 26.6666 38.336 25.324 38.336 23.6666C38.336 22.009 36.9935 20.6665 35.336 20.6665C33.6785 20.6665 32.3359 22.009 32.3359 23.6666C32.3359 25.324 33.6785 26.6666 35.336 26.6666ZM35.336 25.3332C36.2571 25.3332 37.0027 24.5877 37.0027 23.6666C37.0027 22.7454 36.2571 21.9999 35.336 21.9999C34.4148 21.9999 33.6693 22.7454 33.6693 23.6666C33.6693 24.5877 34.4148 25.3332 35.336 25.3332Z" fill="#6941C6"/>
</svg>
