<svg width="56" height="56" viewBox="0 0 56 56" fill="none" xmlns="http://www.w3.org/2000/svg">
<rect x="4" y="4" width="48" height="48" rx="24" fill="#F4EBFF"/>
<rect x="4" y="4" width="48" height="48" rx="24" stroke="#F9F5FF" stroke-width="8"/>
<path fill-rule="evenodd" clip-rule="evenodd" d="M31.3536 22.0617C30.7844 21.7877 30.1191 21.5542 29.332 21.3333C30.1191 21.1124 30.7844 20.8788 31.3536 20.6048C32.5681 20.0203 33.3456 19.2516 33.9366 18.0284C34.2115 17.4596 34.4459 16.7926 34.6653 16C34.8847 16.7926 35.1192 17.4596 35.394 18.0284C35.985 19.2516 36.7626 20.0203 37.977 20.6048C38.5463 20.8788 39.2115 21.1124 39.9986 21.3333C39.2115 21.5542 38.5463 21.7877 37.977 22.0617C36.7626 22.6463 35.985 23.4149 35.394 24.6381C35.1192 25.2069 34.8847 25.874 34.6653 26.6666C34.4459 25.874 34.2115 25.2069 33.9366 24.6381C33.3456 23.4149 32.5681 22.6463 31.3536 22.0617ZM33.8136 22.1595C33.4977 21.8459 33.1536 21.5737 32.781 21.3333C33.1536 21.0929 33.4977 20.8206 33.8136 20.507C34.1371 20.186 34.4177 19.8348 34.6653 19.4524C34.9129 19.8348 35.1936 20.186 35.517 20.507C35.833 20.8206 36.177 21.0929 36.5496 21.3333C36.177 21.5737 35.833 21.8459 35.517 22.1595C35.1936 22.4806 34.9129 22.8318 34.6653 23.2142C34.4177 22.8318 34.1371 22.4806 33.8136 22.1595Z" fill="#6941C6"/>
<path fill-rule="evenodd" clip-rule="evenodd" d="M18.2026 31.3758C17.535 31.1255 16.8038 30.8923 16 30.6667C16.8038 30.4411 17.535 30.208 18.2026 29.9577C21.5912 28.687 23.3407 26.973 24.6243 23.5496C24.8755 22.8795 25.1089 22.144 25.3332 21.3335C25.5576 22.144 25.791 22.8795 26.0422 23.5496C27.3258 26.973 29.0753 28.687 32.4639 29.9577C33.1315 30.208 33.8627 30.4411 34.6665 30.6667C33.8627 30.8923 33.1315 31.1255 32.4639 31.3758C29.0753 32.6465 27.3258 34.3604 26.0422 37.7839C25.791 38.4539 25.5576 39.1895 25.3332 40C25.1089 39.1895 24.8755 38.4539 24.6243 37.7839C23.3407 34.3604 21.5912 32.6465 18.2026 31.3758ZM23.1382 32.8224C22.2429 31.9337 21.1938 31.2429 19.9614 30.6667C21.1938 30.0906 22.2429 29.3998 23.1382 28.5111C24.0413 27.6146 24.7462 26.5582 25.3332 25.3064C25.9203 26.5582 26.6252 27.6146 27.5283 28.5111C28.4236 29.3998 29.4727 30.0906 30.7051 30.6667C29.4727 31.2429 28.4236 31.9337 27.5283 32.8224C26.6252 33.7189 25.9203 34.7752 25.3332 36.0271C24.7462 34.7752 24.0413 33.7189 23.1382 32.8224Z" fill="#6941C6"/>
</svg>
