<svg width="56" height="56" viewBox="0 0 56 56" fill="none" xmlns="http://www.w3.org/2000/svg">
<rect x="4" y="4" width="48" height="48" rx="24" fill="#F4EBFF"/>
<rect x="4" y="4" width="48" height="48" rx="24" stroke="#F9F5FF" stroke-width="8"/>
<path d="M30.2641 31.1405C31.4662 30.3862 32.3917 29.258 32.9007 27.9266C33.4096 26.5952 33.4743 25.133 33.085 23.7612C32.6956 22.3895 31.8734 21.1828 30.7427 20.3237C29.612 19.4647 28.2344 19 26.8182 19C25.402 19 24.0244 19.4647 22.8937 20.3237C21.763 21.1828 20.9407 22.3895 20.5514 23.7612C20.162 25.133 20.2267 26.5952 20.7357 27.9266C21.2447 29.258 22.1702 30.3862 23.3723 31.1405C21.3929 31.7933 19.612 33.0129 18.18 34.7299C18.049 34.8868 17.9853 35.0896 18.0029 35.2938C18.0204 35.498 18.1177 35.6868 18.2734 35.8187C18.4291 35.9506 18.6305 36.0148 18.8331 35.9971C19.0358 35.9795 19.2232 35.8814 19.3541 35.7246C21.2779 33.4108 23.9292 32.1371 26.8134 32.1371C29.6976 32.1371 32.3489 33.4108 34.2774 35.7246C34.4084 35.8814 34.5958 35.9795 34.7984 35.9971C35.0011 36.0148 35.2025 35.9506 35.3582 35.8187C35.5139 35.6868 35.6112 35.498 35.6287 35.2938C35.6463 35.0896 35.5825 34.8868 35.4516 34.7299C34.0196 33.0129 32.2386 31.7933 30.2641 31.1405ZM21.8291 25.5705C21.8291 24.5773 22.1214 23.6064 22.6691 22.7807C23.2168 21.9549 23.9952 21.3113 24.906 20.9312C25.8167 20.5511 26.8189 20.4517 27.7858 20.6454C28.7527 20.8392 29.6408 21.3174 30.3378 22.0197C31.0349 22.722 31.5096 23.6167 31.702 24.5908C31.8943 25.5649 31.7956 26.5746 31.4183 27.4921C31.0411 28.4097 30.4022 29.1939 29.5825 29.7457C28.7629 30.2975 27.7992 30.592 26.8134 30.592C25.4919 30.5904 24.225 30.0609 23.2906 29.1195C22.3562 28.1781 21.8306 26.9018 21.8291 25.5705ZM40.7753 28.8209L37.708 31.9111C37.6368 31.9829 37.5522 32.0399 37.4591 32.0788C37.366 32.1177 37.2662 32.1377 37.1655 32.1377C37.0647 32.1377 36.9649 32.1177 36.8718 32.0788C36.7787 32.0399 36.6942 31.9829 36.6229 31.9111L35.0893 30.366C34.9454 30.2211 34.8646 30.0244 34.8646 29.8194C34.8646 29.6144 34.9454 29.4178 35.0893 29.2729C35.2332 29.1279 35.4283 29.0465 35.6318 29.0465C35.8353 29.0465 36.0305 29.1279 36.1744 29.2729L37.1655 30.2723L39.6902 27.7278C39.8341 27.5828 40.0293 27.5014 40.2328 27.5014C40.4362 27.5014 40.6314 27.5828 40.7753 27.7278C40.9192 27.8727 41 28.0694 41 28.2744C41 28.4794 40.9192 28.676 40.7753 28.8209Z" fill="#6941C6"/>
</svg>
