<svg width="56" height="56" viewBox="0 0 56 56" fill="none" xmlns="http://www.w3.org/2000/svg">
<rect x="4" y="4" width="48" height="48" rx="24" fill="#F4EBFF"/>
<rect x="4" y="4" width="48" height="48" rx="24" stroke="#F9F5FF" stroke-width="8"/>
<path d="M35.5 19H33.25V18.25C33.25 18.0511 33.171 17.8603 33.0303 17.7197C32.8897 17.579 32.6989 17.5 32.5 17.5C32.3011 17.5 32.1103 17.579 31.9697 17.7197C31.829 17.8603 31.75 18.0511 31.75 18.25V19H24.25V18.25C24.25 18.0511 24.171 17.8603 24.0303 17.7197C23.8897 17.579 23.6989 17.5 23.5 17.5C23.3011 17.5 23.1103 17.579 22.9697 17.7197C22.829 17.8603 22.75 18.0511 22.75 18.25V19H20.5C20.1022 19 19.7206 19.158 19.4393 19.4393C19.158 19.7206 19 20.1022 19 20.5V35.5C19 35.8978 19.158 36.2794 19.4393 36.5607C19.7206 36.842 20.1022 37 20.5 37H35.5C35.8978 37 36.2794 36.842 36.5607 36.5607C36.842 36.2794 37 35.8978 37 35.5V20.5C37 20.1022 36.842 19.7206 36.5607 19.4393C36.2794 19.158 35.8978 19 35.5 19ZM22.75 20.5V21.25C22.75 21.4489 22.829 21.6397 22.9697 21.7803C23.1103 21.921 23.3011 22 23.5 22C23.6989 22 23.8897 21.921 24.0303 21.7803C24.171 21.6397 24.25 21.4489 24.25 21.25V20.5H31.75V21.25C31.75 21.4489 31.829 21.6397 31.9697 21.7803C32.1103 21.921 32.3011 22 32.5 22C32.6989 22 32.8897 21.921 33.0303 21.7803C33.171 21.6397 33.25 21.4489 33.25 21.25V20.5H35.5V23.5H20.5V20.5H22.75ZM35.5 35.5H20.5V25H35.5V35.5ZM31.9056 27.4694C31.9754 27.539 32.0307 27.6217 32.0684 27.7128C32.1062 27.8038 32.1256 27.9014 32.1256 28C32.1256 28.0986 32.1062 28.1962 32.0684 28.2872C32.0307 28.3783 31.9754 28.461 31.9056 28.5306L27.4056 33.0306C27.336 33.1004 27.2533 33.1557 27.1622 33.1934C27.0712 33.2312 26.9736 33.2506 26.875 33.2506C26.7764 33.2506 26.6788 33.2312 26.5878 33.1934C26.4967 33.1557 26.414 33.1004 26.3444 33.0306L24.0944 30.7806C23.9536 30.6399 23.8746 30.449 23.8746 30.25C23.8746 30.051 23.9536 29.8601 24.0944 29.7194C24.2351 29.5786 24.426 29.4996 24.625 29.4996C24.824 29.4996 25.0149 29.5786 25.1556 29.7194L26.875 31.4397L30.8444 27.4694C30.914 27.3996 30.9967 27.3443 31.0878 27.3066C31.1788 27.2688 31.2764 27.2494 31.375 27.2494C31.4736 27.2494 31.5712 27.2688 31.6622 27.3066C31.7533 27.3443 31.836 27.3996 31.9056 27.4694Z" fill="#6941C6"/>
</svg>
