<svg width="136" height="100" viewBox="0 0 136 100" fill="none" xmlns="http://www.w3.org/2000/svg">
<rect x="0.5" y="0.5" width="135" height="99" rx="9.5" fill="white"/>
<rect x="0.5" y="0.5" width="135" height="99" rx="9.5" stroke="#E8E4FF"/>
<path d="M98.9544 64.6963C98.9544 64.6963 115.677 38.6431 107.971 21.982C100.265 5.32085 81.8724 5.2257 75.514 12.1889C71.6278 16.445 72.7605 23.5538 63.5602 26.304C57.9321 27.9862 53.835 25.2889 45.4448 22.3637C37.0547 19.4385 27.3138 25.7977 26.1169 35.9516C24.7735 47.3486 35.1472 53.3064 40.8418 57.4088C46.5365 61.5113 43.6524 68.3158 46.0132 74.6879C48.3741 81.0601 86.4517 87.8243 98.9544 64.6963Z" fill="#E4E4FF"/>
<path opacity="0.67" d="M103.956 30C103.956 30 104.946 18.5617 97.5175 12.8757C91.1286 7.98548 84.742 10.3566 82.732 12.5052C80.7219 14.6539 82.9213 17.2471 88.4737 16.8767C94.0261 16.5063 102.447 20.3344 103.956 30Z" fill="white"/>
<path d="M61.7638 92.1738C66.7863 92.1738 70.8577 91.2937 70.8577 90.208C70.8577 89.1223 66.7863 88.2422 61.7638 88.2422C56.7414 88.2422 52.6699 89.1223 52.6699 90.208C52.6699 91.2937 56.7414 92.1738 61.7638 92.1738Z" fill="#ECECFF"/>
<path d="M94.0275 90.2075C99.0499 90.2075 103.121 89.3274 103.121 88.2417C103.121 87.156 99.0499 86.2759 94.0275 86.2759C89.0051 86.2759 84.9336 87.156 84.9336 88.2417C84.9336 89.3274 89.0051 90.2075 94.0275 90.2075Z" fill="#ECECFF"/>
<path d="M79.559 88.2417C92.5918 88.2417 103.157 87.3616 103.157 86.2759C103.157 85.1902 92.5918 84.3101 79.559 84.3101C66.5261 84.3101 55.9609 85.1902 55.9609 86.2759C55.9609 87.3616 66.5261 88.2417 79.559 88.2417Z" fill="#ECECFF"/>
<path d="M50.9125 86.9038C63.9454 86.9038 74.5106 86.0237 74.5106 84.938C74.5106 83.8523 63.9454 82.9722 50.9125 82.9722C37.8797 82.9722 27.3145 83.8523 27.3145 84.938C27.3145 86.0237 37.8797 86.9038 50.9125 86.9038Z" fill="#ECECFF"/>
<path d="M45.3573 61.303C53.6351 61.303 60.3455 54.5926 60.3455 46.3148C60.3455 38.0371 53.6351 31.3267 45.3573 31.3267C37.0796 31.3267 30.3691 38.0371 30.3691 46.3148C30.3691 54.5926 37.0796 61.303 45.3573 61.303Z" fill="#ACDAFF"/>
<path d="M45.3651 59.2967C52.5351 59.2967 58.3474 53.4843 58.3474 46.3143C58.3474 39.1444 52.5351 33.332 45.3651 33.332C38.1952 33.332 32.3828 39.1444 32.3828 46.3143C32.3828 53.4843 38.1952 59.2967 45.3651 59.2967Z" fill="#E6FFFF"/>
<path opacity="0.57" d="M50.0098 46.8208C51.8205 44.0846 52.0125 39.1538 51.1025 36.5274C49.444 35.5532 47.5168 34.9854 45.4551 34.9691C39.1889 34.9199 34.0691 39.9597 34.0199 46.2261C34.0057 48.0383 34.4192 49.7532 35.1628 51.2786C35.251 51.2911 35.3444 51.2831 35.4269 51.3174C39.571 53.0453 46.6055 51.9653 50.0098 46.8208Z" fill="#FFFAFF"/>
<path d="M45.4328 37.562C45.6511 37.5637 45.831 37.3865 45.8327 37.1682L45.8518 34.7383C45.8535 34.52 45.6763 34.3401 45.458 34.3384C45.2398 34.3367 45.0598 34.5139 45.0581 34.7321L45.0391 37.1621C45.0376 37.3804 45.2145 37.5603 45.4328 37.562Z" fill="#ACDAFF"/>
<path d="M45.2668 58.2856C45.4851 58.2873 45.665 58.1101 45.6667 57.8919L45.6858 55.4619C45.6875 55.2436 45.5103 55.0637 45.292 55.062C45.0738 55.0603 44.8938 55.2375 44.8921 55.4558L44.8731 57.8857C44.8716 58.104 45.0485 58.2839 45.2668 58.2856Z" fill="#ACDAFF"/>
<path d="M54.1133 46.382C54.1116 46.6003 54.2888 46.7803 54.5071 46.782L56.937 46.801C57.1553 46.8027 57.3352 46.6256 57.3369 46.4073C57.3386 46.189 57.1614 46.0091 56.9431 46.0074L54.5132 45.9883C54.2949 45.9868 54.115 46.1638 54.1133 46.382Z" fill="#ACDAFF"/>
<path d="M33.3887 46.219C33.387 46.4372 33.5642 46.6172 33.7824 46.6189L36.2124 46.6379C36.4307 46.6396 36.6106 46.4625 36.6123 46.2442C36.614 46.0259 36.4368 45.846 36.2185 45.8443L33.7886 45.8252C33.5703 45.8235 33.3904 46.0007 33.3887 46.219Z" fill="#ACDAFF"/>
<path d="M50.7639 37.5273C50.983 37.5273 51.1606 37.3497 51.1606 37.1306C51.1606 36.9115 50.983 36.7339 50.7639 36.7339C50.5448 36.7339 50.3672 36.9115 50.3672 37.1306C50.3672 37.3497 50.5448 37.5273 50.7639 37.5273Z" fill="#ACDAFF"/>
<path d="M39.9651 55.8921C40.1842 55.8921 40.3618 55.7145 40.3618 55.4954C40.3618 55.2763 40.1842 55.0986 39.9651 55.0986C39.746 55.0986 39.5684 55.2763 39.5684 55.4954C39.5684 55.7145 39.746 55.8921 39.9651 55.8921Z" fill="#ACDAFF"/>
<path d="M54.6311 41.457C54.8502 41.457 55.0278 41.2794 55.0278 41.0603C55.0278 40.8412 54.8502 40.6636 54.6311 40.6636C54.412 40.6636 54.2344 40.8412 54.2344 41.0603C54.2344 41.2794 54.412 41.457 54.6311 41.457Z" fill="#ACDAFF"/>
<path d="M36.0979 51.9634C36.317 51.9634 36.4946 51.7858 36.4946 51.5666C36.4946 51.3475 36.317 51.1699 36.0979 51.1699C35.8788 51.1699 35.7012 51.3475 35.7012 51.5666C35.7012 51.7858 35.8788 51.9634 36.0979 51.9634Z" fill="#ACDAFF"/>
<path d="M54.5491 52.1079C54.7682 52.1079 54.9458 51.9303 54.9458 51.7112C54.9458 51.4921 54.7682 51.3145 54.5491 51.3145C54.33 51.3145 54.1523 51.4921 54.1523 51.7112C54.1523 51.9303 54.33 52.1079 54.5491 52.1079Z" fill="#ACDAFF"/>
<path d="M36.1799 41.3125C36.399 41.3125 36.5767 41.1349 36.5767 40.9158C36.5767 40.6967 36.399 40.519 36.1799 40.519C35.9608 40.519 35.7832 40.6967 35.7832 40.9158C35.7832 41.1349 35.9608 41.3125 36.1799 41.3125Z" fill="#ACDAFF"/>
<path d="M50.6155 55.9761C50.8346 55.9761 51.0122 55.7984 51.0122 55.5793C51.0122 55.3602 50.8346 55.1826 50.6155 55.1826C50.3964 55.1826 50.2188 55.3602 50.2188 55.5793C50.2188 55.7984 50.3964 55.9761 50.6155 55.9761Z" fill="#ACDAFF"/>
<path d="M40.1057 37.4443C40.3248 37.4443 40.5024 37.2667 40.5024 37.0476C40.5024 36.8285 40.3248 36.6509 40.1057 36.6509C39.8866 36.6509 39.709 36.8285 39.709 37.0476C39.709 37.2667 39.8866 37.4443 40.1057 37.4443Z" fill="#ACDAFF"/>
<path d="M49.3918 43.3302C50.5786 42.8671 56.1169 40.4849 56.1169 40.4849L56.1372 40.5228L56.1775 40.5978L56.1978 40.6358C56.1978 40.6358 51.1572 43.9435 50.1168 44.6784C49.0765 45.4134 45.3875 46.5629 45.3875 46.5629L45.3203 46.4378L45.2801 46.3628L45.2129 46.2378C45.2129 46.2378 48.2053 43.7932 49.3918 43.3302Z" fill="#FFBC00"/>
<path d="M41.5947 47.1183C40.6864 46.9776 36.3756 46.5168 36.3756 46.5168L36.375 46.4738L36.3737 46.3886L36.373 46.3456C36.373 46.3456 40.6681 45.7558 41.5718 45.5878C42.4754 45.4197 45.2042 46.1142 45.2042 46.1142L45.2063 46.2562L45.2076 46.3414L45.2097 46.4833C45.2097 46.4833 42.503 47.2592 41.5947 47.1183Z" fill="#FFBC00"/>
<path d="M45.362 47.1073C45.8003 47.1073 46.1557 46.752 46.1557 46.3137C46.1557 45.8754 45.8003 45.52 45.362 45.52C44.9237 45.52 44.5684 45.8754 44.5684 46.3137C44.5684 46.752 44.9237 47.1073 45.362 47.1073Z" fill="#ACDAFF"/>
<path d="M37.4889 62.5225L33.9587 83.6692C33.918 83.9127 34.1058 84.1344 34.3527 84.1344C34.5406 84.1344 34.7032 84.0034 34.743 83.8197L39.3651 62.5225H37.4889Z" fill="#ACDAFF"/>
<path d="M40.9022 61.2519L38.4149 82.5465C38.3863 82.7917 38.5846 83.0041 38.8313 82.9918C39.0191 82.9824 39.175 82.8436 39.2058 82.6582L42.7763 61.1597L40.9022 61.2519Z" fill="#ACDAFF"/>
<path d="M55.4914 62.5225L59.0217 83.6692C59.0623 83.9127 58.8746 84.1344 58.6277 84.1344C58.4397 84.1344 58.2772 84.0034 58.2373 83.8197L53.6152 62.5225H55.4914Z" fill="#ACDAFF"/>
<path d="M52.077 61.2519L54.5645 82.5465C54.5932 82.7917 54.3948 83.0041 54.1481 82.9918C53.9603 82.9824 53.8044 82.8436 53.7736 82.6582L50.2031 61.1597L52.077 61.2519Z" fill="#ACDAFF"/>
<path d="M58.4795 63.0151H34.8535C34.3165 63.0151 33.877 62.5756 33.877 62.0386C33.877 61.5015 34.3165 61.062 34.8535 61.062H58.4795C59.0166 61.062 59.4561 61.5015 59.4561 62.0386C59.4561 62.5758 59.0166 63.0151 58.4795 63.0151Z" fill="#2099FF"/>
<path d="M90.7893 86.5131H64.98C63.1534 86.5131 60.3149 85.1398 60.5268 83.3133L68.4096 28.444C68.6215 26.6174 70.2741 25.1364 72.1009 25.1364L96.3305 24.1919C99.2771 24.1919 101.046 26.6172 100.834 28.444L94.4804 83.2056C94.2685 85.0322 92.6159 86.5131 90.7893 86.5131Z" fill="#144182"/>
<path d="M88.8862 85.552H63.0771C61.2505 85.552 59.9414 84.0712 60.1534 82.2444L66.5067 27.4828C66.7186 25.6562 68.3712 24.1753 70.198 24.1753H96.007C97.8336 24.1753 99.1427 25.656 98.9308 27.4828L92.5775 82.2444C92.3655 84.071 90.7129 85.552 88.8862 85.552Z" fill="#2099FF"/>
<path d="M88.8776 84.4042H63.3476C61.9574 84.4042 60.9613 83.2772 61.1226 81.8872L67.4146 27.6533C67.5759 26.263 68.8337 25.1362 70.2237 25.1362H95.7537C97.1439 25.1362 98.14 26.2632 97.9787 27.6533L91.6866 81.8872C91.5254 83.2772 90.2678 84.4042 88.8776 84.4042Z" fill="#ACDAFF"/>
<path d="M78.4326 83.0403H73.1111C72.4951 83.0403 72.0494 82.5361 72.1208 81.92C72.1922 81.304 72.7549 80.7998 73.3712 80.7998H78.6926C79.3087 80.7998 79.7543 81.304 79.6829 81.92C79.6113 82.5361 79.0486 83.0403 78.4326 83.0403Z" fill="#2099FF"/>
<path d="M71.3766 27.7252C71.7347 27.3873 71.781 26.8549 71.4801 26.536C71.1792 26.2172 70.645 26.2325 70.287 26.5704C69.9289 26.9082 69.8826 27.4406 70.1835 27.7595C70.4844 28.0784 71.0186 28.063 71.3766 27.7252Z" fill="#2099FF"/>
<path d="M73.4162 27.4947C73.632 27.2911 73.6599 26.9704 73.4786 26.7782C73.2973 26.5861 72.9754 26.5954 72.7597 26.7989C72.544 27.0025 72.5161 27.3232 72.6974 27.5154C72.8787 27.7075 73.2005 27.6982 73.4162 27.4947Z" fill="#2099FF"/>
<path d="M90.6033 79.5193H62.543L68.3592 29.3867H96.4196L90.6033 79.5193Z" fill="white"/>
<path d="M92.5387 37.1212H70.4777C69.8 37.1212 69.3145 36.5719 69.3931 35.8941L69.8388 32.0532C69.9174 31.3755 70.5305 30.8262 71.208 30.8262H93.269C93.9467 30.8262 94.4323 31.3755 94.3536 32.0532L93.908 35.8941C93.8293 36.5719 93.2162 37.1212 92.5387 37.1212Z" fill="#E6F2FF"/>
<path d="M79.1482 36.2318L79.2324 34.6357H79.4767L80.114 35.8009H79.9861L80.7348 34.6357H80.9792L80.8972 36.2318H80.6164L80.6751 35.0758H80.7345L80.0986 36.0494H79.9661L79.4238 35.0758H79.4923L79.4313 36.2318H79.1482Z" fill="#ACDAFF"/>
<path d="M77.2107 36.2318L78.0142 34.6357H78.3064L78.9438 36.2318H78.6332L78.0904 34.7931H78.2091L77.5167 36.2318H77.2107ZM77.5613 35.8625L77.6535 35.6299H78.5166L78.5842 35.8625H77.5613Z" fill="#ACDAFF"/>
<path d="M75.8184 36.2545C75.6921 36.2545 75.5796 36.2226 75.481 36.1587C75.3839 36.0949 75.3096 36.0022 75.2582 35.8806C75.2068 35.7574 75.1858 35.6085 75.195 35.4336C75.2042 35.2588 75.2409 35.1106 75.3052 34.989C75.3695 34.8659 75.4536 34.7724 75.5575 34.7086C75.6628 34.6447 75.7787 34.6128 75.905 34.6128C76.0329 34.6128 76.1454 34.6447 76.2425 34.7086C76.3396 34.7724 76.4138 34.8659 76.4651 34.989C76.5181 35.1106 76.5399 35.2588 76.5307 35.4336C76.5215 35.6085 76.484 35.7574 76.4181 35.8806C76.3538 36.0022 76.2698 36.0949 76.1659 36.1587C76.0621 36.2226 75.9463 36.2545 75.8184 36.2545ZM75.832 35.9968C75.9066 35.9968 75.9723 35.9771 76.0292 35.9376C76.0862 35.8965 76.1321 35.8342 76.1669 35.7506C76.2033 35.667 76.2249 35.5613 76.2316 35.4336C76.2384 35.3044 76.228 35.1988 76.2004 35.1167C76.1743 35.0331 76.135 34.9715 76.0823 34.932C76.0296 34.891 75.966 34.8704 75.8914 34.8704C75.8199 34.8704 75.7549 34.891 75.6964 34.932C75.6395 34.9715 75.5929 35.0331 75.5565 35.1167C75.5217 35.1988 75.5009 35.3044 75.4941 35.4336C75.4874 35.5613 75.497 35.667 75.523 35.7506C75.5506 35.8342 75.5907 35.8965 75.6433 35.9376C75.6976 35.9771 75.7604 35.9968 75.832 35.9968Z" fill="#ACDAFF"/>
<path d="M74.2832 36.2545C74.1569 36.2545 74.0444 36.2226 73.9458 36.1587C73.8487 36.0949 73.7744 36.0022 73.723 35.8806C73.6717 35.7574 73.6506 35.6085 73.6598 35.4336C73.669 35.2588 73.7058 35.1106 73.77 34.989C73.8344 34.8659 73.9185 34.7724 74.0223 34.7086C74.1277 34.6447 74.2435 34.6128 74.3699 34.6128C74.4977 34.6128 74.6102 34.6447 74.7073 34.7086C74.8044 34.7724 74.8786 34.8659 74.93 34.989C74.9829 35.1106 75.0048 35.2588 74.9956 35.4336C74.9863 35.6085 74.9488 35.7574 74.8829 35.8806C74.8187 36.0022 74.7346 36.0949 74.6308 36.1587C74.527 36.2226 74.4111 36.2545 74.2832 36.2545ZM74.2968 35.9968C74.3714 35.9968 74.4372 35.9771 74.494 35.9376C74.551 35.8965 74.5969 35.8342 74.6318 35.7506C74.6682 35.667 74.6897 35.5613 74.6964 35.4336C74.7033 35.3044 74.6929 35.1988 74.6652 35.1167C74.6392 35.0331 74.5998 34.9715 74.5471 34.932C74.4945 34.891 74.4308 34.8704 74.3563 34.8704C74.2847 34.8704 74.2197 34.891 74.1612 34.932C74.1043 34.9715 74.0577 35.0331 74.0213 35.1167C73.9865 35.1988 73.9658 35.3044 73.9589 35.4336C73.9522 35.5613 73.9618 35.667 73.9879 35.7506C74.0154 35.8342 74.0555 35.8965 74.1082 35.9376C74.1624 35.9771 74.2253 35.9968 74.2968 35.9968Z" fill="#ACDAFF"/>
<path d="M73.2649 36.2472C73.2132 36.2472 73.1699 36.2297 73.1353 36.1947C73.1006 36.1582 73.0848 36.1126 73.0877 36.0579C73.0907 36.0001 73.1114 35.9545 73.1497 35.9211C73.1881 35.8861 73.2331 35.8687 73.2849 35.8687C73.3366 35.8687 73.3799 35.8861 73.4146 35.9211C73.4493 35.9545 73.4652 36.0001 73.4621 36.0579C73.4592 36.1126 73.4386 36.1582 73.4001 36.1947C73.3617 36.2297 73.3167 36.2472 73.2649 36.2472Z" fill="#ACDAFF"/>
<path d="M72.4744 36.2318L72.5526 34.7497L72.6757 34.8843H72.2076L72.2207 34.6357H72.8555L72.7713 36.2318H72.4744Z" fill="#ACDAFF"/>
<path d="M71.6072 36.2318L71.6854 34.7497L71.8085 34.8843H71.3404L71.3535 34.6357H71.9883L71.9041 36.2318H71.6072Z" fill="#ACDAFF"/>
<path d="M79.8162 33.839C79.7569 33.839 79.698 33.8291 79.6397 33.8094C79.5814 33.7896 79.5333 33.7622 79.4956 33.7273L79.6208 33.5175C79.6484 33.5433 79.68 33.5639 79.7158 33.5791C79.7515 33.5943 79.7884 33.6019 79.8265 33.6019C79.8782 33.6019 79.9207 33.5889 79.9541 33.5631C79.9874 33.5373 80.0194 33.4939 80.05 33.4331L80.1292 33.2735L80.1538 33.2393L80.6718 32.1631H80.9458L80.3056 33.4787C80.2627 33.5699 80.2163 33.6421 80.1663 33.6953C80.1178 33.7485 80.0641 33.7858 80.0051 33.8071C79.9477 33.8284 79.8847 33.839 79.8162 33.839ZM80.0893 33.424L79.6055 32.1631H79.9024L80.2944 33.2142L80.0893 33.424Z" fill="#ACDAFF"/>
<path d="M79.1265 33.3822L79.1395 33.1359L79.1263 33.0835L79.149 32.6525C79.1535 32.5689 79.1317 32.5043 79.0839 32.4587C79.0362 32.4116 78.9613 32.388 78.8593 32.388C78.7908 32.388 78.7225 32.3987 78.6544 32.4199C78.5878 32.4412 78.5307 32.4709 78.483 32.5089L78.3821 32.3014C78.4502 32.2512 78.5298 32.214 78.6209 32.1896C78.7136 32.1638 78.8087 32.1509 78.9061 32.1509C79.0827 32.1509 79.2166 32.1934 79.3081 32.2786C79.4011 32.3622 79.4429 32.4921 79.4336 32.6685L79.396 33.3822H79.1265ZM78.7421 33.3981C78.6508 33.3981 78.5716 33.3829 78.5048 33.3525C78.4379 33.3206 78.3869 33.2773 78.3518 33.2225C78.3182 33.1663 78.3033 33.1032 78.307 33.0333C78.3106 32.9649 78.3298 32.9033 78.3647 32.8486C78.401 32.7939 78.4574 32.7506 78.5336 32.7186C78.6099 32.6867 78.7097 32.6708 78.833 32.6708H79.1869L79.1769 32.86H78.8436C78.7461 32.86 78.6798 32.876 78.6447 32.9079C78.6096 32.9383 78.5908 32.9763 78.5884 33.0219C78.5857 33.0736 78.6041 33.1146 78.6436 33.145C78.6831 33.1754 78.7393 33.1906 78.8124 33.1906C78.8824 33.1906 78.9457 33.1747 79.0022 33.1427C79.0602 33.1108 79.103 33.0637 79.1306 33.0014L79.1696 33.1724C79.1384 33.2438 79.086 33.2993 79.0124 33.3388C78.9403 33.3784 78.8502 33.3981 78.7421 33.3981Z" fill="#ACDAFF"/>
<path d="M77.3174 33.3978C77.2002 33.3978 77.0958 33.3719 77.0041 33.3202C76.9141 33.267 76.8449 33.1941 76.7965 33.1014C76.7481 33.0086 76.7272 32.8992 76.7339 32.773C76.7405 32.6468 76.7729 32.5374 76.8311 32.4447C76.8893 32.3519 76.9662 32.2797 77.0617 32.2281C77.1588 32.1764 77.266 32.1505 77.3832 32.1505C77.4852 32.1505 77.5753 32.1733 77.6536 32.2189C77.732 32.263 77.7923 32.3307 77.8347 32.4219C77.8771 32.5131 77.8945 32.6301 77.887 32.773C77.8795 32.9144 77.8505 33.0314 77.7999 33.1242C77.7494 33.2154 77.6827 33.2838 77.5996 33.3294C77.5165 33.375 77.4224 33.3978 77.3174 33.3978ZM77.3645 33.1538C77.433 33.1538 77.4947 33.1386 77.5496 33.1082C77.606 33.0778 77.6517 33.0337 77.6867 32.9759C77.7233 32.9182 77.7436 32.8505 77.7477 32.773C77.7518 32.694 77.7387 32.6263 77.7081 32.5701C77.6792 32.5123 77.6382 32.4682 77.585 32.4378C77.5333 32.4074 77.4732 32.3922 77.4047 32.3922C77.3362 32.3922 77.2738 32.4074 77.2174 32.4378C77.1625 32.4682 77.1168 32.5123 77.0802 32.5701C77.0453 32.6263 77.0257 32.694 77.0216 32.773C77.0175 32.8505 77.0299 32.9182 77.0588 32.9759C77.0893 33.0337 77.1303 33.0778 77.182 33.1082C77.2352 33.1386 77.296 33.1538 77.3645 33.1538ZM77.7224 33.3818L77.7376 33.0945L77.7661 32.7707L77.7603 32.447L77.8002 31.6899H78.0834L77.9941 33.3818H77.7224Z" fill="#ACDAFF"/>
<path d="M75.9965 32.1509C76.094 32.1509 76.1797 32.1699 76.2538 32.2079C76.3295 32.2459 76.3873 32.3044 76.4272 32.3835C76.4673 32.461 76.4841 32.5613 76.4776 32.6844L76.4408 33.3822H76.1553L76.1902 32.7209C76.1959 32.613 76.1743 32.5324 76.1253 32.4792C76.0779 32.426 76.0085 32.3994 75.9172 32.3994C75.8502 32.3994 75.7901 32.4131 75.7369 32.4405C75.6837 32.4678 75.6412 32.5089 75.6094 32.5636C75.5792 32.6168 75.562 32.6844 75.5576 32.7665L75.5251 33.3822H75.2397L75.304 32.1646H75.5757L75.5584 32.4929L75.5157 32.3926C75.5624 32.315 75.6272 32.2558 75.71 32.2147C75.7945 32.1722 75.89 32.1509 75.9965 32.1509Z" fill="#ACDAFF"/>
<path d="M74.3112 33.3981C74.1864 33.3981 74.0766 33.3715 73.982 33.3183C73.8875 33.2636 73.8145 33.1891 73.7632 33.0949C73.7118 33.0006 73.6893 32.8934 73.6957 32.7734C73.7021 32.6518 73.7359 32.5446 73.7971 32.4519C73.8584 32.3576 73.9392 32.2839 74.0394 32.2307C74.1396 32.1775 74.2522 32.1509 74.377 32.1509C74.5033 32.1509 74.6138 32.1775 74.7084 32.2307C74.8046 32.2839 74.8776 32.3569 74.9275 32.4496C74.9789 32.5423 75.0014 32.6502 74.9949 32.7734C74.9885 32.8934 74.9547 33.0006 74.8934 33.0949C74.8337 33.1891 74.7529 33.2636 74.651 33.3183C74.5508 33.3715 74.4375 33.3981 74.3112 33.3981ZM74.324 33.1541C74.3941 33.1541 74.4573 33.1389 74.5137 33.1085C74.5701 33.0781 74.615 33.0341 74.6485 32.9763C74.6835 32.9185 74.7031 32.8509 74.7072 32.7734C74.7114 32.6943 74.6989 32.6267 74.6699 32.5704C74.6425 32.5127 74.6022 32.4686 74.5491 32.4382C74.4959 32.4078 74.435 32.3926 74.3665 32.3926C74.2965 32.3926 74.2333 32.4078 74.1769 32.4382C74.122 32.4686 74.077 32.5127 74.042 32.5704C74.0071 32.6267 73.9875 32.6943 73.9834 32.7734C73.9793 32.8509 73.9917 32.9185 74.0206 32.9763C74.0495 33.0341 74.0898 33.0781 74.1415 33.1085C74.1947 33.1389 74.2555 33.1541 74.324 33.1541Z" fill="#ACDAFF"/>
<path d="M71.6131 33.3813L71.6973 31.7852H71.9416L72.5788 32.9503H72.4509L73.1997 31.7852H73.444L73.3621 33.3813H73.0812L73.1399 32.2252H73.1993L72.5634 33.1988H72.431L71.8887 32.2252H71.9572L71.8962 33.3813H71.6131Z" fill="#ACDAFF"/>
<path d="M73.4725 44.0194H68.4512L69.0335 38.998H74.0551L73.4725 44.0194Z" fill="#E6F2FF"/>
<path d="M79.9649 44.0189H74.9434L75.5259 38.9976H80.5475L79.9649 44.0189Z" fill="#ACDAFF"/>
<path d="M86.463 44.0194H81.4414L82.024 38.998H87.0456L86.463 44.0194Z" fill="#E6F2FF"/>
<path d="M92.9649 44.0194H87.9434L88.5259 38.998H93.5475L92.9649 44.0194Z" fill="#E6F2FF"/>
<path d="M72.7227 50.4413H67.7012L68.2838 45.4199H73.3053L72.7227 50.4413Z" fill="#E6F2FF"/>
<path d="M79.2247 50.4413H74.2031L74.7857 45.4199H79.8073L79.2247 50.4413Z" fill="#E6F2FF"/>
<path d="M85.7188 50.4413H80.6973L81.2798 45.4199H86.3014L85.7188 50.4413Z" fill="#E6F2FF"/>
<path d="M92.2149 50.4413H87.1934L87.7759 45.4199H92.7975L92.2149 50.4413Z" fill="#E6F2FF"/>
<path d="M71.9842 56.8634H66.9629L67.5455 51.8418H72.5668L71.9842 56.8634Z" fill="#E6F2FF"/>
<path d="M78.4803 56.8634H73.459L74.0416 51.8418H79.0629L78.4803 56.8634Z" fill="#E6F2FF"/>
<path d="M84.9784 56.8629H79.957L80.5396 51.8413H85.561L84.9784 56.8629Z" fill="#E6F2FF"/>
<path d="M91.4764 56.8634H86.4551L87.0377 51.8418H92.059L91.4764 56.8634Z" fill="#E6F2FF"/>
<path d="M71.2342 63.2852H66.2129L66.7955 58.2637H71.8168L71.2342 63.2852Z" fill="#E6F2FF"/>
<path d="M77.7323 63.2852H72.7109L73.2933 58.2637H78.3149L77.7323 63.2852Z" fill="#E6F2FF"/>
<path d="M84.2286 63.2852H79.207L79.7896 58.2637H84.8112L84.2286 63.2852Z" fill="#E6F2FF"/>
<path d="M90.7266 63.2852H85.7051L86.2877 58.2637H91.3092L90.7266 63.2852Z" fill="#E6F2FF"/>
<path d="M54.2586 54.3778C54.2586 54.3778 56.8966 50.5379 57.3147 49.6241C57.7329 48.7103 57.7784 47.9331 57.123 47.4584C56.4675 46.9837 55.2593 46.6114 54.1914 48.116C53.1237 49.6209 51.1498 54.2426 51.0691 55.6885C50.9884 57.1345 57.5271 61.5124 58.1082 61.7954C58.7486 61.6279 59.0203 60.6715 59.0203 60.6715C59.0203 60.6715 54.7983 55.3115 54.2586 54.3778Z" fill="#FF9900"/>
<path d="M56.4244 86.1471C56.4244 86.1471 56.5569 86.9058 56.1233 88.0498C55.6897 89.1937 55.6658 89.5551 56.1233 89.8079C56.5808 90.0607 56.9062 90.133 58.1826 89.8079C59.459 89.4828 60.8802 88.7722 60.8802 88.7722C60.8802 88.7722 59.4952 87.8931 59.1581 87.5197C58.8209 87.1463 58.1103 85.8097 58.1224 85.6171C58.1345 85.4246 56.4244 86.1471 56.4244 86.1471Z" fill="#F79E77"/>
<path d="M59.8956 88.1115C59.3819 88.454 58.8913 88.8282 58.2334 88.7343C57.7053 88.6023 57.5074 88.0742 57.1772 87.6781C56.9496 87.4961 56.5965 87.4397 56.2909 87.5304C56.2477 87.6925 56.1928 87.8659 56.1233 88.0494C55.6897 89.1934 55.6658 89.5547 56.1233 89.8075C56.5808 90.0604 56.9062 90.1326 58.1826 89.8075C59.459 89.4824 60.8802 88.7719 60.8802 88.7719C60.8802 88.7719 60.3713 88.4491 59.8956 88.1115Z" fill="#0C2C51"/>
<path d="M71.9062 46.6345L73.5048 47.3226C74.0348 46.6656 74.433 46.1706 74.6931 46.1168C75.3697 46.2075 75.6601 45.9211 75.8411 45.6899C76.022 45.4589 75.7957 45.3265 75.8252 45.2379C76.0121 44.9628 75.695 44.8547 75.7459 44.7897C75.9424 44.5604 75.9059 44.4362 75.7874 44.3735C75.669 44.3107 75.4693 44.2524 75.506 44.1372C75.5427 44.0219 76.029 43.7146 76.4518 43.5143C76.8746 43.314 77.3396 42.9928 77.0823 42.8239C76.825 42.655 74.4231 43.8089 73.9736 44.3012C73.5241 44.7935 73.6398 45.3176 73.0761 45.8599C72.8716 46.0568 72.4183 46.348 71.9062 46.6345Z" fill="#FFB797"/>
<path d="M58.0942 85.9146C58.0942 85.9146 58.2065 87.472 57.7089 88.7406C57.2111 90.0089 57.3556 90.571 58.2548 90.828C59.154 91.0851 59.6518 90.4748 60.824 90.507C61.9961 90.5392 63.5536 90.4105 63.955 89.3348C64.3564 88.2591 62.4825 88.7397 61.3481 88.403C60.2136 88.0662 60.718 86.0752 60.718 86.0752L58.0942 85.9146Z" fill="#FFAE83"/>
<path d="M61.3799 88.3807C61.2781 88.7217 62.2032 89.0815 61.93 89.2636C60.9399 89.9896 59.7517 88.7355 58.6295 88.3394C58.4008 88.2251 58.1283 88.2211 57.8626 88.276C57.8191 88.433 57.7685 88.589 57.7089 88.741C57.2111 90.0096 57.3556 90.5714 58.2548 90.8284C59.154 91.0853 59.6518 90.4752 60.824 90.5074C61.9961 90.5396 64.2133 90.3175 64.6147 89.2417C65.0118 88.1766 62.5173 88.6977 61.3799 88.3807Z" fill="#0F3163"/>
<path d="M64.4747 88.7285C64.4684 88.7537 64.4611 88.7794 64.451 88.8065C64.0496 89.8822 61.8324 90.1043 60.6603 90.0721C59.4881 90.0399 58.9903 90.6503 58.0911 90.3932C57.7825 90.305 57.5651 90.1798 57.4297 90.0035C57.4683 90.4307 57.7344 90.681 58.2524 90.8289C59.1516 91.0858 59.6494 90.4756 60.8213 90.5078C61.9935 90.5401 64.2107 90.318 64.612 89.2422C64.7044 88.996 64.64 88.8351 64.4747 88.7285Z" fill="#0C2C51"/>
<path d="M59.9862 65.9403C59.3725 65.6496 58.9599 65.2177 58.6922 64.7398C58.162 63.7925 58.2043 62.6631 58.3966 62.0867C58.6856 61.2197 59.8417 59.036 59.8417 59.036L56.9995 58.5103C56.9995 58.5103 55.7231 60.7141 55.0727 62.4482C54.4223 64.1824 54.9523 66.0128 55.2654 67.3857C55.5784 68.7585 56.3733 72.6844 56.0361 74.1535C55.699 75.6228 55.0727 77.8626 55.2414 79.5726C55.4101 81.2827 56.2529 85.3531 56.229 86.2682C56.5134 86.3953 56.7919 86.4386 57.0491 86.4324C57.8161 86.414 58.3966 85.955 58.3966 85.955C58.3966 85.955 58.5892 78.9462 59.3119 75.8633C60.0343 72.7804 60.757 67.0483 59.9862 65.9403Z" fill="#144182"/>
<path d="M59.9878 65.9402C59.3741 65.6494 58.9614 65.2175 58.6938 64.7396C57.4911 64.1712 58.3297 61.964 58.2322 60.6016C57.756 61.9168 55.9341 64.2874 58.4238 67.2414C59.3098 68.0643 58.445 74.5204 57.6852 77.432C57.0043 79.9007 57.3018 83.8656 57.4222 86.3884C57.997 86.2706 58.3979 85.9548 58.3979 85.9548C58.3979 85.9548 58.5906 78.946 59.3132 75.8631C60.0359 72.7803 60.7586 67.0481 59.9878 65.9402Z" fill="#0F3163"/>
<path d="M64.5336 59.0027C64.5336 59.0027 65.3686 62.182 65.1117 65.5859C64.8549 68.9899 62.5748 74.7061 62.3179 75.9586C62.0611 77.2111 61.7078 80.8125 61.3867 82.4319C61.0657 84.0512 60.905 85.5605 61.0816 85.978C60.3269 86.7808 58.3197 86.6846 57.8703 85.978C58.0309 82.6703 57.9506 79.8284 58.5768 77.5964C59.2031 75.3644 58.8176 74.7864 59.0746 73.3894C59.3315 71.9924 59.5883 67.6732 59.717 67.1595C59.8454 66.6458 58.5609 66.3887 58.0953 65.5537C57.6297 64.7187 56.6663 62.7116 59.3317 58.6172C62.1732 58.521 64.5336 59.0027 64.5336 59.0027Z" fill="#144182"/>
<path d="M64.5335 59.0035C64.5335 59.0035 62.1731 58.5218 59.3312 58.6182C59.2778 58.7002 59.2282 58.7801 59.1777 58.8605C61.5218 58.8903 63.3168 59.2565 63.3168 59.2565C63.3168 59.2565 64.1518 62.4358 63.895 65.8398C63.6381 69.2437 61.8173 74.865 61.5604 76.1175C61.3036 77.37 61.2018 80.8083 60.8808 82.4276C60.6038 83.824 60.5531 85.5613 60.6576 86.2817C60.8206 86.2001 60.9668 86.1013 61.0815 85.979C60.9049 85.5615 61.0654 84.0522 61.3866 82.4329C61.7077 80.8136 62.061 77.2121 62.3178 75.9596C62.5747 74.7072 64.8548 68.9911 65.1116 65.587C65.3685 62.1828 64.5335 59.0035 64.5335 59.0035Z" fill="#164E91"/>
<path d="M63.0673 39.799C63.0673 39.799 63.308 42.657 62.987 43.5401C62.6659 44.4232 62.3446 45.0656 62.1681 45.2421C61.9916 45.4186 61.1413 45.0976 60.9724 45.2421C60.8033 45.3866 60.8194 47.0405 60.8194 47.0405L58.459 46.9441C58.459 46.9441 58.7319 43.9576 58.9407 43.1388C59.1494 42.3199 62.8265 39.7348 63.0673 39.799Z" fill="#FFAE83"/>
<path d="M57.4816 46.8894C57.4816 46.8894 59.312 45.9741 60.8054 46.6968C62.2986 47.4193 64.6349 50.454 64.9962 51.0322C65.3576 51.6103 65.5983 52.9109 64.9962 54.0909C64.3942 55.2711 64.611 58.7392 64.924 59.3413C62.3951 60.0879 58.4692 59.6062 56.6629 58.8115C57.6744 57.3422 58.2045 56.7885 57.4818 55.1747C56.7591 53.5608 55.8919 48.9848 57.4816 46.8894Z" fill="#FFAA00"/>
<path d="M63.8593 54.3129C64.4614 53.1327 64.2207 51.8321 63.8593 51.2542C63.498 50.6761 61.1617 47.6415 59.6685 46.9189C59.1527 46.6692 58.5979 46.6173 58.091 46.6533C57.7197 46.7712 57.4817 46.889 57.4817 46.889C55.892 48.9843 56.759 53.5606 57.4817 55.1742C58.2041 56.7878 57.6743 57.3418 56.6628 58.8111C58.1827 59.4799 61.2035 59.9268 63.6298 59.6068C63.6826 59.5926 63.7356 59.5786 63.7871 59.5634C63.4739 58.9613 63.2573 55.4932 63.8593 54.3129Z" fill="#FF9900"/>
<path d="M66.7072 50.3816C66.7072 50.3816 62.8959 47.7025 61.9865 47.2746C61.0772 46.8467 60.3007 46.7929 59.819 47.4433C59.3373 48.0937 58.952 49.2979 60.4452 50.3816C61.9384 51.4654 66.5387 53.4887 67.9838 53.5849C69.4289 53.6813 73.8766 47.1898 74.1656 46.6117C74.005 45.9694 73.0518 45.6875 73.0518 45.6875C73.0518 45.6875 67.6464 49.8518 66.7072 50.3816Z" fill="#FFBC00"/>
<path d="M60.4456 50.3812C60.395 50.3443 60.3513 50.3095 60.3047 50.2739C60.3496 50.3097 60.3965 50.3456 60.4456 50.3812Z" fill="#FF69A6"/>
<path d="M59.7237 48.0725C60.2054 47.4221 60.9821 47.4761 61.8912 47.9038C62.8006 48.3317 66.4667 50.7273 66.4667 50.7273C67.406 50.1975 73.0493 45.6875 73.0493 45.6875C73.0493 45.6875 67.6444 49.852 66.7051 50.3819C66.7051 50.3819 62.8939 47.7027 61.9845 47.2748C61.0751 46.8469 60.2986 46.7931 59.8169 47.4435C59.5916 47.7478 59.3874 48.1734 59.3867 48.6511C59.4541 48.4546 59.5798 48.2668 59.7237 48.0725Z" fill="#FFD815"/>
<path d="M62.8916 38.4506C61.7998 37.3588 59.7765 36.9413 59.7765 36.9413C58.0597 36.3583 56.7259 37.9689 56.3404 39.414C55.9551 40.8591 56.1446 42.5406 55.5537 44.4394C55.2549 45.3649 50.9789 51.988 56.5847 56.7849C58.0097 57.4889 59.1005 57.7987 60.6408 56.6105C59.0179 52.7522 59.5307 49.0494 59.8579 47.9391C60.1743 46.8655 60.8245 46.8257 61.4211 47.0474C61.4482 47.058 61.4749 47.0683 61.5029 47.0796C61.4474 46.9709 61.3755 46.8458 61.2905 46.7087C60.99 45.8131 61.273 43.9554 61.888 43.2995C62.6104 42.5287 62.9478 41.2764 63.0682 40.3611C63.2369 41.4449 62.8514 42.1193 62.5865 42.5047C63.6221 41.71 63.9835 39.5425 62.8916 38.4506Z" fill="#144182"/>
<path d="M56.0162 52.8092C55.3831 48.3785 57.1555 43.821 58.8013 39.6435C59.2938 38.3631 60.7058 37.7727 62.1431 37.8716C61.0672 37.2081 59.7765 36.9413 59.7765 36.9413C58.0597 36.3583 56.7259 37.9689 56.3404 39.414C55.9551 40.8591 56.1446 42.5406 55.5537 44.4394C55.2549 45.3649 50.9789 51.988 56.5847 56.7849C57.7368 57.3541 58.6703 57.6652 59.7994 57.136C59.3179 57.0502 58.7542 56.7357 58.6345 56.6387C57.3687 55.7526 56.2694 54.3283 56.0162 52.8092Z" fill="#0F3163"/>
</svg>
