<svg width="136" height="100" viewBox="0 0 136 100" fill="none" xmlns="http://www.w3.org/2000/svg">
<rect x="0.5" y="0.5" width="135" height="99" rx="9.5" fill="white"/>
<rect x="0.5" y="0.5" width="135" height="99" rx="9.5" stroke="#EDEAFC"/>
<path d="M49.7418 55.3799C56.4228 57.21 58.0012 56.6977 59.1919 58.4886C59.3286 58.6941 60.0267 59.7448 59.887 61.0934C59.7756 62.1679 59.1771 62.9972 58.8006 63.3618C56.5119 65.5773 50.2141 62.8669 46.6073 59.9025C45.821 59.256 43.7111 57.5223 44.136 56.2907C44.3102 55.7863 44.8509 55.5355 45.239 55.3619C46.9548 54.5945 48.7343 55.1039 49.7418 55.3799Z" fill="#8383ED"/>
<path d="M70.3673 10.4731H68.9453V19.8045H70.3673V10.4731Z" fill="url(#paint0_linear_362_15002)"/>
<path d="M74.5673 24.9587H64.7467C64.0225 24.9587 63.4355 24.3718 63.4355 23.6476V20.1378C63.4355 19.4136 64.0225 18.8267 64.7467 18.8267H74.5673C75.2915 18.8267 75.8785 19.4136 75.8785 20.1378V23.6476C75.8782 24.3718 75.2913 24.9587 74.5673 24.9587Z" fill="url(#paint1_linear_362_15002)"/>
<path d="M91.9185 45.3543C91.9185 51.0231 87.3228 55.6188 81.654 55.6188H57.659C52.0135 55.6188 47.3945 50.9999 47.3945 45.3543V40.0222C47.3945 29.9777 55.6127 21.7593 65.6575 21.7593H73.6559C83.7004 21.7593 91.9188 29.9774 91.9188 40.0222L91.9185 45.3543Z" fill="url(#paint2_linear_362_15002)"/>
<path d="M84.9167 44.3826C84.3341 44.6705 83.681 44.8214 83.0175 44.8214H56.2984C55.6349 44.8214 54.9818 44.6705 54.3992 44.3826C52.9682 43.6752 52.1607 42.2468 52.3628 40.7816L52.3776 40.6751C53.0623 35.7119 57.5573 31.8961 63.0682 31.6093C65.3998 31.488 67.8467 31.4253 70.399 31.4401C72.3983 31.4517 74.3309 31.5104 76.1917 31.6062C81.7235 31.8912 86.2516 35.6919 86.9389 40.6739C86.9439 40.7096 86.9488 40.7456 86.9537 40.7813C87.1555 42.2468 86.3477 43.6752 84.9167 44.3826Z" fill="url(#paint3_linear_362_15002)"/>
<path d="M62.6165 43.7271C65.3991 43.7271 67.6548 41.4713 67.6548 38.6887C67.6548 35.9061 65.3991 33.6504 62.6165 33.6504C59.8339 33.6504 57.5781 35.9061 57.5781 38.6887C57.5781 41.4713 59.8339 43.7271 62.6165 43.7271Z" fill="url(#paint4_radial_362_15002)"/>
<path d="M62.6164 42.306C64.6136 42.306 66.2327 40.6869 66.2327 38.6896C66.2327 36.6923 64.6136 35.0732 62.6164 35.0732C60.6191 35.0732 59 36.6923 59 38.6896C59 40.6869 60.6191 42.306 62.6164 42.306Z" fill="#EEFDFF"/>
<path d="M62.6154 41.7259C64.2929 41.7259 65.6527 40.3661 65.6527 38.6887C65.6527 37.0112 64.2929 35.6514 62.6154 35.6514C60.938 35.6514 59.5781 37.0112 59.5781 38.6887C59.5781 40.3661 60.938 41.7259 62.6154 41.7259Z" fill="url(#paint5_linear_362_15002)"/>
<path d="M64.5587 37.9014C64.5587 38.5229 64.0551 39.0265 63.4336 39.0265C62.8122 39.0265 62.3086 38.5226 62.3086 37.9014C62.3086 37.2803 62.8122 36.7764 63.4336 36.7764C64.0551 36.7764 64.5587 37.2803 64.5587 37.9014Z" fill="#EEFDFF"/>
<path d="M62.1678 41.4684C62.4158 41.4684 62.6168 41.2673 62.6168 41.0193C62.6168 40.7714 62.4158 40.5703 62.1678 40.5703C61.9198 40.5703 61.7188 40.7714 61.7188 41.0193C61.7188 41.2673 61.9198 41.4684 62.1678 41.4684Z" fill="#EEFDFF"/>
<path d="M61.0542 40.3445C61.0542 40.4684 60.9538 40.5689 60.8298 40.5689C60.7059 40.5689 60.6055 40.4684 60.6055 40.3445C60.6055 40.2206 60.7059 40.1201 60.8298 40.1201C60.9538 40.1201 61.0542 40.2208 61.0542 40.3445Z" fill="#EEFDFF"/>
<path d="M76.2259 43.7271C79.0085 43.7271 81.2642 41.4713 81.2642 38.6887C81.2642 35.9061 79.0085 33.6504 76.2259 33.6504C73.4432 33.6504 71.1875 35.9061 71.1875 38.6887C71.1875 41.4713 73.4432 43.7271 76.2259 43.7271Z" fill="url(#paint6_radial_362_15002)"/>
<path d="M76.2296 42.306C78.2269 42.306 79.846 40.6869 79.846 38.6896C79.846 36.6923 78.2269 35.0732 76.2296 35.0732C74.2324 35.0732 72.6133 36.6923 72.6133 38.6896C72.6133 40.6869 74.2324 42.306 76.2296 42.306Z" fill="#EEFDFF"/>
<path d="M76.2287 41.7259C77.9062 41.7259 79.266 40.3661 79.266 38.6887C79.266 37.0112 77.9062 35.6514 76.2287 35.6514C74.5513 35.6514 73.1914 37.0112 73.1914 38.6887C73.1914 40.3661 74.5513 41.7259 76.2287 41.7259Z" fill="url(#paint7_linear_362_15002)"/>
<path d="M78.1723 37.9014C78.1723 38.5229 77.6684 39.0265 77.0472 39.0265C76.4261 39.0265 75.9219 38.5226 75.9219 37.9014C75.9219 37.2803 76.4258 36.7764 77.0472 36.7764C77.6687 36.7764 78.1723 37.2803 78.1723 37.9014Z" fill="#EEFDFF"/>
<path d="M75.7772 41.4684C76.0252 41.4684 76.2262 41.2673 76.2262 41.0193C76.2262 40.7714 76.0252 40.5703 75.7772 40.5703C75.5292 40.5703 75.3281 40.7714 75.3281 41.0193C75.3281 41.2673 75.5292 41.4684 75.7772 41.4684Z" fill="#EEFDFF"/>
<path d="M74.6675 40.3445C74.6675 40.4684 74.5671 40.5689 74.4431 40.5689C74.3192 40.5689 74.2188 40.4684 74.2188 40.3445C74.2188 40.2206 74.3192 40.1201 74.4431 40.1201C74.5671 40.1201 74.6675 40.2208 74.6675 40.3445Z" fill="#EEFDFF"/>
<path d="M71.4796 9.85127C71.4796 10.8573 70.664 11.6732 69.6576 11.6732C68.6516 11.6732 67.8359 10.8576 67.8359 9.85127C67.8359 8.84522 68.6516 8.0293 69.6576 8.0293C70.664 8.0293 71.4796 8.84493 71.4796 9.85127Z" fill="url(#paint8_linear_362_15002)"/>
<path opacity="0.5" d="M70.9256 9.14003C70.9256 9.44684 70.6768 9.6953 70.37 9.6953C70.0632 9.6953 69.8145 9.44655 69.8145 9.14003C69.8145 8.83323 70.0632 8.58447 70.37 8.58447C70.6768 8.58476 70.9256 8.83323 70.9256 9.14003Z" fill="white"/>
<path opacity="0.5" d="M85.3433 27.601C85.3674 28.4515 84.6731 29.4688 83.8778 29.5556C83.1324 29.6372 82.5371 28.8755 81.9232 28.0901C81.318 27.316 79.9947 25.3271 80.5218 24.7646C81.2164 24.023 85.2862 25.5944 85.3433 27.601Z" fill="white"/>
<path opacity="0.5" d="M78.5354 24.3589C78.885 24.3589 79.1685 24.0755 79.1685 23.7258C79.1685 23.3762 78.885 23.0928 78.5354 23.0928C78.1858 23.0928 77.9023 23.3762 77.9023 23.7258C77.9023 24.0755 78.1858 24.3589 78.5354 24.3589Z" fill="white"/>
<path d="M85.2557 39.3996C85.0525 39.5429 83.6363 36.6577 79.8345 34.1563C78.4981 33.2768 77.1789 32.6501 77.2572 32.4678C77.3368 32.2829 78.8226 32.6269 80.0121 33.1787C83.8023 34.9371 85.4972 39.2292 85.2557 39.3996Z" fill="white"/>
<path opacity="0.5" d="M75.5199 20.6419C75.4746 20.6483 75.4456 20.3821 75.2238 19.9708C75.2238 19.9708 75.1202 19.7784 75.0018 19.6153C74.6201 19.0899 73.3261 19.1015 73.2245 19.1024C71.2092 19.1198 69.9135 18.9921 69.9141 19.0043C69.9144 19.0144 70.8594 18.9953 71.552 18.9813C73.5058 18.9416 74.6697 18.8365 75.1687 19.3598C75.3756 19.5769 75.4798 19.8597 75.4798 19.8597C75.6209 20.2434 75.5739 20.6341 75.5199 20.6419Z" fill="white"/>
<path d="M75.1013 46.9832C75.052 47.4659 74.6503 47.8377 74.1673 47.8841L67.493 48.5277C67.0103 48.5741 66.5447 48.2864 66.4039 47.822C66.3412 47.6157 66.2931 47.4029 66.2603 47.184C66.2513 47.1237 66.2672 47.0621 66.305 47.0136C66.3427 46.9655 66.3984 46.935 66.4594 46.9289L74.8796 46.1167C74.9397 46.1109 74.9992 46.1301 75.0447 46.1696C75.0903 46.209 75.1173 46.2656 75.1199 46.3257C75.1301 46.5484 75.1234 46.7678 75.1013 46.9832Z" fill="#EEFDFF"/>
<path d="M75.1017 46.9844C74.8884 49.0534 73.2435 50.7543 71.0947 50.9595C68.9752 51.1647 67.0609 49.8504 66.4316 47.9042C66.5997 48.3202 67.0368 48.5736 67.4928 48.528L74.1688 47.8853C74.6513 47.8375 75.0512 47.4668 75.1017 46.9844Z" fill="#6868FF"/>
<path d="M85.6177 61.9738C85.6177 62.0351 85.6177 62.0937 85.6151 62.1497C85.5939 62.7096 85.463 63.1308 85.3991 63.3201C83.5621 68.9323 82.4611 71.8918 80.9175 74.2858C80.651 74.6992 80.3709 75.0962 80.0696 75.4855C79.6752 76.0053 79.2433 76.5118 78.7632 77.0346C77.6968 78.1945 76.0838 78.7196 75.5639 78.901C73.663 79.5729 71.9833 79.4502 70.8663 79.4609H70.6716C69.5517 79.4502 67.8749 79.5729 65.974 78.901C65.4541 78.7196 63.8385 78.1945 62.7747 77.0346C59.8419 73.8432 58.7143 71.1905 56.1388 63.3201C56.0775 63.1389 55.9548 62.7468 55.9254 62.2217C55.9176 62.0696 55.9147 61.9178 55.9228 61.7657C55.9788 60.8247 56.36 59.9019 57.0374 59.0596C58.1973 57.6147 59.9888 56.8228 61.8418 56.8147L70.7705 56.7773L79.5367 56.7427C81.4298 56.7346 83.264 57.5293 84.4662 58.9928C85.0476 59.7019 85.418 60.4671 85.5541 61.2563C85.5727 61.3683 85.5887 61.483 85.5994 61.595C85.6096 61.7204 85.6177 61.8458 85.6177 61.9738Z" fill="url(#paint9_linear_362_15002)"/>
<path d="M70.7676 56.7792L61.8389 56.8167C59.9859 56.8248 58.1944 57.6166 57.0345 59.0616C56.3573 59.9042 55.9762 60.8266 55.9199 61.7677C55.9652 60.8025 56.3626 59.856 57.0691 58.9948C58.2687 57.531 60.1058 56.7366 61.9986 56.7447L70.7676 56.7792Z" fill="url(#paint10_linear_362_15002)"/>
<path d="M79.6422 69.9337C79.5119 63.0078 78.5746 61.6381 79.9569 59.9906C80.1156 59.8013 80.9263 58.835 82.2595 58.5883C83.3219 58.3918 84.2861 58.732 84.7424 58.9903C87.5138 60.5603 86.6915 67.3673 84.8658 71.6643C84.4678 72.6012 83.3999 75.1146 82.0984 75.0545C81.5652 75.0299 81.1719 74.5817 80.8961 74.2586C79.6756 72.8291 79.662 70.9778 79.6422 69.9337Z" fill="url(#paint11_linear_362_15002)"/>
<path opacity="0.5" d="M80.9146 74.2857C80.6481 74.699 80.368 75.0961 80.0667 75.4854C79.9706 75.3867 79.8853 75.288 79.8081 75.1974C78.587 73.7685 78.5736 71.9181 78.555 70.8731C78.4244 63.9466 77.486 62.5789 78.8697 60.9311C78.971 60.8086 79.3416 60.3686 79.9442 60.0034C78.5791 61.6457 79.5097 63.0268 79.6403 69.9321C79.6589 70.977 79.6749 72.8274 80.8934 74.2593C80.9012 74.2671 80.9093 74.275 80.9146 74.2857Z" fill="#7777FF"/>
<path d="M84.8255 64.1655C84.7863 63.4213 84.6467 62.8741 84.3675 61.7793C84.0023 60.3471 83.5443 59.649 83.8418 59.3724C84.0354 59.1925 84.4168 59.3141 84.5033 59.3416C85.8124 59.7593 86.2176 62.2152 86.1613 63.7522C86.1268 64.6932 85.8972 65.7454 85.5523 65.7918C85.4981 65.7991 85.3628 65.7921 85.2661 65.7065C84.8813 65.3666 84.8554 64.7312 84.8255 64.1655Z" fill="white"/>
<path d="M85.7231 66.7922C85.7231 66.9422 85.6014 67.0639 85.4514 67.0639C85.3013 67.0639 85.1797 66.9422 85.1797 66.7922C85.1797 66.6421 85.3013 66.5205 85.4514 66.5205C85.6014 66.5205 85.7231 66.6421 85.7231 66.7922Z" fill="white"/>
<path d="M70.3701 91.9712C78.2363 91.9712 84.6132 89.3605 84.6132 86.1401C84.6132 82.9197 78.2363 80.3091 70.3701 80.3091C62.5038 80.3091 56.127 82.9197 56.127 86.1401C56.127 89.3605 62.5038 91.9712 70.3701 91.9712Z" fill="url(#paint12_radial_362_15002)"/>
<defs>
<linearGradient id="paint0_linear_362_15002" x1="69.1788" y1="19.909" x2="71.4594" y2="19.6737" gradientUnits="userSpaceOnUse">
<stop offset="0.278846" stop-color="#8383ED"/>
<stop offset="1" stop-color="#FFF1B6"/>
</linearGradient>
<linearGradient id="paint1_linear_362_15002" x1="65.4788" y1="25.0274" x2="72.4631" y2="15.4314" gradientUnits="userSpaceOnUse">
<stop offset="0.278846" stop-color="#8383ED"/>
<stop offset="1" stop-color="#FFF1B6"/>
</linearGradient>
<linearGradient id="paint2_linear_362_15002" x1="54.7058" y1="55.9981" x2="94.9621" y2="20.1553" gradientUnits="userSpaceOnUse">
<stop offset="0.278846" stop-color="#8383ED"/>
<stop offset="1" stop-color="#FFF1B6"/>
</linearGradient>
<linearGradient id="paint3_linear_362_15002" x1="69.5789" y1="44.7782" x2="69.8456" y2="32.7807" gradientUnits="userSpaceOnUse">
<stop stop-color="#030D14"/>
<stop offset="1" stop-color="#0B2F45"/>
</linearGradient>
<radialGradient id="paint4_radial_362_15002" cx="0" cy="0" r="1" gradientUnits="userSpaceOnUse" gradientTransform="translate(62.6164 38.6887) scale(4.98622 4.98622)">
<stop offset="0.1296" stop-color="#3280FC"/>
<stop offset="1"/>
</radialGradient>
<linearGradient id="paint5_linear_362_15002" x1="59.5779" y1="38.6886" x2="65.6527" y2="38.6886" gradientUnits="userSpaceOnUse">
<stop stop-color="#030D14"/>
<stop offset="1" stop-color="#0B2F45"/>
</linearGradient>
<radialGradient id="paint6_radial_362_15002" cx="0" cy="0" r="1" gradientUnits="userSpaceOnUse" gradientTransform="translate(76.2258 38.6887) scale(4.98622)">
<stop offset="0.1296" stop-color="#3280FC"/>
<stop offset="1"/>
</radialGradient>
<linearGradient id="paint7_linear_362_15002" x1="73.1912" y1="38.6886" x2="79.2661" y2="38.6886" gradientUnits="userSpaceOnUse">
<stop stop-color="#030D14"/>
<stop offset="1" stop-color="#0B2F45"/>
</linearGradient>
<linearGradient id="paint8_linear_362_15002" x1="68.4343" y1="11.7141" x2="72.4839" y2="8.97225" gradientUnits="userSpaceOnUse">
<stop offset="0.278846" stop-color="#8383ED"/>
<stop offset="1" stop-color="#FFF1B6"/>
</linearGradient>
<linearGradient id="paint9_linear_362_15002" x1="60.7949" y1="79.7179" x2="87.789" y2="55.826" gradientUnits="userSpaceOnUse">
<stop offset="0.278846" stop-color="#8383ED"/>
<stop offset="1" stop-color="#FFF1B6"/>
</linearGradient>
<linearGradient id="paint10_linear_362_15002" x1="60.0541" y1="62.3982" x2="73.8927" y2="46.2383" gradientUnits="userSpaceOnUse">
<stop offset="0.0397" stop-color="#06CFF1"/>
<stop offset="1" stop-color="#DEFA8E"/>
</linearGradient>
<linearGradient id="paint11_linear_362_15002" x1="80.4141" y1="75.2407" x2="91.3084" y2="71.9702" gradientUnits="userSpaceOnUse">
<stop offset="0.278846" stop-color="#8383ED"/>
<stop offset="1" stop-color="#FFF1B6"/>
</linearGradient>
<radialGradient id="paint12_radial_362_15002" cx="0" cy="0" r="1" gradientUnits="userSpaceOnUse" gradientTransform="translate(70.3701 86.1402) scale(14.2431 5.83093)">
<stop stop-color="#E4E4FF"/>
<stop offset="1" stop-color="#F6F6FF"/>
</radialGradient>
</defs>
</svg>
