<svg width="136" height="100" viewBox="0 0 136 100" fill="none" xmlns="http://www.w3.org/2000/svg">
<rect x="0.5" y="0.5" width="135" height="99" rx="9.5" fill="white"/>
<rect x="0.5" y="0.5" width="135" height="99" rx="9.5" stroke="#EDEAFC"/>
<path d="M10.9826 74.868C19.5822 74.868 28.1816 74.868 36.781 74.868C53.4734 74.868 70.1658 74.868 86.8582 74.868C97.9848 74.868 109.111 74.868 120.238 74.868C120.487 74.868 120.736 74.868 120.986 74.868C120.986 72.8124 120.986 70.7567 120.986 68.7011C119.902 68.7011 118.817 68.7011 117.733 68.7011C117.314 68.7011 117.314 68.0505 117.733 68.0505C118.817 68.0505 119.902 68.0505 120.986 68.0505C120.986 64.7979 120.986 61.5453 120.986 58.2927C119.902 58.2927 118.817 58.2927 117.733 58.2927C117.314 58.2927 117.314 57.6422 117.733 57.6422C118.817 57.6422 119.902 57.6422 120.986 57.6422C120.986 54.3896 120.986 51.137 120.986 47.8843C119.902 47.8843 118.817 47.8843 117.733 47.8843C117.314 47.8843 117.314 47.2338 117.733 47.2338C118.817 47.2338 119.902 47.2338 120.986 47.2338C120.986 44.6148 120.986 41.9958 120.986 39.3768C120.986 38.7432 120.986 38.1096 120.986 37.476C119.902 37.476 118.817 37.476 117.733 37.476C117.314 37.476 117.314 36.8255 117.733 36.8255C118.817 36.8255 119.902 36.8255 120.986 36.8255C120.986 33.5729 120.986 30.3202 120.986 27.0676C119.902 27.0676 118.817 27.0676 117.733 27.0676C117.314 27.0676 117.314 26.4171 117.733 26.4171C118.817 26.4171 119.902 26.4171 120.986 26.4171C120.986 23.1645 120.986 19.9119 120.986 16.6593C119.902 16.6593 118.817 16.6593 117.733 16.6593C117.314 16.6593 117.314 16.0087 117.733 16.0087C118.817 16.0087 119.902 16.0087 120.986 16.0087C120.986 14.1108 120.986 12.2128 120.986 10.3146C120.986 9.89514 121.636 9.89514 121.636 10.3146C121.636 12.2126 121.636 14.1105 121.636 16.0087C122.764 16.0087 123.891 16.0087 125.019 16.0087C125.438 16.0087 125.438 16.6593 125.019 16.6593C123.891 16.6593 122.764 16.6593 121.636 16.6593C121.636 19.9119 121.636 23.1645 121.636 26.4171C122.764 26.4171 123.891 26.4171 125.019 26.4171C125.438 26.4171 125.438 27.0676 125.019 27.0676C123.891 27.0676 122.764 27.0676 121.636 27.0676C121.636 30.3202 121.636 33.5729 121.636 36.8255C122.764 36.8255 123.891 36.8255 125.019 36.8255C125.438 36.8255 125.438 37.476 125.019 37.476C123.891 37.476 122.764 37.476 121.636 37.476C121.636 40.3609 121.636 43.2461 121.636 46.1313C121.636 46.4987 121.636 46.8664 121.636 47.2338C122.764 47.2338 123.891 47.2338 125.019 47.2338C125.438 47.2338 125.438 47.8843 125.019 47.8843C123.891 47.8843 122.764 47.8843 121.636 47.8843C121.636 51.137 121.636 54.3896 121.636 57.6422C122.764 57.6422 123.891 57.6422 125.019 57.6422C125.438 57.6422 125.438 58.2927 125.019 58.2927C123.891 58.2927 122.764 58.2927 121.636 58.2927C121.636 61.5453 121.636 64.7979 121.636 68.0505C122.764 68.0505 123.891 68.0505 125.019 68.0505C125.438 68.0505 125.438 68.7011 125.019 68.7011C123.891 68.7011 122.764 68.7011 121.636 68.7011C121.636 70.865 121.636 73.0294 121.636 75.1933C121.636 75.3708 121.488 75.5186 121.311 75.5186C112.712 75.5186 104.112 75.5186 95.5123 75.5186C78.8199 75.5186 62.1275 75.5186 45.435 75.5186C34.3085 75.5186 23.1822 75.5186 12.0557 75.5186C11.6979 75.5186 11.3401 75.5186 10.9823 75.5186C10.5631 75.5186 10.5631 74.868 10.9826 74.868Z" fill="#E4EBF1"/>
<path d="M32.908 64.8652L26.568 55.041L20.2285 64.8652H23.6713V74.8572H29.4652V64.8652H32.908Z" fill="#417CB8"/>
<path d="M66.4939 50.7605L60.1539 40.9365L53.8145 50.7605H57.2573V74.8566H63.0508V50.7605H66.4939Z" fill="#A7D773"/>
<path d="M49.697 58.5681L43.3573 48.7441L37.0176 58.5681H40.4604V74.8579H46.2542V58.5681H49.697Z" fill="#49CCE8"/>
<path d="M83.4082 42.9548L77.0682 33.1309L70.7285 42.9548H74.1716V74.8572H79.9652V42.9548H83.4082Z" fill="#C5E170"/>
<path d="M100.322 32.5451L93.9823 22.7212L87.6426 32.5451H91.0857V74.8559H96.8792V32.5451H100.322Z" fill="#F6D274"/>
<path d="M117.502 24.739L111.162 14.915L104.822 24.739H108.265V74.856H114.059V24.739H117.502Z" fill="#FFAF6D"/>
<path opacity="0.7" d="M71.6283 89.9997C91.3171 89.9997 107.278 86.3642 107.278 81.8795C107.278 77.3948 91.3171 73.7593 71.6283 73.7593C51.9395 73.7593 35.9785 77.3948 35.9785 81.8795C35.9785 86.3642 51.9395 89.9997 71.6283 89.9997Z" fill="#E4E4FF"/>
<path d="M72.7429 47.5379C74.906 45.9544 81.4721 42.5577 83.6749 45.6792C85.7047 48.678 80.8611 51.4778 78.7704 52.593" fill="#8383ED"/>
<path d="M83.3032 60.1337C84.4585 56.7956 86.4829 53.2091 90.527 54.3455C94.5705 55.4819 95.8464 58.8118 95.4307 62.3274C96.5899 60.2051 99.4108 58.9149 101.422 61.2073C103.203 63.3365 100.847 66.1695 99.0781 67.6858C94.3295 71.9386 89.6491 67.0596 90.3394 62.1799" fill="#7171D5"/>
<path d="M58.7822 44.127C55.8209 47.5691 56.0413 54.8276 58.0083 58.6477C60.5219 63.8949 66.763 69.0151 71.8147 71.9056C79.4494 76.282 89.0007 74.05 90.0352 64.0447C91.133 53.2184 77.3172 47.0555 68.9511 44.9309" fill="#8383ED"/>
<path d="M78.5999 63.5737C79.5037 60.9455 81.0936 58.124 84.2921 59.0307C87.4902 59.9375 88.5074 62.5658 88.1885 65.3358C89.0987 63.6661 91.3241 62.6568 92.9193 64.4692C94.3323 66.1524 92.4788 68.3792 91.0851 69.5695C87.3445 72.9089 83.633 69.0503 84.1652 65.2057" fill="#6C6CD1"/>
<path d="M59.2776 57.4046C62.7846 55.3909 70.3989 49.7854 71.8109 53.2883C73.2232 56.7915 69.046 61.582 62.5407 66.723" fill="#6C6CD1"/>
<path d="M81.8989 46.2116C79.5301 42.2172 83.7511 39.9892 82.8394 43.4748C85.3692 39.5387 87.849 40.8408 84.4924 43.5591C85.395 42.9775 87.0903 42.1 87.4629 42.8412C87.6368 43.4342 86.4435 44.2661 85.4378 44.7212C86.1569 44.429 87.7564 43.9289 88.0383 44.5694C88.2612 45.3088 86.6955 45.7804 85.8689 46.129C86.8715 46.1889 88.2529 46.3592 86.8867 47.2137C85.7129 47.8599 83.499 48.7477 81.8989 46.2116Z" fill="#FDDBD9"/>
<path d="M71.0272 54.4573C69.0441 50.2581 73.4558 48.4368 72.2209 51.8215C75.1095 48.1403 77.4557 49.6696 73.8586 52.0609C74.8121 51.5664 76.5823 50.8523 76.884 51.6258C77.0013 52.232 75.7349 52.948 74.691 53.307C75.4345 53.0831 77.0736 52.736 77.2942 53.3999C77.4466 54.1573 75.8436 54.4796 74.9882 54.7489C75.9807 54.9032 77.3392 55.2021 75.8989 55.9243C74.6694 56.4566 72.382 57.1331 71.0272 54.4573Z" fill="#FDDBD9"/>
<path d="M59.4212 24.2722C39.234 28.2243 46.8975 57.6018 68.0303 50.2169C76.8744 47.1272 80.848 40.6375 77.4391 32.1216C74.4645 24.6927 67.5639 22.2473 59.4212 24.2722Z" fill="#FDDBD9"/>
<path d="M48.5295 39.9701C42.169 38.9486 45.7421 48.4674 50.1177 44.0442L48.5295 39.9701Z" fill="#FDDBD9"/>
<path d="M48.5558 39.6739C47.3866 39.5016 46.1033 39.5883 45.2936 40.551C44.6539 41.3118 44.6987 42.4228 44.9925 43.3101C45.3078 44.2622 46.0657 45.0985 47.0279 45.4091C48.2541 45.8049 49.4546 45.1107 50.3056 44.2739C50.5768 44.0073 50.2027 43.5453 49.9296 43.8139C49.2135 44.5181 48.2756 45.1378 47.2304 44.8505C46.4581 44.6377 45.9097 43.9621 45.6054 43.2539C45.3084 42.5629 45.2629 41.7021 45.6687 41.0458C46.2503 40.1054 47.5471 40.1244 48.5032 40.2655C48.8828 40.322 48.9338 39.7298 48.5558 39.6739Z" fill="#FDDBD9"/>
<path d="M77.154 32.938C82.3167 29.0853 83.5617 39.1763 77.6347 37.2842L77.154 32.938Z" fill="#FDDBD9"/>
<path d="M77.3405 33.1681C78.1348 32.5898 79.1473 32.0827 80.1185 32.5278C80.8135 32.846 81.1492 33.6737 81.2527 34.3794C81.3664 35.157 81.1659 35.9758 80.6523 36.5746C79.933 37.4125 78.677 37.2923 77.7348 37.0047C77.3701 36.8931 77.1647 37.4511 77.532 37.5631C78.6921 37.9173 80.0062 37.9783 80.9562 37.1073C81.7051 36.4206 81.9404 35.3495 81.8498 34.3722C81.7626 33.4319 81.2603 32.451 80.398 32.0078C79.226 31.4062 77.9383 31.9987 76.965 32.7074C76.6538 32.934 77.0323 33.3924 77.3405 33.1681Z" fill="#FDDBD9"/>
<path d="M57.3477 37.1957C56.0171 37.4106 56.8544 40.6994 58.2124 40.1208C58.7809 39.8786 58.9822 39.2128 58.6582 38.2463C58.376 37.4035 57.8808 37.0624 57.3477 37.1957Z" fill="#5E4145"/>
<path d="M68.0679 34.5629C69.3463 34.1362 70.1283 37.4387 68.6571 37.5553C68.0412 37.6041 67.5544 37.1072 67.3932 36.1008C67.2534 35.2231 67.5343 34.6915 68.0679 34.5629Z" fill="#5E4145"/>
<g opacity="0.7">
<path d="M54.7096 41.5935C51.2361 42.2605 52.6477 47.6939 56.2736 46.3973C57.7928 45.8548 58.459 44.6713 57.8447 43.0924C57.3092 41.7154 56.1098 41.2449 54.7096 41.5935Z" fill="#DE99A4"/>
</g>
<g opacity="0.7">
<path d="M72.4586 37.2282C75.8462 36.2093 77.1133 41.678 73.2983 42.2097C71.7022 42.4324 70.5628 41.6932 70.3752 40.0099C70.2117 38.5404 71.0564 37.568 72.4586 37.2282Z" fill="#DE99A4"/>
</g>
<path d="M61.1971 41.1451C62.4736 43.3021 66.4021 42.4906 66.4679 39.8929C66.4776 39.5122 65.8857 39.4566 65.876 39.8407C65.8266 41.7862 62.7371 42.5876 61.7385 40.9002C61.5451 40.5731 61.0023 40.816 61.1971 41.1451Z" fill="#5E4145"/>
<path d="M65.3441 26.6066C65.8086 27.0089 66.0312 27.5625 66.0499 28.0849C66.0684 28.6016 65.8874 29.1251 65.4944 29.4483C65.0922 29.779 64.6358 29.9428 64.1667 29.8969C63.9499 29.8757 63.7412 29.8099 63.543 29.7061C63.1827 30.0659 62.6926 30.353 62.1488 30.3382C61.8341 30.3297 61.5332 30.2209 61.2566 30.0089C61.0179 30.2204 60.7435 30.3833 60.4519 30.4521C59.9492 30.5709 59.5062 30.5268 59.1508 30.3313C58.7948 30.1355 58.5681 29.8102 58.4585 29.4458C58.2433 28.7299 58.4616 27.8243 59.0641 27.1709C59.1815 27.0436 59.3829 27.0374 59.5139 27.1567C59.6448 27.2761 59.6559 27.4758 59.5386 27.603C59.0639 28.1178 58.9253 28.802 59.0685 29.2782C59.1382 29.5099 59.2697 29.6812 59.4499 29.7803C59.6307 29.8798 59.9019 29.9292 60.2911 29.8373C60.4614 29.797 60.6421 29.6931 60.8112 29.5468C60.755 29.4706 60.7002 29.389 60.6474 29.3015L60.5664 29.16C60.2781 28.6301 60.3049 28.0453 60.5321 27.6595C60.646 27.4663 60.8293 27.295 61.0784 27.2474C61.3394 27.1976 61.5936 27.2983 61.8018 27.4952C62.0518 27.7316 62.1356 28.0466 62.1252 28.3484C62.1149 28.6469 62.0137 28.9554 61.8658 29.2337C61.8108 29.3371 61.7469 29.4398 61.6759 29.5397C61.8453 29.658 62.0072 29.7025 62.1515 29.7065C62.4366 29.7142 62.7458 29.5704 63.0201 29.3193C62.9805 29.2805 62.9413 29.2402 62.9033 29.1979C62.8984 29.1925 62.8937 29.1868 62.8892 29.1811C62.7849 29.0484 62.6885 28.8593 62.6166 28.6644C62.5438 28.4671 62.4864 28.2373 62.4763 28.0169C62.4666 27.8059 62.4983 27.5454 62.671 27.3511C62.8611 27.1372 63.1459 27.0841 63.4548 27.1397C63.747 27.1923 63.9825 27.3334 64.1301 27.5582C64.2722 27.7749 64.306 28.029 64.2839 28.2672C64.2553 28.5755 64.1296 28.9027 63.9436 29.2014C64.0355 29.2376 64.1262 29.2594 64.2147 29.2681C64.4829 29.2943 64.779 29.2066 65.0813 28.958C65.2937 28.7833 65.4267 28.4635 65.4134 28.093C65.4003 27.7281 65.245 27.3503 64.9314 27.0788C64.7974 26.9628 64.7813 26.7628 64.8952 26.6325C65.0091 26.5024 65.2101 26.4907 65.3441 26.6066ZM61.3678 27.9479C61.2717 27.8571 61.2216 27.866 61.2125 27.8677C61.1914 27.8718 61.1384 27.8952 61.084 27.9876C60.9747 28.1732 60.9366 28.5231 61.1253 28.87C61.1602 28.9342 61.1961 28.9934 61.2314 29.0486C61.2555 29.0094 61.2792 28.9698 61.3009 28.929C61.4187 28.7074 61.4823 28.4909 61.4885 28.3122C61.4945 28.1368 61.4461 28.0219 61.3678 27.9479ZM63.5987 27.8943C63.5663 27.8449 63.5028 27.7878 63.3548 27.7612C63.2659 27.7452 63.2138 27.7503 63.1874 27.7569C63.1649 27.7626 63.1575 27.7701 63.1531 27.775C63.1375 27.7926 63.1057 27.8553 63.1124 28.0026C63.1188 28.1405 63.157 28.3043 63.2141 28.4593C63.2706 28.6124 63.3369 28.7316 63.3846 28.7942C63.3959 28.8065 63.4072 28.8184 63.4184 28.8302C63.5509 28.6092 63.6323 28.3836 63.6498 28.1951C63.6634 28.0483 63.6364 27.9519 63.5987 27.8943Z" fill="#434343"/>
<path d="M62.2343 38.7082C62.6151 39.8433 64.4551 39.3895 64.2 38.1916C64.1205 37.8176 63.5346 37.9158 63.6146 38.2911C63.6662 38.5341 63.5553 38.7109 63.3099 38.768C63.0538 38.8277 62.8568 38.7049 62.7757 38.4633C62.6536 38.0994 62.1136 38.3492 62.2343 38.7082Z" fill="#5E4145"/>
<path d="M49.1047 41.8924C48.3444 41.8324 47.5636 41.7987 46.8146 41.9686C46.4423 42.0533 46.54 42.6393 46.9145 42.5543C47.6176 42.3949 48.3391 42.4279 49.0524 42.4842C49.4337 42.5143 49.4874 41.9225 49.1047 41.8924Z" fill="#E7ADB4"/>
<path d="M48.2806 42.1532C48.0576 42.521 47.8346 42.8887 47.6116 43.2565C47.4141 43.5822 47.8975 43.9284 48.0963 43.6003C48.3193 43.2325 48.5423 42.8647 48.7653 42.497C48.9624 42.1711 48.4794 41.8251 48.2806 42.1532Z" fill="#E7ADB4"/>
<path d="M77.8901 35.3855C78.4703 35.0214 79.0816 34.6649 79.7481 34.4874C80.1156 34.3897 80.0193 33.8032 79.6484 33.9015C78.8749 34.1074 78.1872 34.5025 77.5138 34.9252C77.1896 35.129 77.5703 35.5864 77.8901 35.3855Z" fill="#E7ADB4"/>
<path d="M78.0809 35.2608C78.4489 35.4834 78.8169 35.7061 79.1847 35.9291C79.5103 36.1266 79.8566 35.6433 79.5285 35.4445C79.1607 35.2215 78.7925 34.9991 78.4247 34.7761C78.0988 34.579 77.7528 35.062 78.0809 35.2608Z" fill="#E7ADB4"/>
<path d="M52.338 70.8823C50.6426 74.2734 48.9473 79.3591 48.0996 82.7497C62.9339 85.7166 80.3112 85.5617 95.1459 82.7497C93.9508 77.8998 92.8247 74.9345 90.9075 70.8823" fill="#285391"/>
<path d="M52.0841 70.734C50.2304 74.5283 48.8614 78.5857 47.8157 82.6723C47.7777 82.8201 47.862 83.0063 48.0232 83.0376C63.5079 86.0785 79.7314 85.926 95.2271 83.0376C95.3892 83.0074 95.4715 82.8189 95.4347 82.6723C94.3969 78.5298 92.9804 74.5969 91.1662 70.734C91.0034 70.3874 90.4913 70.6893 90.6533 71.0339C91.7679 73.4074 92.778 75.8105 93.5956 78.3033C94.0075 79.5593 94.3509 80.8376 94.6829 82.1166C94.8718 82.8435 90.8806 83.1782 90.3423 83.2586C84.0327 84.2049 77.6419 84.6061 71.2649 84.6216C65.1252 84.6366 58.9812 84.193 52.9085 83.293C51.5494 83.0918 50.1967 82.851 48.8471 82.5955C48.1306 82.46 49.3264 79.515 49.4877 79C50.3405 76.2815 51.3458 73.5947 52.5971 71.0335C52.7647 70.6912 52.2525 70.3898 52.0841 70.734Z" fill="#144182"/>
<path d="M82.2764 76.9985C80.6092 77.0583 80.875 79.6924 82.659 79.3498C83.4053 79.2068 83.8018 78.7026 83.6291 77.923C83.4786 77.2425 82.9537 76.9367 82.2764 76.9985Z" fill="#18335B"/>
<path d="M82.2771 76.7012C80.6614 76.8097 80.367 79.0173 81.8548 79.5991C82.6625 79.9148 83.7185 79.4233 83.9332 78.5863C84.2109 77.5033 83.3074 76.641 82.2771 76.7012C81.8964 76.7234 81.8941 77.3176 82.2771 77.2954C83.0059 77.253 83.5276 77.7743 83.3343 78.5289C83.198 79.0596 82.3678 79.1979 81.9384 78.9931C81.124 78.6049 81.408 77.354 82.2771 77.2954C82.6574 77.2696 82.6597 76.6755 82.2771 76.7012Z" fill="#18335B"/>
<path d="M85.9052 76.7162C84.238 76.7768 84.5041 79.4105 86.2878 79.0683C87.0345 78.9249 87.4306 78.421 87.2583 77.6411C87.1078 76.9606 86.5825 76.6548 85.9052 76.7162Z" fill="#18335B"/>
<path d="M85.9 76.4194C84.2847 76.5287 83.99 78.7358 85.4778 79.3177C86.2854 79.6338 87.3414 79.1419 87.5561 78.3045C87.8338 77.2211 86.9299 76.36 85.9 76.4194C85.5189 76.4416 85.517 77.0357 85.9 77.0136C86.6288 76.9716 87.1509 77.4925 86.9572 78.2471C86.821 78.7778 85.9907 78.9161 85.5613 78.7117C84.7465 78.3235 85.0309 77.0722 85.8996 77.0132C86.2799 76.9878 86.2822 76.3937 85.9 76.4194Z" fill="#18335B"/>
<path d="M89.5266 76.4329C87.859 76.4935 88.1252 79.1272 89.9088 78.785C90.6555 78.6416 91.052 78.1378 90.8797 77.3582C90.7288 76.6773 90.2039 76.3719 89.5266 76.4329Z" fill="#18335B"/>
<path d="M89.5273 76.1357C87.912 76.245 87.6165 78.4517 89.1047 79.034C89.9124 79.3497 90.9684 78.8581 91.1831 78.0208C91.4616 76.9378 90.5572 76.0767 89.5273 76.1357C89.1467 76.1575 89.1443 76.7516 89.5273 76.7298C90.2558 76.6882 90.7787 77.2091 90.5846 77.9633C90.4483 78.4941 89.6177 78.6324 89.1883 78.428C88.3735 78.0398 88.6583 76.7885 89.527 76.7294C89.9072 76.7041 89.91 76.1099 89.5273 76.1357Z" fill="#18335B"/>
<path d="M71.0673 75.2517C64.7921 75.2034 64.1243 75.178 64.0221 77.8628C63.9044 80.9517 63.9769 81.841 68.9655 81.8053C75.6843 81.7566 79.1562 82.2545 79.2343 79.8537C79.4125 74.3161 78.5094 75.2838 71.0673 75.2517Z" fill="#ACDAFF"/>
<path d="M71.0727 74.9547C69.1326 74.94 66.506 74.5225 64.6926 75.4506C63.6136 76.0024 63.7324 77.628 63.7071 78.6195C63.6774 79.7742 63.7867 81.1296 65.0107 81.6323C67.4939 82.6527 70.7836 82.1049 73.3991 82.1144C75.0675 82.1203 77.4402 82.3687 78.8733 81.2881C79.9563 80.4713 79.6073 78.4428 79.4778 77.3064C79.0646 73.6701 73.4922 74.9567 71.0727 74.9547C70.6897 74.9543 70.6897 75.5485 71.0727 75.5489C72.8671 75.5504 78.0993 74.5031 78.7988 76.8822C79.0971 77.8966 79.3237 80.2095 78.3972 80.9082C77.292 81.7416 75.2251 81.5107 73.9315 81.5202C71.7132 81.5364 69.4752 81.5729 67.2594 81.4723C65.4373 81.3895 64.3385 80.8932 64.2985 78.9621C64.2767 77.9002 64.1194 76.2805 65.3141 75.819C66.9829 75.1741 69.3342 75.5358 71.0727 75.5489C71.4562 75.5516 71.4558 74.9575 71.0727 74.9547Z" fill="#18335B"/>
<path d="M71.1729 76.4221C66.1178 76.3908 65.5791 76.3746 65.4975 78.0961C65.4028 80.0755 65.461 80.6462 69.48 80.6233C74.892 80.592 77.6889 80.9112 77.7519 79.3716C77.8949 75.8224 77.1672 76.4427 71.1729 76.4221Z" fill="#ACDAFF"/>
<path d="M66.9805 77.2409C66.9805 78.0886 66.9805 78.9366 66.9805 79.7843C66.9805 80.1673 67.5746 80.1673 67.5746 79.7843C67.5746 78.9366 67.5746 78.0886 67.5746 77.2409C67.5746 76.8579 66.9805 76.8579 66.9805 77.2409Z" fill="#18335B"/>
<path d="M68.6836 77.2384C68.6836 78.0861 68.6836 78.9342 68.6836 79.7819C68.6836 80.1649 69.2778 80.1649 69.2778 79.7819C69.2778 78.9342 69.2778 78.0861 69.2778 77.2384C69.2778 76.8554 68.6836 76.8554 68.6836 77.2384Z" fill="#18335B"/>
<path d="M70.373 77.2409C70.373 78.0886 70.373 78.9366 70.373 79.7843C70.373 80.1673 70.9672 80.1673 70.9672 79.7843C70.9672 78.9366 70.9672 78.0886 70.9672 77.2409C70.9672 76.8579 70.373 76.8579 70.373 77.2409Z" fill="#18335B"/>
<path d="M72.0684 77.2384C72.0684 78.0861 72.0684 78.9342 72.0684 79.7819C72.0684 80.1649 72.6625 80.1649 72.6625 79.7819C72.6625 78.9342 72.6625 78.0861 72.6625 77.2384C72.6625 76.8554 72.0684 76.8554 72.0684 77.2384Z" fill="#18335B"/>
<path d="M73.7676 77.2409C73.7676 78.0886 73.7676 78.9366 73.7676 79.7843C73.7676 80.1673 74.3617 80.1673 74.3617 79.7843C74.3617 78.9366 74.3617 78.0886 74.3617 77.2409C74.3617 76.8579 73.7676 76.8579 73.7676 77.2409Z" fill="#18335B"/>
<path d="M75.457 77.2384C75.457 78.0861 75.457 78.9342 75.457 79.7819C75.457 80.1649 76.0512 80.1649 76.0512 79.7819C76.0512 78.9342 76.0512 78.0861 76.0512 77.2384C76.0512 76.8554 75.457 76.8554 75.457 77.2384Z" fill="#18335B"/>
<path d="M56.8198 82.1331C66.5363 84.0516 76.642 83.7252 86.3859 82.1331C86.6293 82.0934 86.5259 81.7594 86.2841 81.7991C76.6113 83.3796 66.5678 83.7037 56.9219 81.7991C56.6803 81.7513 56.5779 82.0855 56.8198 82.1331Z" fill="#18335B"/>
<path d="M33.4666 59.3581C36.2152 64.4822 41.203 67.9664 48.4359 70.1339C58.2234 73.2354 67.9787 73.759 78.5655 72.9823C87.4618 72.5493 96.6776 71.8506 104.342 66.5376C108.13 63.911 112.293 58.3785 108.871 55.8427C106.308 54.2626 96.1488 55.3558 93.1942 56.3604C87.701 57.717 84.0318 59.8311 74.5949 60.4597C59.2933 61.4785 48.3412 52.2864 36.8081 55.4485C33.9934 56.2205 32.1701 57.3027 33.4666 59.3581Z" fill="#ACDAFF"/>
<path d="M49.8382 68.1412C54.9643 70.6141 60.4203 71.655 66.0965 71.2185C66.476 71.1892 66.4788 70.5951 66.0965 70.6244C60.5292 71.0526 55.1691 70.0552 50.1381 67.6282C49.7947 67.4626 49.4928 67.9752 49.8382 68.1412Z" fill="#89CBFF"/>
<path d="M54.1933 68.0112C57.0691 69.2458 59.6572 69.7525 62.7932 69.7683C63.1763 69.7703 63.1763 69.1761 62.7932 69.1741C59.7689 69.1587 57.2647 68.6877 54.4928 67.4982C54.1454 67.3489 53.842 67.8606 54.1933 68.0112Z" fill="#89CBFF"/>
</svg>
