<svg width="116" height="28" viewBox="0 0 116 28" fill="none" xmlns="http://www.w3.org/2000/svg">
<path d="M58.1798 15.3624C55.8272 15.3624 53.9096 17.1966 53.9096 19.7229C53.9096 22.2338 55.8272 24.0834 58.1798 24.0834C60.5334 24.0834 62.4509 22.2338 62.4509 19.7229C62.4499 17.1966 60.5324 15.3624 58.1798 15.3624ZM58.1798 22.3671C56.8904 22.3671 55.7791 21.2772 55.7791 19.7239C55.7791 18.1542 56.8914 17.0808 58.1798 17.0808C59.4691 17.0808 60.5804 18.1542 60.5804 19.7239C60.5804 21.2762 59.4691 22.3671 58.1798 22.3671ZM48.8633 15.3624C46.5107 15.3624 44.5932 17.1966 44.5932 19.7229C44.5932 22.2338 46.5107 24.0834 48.8633 24.0834C51.2169 24.0834 53.1344 22.2338 53.1344 19.7229C53.1344 17.1966 51.2169 15.3624 48.8633 15.3624ZM48.8633 22.3671C47.574 22.3671 46.4627 21.2772 46.4627 19.7239C46.4627 18.1542 47.575 17.0808 48.8633 17.0808C50.1526 17.0808 51.2639 18.1542 51.2639 19.7239C51.2649 21.2762 50.1526 22.3671 48.8633 22.3671ZM37.7824 16.7014V18.551H42.1015C41.9725 19.5917 41.6344 20.3514 41.1182 20.8794C40.4901 21.5233 39.5068 22.2338 37.7824 22.2338C35.1237 22.2338 33.0451 20.0366 33.0451 17.3115C33.0451 14.5863 35.1237 12.3891 37.7824 12.3891C39.2167 12.3891 40.264 12.9674 41.0372 13.7107L42.3106 12.4055C41.2303 11.3485 39.7969 10.5395 37.7824 10.5395C34.1404 10.5395 31.0786 13.5785 31.0786 17.3115C31.0786 21.0445 34.1404 24.0834 37.7824 24.0834C39.7479 24.0834 41.2313 23.4221 42.3906 22.1836C43.5829 20.9614 43.954 19.2431 43.954 17.8559C43.954 17.4273 43.922 17.0305 43.857 16.7004H37.7824V16.7014ZM83.1024 18.1378C82.7483 17.1638 81.668 15.3624 79.4604 15.3624C77.2689 15.3624 75.4474 17.13 75.4474 19.7229C75.4474 22.1672 77.2529 24.0834 79.6695 24.0834C81.619 24.0834 82.7473 22.8613 83.2154 22.1508L81.7651 21.1593C81.2819 21.8862 80.6208 22.365 79.6695 22.365C78.7192 22.365 78.0421 21.919 77.607 21.0435L83.2955 18.632L83.1024 18.1378ZM77.3009 19.5917C77.2529 17.9061 78.5742 17.048 79.5255 17.048C80.2667 17.048 80.8948 17.4284 81.1049 17.9728L77.3009 19.5917ZM72.6766 23.8199H74.5451V11.003H72.6766V23.8199ZM69.6138 16.3375H69.5498C69.1307 15.8248 68.3245 15.3624 67.3102 15.3624C65.1826 15.3624 63.2331 17.2787 63.2331 19.7403C63.2331 22.1846 65.1826 24.0844 67.3102 24.0844C68.3255 24.0844 69.1307 23.622 69.5498 23.094H69.6138V23.7215C69.6138 25.3896 68.7436 26.2816 67.3422 26.2816C66.1979 26.2816 65.4887 25.4398 65.1987 24.7293L63.5712 25.4234C64.0383 26.5789 65.2787 27.9999 67.3422 27.9999C69.5338 27.9999 71.3873 26.6784 71.3873 23.457V15.628H69.6148V16.3375H69.6138ZM67.4713 22.3671C66.1819 22.3671 65.1026 21.2598 65.1026 19.7403C65.1026 18.2035 66.1819 17.0808 67.4713 17.0808C68.7436 17.0808 69.7429 18.2035 69.7429 19.7403C69.7429 21.2598 68.7436 22.3671 67.4713 22.3671ZM91.8587 11.003H87.3866V23.8199H89.252V18.9642H91.8577C93.9263 18.9642 95.9608 17.4294 95.9608 14.9841C95.9608 12.5388 93.9273 11.003 91.8587 11.003ZM91.9068 17.1802H89.252V12.7869H91.9068C93.3021 12.7869 94.0943 13.9711 94.0943 14.9841C94.0943 15.9766 93.3021 17.1802 91.9068 17.1802ZM103.442 15.3399C102.09 15.3399 100.691 15.9499 100.112 17.3022L101.768 18.0107C102.122 17.3022 102.783 17.0705 103.474 17.0705C104.439 17.0705 105.42 17.6642 105.436 18.7192V18.8514C105.098 18.6536 104.374 18.3573 103.49 18.3573C101.704 18.3573 99.8859 19.363 99.8859 21.2424C99.8859 22.9577 101.35 24.0619 102.991 24.0619C104.245 24.0619 104.937 23.4846 105.371 22.808H105.435V23.7973H107.238V18.8832C107.239 16.6092 105.58 15.3399 103.442 15.3399ZM103.216 22.364C102.606 22.364 101.752 22.0503 101.752 21.2752C101.752 20.2858 102.815 19.9064 103.732 19.9064C104.551 19.9064 104.938 20.0879 105.436 20.335C105.291 21.5233 104.294 22.364 103.216 22.364ZM113.802 15.6198L111.662 21.1768H111.598L109.377 15.6198H107.367L110.697 23.3862L108.798 27.7067H110.745L115.877 15.6198H113.802ZM96.9911 23.8199H98.8566V11.003H96.9911V23.8199Z" fill="black"/>
<path d="M37.4549 3.56333C37.4549 4.4225 37.2068 5.10636 36.7097 5.61695C36.1455 6.22391 35.4093 6.52739 34.5051 6.52739C33.6389 6.52739 32.9017 6.21981 32.2965 5.60464C31.6903 4.98845 31.3873 4.22565 31.3873 3.31521C31.3873 2.40374 31.6903 1.64094 32.2965 1.02578C32.9017 0.409586 33.6389 0.102005 34.5051 0.102005C34.9352 0.102005 35.3463 0.188128 35.7364 0.359348C36.1275 0.531594 36.4406 0.76023 36.6747 1.04628L36.1475 1.58762C35.7504 1.10062 35.2033 0.857631 34.5041 0.857631C33.8719 0.857631 33.3258 1.08524 32.8646 1.54046C32.4035 1.99568 32.1735 2.58727 32.1735 3.31418C32.1735 4.0411 32.4035 4.63268 32.8646 5.0879C33.3258 5.54313 33.8719 5.77074 34.5041 5.77074C35.1743 5.77074 35.7334 5.5421 36.1805 5.0838C36.4706 4.78545 36.6386 4.37021 36.6837 3.8381H34.5041V3.09888H37.4119C37.4419 3.25985 37.4549 3.41466 37.4549 3.56333Z" fill="black"/>
<path d="M42.0662 0.99405H39.3335V2.94412H41.7981V3.68334H39.3335V5.63341H42.0662V6.39006H38.5623V0.238424H42.0662V0.99405Z" fill="black"/>
<path d="M45.3179 6.39006H44.5467V0.99405H42.8703V0.238424H46.9944V0.99405H45.3179V6.39006Z" fill="black"/>
<path d="M49.9781 6.39006V0.238424H50.7493V6.39006H49.9781Z" fill="black"/>
<path d="M54.1694 6.39006H53.3982V0.99405H51.7218V0.238424H55.8459V0.99405H54.1694V6.39006Z" fill="black"/>
<path d="M63.6527 5.59546C63.0626 6.21678 62.3294 6.52744 61.4521 6.52744C60.5749 6.52744 59.8417 6.21678 59.2525 5.59546C58.6624 4.97415 58.3683 4.2134 58.3683 3.31423C58.3683 2.41507 58.6624 1.65432 59.2525 1.033C59.8417 0.411685 60.5749 0.100002 61.4521 0.100002C62.3244 0.100002 63.0566 0.41271 63.6487 1.0371C64.2409 1.66149 64.5369 2.42019 64.5369 3.31423C64.5369 4.2134 64.2419 4.97415 63.6527 5.59546ZM59.8217 5.07975C60.2658 5.54112 60.809 5.77079 61.4521 5.77079C62.0953 5.77079 62.6394 5.5401 63.0826 5.07975C63.5267 4.61838 63.7497 4.02987 63.7497 3.31423C63.7497 2.59859 63.5267 2.01009 63.0826 1.54871C62.6394 1.08734 62.0953 0.857679 61.4521 0.857679C60.809 0.857679 60.2658 1.08837 59.8217 1.54871C59.3786 2.01009 59.1555 2.59859 59.1555 3.31423C59.1555 4.02987 59.3786 4.61838 59.8217 5.07975Z" fill="black"/>
<path d="M65.6193 6.39006V0.238424H66.5575L69.4743 5.02337H69.5073L69.4743 3.83816V0.238424H70.2455V6.39006H69.4403L66.3885 1.37238H66.3554L66.3885 2.55759V6.39006H65.6193Z" fill="black"/>
<path d="M37.4549 3.56333C37.4549 4.4225 37.2068 5.10636 36.7097 5.61695C36.1455 6.22391 35.4093 6.52739 34.5051 6.52739C33.6389 6.52739 32.9017 6.21981 32.2965 5.60464C31.6903 4.98845 31.3873 4.22565 31.3873 3.31521C31.3873 2.40374 31.6903 1.64094 32.2965 1.02578C32.9017 0.409586 33.6389 0.102005 34.5051 0.102005C34.9352 0.102005 35.3463 0.188128 35.7364 0.359348C36.1275 0.531594 36.4406 0.76023 36.6747 1.04628L36.1475 1.58762C35.7504 1.10062 35.2033 0.857631 34.5041 0.857631C33.8719 0.857631 33.3258 1.08524 32.8646 1.54046C32.4035 1.99568 32.1735 2.58727 32.1735 3.31418C32.1735 4.0411 32.4035 4.63268 32.8646 5.0879C33.3258 5.54313 33.8719 5.77074 34.5041 5.77074C35.1743 5.77074 35.7334 5.5421 36.1805 5.0838C36.4706 4.78545 36.6386 4.37021 36.6837 3.8381H34.5041V3.09888H37.4119C37.4419 3.25985 37.4549 3.41466 37.4549 3.56333Z" stroke="black" stroke-width="0.2" stroke-miterlimit="10"/>
<path d="M42.0662 0.99405H39.3335V2.94412H41.7981V3.68334H39.3335V5.63341H42.0662V6.39006H38.5623V0.238424H42.0662V0.99405Z" stroke="black" stroke-width="0.2" stroke-miterlimit="10"/>
<path d="M45.3179 6.39006H44.5467V0.99405H42.8703V0.238424H46.9944V0.99405H45.3179V6.39006Z" stroke="black" stroke-width="0.2" stroke-miterlimit="10"/>
<path d="M49.9781 6.39006V0.238424H50.7493V6.39006H49.9781Z" stroke="black" stroke-width="0.2" stroke-miterlimit="10"/>
<path d="M54.1694 6.39006H53.3982V0.99405H51.7218V0.238424H55.8459V0.99405H54.1694V6.39006Z" stroke="black" stroke-width="0.2" stroke-miterlimit="10"/>
<path d="M63.6527 5.59546C63.0626 6.21678 62.3294 6.52744 61.4521 6.52744C60.5749 6.52744 59.8417 6.21678 59.2525 5.59546C58.6624 4.97415 58.3683 4.2134 58.3683 3.31423C58.3683 2.41507 58.6624 1.65432 59.2525 1.033C59.8417 0.411685 60.5749 0.100002 61.4521 0.100002C62.3244 0.100002 63.0566 0.41271 63.6487 1.0371C64.2409 1.66149 64.5369 2.42019 64.5369 3.31423C64.5369 4.2134 64.2419 4.97415 63.6527 5.59546ZM59.8217 5.07975C60.2658 5.54112 60.809 5.77079 61.4521 5.77079C62.0953 5.77079 62.6394 5.5401 63.0826 5.07975C63.5267 4.61838 63.7497 4.02987 63.7497 3.31423C63.7497 2.59859 63.5267 2.01009 63.0826 1.54871C62.6394 1.08734 62.0953 0.857679 61.4521 0.857679C60.809 0.857679 60.2658 1.08837 59.8217 1.54871C59.3786 2.01009 59.1555 2.59859 59.1555 3.31423C59.1555 4.02987 59.3786 4.61838 59.8217 5.07975Z" stroke="black" stroke-width="0.2" stroke-miterlimit="10"/>
<path d="M65.6193 6.39006V0.238424H66.5575L69.4743 5.02337H69.5073L69.4743 3.83816V0.238424H70.2455V6.39006H69.4403L66.3885 1.37238H66.3554L66.3885 2.55759V6.39006H65.6193Z" stroke="black" stroke-width="0.2" stroke-miterlimit="10"/>
<g filter="url(#filter0_ii_307_8375)">
<path d="M0.463124 1.10186C0.172047 1.40994 -4.2736e-07 1.88807 -4.2736e-07 2.50723V24.6291C-4.2736e-07 25.2493 0.172047 25.7264 0.463124 26.0345L0.537143 26.1065L12.9294 13.7142V13.5682V13.4221L0.537143 1.02884L0.463124 1.10186Z" fill="url(#paint0_linear_307_8375)"/>
<path d="M17.0593 17.8463L12.9292 13.7142V13.5682V13.4221L17.0603 9.29105L17.1533 9.34406L22.0476 12.1248C23.445 12.919 23.445 14.2184 22.0476 15.0136L17.1533 17.7943L17.0593 17.8463Z" fill="url(#paint1_linear_307_8375)"/>
<g filter="url(#filter1_i_307_8375)">
<path d="M17.1535 17.7933L12.9283 13.5682L0.463015 26.0345C0.923137 26.5226 1.68434 26.5826 2.54157 26.0965L17.1535 17.7933Z" fill="url(#paint2_linear_307_8375)"/>
</g>
<path d="M17.1535 9.34303L2.54157 1.04082C1.68434 0.55369 0.923137 0.614707 0.463015 1.10284L12.9293 13.5692L17.1535 9.34303Z" fill="url(#paint3_linear_307_8375)"/>
</g>
<defs>
<filter id="filter0_ii_307_8375" x="0" y="0.704655" width="23.096" height="25.7277" filterUnits="userSpaceOnUse" color-interpolation-filters="sRGB">
<feFlood flood-opacity="0" result="BackgroundImageFix"/>
<feBlend mode="normal" in="SourceGraphic" in2="BackgroundImageFix" result="shape"/>
<feColorMatrix in="SourceAlpha" type="matrix" values="0 0 0 0 0 0 0 0 0 0 0 0 0 0 0 0 0 0 127 0" result="hardAlpha"/>
<feOffset dy="-0.15"/>
<feComposite in2="hardAlpha" operator="arithmetic" k2="-1" k3="1"/>
<feColorMatrix type="matrix" values="0 0 0 0 0 0 0 0 0 0 0 0 0 0 0 0 0 0 0.12 0"/>
<feBlend mode="normal" in2="shape" result="effect1_innerShadow_307_8375"/>
<feColorMatrix in="SourceAlpha" type="matrix" values="0 0 0 0 0 0 0 0 0 0 0 0 0 0 0 0 0 0 127 0" result="hardAlpha"/>
<feOffset dy="0.15"/>
<feComposite in2="hardAlpha" operator="arithmetic" k2="-1" k3="1"/>
<feColorMatrix type="matrix" values="0 0 0 0 1 0 0 0 0 1 0 0 0 0 1 0 0 0 0.25 0"/>
<feBlend mode="normal" in2="effect1_innerShadow_307_8375" result="effect2_innerShadow_307_8375"/>
</filter>
<filter id="filter1_i_307_8375" x="0.463014" y="13.5682" width="16.69" height="12.8641" filterUnits="userSpaceOnUse" color-interpolation-filters="sRGB">
<feFlood flood-opacity="0" result="BackgroundImageFix"/>
<feBlend mode="normal" in="SourceGraphic" in2="BackgroundImageFix" result="shape"/>
<feColorMatrix in="SourceAlpha" type="matrix" values="0 0 0 0 0 0 0 0 0 0 0 0 0 0 0 0 0 0 127 0" result="hardAlpha"/>
<feOffset dy="-0.15"/>
<feComposite in2="hardAlpha" operator="arithmetic" k2="-1" k3="1"/>
<feColorMatrix type="matrix" values="0 0 0 0 0 0 0 0 0 0 0 0 0 0 0 0 0 0 0.08 0"/>
<feBlend mode="normal" in2="shape" result="effect1_innerShadow_307_8375"/>
</filter>
<linearGradient id="paint0_linear_307_8375" x1="11.8309" y1="2.27317" x2="-4.95552" y2="19.0596" gradientUnits="userSpaceOnUse">
<stop stop-color="#00A0FF"/>
<stop offset="0.0066" stop-color="#00A1FF"/>
<stop offset="0.2601" stop-color="#00BEFF"/>
<stop offset="0.5122" stop-color="#00D2FF"/>
<stop offset="0.7604" stop-color="#00DFFF"/>
<stop offset="1" stop-color="#00E3FF"/>
</linearGradient>
<linearGradient id="paint1_linear_307_8375" x1="23.8666" y1="13.5682" x2="-0.335707" y2="13.5682" gradientUnits="userSpaceOnUse">
<stop stop-color="#FFE000"/>
<stop offset="0.4087" stop-color="#FFBD00"/>
<stop offset="0.7754" stop-color="#FFA500"/>
<stop offset="1" stop-color="#FF9C00"/>
</linearGradient>
<linearGradient id="paint2_linear_307_8375" x1="14.8589" y1="15.8627" x2="-7.90561" y2="38.6272" gradientUnits="userSpaceOnUse">
<stop stop-color="#FF3A44"/>
<stop offset="1" stop-color="#C31162"/>
</linearGradient>
<linearGradient id="paint3_linear_307_8375" x1="-2.67642" y1="-6.26132" x2="7.48858" y2="3.90368" gradientUnits="userSpaceOnUse">
<stop stop-color="#32A071"/>
<stop offset="0.0685" stop-color="#2DA771"/>
<stop offset="0.4762" stop-color="#15CF74"/>
<stop offset="0.8009" stop-color="#06E775"/>
<stop offset="1" stop-color="#00F076"/>
</linearGradient>
</defs>
</svg>
