<svg width="213" height="236" viewBox="0 0 213 236" fill="none" xmlns="http://www.w3.org/2000/svg">
<g style="mix-blend-mode:luminosity">
<path d="M90.8798 3.41476C93.4708 1.86238 96.5315 1.28749 99.5111 1.7522C99.9978 1.82832 99.7915 2.56846 99.3068 2.49335C96.5355 2.06068 93.6701 2.63957 91.2674 4.07779C90.8428 4.33318 90.4562 3.66915 90.8798 3.41476Z" fill="#34323F"/>
<path d="M91.5247 5.41366C93.2013 4.59039 95.0491 4.17776 96.918 4.22884C97.4118 4.24186 97.4138 5.01104 96.918 4.99702C95.1873 4.94995 93.4677 5.3135 91.9123 6.07767C91.4696 6.29401 91.08 5.63199 91.5247 5.41366Z" fill="#34323F"/>
<path d="M160.287 159.372C159.068 159.234 157.722 159.159 156.74 159.887C156.84 159.554 156.935 159.218 157.032 158.877C157.034 158.871 157.036 158.865 157.036 158.865C157.471 157.911 158.164 157.088 158.885 156.328C162.732 152.243 167.687 149.206 173.075 147.635C178.464 146.065 184.272 145.962 189.715 147.34C187.131 148.597 185.46 151.12 183.649 153.351C181.935 155.457 179.952 157.407 177.528 158.625C174.915 159.934 171.921 160.319 169.001 160.254C166.081 160.189 163.186 159.707 160.287 159.372Z" fill="#B54364"/>
<path d="M158.292 177.346C164.701 170.872 176.577 168.575 183.118 168.369C189.22 168.187 195.353 169.268 201.023 171.523C195.3 174.051 190.776 179.126 184.699 180.61C181.066 181.504 177.237 181.01 173.59 180.16C169.948 179.317 166.376 178.126 162.673 177.617C160.984 177.383 159.187 177.307 157.638 178.04C157.852 177.8 158.069 177.57 158.292 177.346Z" fill="#B54364"/>
<path d="M139.133 201.743C138.957 201.703 138.782 201.657 138.606 201.611L138.628 201.517C141.324 198.056 145.011 195.371 149.132 193.87C150.837 193.245 152.601 192.827 154.383 192.507C162.043 191.136 170.034 191.712 177.414 194.153C173.972 194.726 171.35 197.428 168.568 199.542C164.365 202.751 159.202 204.848 153.914 204.858C148.864 204.866 144.036 203.013 139.133 201.743Z" fill="#B54364"/>
<path d="M157.187 158.284C157.06 158.549 156.93 158.819 156.81 159.087L156.802 159.091C153.944 152.539 153.284 145.092 154.618 138.073C155.956 131.04 159.257 124.431 163.827 118.912C164.494 122.491 165.167 126.071 165.842 129.646C166.583 133.584 167.312 137.693 166.178 141.524C165.43 144.029 163.935 146.234 162.553 148.447C160.572 151.619 158.786 154.903 157.187 158.284Z" fill="#B54364"/>
<path d="M140.748 182.202C140.742 182.22 140.735 182.245 140.723 182.262L140.703 182.263C140.626 179.456 139.848 176.666 138.473 174.209C136.224 170.22 132.519 167.283 129.731 163.651C126.072 158.881 124.057 152.867 124.11 146.855C126.13 150.687 130.576 152.398 134.067 154.948C138.183 157.956 141.184 162.446 142.389 167.394C143.586 172.319 142.999 177.663 140.748 182.202Z" fill="#B54364"/>
<path d="M132.615 200.587C132.6 200.636 132.581 200.678 132.56 200.725C129.712 196.463 125.32 193.459 122.17 189.415C118.084 184.165 116.303 177.19 117.377 170.631C117.474 171.408 118.081 172.009 118.655 172.54C122.783 176.36 127.146 180.062 130.155 184.819C133.106 189.477 134.594 195.453 132.615 200.587Z" fill="#B54364"/>
<path d="M156.201 196.598C151.026 196.661 145.681 197.288 141.036 199.729C139.294 200.644 137.669 201.836 136.28 203.246C137.557 200.617 138.986 198.062 140.475 195.597C145.983 186.478 152.472 177.746 155.608 167.432C157.23 162.095 157.883 156.463 156.926 150.938C156.783 150.119 155.528 150.423 155.671 151.24C157.441 161.453 153.433 171.549 148.437 180.263C146.044 184.436 143.382 188.47 140.834 192.566C142.807 183.476 141.896 173.86 138.208 165.291C137.879 164.527 136.744 165.143 137.07 165.901C141.096 175.256 141.664 185.942 138.697 195.68C138.653 195.825 138.67 195.95 138.709 196.062C136.917 199.094 135.246 202.189 133.846 205.425C132.672 198.028 129.536 191.029 124.738 185.24C124.206 184.599 123.264 185.482 123.793 186.12C128.884 192.264 132.076 199.9 132.867 207.84C132.797 208.026 132.721 208.21 132.652 208.396C130.674 213.781 129.578 219.539 130.142 225.282C130.223 226.097 131.515 226.14 131.433 225.313C130.972 220.621 131.616 216.048 132.94 211.639C133.115 211.589 133.264 211.463 133.314 211.218C133.488 210.372 133.745 209.558 134.072 208.778C134.136 208.711 134.174 208.619 134.191 208.511C135.699 205.127 138.56 202.43 141.876 200.747C146.278 198.514 151.297 197.949 156.168 197.889C156.998 197.879 157.035 196.588 156.201 196.598Z" fill="#B54364"/>
<path d="M171.578 173.575C161.384 174.519 151.686 179.116 144.556 186.474C143.979 187.07 144.856 188.018 145.435 187.42C152.317 180.318 161.691 175.779 171.548 174.866C172.363 174.791 172.406 173.499 171.578 173.575Z" fill="#B54364"/>
<path d="M145.797 213.681C145.429 216.158 145.592 218.787 146.73 221.02C147.11 220.878 147.489 220.739 147.876 220.599L147.844 220.514C154.22 213.063 156.272 202.153 153.037 192.891C151.347 197.4 149.654 201.902 147.964 206.41C147.074 208.779 146.174 211.175 145.797 213.681Z" fill="#2D728F"/>
<path d="M176.157 178.42C171.767 187.031 170.899 197.371 173.776 206.588C174.031 206.374 174.277 206.162 174.527 205.944C178.954 197.569 179.573 187.254 176.157 178.42Z" fill="#2D728F"/>
<path d="M160.359 215.388C160.585 215.276 160.816 215.166 161.039 215.046C167.567 206.997 169.782 195.613 166.655 185.721C164.263 190.865 161.863 196.03 160.194 201.454C158.769 206.081 157.923 211.215 159.772 215.673C159.974 215.581 160.167 215.484 160.359 215.388Z" fill="#2D728F"/>
<path d="M146.729 221.021C146.428 221.13 146.121 221.237 145.818 221.352C145.919 222.521 146.443 223.652 147.159 224.59C148.058 225.767 149.245 226.688 150.456 227.542C155.04 230.801 160.114 233.371 165.457 235.144C163.32 231.591 161.141 227.988 158.075 225.201C155.006 222.42 150.869 220.524 146.764 221.096C146.752 221.07 146.738 221.044 146.729 221.021Z" fill="#2D728F"/>
<path d="M160.602 215.653C163.524 218.873 167.622 221.018 171.937 221.56C176.539 222.146 181.345 220.908 185.09 218.181C177.61 214.376 168.709 213.463 160.602 215.653Z" fill="#2D728F"/>
<path d="M173.494 206.825C176.83 209.995 181.882 210.951 186.4 210.028C190.972 209.086 195.039 206.438 198.477 203.284C190.203 201.425 181.263 202.694 173.845 206.79C173.825 206.723 173.805 206.656 173.78 206.587C173.69 206.667 173.594 206.75 173.494 206.825Z" fill="#2D728F"/>
<path d="M180.596 199.905C180.608 199.949 180.624 199.995 180.641 200.042C185.578 197.248 189.607 192.869 191.966 187.712C194.336 182.545 195.027 176.618 193.904 171.045C189.011 177.81 184.915 185.147 181.715 192.857C180.788 195.1 179.924 197.596 180.596 199.905Z" fill="#2D728F"/>
<path d="M133.676 227C133.598 226.411 133.521 225.824 133.449 225.234C136.12 224.266 138.807 223.339 141.473 222.356C146.323 220.569 151.07 218.516 155.673 216.162C160.287 213.802 164.781 211.16 169.043 208.21C173.261 205.291 177.205 201.931 180.093 197.65C180.72 196.721 182.041 197.861 181.42 198.782C178.162 203.611 173.555 207.317 168.749 210.518C160.125 216.262 150.783 220.838 141.05 224.366C138.609 225.253 136.135 226.105 133.676 227Z" fill="#2D728F"/>
<path d="M43.6059 158.728C44.8247 158.59 46.1708 158.515 47.1523 159.243C47.0522 158.909 46.957 158.574 46.8609 158.232C46.8589 158.226 46.8569 158.22 46.8569 158.22C46.4212 157.267 45.7282 156.443 45.007 155.683C41.1601 151.598 36.2055 148.561 30.8172 146.991C25.4289 145.42 19.62 145.317 14.1776 146.695C16.7616 147.952 18.4322 150.475 20.244 152.707C21.9576 154.813 23.9406 156.763 26.3644 157.981C28.9774 159.29 31.972 159.674 34.8915 159.609C37.811 159.545 40.7064 159.063 43.6059 158.728Z" fill="#B54364"/>
<path d="M45.5999 176.702C39.1911 170.227 27.3148 167.93 20.7737 167.725C14.6713 167.543 8.53892 168.623 2.8682 170.879C8.592 173.407 13.116 178.481 19.1923 179.966C22.8259 180.859 26.6548 180.365 30.3014 179.515C33.944 178.673 37.5155 177.482 41.2182 176.972C42.9078 176.739 44.7045 176.663 46.2539 177.396C46.0406 177.155 45.8223 176.924 45.5999 176.702Z" fill="#B54364"/>
<path d="M64.7623 201.099C64.9385 201.059 65.1138 201.013 65.2891 200.967L65.267 200.872C62.5719 197.411 58.8842 194.727 54.7639 193.226C53.0583 192.601 51.2945 192.182 49.5128 191.863C41.852 190.491 33.8617 191.067 26.4814 193.508C29.9237 194.081 32.5457 196.783 35.327 198.897C39.5304 202.106 44.6934 204.204 49.9815 204.214C55.0323 204.222 59.8597 202.368 64.7623 201.099Z" fill="#B54364"/>
<path d="M46.7106 157.639C46.8378 157.905 46.9669 158.175 47.0871 158.442L47.0951 158.446C49.9535 151.894 50.6135 144.448 49.2795 137.428C47.9414 130.395 44.6404 123.786 40.0704 118.268C39.4033 121.846 38.7303 125.427 38.0552 129.001C37.3141 132.939 36.585 137.048 37.7197 140.879C38.4679 143.384 39.9622 145.59 41.3443 147.802C43.3254 150.975 45.1111 154.259 46.7106 157.639Z" fill="#B54364"/>
<path d="M63.1426 181.557C63.1487 181.576 63.1557 181.6 63.1677 181.617L63.1877 181.618C63.2648 178.811 64.042 176.022 65.4171 173.564C67.6666 169.576 71.3713 166.638 74.1596 163.007C77.8182 158.236 79.8333 152.222 79.7802 146.211C77.7601 150.043 73.3143 151.753 69.8229 154.303C65.7076 157.311 62.706 161.802 61.5011 166.75C60.3043 171.674 60.8912 177.018 63.1426 181.557Z" fill="#B54364"/>
<path d="M71.2758 199.942C71.2908 199.991 71.3098 200.034 71.3309 200.081C74.1782 195.818 78.571 192.814 81.7208 188.77C85.8071 183.52 87.5879 176.545 86.5132 169.986C86.4171 170.764 85.8101 171.364 85.2352 171.895C81.1079 175.715 76.7442 179.418 73.7356 184.174C70.784 188.832 69.2967 194.808 71.2758 199.942Z" fill="#B54364"/>
<path d="M47.694 195.953C52.869 196.017 58.2132 196.643 62.8583 199.084C64.601 200 66.2255 201.191 67.6146 202.602C66.3377 199.973 64.9085 197.418 63.4192 194.953C57.9117 185.834 51.4228 177.101 48.2869 166.788C46.6645 161.45 46.0114 155.819 46.9689 150.293C47.1111 149.475 48.366 149.778 48.2238 150.596C46.4531 160.808 50.4613 170.905 55.4579 179.618C57.8506 183.792 60.5127 187.826 63.0606 191.921C61.0876 182.831 61.999 173.215 65.6867 164.646C66.0152 163.882 67.1509 164.498 66.8244 165.256C62.7982 174.612 62.2304 185.297 65.1979 195.035C65.242 195.18 65.225 195.305 65.1859 195.418C66.9777 198.449 68.6482 201.544 70.0484 204.78C71.2222 197.384 74.359 190.385 79.1564 184.596C79.6882 183.954 80.6307 184.837 80.1019 185.475C75.011 191.62 71.8181 199.256 71.0279 207.196C71.098 207.381 71.1731 207.565 71.2422 207.752C73.2203 213.137 74.317 218.895 73.7521 224.638C73.672 225.453 72.38 225.496 72.4611 224.669C72.9228 219.976 72.2788 215.403 70.9548 210.995C70.7795 210.944 70.6303 210.818 70.5802 210.574C70.4069 209.728 70.1495 208.913 69.822 208.133C69.7589 208.066 69.7209 207.975 69.7038 207.867C68.1955 204.483 65.3341 201.785 62.018 200.102C57.6163 197.868 52.5975 197.303 47.7261 197.243C46.8978 197.234 46.8607 195.943 47.694 195.953Z" fill="#B54364"/>
<path d="M32.3162 172.931C42.5099 173.874 52.2088 178.471 59.3388 185.83C59.9156 186.426 59.0383 187.373 58.4594 186.775C51.5768 179.673 42.2034 175.133 32.3462 174.222C31.531 174.147 31.4879 172.855 32.3162 172.931Z" fill="#B54364"/>
<path d="M58.0972 213.034C58.4657 215.511 58.3025 218.141 57.1647 220.373C56.7841 220.231 56.4056 220.093 56.019 219.953L56.05 219.868C49.6742 212.416 47.6221 201.506 50.857 192.244C52.5476 196.753 54.2402 201.255 55.9308 205.764C56.8202 208.134 57.7216 210.528 58.0972 213.034Z" fill="#2D728F"/>
<path d="M27.7338 177.775C32.1235 186.387 32.9918 196.727 30.1144 205.944C29.86 205.729 29.6137 205.517 29.3643 205.3C24.9365 196.925 24.3175 186.609 27.7338 177.775Z" fill="#2D728F"/>
<path d="M43.5349 214.742C43.3096 214.63 43.0782 214.519 42.8549 214.399C36.3278 206.351 34.1124 194.966 37.2392 185.074C39.6309 190.218 42.0316 195.383 43.7002 200.807C45.1254 205.435 45.9717 210.568 44.1228 215.026C43.9195 214.934 43.7272 214.838 43.5349 214.742Z" fill="#2D728F"/>
<path d="M57.1589 220.375C57.4604 220.484 57.7668 220.591 58.0703 220.705C57.9692 221.875 57.4454 223.006 56.7293 223.943C55.8299 225.121 54.6431 226.041 53.4322 226.896C48.8482 230.155 43.7744 232.725 38.4311 234.497C40.5684 230.945 42.7467 227.341 45.8135 224.555C48.8822 221.774 53.0195 219.878 57.1239 220.45C57.1369 220.424 57.1509 220.398 57.1589 220.375Z" fill="#2D728F"/>
<path d="M43.293 215.006C40.3715 218.226 36.2732 220.372 31.9586 220.914C27.3565 221.499 22.5501 220.262 18.8053 217.534C26.2858 213.731 35.1865 212.816 43.293 215.006Z" fill="#2D728F"/>
<path d="M30.3984 206.183C27.0623 209.353 22.0106 210.308 17.4926 209.386C12.9206 208.443 8.85331 205.795 5.41602 202.641C13.6897 200.782 22.6295 202.051 30.0479 206.148C30.068 206.081 30.088 206.013 30.113 205.944C30.2031 206.023 30.2993 206.107 30.3984 206.183Z" fill="#2D728F"/>
<path d="M23.3041 199.261C23.2921 199.305 23.2761 199.351 23.2591 199.397C18.3225 196.604 14.2933 192.225 11.9336 187.067C9.56398 181.9 8.87292 175.974 9.99565 170.4C14.8892 177.166 18.9855 184.502 22.1854 192.213C23.1108 194.456 23.9761 196.951 23.3041 199.261Z" fill="#2D728F"/>
<path d="M70.215 226.358C70.2932 225.769 70.3693 225.181 70.4414 224.591C67.7703 223.624 65.0842 222.696 62.4181 221.714C57.5676 219.927 52.8203 217.874 48.2172 215.519C43.6041 213.16 39.1092 210.517 34.8477 207.568C30.6302 204.648 26.6861 201.288 23.7977 197.008C23.1707 196.078 21.8497 197.218 22.4706 198.139C25.7287 202.969 30.3357 206.674 35.1421 209.875C43.7654 215.619 53.1077 220.195 62.8407 223.724C65.2815 224.609 67.7553 225.462 70.215 226.358Z" fill="#2D728F"/>
<path d="M101.392 20.4291C101.417 20.372 101.517 20.4231 101.511 20.4852C101.505 20.5483 101.445 20.5894 101.391 20.6214C99.0917 22.0105 97.3481 24.1348 95.6515 26.217" stroke="#EFEFEF" stroke-miterlimit="10"/>
<path d="M98.5117 18.8691C96.2713 20.2232 94.2792 21.9859 92.6617 24.0451" stroke="#EFEFEF" stroke-miterlimit="10"/>
<path d="M115.865 92.1573C115.666 95.3071 117.84 98.0964 120.153 100.248C122.035 101.999 124.118 103.559 126.353 104.85C129.988 106.955 134.014 108.323 138.186 108.56C138.186 108.56 132.653 109.921 123.61 110.389C122.465 112.556 121.259 114.684 119.984 116.774C125.27 118.057 130.487 119.648 135.589 121.53C139.991 123.152 144.486 125.119 147.913 128.238C148.028 125.072 148.197 121.914 148.412 118.756C148.82 112.717 149.388 106.694 150.118 100.684C153.307 100.623 156.564 99.9242 159.1 98.0183C161.751 96.0362 163.433 92.5398 162.596 89.3359C162.443 88.76 162.212 88.1911 161.859 87.6994C161.114 86.6618 159.854 86.0549 158.578 85.9397C157.525 85.8475 156.458 86.0629 155.474 86.4775C154.245 85.3097 153.369 83.7964 152.639 82.259C148.766 74.0915 148.552 64.2724 152.047 55.9355C149.657 56.6887 147.376 57.7413 145.254 59.0704C142.135 60.9833 139.361 63.4651 137.118 66.3616C133.391 67.314 129.427 67.1448 125.562 67.4753C125.378 67.4903 125.163 67.5214 125.047 67.6676C124.94 67.8138 124.955 68.0131 124.978 68.1904C125.324 70.6952 125.901 73.154 126.707 75.5507C122.911 79.3535 119.37 83.5109 117.033 88.3594C116.457 89.5602 115.95 90.8272 115.865 92.1573Z" fill="#FFB888"/>
<path d="M79.5295 33.831C78.8144 36.5121 78.8995 39.3785 79.6907 42.0296C80.2516 43.9275 81.174 45.7173 82.4259 47.2547C82.5331 47.3848 82.6413 47.5161 82.7565 47.6392C85.7681 51.0896 90.4172 53.0566 94.9882 52.7952C95.8566 52.7411 96.748 52.6109 97.5081 52.1962C99.2759 53.6104 101.704 54.1783 103.916 53.6635C104.285 53.5794 104.654 53.4642 104.938 53.2178C105.936 52.3575 105.306 50.751 105.467 49.445C105.637 48.0389 106.819 46.9402 108.102 46.3483C109.385 45.7563 110.807 45.534 112.16 45.1033C116.002 43.8744 119.143 40.8849 121.057 37.3274C122.379 34.8766 123.155 32.1715 123.539 29.4062C123.715 28.1613 123.816 26.9014 123.847 25.6494C123.855 25.2118 123.862 24.7731 123.847 24.3274C123.816 21.3618 123.409 18.3802 122.417 15.5759C119.99 8.71439 114.051 3.29005 107.097 1.12372C100.143 -1.0356 92.3452 -0.00601836 85.9904 3.55145C79.6827 7.07787 74.8182 13.002 72.2142 19.7484C71.9378 19.6873 71.6614 19.6332 71.384 19.5871C79.7218 22.7129 79.5295 33.831 79.5295 33.831Z" fill="#FFB888"/>
<path d="M19.2271 45.5632C17.5596 45.3939 15.8539 45.6403 14.2945 46.2542C13.4643 46.5767 12.635 47.0455 12.2043 47.8297C11.7737 48.6139 11.9279 49.7586 12.7111 50.1733C8.79206 51.3411 6.05688 54.8374 3.95165 58.3488C1.66213 62.1747 -0.243813 66.4783 0.0256042 70.9261C0.379143 76.673 4.38229 81.6907 9.24577 84.7714C13.5945 87.5147 18.5961 88.9669 23.5828 90.2499C24.1817 90.4111 24.7817 90.5573 25.3806 90.7106C28.8309 91.5869 32.2802 92.4543 35.7305 93.3306L35.6924 93.4688C34.763 94.1218 33.8326 94.7748 32.8961 95.4208C32.2742 95.8585 31.5591 96.5506 31.8585 97.2496C32.2662 98.2181 33.9638 97.7875 34.5327 98.6708C33.5341 99.1395 32.4965 99.6313 31.7824 100.485C31.0683 101.33 30.7759 102.636 31.4058 103.55C31.7053 103.988 32.1901 104.31 32.3353 104.825C32.4735 105.294 32.2892 105.786 32.1129 106.239C31.2826 108.429 30.6917 110.711 30.3532 113.032C30.192 114.123 30.0918 115.252 30.3913 116.32C30.8981 118.133 32.4735 119.424 33.9568 120.592C33.3118 121.866 32.4895 123.05 31.8365 124.318C31.6602 124.657 31.491 125.009 31.3447 125.363C30.6607 127.037 30.4383 129.059 31.3908 130.603C32.2361 131.978 33.8115 132.693 35.2938 133.338C41.3792 135.973 47.5567 138.639 54.1188 139.623C55.8014 139.868 57.8144 139.884 58.844 138.532C59.5351 137.618 59.5351 136.312 59.1124 135.251C58.6898 134.183 57.9066 133.299 57.1224 132.462C56.3232 131.601 55.5009 130.764 54.6636 129.957C53.4117 129.104 52.2429 128.144 51.3365 126.945C51.3054 126.907 51.2754 126.861 51.2524 126.822C50.5072 126.177 49.739 125.547 48.9628 124.932C48.8096 124.809 48.6403 124.664 48.6093 124.471C48.5782 124.279 48.6934 124.095 48.8016 123.934C49.0089 123.618 49.2242 123.304 49.4315 122.988C48.9168 121.222 48.6944 119.331 48.5482 117.487C48.1566 112.615 48.1486 107.721 48.5252 102.85C48.6023 101.836 48.7405 100.737 49.4476 99.9999C49.8091 99.6313 50.2698 99.4009 50.7696 99.2467C48.5802 84.7554 47.2662 70.1339 46.8506 55.4894H46.7895C44.4849 48.3745 45.2531 40.6606 46.2056 33.2382C46.3518 32.0934 46.5211 30.9026 47.1511 29.9271C47.2813 29.7278 47.4585 29.5195 47.6969 29.4814C48.1656 29.3973 48.4651 29.9582 48.5963 30.4189C50.2248 35.8122 51.4156 41.3296 52.1618 46.9152C51.6159 41.8284 51.0631 36.7115 51.3545 31.6017C51.4697 29.6577 51.7231 27.6526 52.7066 25.977C53.8203 27.2831 54.6045 28.8735 54.9651 30.5491C55.0262 28.7663 55.1804 26.8534 56.2791 25.4472C56.4023 25.294 56.5475 25.1398 56.7328 25.1017C57.0553 25.0406 57.3317 25.324 57.524 25.5854C58.3082 26.6531 58.8991 27.875 59.2526 29.1579C59.3528 28.4819 59.5912 27.8289 59.9598 27.252C60.0829 27.0527 60.2592 26.8374 60.4976 26.8063C60.8281 26.7603 61.0965 27.0677 61.2738 27.3522C62.4265 29.1119 63.2638 31.0859 63.7245 33.1381C60.5056 39.8073 57.7163 46.792 56.8169 54.1373C56.4944 56.7954 56.4253 59.5617 57.2776 62.0976C58.2992 65.1172 60.5046 67.5219 62.8171 69.7504C63.2017 70.1269 63.5933 70.4955 63.9849 70.8641C65.983 72.7309 67.9801 74.6058 69.9701 76.4807C70.2626 76.7491 70.554 77.0336 70.7153 77.3951C70.9997 78.0561 70.7844 78.8784 71.153 79.4923C71.5215 80.1143 72.3748 80.2916 73.0659 80.0993C73.757 79.907 74.3339 79.4312 74.8797 78.9625C74.9488 78.9014 75.0179 78.8474 75.087 78.7863C77.8532 76.4346 80.6345 74.0229 82.6556 71.0333C82.902 70.6718 83.1324 70.3032 83.3547 69.9266C83.6622 69.4038 83.9466 68.8049 83.7854 68.221C83.7393 68.0447 83.6552 67.8905 83.54 67.7603C83.0633 67.1844 82.1108 67.0151 81.3046 66.9611C82.0347 66.0006 82.219 64.6565 81.7883 63.5268C81.3506 62.397 80.305 61.5287 79.1222 61.2984C78.8919 61.2603 78.6385 61.2293 78.4542 61.091C78.1778 60.8917 78.1006 60.5302 78.0085 60.1997C77.7471 59.2472 77.2403 58.3628 76.5563 57.6407C76.4791 57.5636 76.403 57.4875 76.3259 57.4104C75.5577 56.6883 74.6053 56.1504 73.5757 55.9121C76.1727 51.5474 78.8308 46.9763 79.6991 42.0277C78.9079 39.3767 78.8227 36.5112 79.5378 33.8291C79.5378 33.8291 79.7301 22.711 71.3933 19.5842C66.7602 18.7239 61.9348 19.1535 57.3557 20.3213C52.4151 21.5733 47.7279 23.6555 43.1339 25.8769C38.2624 28.2355 33.445 30.7864 29.1504 34.0905C25.1122 37.2033 21.5397 41.0222 19.2271 45.5632Z" fill="#A1B5BF"/>
<path d="M16.2157 106.808C15.9082 107.853 16.5382 108.991 17.4295 109.613C18.3209 110.235 19.4276 110.45 20.4953 110.657C19.4887 113.3 18.9429 116.121 18.8818 118.955C18.8667 119.669 18.8898 120.422 19.2273 121.052C19.7501 122.044 20.8949 122.505 21.9705 122.843C25.1594 123.827 28.4935 124.326 31.8287 124.318C32.4817 123.05 33.3039 121.868 33.9489 120.592C32.4657 119.424 30.8912 118.133 30.3835 116.32C30.084 115.252 30.1842 114.123 30.3454 113.032C30.6839 110.711 31.2748 108.43 32.1051 106.24C32.2814 105.786 32.4667 105.294 32.3275 104.825C32.1812 104.311 31.6975 103.988 31.398 103.55C30.768 102.636 31.0595 101.33 31.7746 100.485C32.4887 99.6314 33.5263 99.1397 34.5248 98.671C33.956 97.7876 32.2583 98.2173 31.8507 97.2498C31.5512 96.5507 32.2654 95.8586 32.8883 95.421C33.8258 94.776 34.7552 94.122 35.6846 93.469L35.7227 93.3308C32.2724 92.4544 28.8231 91.5871 25.3728 90.7107C24.7738 90.5575 24.1739 90.4112 23.575 90.25C22.5304 91.8715 21.0932 93.1925 19.7872 94.6137C18.4732 96.058 17.2513 97.7025 16.8907 99.6234C16.5302 101.544 17.2523 103.78 18.9959 104.664C17.8522 105.08 16.5612 105.641 16.2157 106.808Z" fill="#A1B5BF"/>
<path d="M46.8492 55.4891C47.2639 70.1337 48.5779 84.7551 50.7682 99.2464C51.1298 99.1232 51.5054 99.0471 51.8749 98.97C57.3383 97.8483 62.8388 96.8958 68.3633 96.1036C66.1579 87.3982 64.306 78.6007 62.8158 69.7491C60.5032 67.5206 58.2978 65.116 57.2762 62.0963C56.4229 59.5604 56.492 56.7952 56.8155 54.1361C57.7149 46.7908 60.5032 39.806 63.7232 33.1368C63.2624 31.0856 62.4242 29.1106 61.2724 27.3509C61.0961 27.0665 60.8267 26.759 60.4962 26.805C60.2578 26.8361 60.0815 27.0504 59.9584 27.2507C59.5898 27.8266 59.3514 28.4796 59.2513 29.1567C58.8977 27.8737 58.3058 26.6518 57.5226 25.5842C57.3303 25.3228 57.0539 25.0383 56.7314 25.1004C56.5471 25.1385 56.4009 25.2927 56.2777 25.446C55.179 26.8521 55.0258 28.7651 54.9637 30.5478C54.6021 28.8732 53.8189 27.2828 52.7052 25.9758C51.7217 27.6504 51.4683 29.6564 51.3531 31.6004C51.0607 36.7103 51.6145 41.8272 52.1604 46.914C51.4152 41.3284 50.2244 35.8109 48.5949 30.4176C48.4647 29.9569 48.1642 29.396 47.6955 29.4802C47.4571 29.5182 47.2809 29.7255 47.1497 29.9259C46.5197 30.9014 46.3504 32.0922 46.2042 33.2369C45.2517 40.6594 44.4836 48.3732 46.7881 55.4881H46.8492V55.4891Z" fill="#FFB888"/>
<path d="M119.988 116.774C109.968 114.307 99.6886 112.925 89.3767 112.648C88.263 112.617 86.987 112.532 86.2799 111.672C85.665 110.935 85.681 109.859 85.2584 108.998C84.4982 107.408 82.1085 106.908 80.7715 108.069C81.6398 106.194 81.0409 103.758 79.4114 102.506C77.7748 101.246 75.262 101.292 73.6796 102.613C73.0496 101.276 74.7702 99.9701 74.8784 98.5028C75.0477 96.2133 71.7666 95.6294 69.5001 95.9439C69.1236 95.998 68.74 96.0511 68.3634 96.1051C62.8389 96.8964 57.3374 97.8488 51.875 98.9715C51.5065 99.0487 51.1299 99.1248 50.7683 99.248C50.2686 99.4012 49.8078 99.6326 49.4463 100.001C48.7392 100.738 48.601 101.838 48.5239 102.852C48.1473 107.723 48.1553 112.618 48.5469 117.488C48.6931 119.332 48.9155 121.222 49.4303 122.989C49.8299 124.365 50.3988 125.671 51.2511 126.823C52.4189 127.83 53.5566 128.868 54.6623 129.958C55.5156 130.534 56.414 131.065 57.2974 131.58C65.526 136.366 73.8398 140.984 82.2457 145.433C81.1701 146.77 80.0944 148.099 79.0188 149.436C75.1688 154.215 71.1046 159.617 71.4732 165.74C71.7496 170.358 74.4848 174.284 77.6657 177.788C67.7695 195.121 57.8652 212.709 52.4259 231.887H141.846C140.901 226.54 139.611 221.246 138.012 216.044C139.526 216.021 140.879 214.629 140.863 213.124C140.848 211.795 139.779 210.588 138.504 210.32C138.328 210.32 138.151 210.305 137.974 210.259C138.151 210.259 138.328 210.282 138.504 210.32C140.149 210.274 141.555 208.33 141.055 206.678C140.502 204.849 138.189 203.92 136.391 204.565C145.973 188.614 152.019 170.558 153.994 152.056C154.754 144.88 154.747 137.05 150.56 131.18C149.784 130.096 148.892 129.113 147.917 128.238C144.489 125.118 139.996 123.151 135.593 121.53C130.491 119.648 125.274 118.057 119.988 116.774Z" fill="#EAAAA7"/>
<path d="M76.438 57.2817C76.4761 57.3278 76.6453 57.3428 76.7304 57.2587C79.4506 54.5776 81.5248 51.2505 82.7617 47.6389C82.6465 47.5157 82.5394 47.3855 82.4312 47.2543C81.1793 45.7179 80.2569 43.9272 79.696 42.0293C78.8277 46.9779 76.1696 51.5489 73.5726 55.9136C74.6022 56.152 75.5546 56.6898 76.3228 57.4119L76.438 57.2817Z" fill="#A1B5BF"/>
<path d="M86.2093 63.4115C86.4246 62.6894 86.4316 61.79 85.7786 61.4755C85.2097 61.1991 84.5647 61.5907 84.058 61.9673C84.3654 61.0759 84.5958 59.9231 83.8586 59.3392C83.5892 59.1239 83.2287 59.0468 82.8902 58.9777C80.7769 58.532 78.6567 58.0863 76.5514 57.6406C77.2355 58.3627 77.7422 59.2461 78.0036 60.1996C78.0958 60.5301 78.1729 60.8906 78.4493 61.0909C78.6336 61.2292 78.887 61.2602 79.1173 61.2983C80.3002 61.5286 81.3458 62.3969 81.7835 63.5267C82.2141 64.6564 82.0288 66.0005 81.2997 66.961C82.107 67.015 83.0594 67.1833 83.5351 67.7602L83.7966 67.6069C84.8342 66.4391 85.6484 65.064 86.1552 63.5888C86.1782 63.5347 86.1932 63.4726 86.2093 63.4115Z" fill="#A1B5BF"/>
<path d="M75.083 78.7861C75.2293 80.1382 75.9744 81.4212 76.981 82.3586C78.1798 83.4723 79.7162 84.1644 81.2756 84.6792C83.0122 85.2481 84.81 85.6166 86.6228 85.7859C87.376 86.9847 88.2363 88.1135 89.1968 89.1511C89.381 89.3584 89.6194 89.5737 89.8958 89.5427C90.2954 89.5116 90.4567 89.0128 90.4947 88.6052C90.641 87.0528 90.3485 85.4554 89.6645 84.0492C90.679 84.6562 91.7317 85.202 92.8143 85.6857C92.6761 83.0737 91.5394 80.5148 89.6875 78.6629C90.7481 78.9243 91.8008 79.1927 92.8604 79.4621C93.1138 79.5232 93.3902 79.5853 93.6366 79.4932C94.0131 79.34 94.1594 78.8552 94.0512 78.4636C93.944 78.072 93.6596 77.7565 93.3752 77.4721C93.2219 77.3189 93.0677 77.1726 92.9145 77.0184C90.025 74.2451 86.4756 72.17 82.6497 71.0332C80.6306 74.0218 77.8493 76.4345 75.083 78.7861Z" fill="#FFB888"/>
<path d="M92.9848 76.9499C93.2071 77.2344 93.776 77.1803 94.0143 76.8658C94.2908 76.4972 94.2527 75.9895 94.1836 75.5368C94.0534 74.6684 93.8451 73.8081 93.5617 72.9708C94.461 73.6469 95.4826 74.1616 96.5663 74.4841C96.7355 74.5302 96.9278 74.5763 97.0891 74.5072C97.3815 74.369 97.3965 73.9613 97.3345 73.6388C96.9118 71.5797 95.1601 70.1044 93.5156 68.7904C94.2227 68.4519 95.0519 68.6442 95.8281 68.6672C96.6123 68.6902 97.5488 68.3988 97.7261 67.6376C97.9334 66.7382 96.9419 66.0552 96.0976 65.7016C92.9627 64.3956 89.5976 63.6194 86.2093 63.4121C86.1943 63.4732 86.1783 63.5353 86.1553 63.5884C85.6485 65.0636 84.8332 66.4388 83.7966 67.6065L83.5353 67.7598C83.6504 67.89 83.7346 68.0442 83.7806 68.2205C83.9419 68.8044 83.6574 69.4033 83.35 69.9261C83.1276 70.3027 82.8963 70.6713 82.6509 71.0328C86.4768 72.1696 90.0272 74.2448 92.9157 77.018L92.9848 76.9499Z" fill="#FFB888"/>
<path d="M91.2844 43.0864C91.5058 42.7669 91.7722 42.4734 92.0877 42.224C92.6756 41.7583 93.4277 41.4008 94.1949 41.4669C94.9481 41.531 95.546 41.9897 95.8054 42.6978C96.1359 43.5992 95.8194 44.5726 95.8014 45.4961C95.7994 45.5942 95.8084 45.6904 95.8104 45.7875C95.9296 46.1891 96.0728 46.5897 96.19 46.9914C96.198 46.9994 96.198 47.0064 96.198 47.0144C96.3282 47.4371 96.4364 47.8597 96.4744 48.2893C96.5285 48.8963 96.4364 49.5803 95.9827 50.003C95.4599 50.4947 94.6306 50.4797 93.9385 50.2874C92.3561 49.8568 90.98 48.6199 90.5042 47.0525C90.0906 45.7064 90.3951 44.161 91.2844 43.0864Z" fill="white"/>
<path d="M126.355 104.85C125.495 106.724 124.581 108.568 123.612 110.389C132.656 109.92 138.188 108.56 138.188 108.56C134.016 108.323 129.99 106.955 126.355 104.85Z" fill="#34323F"/>
<path d="M142.38 93.2998C139.775 93.2998 137.663 91.1877 137.663 88.5825C137.663 85.9772 139.775 83.8652 142.38 83.8652C144.986 83.8652 147.098 85.9772 147.098 88.5825C147.098 91.1877 144.986 93.2998 142.38 93.2998Z" fill="#FFA08A"/>
<path d="M144.5 54.7343C144.085 52.7302 143.95 50.669 144.134 48.6279C144.308 46.6959 144.603 44.136 146.665 43.3007C148.718 42.4704 150.772 43.7184 152.261 45.0524C154.069 46.6719 155.82 48.3044 157.795 49.7266C158.437 50.1893 159.094 50.629 159.759 51.0577C162.128 51.6075 164.517 52.1193 166.818 52.8454C176.084 55.7649 184.159 62.5804 188.108 71.455C191.405 78.8694 191.658 87.6359 188.684 95.1434C188.508 95.5971 188.316 96.0428 188.108 96.4885C187.655 97.4951 187.133 98.4786 186.549 99.431C185.12 101.76 183.33 103.895 181.117 105.493C179.633 106.561 177.99 107.376 176.299 108.052C173.717 109.082 171.013 109.812 168.27 110.204C164.52 110.741 160.663 110.672 157.022 111.687C153.372 112.701 149.792 115.129 148.816 118.787L148.416 118.756C148.824 112.716 149.392 106.693 150.122 100.684C153.311 100.623 156.568 99.9238 159.104 98.0179C161.755 96.0358 163.438 92.5394 162.6 89.3355C162.447 88.7596 162.216 88.1907 161.862 87.699C161.117 86.6614 159.857 86.0544 158.581 85.9393C157.528 85.8471 156.461 86.0625 155.477 86.4771C154.248 85.3093 153.372 83.796 152.642 82.2586C148.77 74.0911 148.555 64.272 152.05 55.9352C149.66 56.6883 147.379 57.7409 145.258 59.07C144.797 57.6718 144.546 56.2066 144.5 54.7343ZM146.917 46.4606C147.593 46.1841 148.323 46.6449 148.93 47.0445C151.571 48.7902 154.558 49.7667 157.638 50.5469C156.184 49.5153 154.787 48.4046 153.461 47.2117C151.974 45.8737 150.446 43.9657 148.295 43.8245C147.278 43.7574 146.334 44.13 145.784 45.0154C145.226 45.9147 145.078 47.0625 144.956 48.0931C144.84 49.0826 144.798 50.0771 144.829 51.0687C145.08 49.8468 145.46 48.6519 146.001 47.5282C146.211 47.0986 146.471 46.6449 146.917 46.4606Z" fill="#34323F"/>
<path d="M158.905 157.241C159.989 154.902 161.556 152.769 163.498 151.071C165.757 149.096 168.494 147.926 171.141 146.583C173.674 145.298 176.268 143.705 177.671 141.139C179.118 138.49 179.013 135.307 178.663 132.401C178.47 130.797 178.197 129.18 178.046 127.56C177.372 125.009 177.015 122.48 177.829 120.049C179.012 116.529 182.332 114.263 185.305 112.057C188.286 109.845 191.359 107.017 191.597 103.314C191.775 100.648 190.298 98.043 188.109 96.4916C188.316 96.0459 188.509 95.6002 188.685 95.1465C191.07 95.7414 193.388 96.7119 195.427 98.071C200.165 100.292 203.253 105.485 203.084 110.714C203.037 112.165 202.722 113.573 202.193 114.922C201.562 116.528 200.708 118.035 200.057 119.631C199.399 121.245 199.012 122.928 199.231 124.676C199.452 126.442 200.191 128.113 201.127 129.61C203.1 132.767 206.03 135.155 208.346 138.038C210.511 140.734 212.148 143.909 212.75 147.335C213.314 150.55 212.937 153.911 211.489 156.853C209.982 159.918 207.359 161.97 204.4 163.548C201.43 165.129 198.179 166.333 195.596 168.549C195.364 168.749 195.14 168.962 194.921 169.182C194.925 169.69 194.934 170.198 194.932 170.699C194.924 173.787 194.426 176.884 193.465 179.819C192.605 182.454 191.299 185.051 189.117 186.757C186.727 188.609 183.554 189.185 180.541 189.039C173.593 188.714 166.975 184.653 163.388 178.714C161.341 176.886 159.686 174.617 158.598 172.085C156.546 167.314 156.73 161.936 158.905 157.241ZM199.648 165.059C202.656 163.518 205.927 162.248 208.388 159.85C210.765 157.533 212.05 154.272 212.22 150.984C212.4 147.5 211.327 144.056 209.546 141.085C207.628 137.885 204.807 135.448 202.415 132.628C200.248 130.073 198.351 126.934 198.396 123.474C198.442 119.99 200.657 117.152 201.727 113.961C202.416 111.904 202.468 109.704 202.006 107.607C202.317 109.295 202.292 111.032 201.845 112.695C200.585 117.383 196.26 121.194 196.452 126.042C196.552 128.493 197.835 130.736 199.233 132.757C201.907 136.606 205.18 140.111 206.993 144.436C208.799 148.762 208.737 154.348 205.271 157.505C202.383 160.14 197.642 160.686 195.783 164.129C195.127 165.345 194.96 166.717 194.925 168.114C196.34 166.876 198.012 165.896 199.648 165.059ZM162.176 176.383C159.128 169.372 160.264 160.701 165.058 154.731C167.301 151.927 170.22 149.744 173.187 147.708C175.753 145.934 178.519 144.082 179.733 141.208C180.963 138.295 180.313 135.194 179.386 132.053C179.697 134.56 179.853 137.139 179.133 139.588C178.358 142.22 176.504 144.201 174.257 145.69C171.773 147.337 168.939 148.349 166.4 149.898C164.184 151.248 162.304 153.081 160.886 155.253C158.14 159.459 157.152 164.753 158.528 169.616C159.232 172.103 160.5 174.418 162.176 176.383Z" fill="#34323F"/>
<path d="M83.1635 145.385C89.6545 148.779 96.1445 152.172 102.635 155.565C103.074 155.794 102.686 156.457 102.248 156.228C95.7569 152.835 89.2659 149.442 82.7759 146.048C82.3373 145.819 82.7249 145.156 83.1635 145.385Z" fill="#34323F"/>
<path d="M75.1952 116.05C77.5097 114.419 79.8233 112.789 82.1379 111.159C82.5425 110.874 82.9271 111.54 82.5254 111.822C80.2109 113.453 77.8973 115.084 75.5828 116.713C75.1781 116.998 74.7936 116.332 75.1952 116.05Z" fill="#34323F"/>
<path d="M73.5226 113.352C74.6564 111.332 75.7911 109.312 76.9249 107.292C77.1672 106.86 77.8312 107.248 77.5879 107.679C76.4541 109.7 75.3194 111.72 74.1856 113.74C73.9433 114.171 73.2793 113.785 73.5226 113.352Z" fill="#34323F"/>
<path d="M23.5967 89.9645C27.672 90.9871 31.7482 92.0087 35.8235 93.0312C35.9657 93.0673 36.0418 93.1584 36.0739 93.2646C36.166 93.4809 36.0569 93.8134 35.7424 93.8505C34.1339 94.0398 31.9275 94.3653 31.4397 96.2291C30.982 97.9758 33.0042 98.6499 34.3032 98.9854C34.6477 99.0745 34.6908 99.6674 34.3032 99.7265C32.915 99.9389 31.4778 100.621 31.0011 102.043C30.5764 103.308 31.2945 104.875 32.7658 104.865C33.0582 104.863 33.2425 105.193 33.0973 105.443C31.6 108.031 29.9996 110.804 30.0747 113.894C30.1378 116.524 31.6631 118.878 34.0378 120.009C34.2261 120.098 34.2731 120.367 34.176 120.535L31.9646 124.346C31.7162 124.774 31.0521 124.387 31.3015 123.959C31.9736 122.801 32.6456 121.642 33.3176 120.484C31.0111 119.236 29.4918 116.863 29.3225 114.237C29.1202 111.09 30.6195 108.218 32.1438 105.561C30.7387 105.221 29.8904 103.714 30.1528 102.265C30.4182 100.803 31.5419 99.8217 32.8579 99.3179C31.5149 98.7641 30.324 97.8146 30.6696 96.1581C31.0231 94.4614 32.4843 93.7333 34.0207 93.3708C30.4783 92.4824 26.9368 91.594 23.3944 90.7057C22.9136 90.5845 23.116 89.8433 23.5967 89.9645Z" fill="#34323F"/>
<path d="M73.4681 55.7426C76.027 51.486 78.0512 46.933 79.4934 42.1807C79.6366 41.709 80.3787 41.9103 80.2345 42.385C78.8253 47.0272 76.8623 51.489 74.4005 55.6685C77.0516 56.3195 78.9225 58.7642 78.8634 61.5004C80.1594 61.4714 81.4424 62.1054 82.0964 63.2661C82.7123 64.3588 82.6452 65.6888 82.0533 66.7565C82.8826 66.8967 83.6417 67.3244 84.1786 67.9944C84.485 68.377 83.9442 68.9238 83.6347 68.5372C83.0729 67.8362 82.2777 67.4496 81.3763 67.4706C81.0197 67.4786 80.9005 67.056 81.1048 66.8146C81.835 65.9503 81.9872 64.6493 81.4324 63.6537C80.8795 62.6622 79.6756 62.1073 78.5629 62.2836C78.3416 62.3187 78.0512 62.1865 78.0772 61.913C78.3336 59.1498 76.4377 56.7301 73.6995 56.3064C73.4491 56.2684 73.3519 55.9349 73.4681 55.7426Z" fill="#34323F"/>
<path d="M22.9417 45.9937C24.3889 48.5286 25.8351 51.0635 27.2824 53.5984C27.5277 54.0281 26.8647 54.4157 26.6193 53.986L22.2787 46.3813C22.0333 45.9516 22.6963 45.5641 22.9417 45.9937Z" fill="#34323F"/>
<path d="M18.0038 48.9004C18.1641 48.7361 18.3834 48.7742 18.5466 48.9004C20.5137 50.4197 22.4797 51.9391 24.4467 53.4594C24.612 53.5876 24.5789 53.868 24.4467 54.0022C24.2865 54.1665 24.0671 54.1284 23.9039 54.0022L18.0038 49.4432C17.8386 49.316 17.8716 49.0346 18.0038 48.9004Z" fill="#34323F"/>
<path d="M156.333 43.175C157.501 45.8141 159.306 48.1537 161.594 49.9184C161.979 50.2159 161.598 50.8839 161.206 50.5814C158.812 48.7346 156.895 46.3299 155.67 43.5626C155.472 43.1149 156.134 42.7233 156.333 43.175Z" fill="#34323F"/>
<path d="M161.497 43.1637C161.465 45.2729 161.912 47.3671 162.822 49.2721C163.034 49.7157 162.371 50.1064 162.159 49.6597C161.19 47.6316 160.695 45.4121 160.729 43.1637C160.736 42.6699 161.504 42.6689 161.497 43.1637Z" fill="#34323F"/>
<path d="M191.863 94.0262C196.246 95.0007 200.248 97.4424 203.113 100.9C203.426 101.278 202.885 101.824 202.57 101.443C199.78 98.0764 195.928 95.7158 191.66 94.7663C191.176 94.6602 191.381 93.919 191.863 94.0262Z" fill="#34323F"/>
<path d="M191.969 92.7572C195.907 91.7446 200.098 91.9309 203.926 93.309C204.387 93.4753 204.188 94.2184 203.721 94.0502C200.018 92.7171 195.987 92.5178 192.173 93.4983C191.695 93.6215 191.49 92.8804 191.969 92.7572Z" fill="#34323F"/>
<path d="M188.671 98.7173C189.9 100.502 190.582 102.621 190.648 104.786C190.663 105.28 189.895 105.279 189.88 104.786C189.818 102.75 189.162 100.781 188.008 99.1059C187.727 98.6963 188.392 98.3117 188.671 98.7173Z" fill="#34323F"/>
<path d="M186.893 105.858C187.452 104.53 187.542 103.063 187.127 101.68C186.985 101.206 187.726 101.003 187.868 101.476C188.318 102.974 188.242 104.618 187.634 106.061C187.554 106.252 187.38 106.39 187.161 106.33C186.981 106.281 186.812 106.05 186.893 105.858Z" fill="#34323F"/>
<path d="M169.835 153.483C172.113 151.083 175.129 149.642 177.783 147.728C179.11 146.771 180.347 145.663 181.276 144.306C182.195 142.962 182.832 141.445 183.167 139.853C183.547 138.052 183.513 136.181 183.063 134.398C182.942 133.918 183.683 133.714 183.804 134.193C184.621 137.423 184.129 140.916 182.488 143.814C180.785 146.824 177.89 148.641 175.047 150.443C173.384 151.498 171.741 152.592 170.378 154.027C170.037 154.385 169.494 153.842 169.835 153.483Z" fill="white"/>
<path d="M167.639 156.52C167.928 156.124 168.595 156.507 168.302 156.908C166.939 158.776 166.028 160.92 165.626 163.198C165.541 163.684 164.8 163.479 164.885 162.994C165.297 160.66 166.242 158.435 167.639 156.52Z" fill="white"/>
<path d="M169.561 157.728L171.8 154.309C172.07 153.897 172.736 154.282 172.463 154.697L170.224 158.116C169.954 158.529 169.288 158.144 169.561 157.728Z" fill="white"/>
<path d="M202.66 153.949C204.878 150.83 204.993 146.495 202.927 143.271C202.659 142.854 203.324 142.468 203.59 142.884C205.791 146.319 205.689 151.009 203.323 154.336C203.04 154.737 202.373 154.353 202.66 153.949Z" fill="white"/>
<path d="M199.588 153.415C200.535 152.562 201.098 151.345 201.115 150.068C201.122 149.575 201.89 149.573 201.883 150.068C201.863 151.538 201.224 152.973 200.131 153.958C199.765 154.289 199.22 153.747 199.588 153.415Z" fill="white"/>
<path d="M153.181 60.135C153.266 59.6492 154.006 59.8545 153.922 60.3393C152.699 67.332 153.3 74.5812 155.625 81.2855C155.788 81.7532 155.045 81.9545 154.884 81.4898C152.512 74.6513 151.934 67.2629 153.181 60.135Z" fill="white"/>
<path d="M155.264 67.8429C156.078 71.814 157.331 75.686 159.012 79.3746C159.216 79.8213 158.554 80.212 158.349 79.7623C156.64 76.0115 155.352 72.0854 154.524 68.0472C154.424 67.5645 155.165 67.3582 155.264 67.8429Z" fill="white"/>
<path d="M179.238 81.4074C179.923 80.5711 181.039 80.6582 181.9 81.15C182.904 81.7229 183.637 82.7094 184.307 83.6268C185.026 84.6123 185.648 85.668 186.164 86.7737C186.987 88.5404 187.536 90.4203 187.802 92.3432C188.415 89.9395 189.143 87.5669 189.988 85.2343C190.546 83.6959 191.154 82.1756 191.808 80.6763C192.141 79.9141 192.485 79.1579 192.843 78.4068C193.144 77.7728 193.436 77.1018 193.931 76.589C194.77 75.7227 196.237 75.5714 196.919 76.7012C197.539 77.7287 197.262 79.0908 197.071 80.1965C196.594 82.9758 195.649 85.675 194.321 88.1618C192.882 90.8589 190.974 93.2997 188.706 95.3498C190.061 96.3914 191.124 97.7806 191.764 99.374C191.94 99.8117 192.179 100.343 192.067 100.824C191.949 101.326 191.419 101.551 190.953 101.382C190.463 101.205 190.129 100.677 189.823 100.282C189.477 99.8337 189.153 99.367 188.861 98.8813C188.229 97.8317 187.736 96.6999 187.381 95.5281C184.779 97.405 182.846 100.118 181.939 103.2C181.8 103.674 181.058 103.471 181.198 102.996C182.154 99.7516 184.181 96.9163 186.907 94.9292C185.156 93.5791 183.593 92.0157 182.268 90.241C181.556 89.2895 180.916 88.284 180.357 87.2354C179.832 86.2529 179.306 85.2042 178.992 84.1326C178.738 83.2622 178.621 82.1606 179.238 81.4074ZM195.877 82.0935C196.184 80.9136 196.501 79.6437 196.521 78.4188C196.529 77.92 196.485 77.2861 196.115 76.9065C195.606 76.3847 194.834 76.7332 194.421 77.1929C193.954 77.7117 193.685 78.4138 193.391 79.0378C193.074 79.7088 192.768 80.3848 192.471 81.0649C191.867 82.449 191.308 83.8531 190.79 85.2723C189.648 88.4001 188.717 91.6021 187.992 94.8521C188.015 94.8671 188.037 94.8831 188.06 94.8971C191.85 91.5049 194.597 87.018 195.877 82.0935ZM190.647 100.093C190.779 100.253 190.908 100.431 191.064 100.566C191.178 100.665 191.296 100.744 191.325 100.568C191.352 100.402 191.235 100.161 191.182 100.008C191.114 99.8087 191.039 99.6114 190.955 99.4191C190.621 98.6549 190.179 97.9308 189.642 97.2928C189.263 96.8431 188.84 96.4385 188.384 96.0739C188.915 97.5252 189.666 98.8973 190.647 100.093ZM179.771 84.0515C180.381 85.9814 181.482 87.8413 182.656 89.4788C183.928 91.2525 185.468 92.831 187.186 94.1781C187.007 90.0437 185.446 85.9684 182.709 82.8506C182.142 82.2046 180.978 81.0719 180.045 81.6978C179.305 82.1946 179.548 83.3464 179.771 84.0515Z" fill="#E2798A"/>
<path d="M63.594 105.913C63.6851 105.588 63.8503 105.305 64.0877 105.066C64.2169 104.966 64.3471 104.866 64.4763 104.766C64.7758 104.592 65.0993 104.504 65.4458 104.503H65.7302C65.9946 104.493 66.241 104.548 66.4704 104.668C66.7087 104.745 66.915 104.879 67.0883 105.066C67.2756 105.24 67.4078 105.446 67.4859 105.684C67.6061 105.913 67.6612 106.16 67.6512 106.424C67.6282 106.594 67.6051 106.765 67.5821 106.935C67.4909 107.26 67.3257 107.543 67.0883 107.782C66.9591 107.882 66.8289 107.982 66.6997 108.083C66.4003 108.256 66.0768 108.344 65.7302 108.345H65.4458C65.1814 108.355 64.935 108.3 64.7056 108.18C64.4673 108.103 64.261 107.969 64.0877 107.782C63.9004 107.608 63.7682 107.403 63.6901 107.164C63.5699 106.935 63.5148 106.688 63.5248 106.424C63.5489 106.253 63.5709 106.083 63.594 105.913Z" fill="#E2798A"/>
<path d="M66.0157 123.014C68.4875 123.014 68.4915 126.856 66.0157 126.856C63.5439 126.855 63.5399 123.014 66.0157 123.014Z" fill="#E2798A"/>
<path d="M53.7736 115.609C56.2454 115.609 56.2494 119.451 53.7736 119.451C51.3018 119.451 51.2977 115.609 53.7736 115.609Z" fill="#E2798A"/>
<path d="M79.1212 123.301C81.593 123.301 81.597 127.143 79.1212 127.143C76.6484 127.143 76.6444 123.301 79.1212 123.301Z" fill="#E2798A"/>
<path d="M94.6369 119.585C94.7281 119.26 94.8923 118.977 95.1307 118.738C95.2599 118.638 95.3901 118.538 95.5193 118.437C95.8187 118.264 96.1422 118.176 96.4888 118.175H96.7732C97.0376 118.165 97.284 118.22 97.5133 118.34C97.7517 118.417 97.958 118.551 98.1313 118.738C98.3186 118.912 98.4508 119.117 98.5289 119.356C98.6491 119.585 98.7042 119.832 98.6942 120.096C98.6711 120.266 98.6481 120.436 98.6251 120.607C98.5339 120.932 98.3686 121.215 98.1313 121.454C98.0021 121.554 97.8719 121.654 97.7427 121.754C97.4432 121.929 97.1197 122.016 96.7732 122.017H96.4888C96.2244 122.027 95.978 121.972 95.7486 121.852C95.5103 121.775 95.3039 121.641 95.1307 121.454C94.9434 121.28 94.8112 121.074 94.733 120.836C94.6129 120.607 94.5578 120.36 94.5678 120.096C94.5909 119.925 94.6139 119.754 94.6369 119.585Z" fill="#E2798A"/>
<path d="M118.137 123.584C120.609 123.584 120.613 127.426 118.137 127.426C115.665 127.426 115.661 123.584 118.137 123.584Z" fill="#E2798A"/>
<path d="M136.6 135.871C136.677 135.633 136.81 135.427 136.997 135.253C137.171 135.066 137.377 134.934 137.615 134.856C137.844 134.736 138.091 134.681 138.355 134.691C138.525 134.714 138.696 134.737 138.866 134.759C139.192 134.85 139.474 135.015 139.713 135.252C139.813 135.382 139.914 135.512 140.014 135.641C140.187 135.941 140.275 136.264 140.276 136.611V137.18C140.286 137.445 140.231 137.691 140.111 137.921C140.034 138.159 139.901 138.365 139.713 138.539C139.539 138.726 139.334 138.858 139.095 138.936C138.866 139.056 138.62 139.111 138.355 139.101C138.185 139.078 138.015 139.055 137.844 139.032C137.519 138.941 137.236 138.776 136.997 138.539C136.897 138.409 136.797 138.279 136.697 138.15C136.522 137.85 136.435 137.527 136.434 137.18V136.611C136.423 136.347 136.478 136.101 136.6 135.871Z" fill="#E2798A"/>
<path d="M135.508 160.322C137.98 160.322 137.984 164.164 135.508 164.164C133.036 164.164 133.031 160.322 135.508 160.322Z" fill="#E2798A"/>
<path d="M119.563 142.096C122.034 142.096 122.038 145.938 119.563 145.938C117.091 145.938 117.087 142.096 119.563 142.096Z" fill="#E2798A"/>
<path d="M93.3634 130.42C95.8352 130.42 95.8392 134.262 93.3634 134.262C90.8916 134.261 90.8876 130.42 93.3634 130.42Z" fill="#E2798A"/>
<path d="M103.328 146.65C105.8 146.65 105.804 150.492 103.328 150.492C100.855 150.492 100.851 146.65 103.328 146.65Z" fill="#E2798A"/>
<path d="M114.434 162.031C116.906 162.031 116.91 165.873 114.434 165.873C111.962 165.873 111.958 162.031 114.434 162.031Z" fill="#E2798A"/>
<path d="M136.793 148.347C136.884 148.021 137.049 147.739 137.287 147.5C137.416 147.399 137.546 147.299 137.676 147.199C137.975 147.026 138.298 146.938 138.645 146.937H138.929C139.194 146.927 139.44 146.982 139.67 147.102C139.908 147.179 140.114 147.312 140.288 147.5C140.475 147.674 140.607 147.879 140.685 148.118C140.805 148.347 140.86 148.593 140.85 148.858C140.827 149.028 140.804 149.198 140.782 149.368C140.691 149.694 140.526 149.976 140.289 150.216C140.159 150.316 140.029 150.416 139.9 150.516C139.601 150.689 139.277 150.778 138.93 150.779H138.646C138.382 150.789 138.135 150.734 137.906 150.613C137.668 150.536 137.461 150.403 137.288 150.216C137.101 150.041 136.968 149.836 136.891 149.598C136.771 149.368 136.716 149.122 136.726 148.858C136.748 148.687 136.77 148.517 136.793 148.347Z" fill="#E2798A"/>
<path d="M144.34 173.992C146.812 173.992 146.816 177.834 144.34 177.834C141.867 177.834 141.863 173.992 144.34 173.992Z" fill="#E2798A"/>
<path d="M123.551 176.842C126.023 176.842 126.027 180.684 123.551 180.684C121.079 180.684 121.075 176.842 123.551 176.842Z" fill="#E2798A"/>
<path d="M130.121 193.44C130.217 193.251 130.314 193.061 130.41 192.872C130.531 192.649 130.695 192.469 130.905 192.333C131.09 192.163 131.308 192.049 131.558 191.99C131.813 191.91 132.068 191.899 132.324 191.956C132.579 191.968 132.817 192.043 133.038 192.184C133.167 192.284 133.297 192.384 133.426 192.485C133.665 192.724 133.829 193.006 133.92 193.332C133.943 193.502 133.966 193.672 133.988 193.843C133.987 194.189 133.9 194.513 133.726 194.812C133.63 195.001 133.534 195.191 133.437 195.38C133.317 195.604 133.152 195.784 132.943 195.919C132.757 196.088 132.539 196.203 132.29 196.262C132.034 196.342 131.779 196.353 131.523 196.296C131.268 196.284 131.03 196.209 130.809 196.068C130.68 195.968 130.55 195.868 130.421 195.768C130.182 195.528 130.018 195.246 129.927 194.92C129.904 194.75 129.881 194.58 129.858 194.409C129.861 194.063 129.948 193.739 130.121 193.44Z" fill="#E2798A"/>
<path d="M117.281 199.338C119.753 199.338 119.757 203.18 117.281 203.18C114.81 203.18 114.806 199.338 117.281 199.338Z" fill="#E2798A"/>
<path d="M109.218 187.618C109.277 187.368 109.392 187.151 109.562 186.965C109.697 186.756 109.877 186.592 110.1 186.471C110.254 186.407 110.406 186.341 110.559 186.277C110.9 186.186 111.24 186.186 111.581 186.277C111.734 186.341 111.886 186.407 112.039 186.471C112.328 186.641 112.558 186.871 112.728 187.16C112.828 187.348 112.926 187.535 113.025 187.724C113.165 187.944 113.241 188.182 113.253 188.438C113.31 188.693 113.299 188.948 113.219 189.204C113.16 189.454 113.045 189.672 112.876 189.857C112.74 190.066 112.56 190.23 112.337 190.352C112.184 190.416 112.031 190.481 111.878 190.545C111.538 190.636 111.197 190.636 110.857 190.545C110.703 190.481 110.551 190.416 110.398 190.352C110.109 190.181 109.879 189.951 109.709 189.663C109.61 189.474 109.512 189.287 109.412 189.099C109.272 188.878 109.196 188.64 109.184 188.385C109.127 188.129 109.138 187.874 109.218 187.618Z" fill="#E2798A"/>
<path d="M98.7224 167.484C98.7995 167.245 98.9327 167.039 99.119 166.866C99.2482 166.765 99.3784 166.665 99.5076 166.565C99.807 166.392 100.131 166.304 100.477 166.303C100.647 166.326 100.818 166.349 100.988 166.372C101.313 166.463 101.596 166.628 101.835 166.866C101.93 166.961 102.025 167.056 102.12 167.15C102.307 167.324 102.439 167.53 102.517 167.768C102.637 167.997 102.692 168.244 102.682 168.508C102.692 168.773 102.637 169.019 102.517 169.248C102.44 169.487 102.307 169.693 102.12 169.866L101.731 170.167C101.432 170.34 101.108 170.428 100.761 170.429C100.591 170.406 100.421 170.383 100.251 170.36C99.9252 170.269 99.6428 170.104 99.4034 169.866C99.3083 169.771 99.2131 169.676 99.119 169.582C98.9317 169.408 98.7995 169.202 98.7224 168.964C98.6022 168.734 98.5471 168.488 98.5571 168.224C98.5471 167.959 98.6022 167.713 98.7224 167.484Z" fill="#E2798A"/>
<path d="M82.254 153.486C84.7258 153.486 84.7298 157.328 82.254 157.328C79.7812 157.328 79.7772 153.486 82.254 153.486Z" fill="#E2798A"/>
<path d="M78.8361 163.74C81.3079 163.74 81.3119 167.582 78.8361 167.582C76.3643 167.582 76.3602 163.74 78.8361 163.74Z" fill="#E2798A"/>
<path d="M89.3712 174.561C91.843 174.561 91.847 178.402 89.3712 178.402C86.8994 178.401 86.8954 174.561 89.3712 174.561Z" fill="#E2798A"/>
<path d="M98.1993 183.674C100.671 183.674 100.675 187.516 98.1993 187.516C95.7275 187.516 95.7235 183.674 98.1993 183.674Z" fill="#E2798A"/>
<path d="M81.6837 185.385C84.1555 185.385 84.1595 189.227 81.6837 189.227C79.2119 189.227 79.2079 185.385 81.6837 185.385Z" fill="#E2798A"/>
<path d="M91.3673 197.061C93.8391 197.061 93.8431 200.902 91.3673 200.902C88.8955 200.901 88.8915 197.061 91.3673 197.061Z" fill="#E2798A"/>
<path d="M105.324 202.186C107.796 202.186 107.8 206.027 105.324 206.027C102.853 206.027 102.849 202.186 105.324 202.186Z" fill="#E2798A"/>
<path d="M107.32 215.572C109.792 215.572 109.796 219.414 107.32 219.414C104.848 219.413 104.844 215.572 107.32 215.572Z" fill="#E2798A"/>
<path d="M120.699 209.307C123.171 209.307 123.175 213.149 120.699 213.149C118.228 213.149 118.224 209.307 120.699 209.307Z" fill="#E2798A"/>
<path d="M130.383 207.312C132.855 207.312 132.859 211.154 130.383 211.154C127.911 211.154 127.907 207.312 130.383 207.312Z" fill="#E2798A"/>
<path d="M129.383 222.679C129.474 222.353 129.639 222.071 129.877 221.832C130.006 221.731 130.136 221.631 130.265 221.531C130.565 221.358 130.888 221.27 131.235 221.269H131.519C131.784 221.259 132.03 221.314 132.259 221.434C132.498 221.511 132.704 221.644 132.877 221.832C133.065 222.006 133.197 222.211 133.275 222.45C133.395 222.679 133.45 222.925 133.44 223.19C133.417 223.36 133.394 223.53 133.371 223.7C133.28 224.026 133.116 224.308 132.877 224.548C132.748 224.648 132.618 224.748 132.489 224.848C132.189 225.022 131.866 225.11 131.519 225.111H131.235C130.97 225.121 130.724 225.066 130.495 224.945C130.256 224.868 130.05 224.735 129.877 224.548C129.689 224.373 129.557 224.168 129.479 223.93C129.359 223.7 129.304 223.454 129.314 223.19C129.337 223.019 129.36 222.849 129.383 222.679Z" fill="#E2798A"/>
<path d="M114.008 226.38C114.099 226.055 114.264 225.772 114.502 225.533C114.631 225.433 114.761 225.332 114.89 225.232C115.19 225.058 115.513 224.971 115.86 224.97H116.144C116.409 224.96 116.655 225.015 116.884 225.135C117.123 225.212 117.329 225.345 117.502 225.533C117.69 225.707 117.822 225.912 117.9 226.151C118.02 226.38 118.075 226.626 118.065 226.891C118.042 227.061 118.019 227.231 117.997 227.402C117.906 227.727 117.741 228.01 117.503 228.249L117.115 228.549C116.815 228.723 116.492 228.811 116.145 228.812H115.861C115.596 228.822 115.35 228.767 115.121 228.647C114.882 228.569 114.676 228.436 114.503 228.249C114.315 228.075 114.183 227.869 114.105 227.631C113.985 227.402 113.93 227.155 113.94 226.891C113.962 226.721 113.985 226.55 114.008 226.38Z" fill="#E2798A"/>
<path d="M93.6486 223.545C96.1204 223.545 96.1244 227.387 93.6486 227.387C91.1758 227.387 91.1717 223.545 93.6486 223.545Z" fill="#E2798A"/>
<path d="M86.9184 210.687C86.9304 210.432 87.0055 210.193 87.1467 209.973C87.2469 209.844 87.347 209.714 87.4472 209.584C87.6865 209.346 87.969 209.182 88.2945 209.091C88.4648 209.068 88.635 209.045 88.8053 209.021C89.1518 209.022 89.4753 209.11 89.7748 209.284C89.9651 209.379 90.1543 209.474 90.3446 209.568C90.569 209.69 90.7483 209.854 90.8835 210.063C91.0537 210.248 91.1679 210.467 91.227 210.716C91.3071 210.971 91.3181 211.227 91.2611 211.482C91.249 211.738 91.1739 211.976 91.0327 212.196C90.9326 212.326 90.8324 212.456 90.7322 212.585C90.4929 212.823 90.2104 212.988 89.8849 213.079C89.7147 213.102 89.5444 213.125 89.3742 213.147C89.0276 213.146 88.7041 213.059 88.4047 212.884C88.2144 212.789 88.0251 212.694 87.8348 212.6C87.6115 212.479 87.4312 212.315 87.2959 212.105C87.1257 211.92 87.0115 211.702 86.9524 211.452C86.8723 211.198 86.8613 210.942 86.9184 210.687Z" fill="#E2798A"/>
<path d="M76.5107 222.733C76.5878 222.494 76.72 222.288 76.9073 222.115C77.0816 221.928 77.2869 221.795 77.5252 221.717C77.7546 221.597 78.001 221.542 78.2654 221.552C78.4357 221.575 78.6059 221.598 78.7762 221.621C79.1017 221.712 79.3841 221.877 79.6235 222.115C79.7236 222.244 79.8238 222.374 79.9239 222.503C80.0972 222.803 80.1853 223.126 80.1863 223.473V223.757C80.1964 224.022 80.1413 224.268 80.0211 224.497C79.944 224.736 79.8108 224.942 79.6235 225.115C79.4492 225.303 79.2429 225.435 79.0055 225.513C78.7772 225.633 78.5298 225.688 78.2654 225.678C78.0951 225.655 77.9249 225.632 77.7546 225.61C77.4291 225.519 77.1467 225.354 76.9073 225.116C76.8071 224.987 76.707 224.857 76.6068 224.728C76.4326 224.428 76.3454 224.105 76.3444 223.758V223.474C76.3354 223.208 76.3905 222.962 76.5107 222.733Z" fill="#E2798A"/>
<path d="M73.5638 201.034C73.655 200.708 73.8202 200.426 74.0576 200.186L74.342 199.902C74.5163 199.715 74.7216 199.582 74.96 199.504C75.1883 199.384 75.4357 199.329 75.7001 199.339C75.9645 199.329 76.2109 199.384 76.4403 199.504C76.6786 199.581 76.885 199.715 77.0582 199.902C77.1584 200.031 77.2585 200.161 77.3587 200.29C77.5319 200.59 77.6201 200.913 77.6211 201.26C77.5981 201.43 77.575 201.601 77.552 201.771C77.4608 202.096 77.2966 202.379 77.0582 202.618C76.9631 202.713 76.8679 202.808 76.7738 202.903C76.5995 203.09 76.3942 203.222 76.1558 203.3C75.9265 203.42 75.6801 203.475 75.4157 203.465C75.1513 203.475 74.9049 203.42 74.6756 203.3C74.4372 203.223 74.2309 203.09 74.0576 202.903C73.9574 202.773 73.8573 202.643 73.7572 202.514C73.5829 202.214 73.4957 201.891 73.4947 201.544C73.5178 201.374 73.5408 201.204 73.5638 201.034Z" fill="#E2798A"/>
<path d="M63.123 212.481C63.2001 212.242 63.3333 212.036 63.5206 211.863C63.6949 211.676 63.9002 211.543 64.1386 211.465C64.3679 211.345 64.6143 211.29 64.8787 211.3C65.0489 211.323 65.2192 211.346 65.3895 211.368C65.715 211.459 65.9974 211.624 66.2368 211.862C66.3369 211.991 66.4371 212.121 66.5372 212.25C66.7105 212.55 66.7986 212.873 66.7996 213.22V213.504C66.8096 213.769 66.7546 214.015 66.6344 214.245C66.5573 214.483 66.4241 214.689 66.2368 214.862C66.0625 215.05 65.8572 215.182 65.6188 215.26C65.3895 215.38 65.1431 215.435 64.8787 215.425C64.7084 215.402 64.5382 215.379 64.3679 215.356C64.0424 215.265 63.76 215.1 63.5206 214.862C63.4204 214.733 63.3203 214.603 63.2201 214.474C63.0469 214.174 62.9587 213.851 62.9577 213.504V213.22C62.9477 212.957 63.0028 212.71 63.123 212.481Z" fill="#E2798A"/>
<path d="M62.172 227.234C62.2632 226.908 62.4285 226.626 62.6658 226.386L63.0544 226.086C63.3539 225.913 63.6774 225.824 64.0239 225.823H64.3084C64.5728 225.813 64.8191 225.868 65.0485 225.989C65.2868 226.066 65.4932 226.199 65.6664 226.386C65.8537 226.561 65.9859 226.766 66.0641 227.004C66.1842 227.234 66.2393 227.48 66.2293 227.744C66.2063 227.915 66.1832 228.085 66.1602 228.255C66.0691 228.581 65.9038 228.863 65.6664 229.102C65.5372 229.203 65.407 229.303 65.2778 229.403C64.9784 229.576 64.6549 229.664 64.3084 229.665H64.0239C63.7595 229.675 63.5131 229.62 63.2838 229.5C63.0454 229.423 62.8391 229.29 62.6658 229.102C62.4785 228.928 62.3463 228.723 62.2682 228.484C62.148 228.255 62.0929 228.009 62.1029 227.744C62.127 227.574 62.15 227.404 62.172 227.234Z" fill="#E2798A"/>
<path d="M103.895 130.135C106.366 130.135 106.37 133.977 103.895 133.977C101.423 133.977 101.419 130.135 103.895 130.135Z" fill="#E2798A"/>
<path d="M149.18 141.811C151.652 141.811 151.656 145.652 149.18 145.652C146.708 145.652 146.703 141.811 149.18 141.811Z" fill="#E2798A"/>
<path d="M131.805 123.301C134.277 123.301 134.281 127.143 131.805 127.143C129.333 127.143 129.329 123.301 131.805 123.301Z" fill="#E2798A"/>
<path d="M77.1251 136.4C79.5969 136.4 79.6009 140.242 77.1251 140.242C74.6533 140.242 74.6493 136.4 77.1251 136.4Z" fill="#E2798A"/>
<path d="M52.922 103.365C55.3938 103.365 55.3978 107.207 52.922 107.207C50.4502 107.207 50.4462 103.365 52.922 103.365Z" fill="#E2798A"/>
<path d="M126.859 93.2999C124.401 93.2999 122.409 90.731 122.409 87.562C122.409 84.3931 124.401 81.8242 126.859 81.8242C129.316 81.8242 131.309 84.3931 131.309 87.562C131.309 90.731 129.316 93.2999 126.859 93.2999Z" fill="#E2798A"/>
<path d="M121.653 83.1823C121.231 83.8733 121.354 84.7647 121.599 85.5409C122.145 87.2385 123.29 88.7368 124.78 89.7203C126.264 90.7038 128.091 91.1645 129.874 91.0033C130.981 90.9031 132.203 90.4574 132.624 89.4278C132.97 88.5825 132.662 87.584 132.086 86.8769C131.511 86.1698 130.703 85.7011 129.92 85.2404C128.476 84.4031 127.024 83.5658 125.586 82.7275C124.995 82.4661 124.381 82.2438 123.735 82.2208C122.936 82.1907 122.076 82.4982 121.653 83.1823Z" fill="white"/>
<path d="M147.772 66.3892L150.049 71.5482C150.347 72.2252 150.173 73.1246 149.448 73.4631C148.789 73.7706 147.853 73.5883 147.533 72.8622C146.775 71.1425 146.015 69.4229 145.256 67.7033C144.958 67.0262 145.132 66.1268 145.857 65.7883C146.516 65.4798 147.452 65.6621 147.772 66.3892Z" fill="#34323F"/>
<path d="M139.698 75.249C138.601 74.1519 138.775 72.1994 140.086 70.8879C141.398 69.5765 143.35 69.4027 144.447 70.4998C145.544 71.5969 145.37 73.5495 144.059 74.8609C142.748 76.1723 140.795 76.346 139.698 75.249Z" fill="#34323F"/>
<path d="M129.657 75.5426C129.186 75.5426 128.803 75.1601 128.803 74.6883C128.803 74.2165 129.186 73.834 129.657 73.834C130.129 73.834 130.512 74.2165 130.512 74.6883C130.512 75.1601 130.129 75.5426 129.657 75.5426Z" fill="#34323F"/>
<path d="M151.327 94.7602C151.622 93.7547 152.139 92.7792 152.719 91.9108C153.293 91.0515 153.973 90.2573 154.747 89.5702C155.524 88.8802 156.455 88.2552 157.515 88.148C158.55 88.0439 159.582 88.5597 160.07 89.4921C160.58 90.4686 160.373 91.6324 159.641 92.4336C159.308 92.7992 158.765 92.2553 159.098 91.8908C160.115 90.7771 159.386 88.9472 157.856 88.9022C156.378 88.8591 155.074 90.2022 154.187 91.2368C153.271 92.3034 152.465 93.6074 152.067 94.9645C151.906 95.5143 151.769 96.3056 152.25 96.7412C152.799 97.24 153.619 96.9175 154.146 96.5609C154.743 96.1563 155.576 95.5404 155.818 94.8323C155.918 94.5399 155.934 94.0731 155.651 93.8668C155.45 93.7206 155.068 93.7536 154.991 94.019C154.852 94.4928 154.111 94.2915 154.25 93.8147C154.47 93.0656 155.401 92.7992 156.041 93.2048C156.8 93.6845 156.766 94.7772 156.364 95.4703C156.132 95.8719 155.792 96.1954 155.446 96.4979C155.031 96.8594 154.6 97.234 154.103 97.4774C153.29 97.874 152.219 97.899 151.588 97.1599C151.027 96.4999 151.099 95.5394 151.327 94.7602Z" fill="#34323F"/>
<path d="M148.139 118.206C151.144 114.502 156.119 113.703 160.575 113.178C163.096 112.881 165.597 112.562 168.035 111.83C170.248 111.166 172.377 110.241 174.375 109.082C176.627 107.776 178.693 106.178 180.528 104.332C180.876 103.981 181.42 104.525 181.071 104.875C177.867 108.101 173.949 110.579 169.665 112.104C167.399 112.911 165.066 113.388 162.685 113.694C160.105 114.025 157.488 114.217 154.976 114.931C152.574 115.614 150.28 116.783 148.684 118.751C148.371 119.133 147.83 118.587 148.139 118.206Z" fill="#34323F"/>
<path d="M150.933 117.932C153.637 118.883 156.071 120.51 157.966 122.663C158.291 123.033 157.75 123.578 157.422 123.206C155.616 121.153 153.31 119.58 150.729 118.672C150.266 118.51 150.465 117.768 150.933 117.932Z" fill="#34323F"/>
<path d="M149.592 119.823C149.688 119.658 149.95 119.561 150.118 119.685C151.888 120.99 153.254 122.736 154.097 124.766C154.176 124.958 154.011 125.189 153.828 125.239C153.607 125.3 153.436 125.163 153.356 124.971C152.597 123.143 151.323 121.521 149.73 120.348C149.563 120.225 149.479 120.015 149.592 119.823Z" fill="#34323F"/>
<path d="M84.8832 20.0238C85.2397 19.0693 85.7736 18.1939 86.3415 17.3526C86.9304 16.4793 87.5793 15.636 88.3405 14.9049C89.7727 13.5298 91.7077 12.5122 93.7408 12.6514C95.4595 12.7686 97.1421 13.7872 97.8091 15.4167C98.5522 17.2335 97.6959 19.4078 95.9783 20.3162C95.5416 20.5476 95.153 19.8845 95.5907 19.6532C96.8977 18.9621 97.6298 17.3787 97.1851 15.9425C96.7234 14.4512 95.169 13.4937 93.6607 13.4146C90.0922 13.2283 87.3951 16.6225 85.9488 19.4969C85.1486 21.0874 84.8441 23.2607 86.4105 24.5036C86.7981 24.8111 86.2513 25.351 85.8677 25.0465C84.3604 23.8506 84.2542 21.7084 84.8832 20.0238Z" fill="#34323F"/>
<path d="M87.2415 20.1336C88.0978 19.3444 89.2826 19.2112 90.3943 19.1411C91.4619 19.073 92.831 19.0309 93.4991 18.0444C94.0108 17.2882 94.0028 16.1845 93.4049 15.4774C93.0874 15.1019 93.6283 14.556 93.9477 14.9346C94.5627 15.6627 94.772 16.6322 94.5417 17.5566C94.2873 18.5812 93.5131 19.2833 92.5276 19.6058C91.3267 19.9984 90.0277 19.7761 88.8229 20.1316C88.3081 20.2838 87.7853 20.5542 87.4918 21.022C87.2034 21.4807 87.1904 22.0475 87.5209 22.4832C87.8203 22.8768 87.1533 23.2594 86.8578 22.8708C86.2189 22.0305 86.5043 20.8127 87.2415 20.1336Z" fill="#34323F"/>
<path d="M94.6265 36.9326C92.0212 36.9326 89.9092 34.8206 89.9092 32.2153C89.9092 29.61 92.0212 27.498 94.6265 27.498C97.2317 27.498 99.3438 29.61 99.3438 32.2153C99.3438 34.8206 97.2317 36.9326 94.6265 36.9326Z" fill="#FFA08A"/>
<path d="M102.415 39.3287C101.788 38.0281 102.54 36.3664 104.095 35.6172C105.65 34.8681 107.418 35.3151 108.045 36.6157C108.672 37.9164 107.919 39.578 106.365 40.3272C104.81 41.0763 103.041 40.6293 102.415 39.3287Z" fill="#34323F"/>
<path d="M107.118 33.2949C107.176 33.0826 107.386 32.9864 107.591 33.0265C109.238 33.352 110.763 34.2604 111.829 35.5584C111.96 35.7186 111.986 35.945 111.829 36.1022C111.694 36.2374 111.418 36.2635 111.286 36.1022C110.294 34.8944 108.921 34.0701 107.386 33.7676C107.182 33.7275 107.066 33.4842 107.118 33.2949Z" fill="#34323F"/>
<path d="M121.319 23.453C122.988 27.2779 126.515 30.1073 130.614 30.8965C131.099 30.9896 130.893 31.7308 130.409 31.6376C126.141 30.8154 122.395 27.8268 120.656 23.8406C120.459 23.3919 121.121 23.0003 121.319 23.453Z" fill="#34323F"/>
<path d="M120.434 24.9734C121.316 30.533 125.198 35.2182 130.529 37.055C130.994 37.2152 130.794 37.9574 130.325 37.7961C124.755 35.8782 120.618 31.0067 119.693 25.1777C119.616 24.694 120.356 24.4857 120.434 24.9734Z" fill="#34323F"/>
<path d="M120.163 29.4942C120.186 30.8123 120.637 32.1203 121.459 33.1559C121.587 33.3181 121.617 33.5405 121.459 33.6987C121.324 33.8319 121.045 33.862 120.915 33.6987C119.962 32.4969 119.421 31.0296 119.395 29.4932C119.386 28.9995 120.154 28.9995 120.163 29.4942Z" fill="#34323F"/>
<path d="M74.4843 33.3622C75.1363 33.3912 75.603 33.8689 75.6371 34.5149C75.7202 36.0803 75.8023 37.6468 75.8855 39.2122C75.9175 39.8151 75.3326 40.392 74.7327 40.3649C74.0807 40.3359 73.614 39.8582 73.5799 39.2122C73.4968 37.6468 73.4146 36.0803 73.3325 34.5149C73.3005 33.912 73.8854 33.3361 74.4843 33.3622Z" fill="#BFD4DD"/>
<path d="M65.4301 39.1716C66.5689 38.8872 67.7086 38.6017 68.8474 38.3173C69.4313 38.1711 70.1243 38.5056 70.2656 39.1225C70.4018 39.7194 70.0863 40.3835 69.4603 40.5407C68.3216 40.8252 67.1818 41.1106 66.0431 41.395C65.4592 41.5413 64.7661 41.2067 64.6249 40.5898C64.4897 39.9919 64.8042 39.3278 65.4301 39.1716Z" fill="#BFD4DD"/>
<path d="M70.0074 45.1084C70.6323 45.1364 71.1602 45.6152 71.1602 46.2612V50.1061C71.1602 50.709 70.6303 51.2869 70.0074 51.2589C69.3824 51.2308 68.8546 50.7521 68.8546 50.1061V46.2612C68.8556 45.6582 69.3854 45.0804 70.0074 45.1084Z" fill="#BFD4DD"/>
<path d="M59.7221 52.3824C59.8173 52.0879 59.9915 51.8656 60.2519 51.6933L62.8209 49.9927C63.0622 49.8335 63.4368 49.8014 63.7092 49.8766C63.9766 49.9507 64.2661 50.157 64.3983 50.4064C64.5395 50.6738 64.6106 50.9983 64.5145 51.2947C64.4193 51.5892 64.2451 51.8115 63.9847 51.9838C63.1284 52.5507 62.272 53.1175 61.4157 53.6844C61.1744 53.8437 60.7998 53.8757 60.5273 53.8006C60.2599 53.7265 59.9705 53.5202 59.8383 53.2708C59.6971 53.0034 59.626 52.6799 59.7221 52.3824Z" fill="#BFD4DD"/>
<path d="M63.9843 60.4809C64.4119 59.3421 64.8386 58.2024 65.2662 57.0636C65.3744 56.7762 65.5227 56.5348 65.7961 56.3746C66.0435 56.2304 66.407 56.1693 66.6844 56.2584C67.2343 56.4367 67.716 57.0717 67.4897 57.6766C67.063 58.8153 66.6354 59.9551 66.2077 61.0938C66.0995 61.3813 65.9513 61.6227 65.6779 61.7829C65.4305 61.9271 65.067 61.9882 64.7895 61.8991C64.2387 61.7198 63.7569 61.0848 63.9843 60.4809Z" fill="#BFD4DD"/>
<path d="M69.9244 64.9412L71.8875 61.7623C72.2039 61.2495 72.9321 61.0061 73.4639 61.3487C73.9777 61.6802 74.216 62.3772 73.8775 62.9251L71.9145 66.104C71.598 66.6168 70.8699 66.8601 70.3381 66.5176C69.8233 66.1861 69.5849 65.49 69.9244 64.9412Z" fill="#BFD4DD"/>
<path d="M74.4379 70.3613C74.6322 69.7604 75.2301 69.3938 75.8561 69.5561C76.9928 69.8515 78.1286 70.1469 79.2653 70.4434C79.8492 70.5956 80.2599 71.2747 80.0706 71.8616C79.8763 72.4625 79.2783 72.8291 78.6524 72.6668L75.2431 71.7795C74.6592 71.6272 74.2476 70.9482 74.4379 70.3613Z" fill="#BFD4DD"/>
<path d="M63.6019 67.0603C64.0746 66.6256 64.7606 66.6206 65.2314 67.0603C66.1528 67.9196 67.0732 68.779 67.9946 69.6383C68.4363 70.0509 68.4423 70.8572 67.9946 71.2678C67.5209 71.7025 66.8358 71.7075 66.3651 71.2678C65.4437 70.4085 64.5233 69.5491 63.6019 68.6898C63.1602 68.2782 63.1542 67.4709 63.6019 67.0603Z" fill="#BFD4DD"/>
<path d="M59.1531 57.6215C59.3534 57.4212 59.6809 57.271 59.9683 57.284C60.2668 57.297 60.5752 57.3952 60.7836 57.6215C60.9909 57.8469 61.1211 58.1243 61.1211 58.4368V60.9997C61.1211 61.2951 60.9929 61.6056 60.7836 61.8149C60.5833 62.0153 60.2558 62.1655 59.9683 62.1525C59.6699 62.1394 59.3614 62.0413 59.1531 61.8149C58.9458 61.5896 58.8155 61.3122 58.8155 60.9997V58.4368C58.8155 58.1413 58.9437 57.8308 59.1531 57.6215Z" fill="#BFD4DD"/>
<path d="M68.2385 33.1318C68.7333 31.8488 69.227 30.5658 69.7218 29.2829C69.833 28.9944 69.9762 28.755 70.2516 28.5938C70.499 28.4496 70.8625 28.3875 71.14 28.4776C71.6858 28.6539 72.1766 29.2929 71.9452 29.8958C71.4505 31.1788 70.9567 32.4617 70.4619 33.7447C70.3507 34.0332 70.2075 34.2725 69.9321 34.4338C69.6847 34.578 69.3212 34.6391 69.0437 34.55C68.4969 34.3727 68.0061 33.7337 68.2385 33.1318Z" fill="#BFD4DD"/>
<path d="M61.3069 22.2129C61.6615 21.663 62.3075 21.5068 62.8833 21.7992C64.1603 22.4482 65.4383 23.0972 66.7152 23.7462C67.254 24.0196 67.4523 24.8209 67.1288 25.3226C66.7743 25.8725 66.1283 26.0287 65.5524 25.7363L61.7205 23.7893C61.1827 23.5159 60.9834 22.7146 61.3069 22.2129Z" fill="#BFD4DD"/>
<path d="M70.646 21.5552C70.8654 21.3539 71.1538 21.2037 71.4613 21.2177C71.7487 21.2307 72.0862 21.3229 72.2765 21.5552L75.0648 24.9635C75.2641 25.2068 75.4023 25.4522 75.4023 25.7787C75.4023 26.0611 75.2771 26.3987 75.0648 26.594C74.8455 26.7953 74.557 26.9455 74.2496 26.9315C73.9621 26.9185 73.6246 26.8263 73.4343 26.594C72.5049 25.4582 71.5755 24.3225 70.646 23.1857C70.4467 22.9424 70.3085 22.697 70.3085 22.3705C70.3075 22.088 70.4337 21.7495 70.646 21.5552Z" fill="#BFD4DD"/>
<path d="M44.6376 26.2298L48.2682 24.5201C48.5536 24.3859 48.841 24.3168 49.1565 24.4039C49.4239 24.4781 49.7134 24.6844 49.8456 24.9338C50.116 25.4455 50.0148 26.2368 49.4319 26.5102L45.8014 28.2198C45.5159 28.354 45.2285 28.4231 44.913 28.336C44.6456 28.2619 44.3562 28.0555 44.224 27.8062C43.9535 27.2954 44.0547 26.5042 44.6376 26.2298Z" fill="#BFD4DD"/>
<path d="M40.3933 33.4448C40.4093 32.8428 40.9121 32.264 41.5461 32.292C42.157 32.319 42.7159 32.7988 42.6988 33.4448C42.6648 34.7277 42.6297 36.0097 42.5957 37.2927C42.5797 37.8946 42.0769 38.4735 41.4429 38.4455C40.832 38.4184 40.2731 37.9387 40.2901 37.2927C40.3242 36.0097 40.3582 34.7277 40.3933 33.4448Z" fill="#BFD4DD"/>
<path d="M31.4642 33.8291C32.7461 33.5446 34.0271 33.2592 35.3091 32.9748C35.896 32.8446 36.584 33.152 36.7273 33.78C36.8605 34.3639 36.552 35.058 35.922 35.1982C34.6401 35.4826 33.3591 35.7681 32.0771 36.0525C31.4902 36.1827 30.8022 35.8752 30.6589 35.2473C30.5257 34.6634 30.8342 33.9693 31.4642 33.8291Z" fill="#BFD4DD"/>
<path d="M32.8952 44.2726L34.0099 40.2274C34.1702 39.6465 34.8352 39.2308 35.4271 39.4221C36.021 39.6144 36.4036 40.2174 36.2324 40.8403C35.8608 42.1884 35.4892 43.5375 35.1177 44.8855C34.9574 45.4664 34.2924 45.8821 33.6995 45.6908C33.1056 45.4985 32.724 44.8955 32.8952 44.2726Z" fill="#BFD4DD"/>
<path d="M41.8561 46.6005C42.5261 46.6305 42.9518 47.1082 43.0089 47.7532C43.1351 49.1784 43.2613 50.6036 43.3874 52.0298C43.4405 52.6318 42.8196 53.2086 42.2347 53.1826C41.5646 53.1526 41.139 52.6748 41.0819 52.0298C40.9557 50.6046 40.8295 49.1794 40.7033 47.7532C40.6502 47.1503 41.2722 46.5744 41.8561 46.6005Z" fill="#BFD4DD"/>
<path d="M24.3761 41.3897C24.7317 40.8379 25.3756 40.6866 25.9525 40.9761C27.0913 41.5469 28.23 42.1178 29.3678 42.6887C29.9076 42.9591 30.1039 43.7653 29.7814 44.2651C29.4259 44.817 28.7819 44.9682 28.205 44.6788C27.0662 44.1079 25.9275 43.537 24.7897 42.9661C24.2499 42.6957 24.0536 41.8895 24.3761 41.3897Z" fill="#BFD4DD"/>
<path d="M32.1202 50.9887C32.3195 50.7884 32.648 50.6382 32.9355 50.6512C33.2339 50.6642 33.5424 50.7624 33.7507 50.9887C33.9691 51.2271 34.0542 51.4835 34.0883 51.804C34.2245 53.0859 34.3607 54.3689 34.4969 55.6509C34.5259 55.9263 34.3476 56.2778 34.1594 56.4661C33.959 56.6664 33.6315 56.8167 33.3441 56.8036C33.0456 56.7906 32.7372 56.6925 32.5289 56.4661C32.3105 56.2278 32.2254 55.9714 32.1913 55.6509C32.0551 54.3689 31.9189 53.0859 31.7827 51.804C31.7537 51.5285 31.9319 51.177 32.1202 50.9887Z" fill="#BFD4DD"/>
<path d="M40.4614 59.6721C41.0273 59.5429 41.7614 59.8433 41.8796 60.4773C42.17 62.0427 42.4595 63.6081 42.7499 65.1735C42.8591 65.7644 42.5877 66.4455 41.9447 66.5917C41.3788 66.7209 40.6447 66.4204 40.5265 65.7864C40.2361 64.221 39.9466 62.6556 39.6562 61.0902C39.547 60.4993 39.8194 59.8183 40.4614 59.6721Z" fill="#BFD4DD"/>
<path d="M25.3682 62.6934C26.8635 62.6944 28.3588 62.6954 29.8541 62.6954C30.457 62.6954 31.0349 63.2252 31.0068 63.8482C30.9788 64.4721 30.5001 65.0009 29.8541 65.0009C28.3588 64.9999 26.8635 64.9989 25.3682 64.9989C24.7652 64.9989 24.1873 64.4691 24.2154 63.8461C24.2434 63.2212 24.7222 62.6924 25.3682 62.6934Z" fill="#BFD4DD"/>
<path d="M17.5018 59.9723C18.285 59.3314 19.0682 58.6904 19.8514 58.0504C20.0948 57.8511 20.3401 57.7129 20.6666 57.7129C20.9491 57.7129 21.2866 57.8381 21.4819 58.0504C21.6832 58.2697 21.8334 58.5582 21.8194 58.8657C21.8064 59.1531 21.7142 59.4906 21.4819 59.6809C20.6987 60.3219 19.9155 60.9629 19.1323 61.6029C18.8889 61.8022 18.6435 61.9404 18.317 61.9404C18.0346 61.9404 17.6971 61.8152 17.5018 61.6029C17.3005 61.3835 17.1502 61.0951 17.1643 60.7876C17.1773 60.5002 17.2694 60.1626 17.5018 59.9723Z" fill="#BFD4DD"/>
<path d="M9.36723 58.2404C10.4168 57.2249 11.4675 56.2093 12.5171 55.1947C12.9508 54.7751 13.7209 54.731 14.1466 55.1947C14.5632 55.6484 14.6093 56.3765 14.1466 56.8242C13.097 57.8398 12.0464 58.8554 10.9967 59.8699C10.5631 60.2896 9.79288 60.3336 9.36723 59.8699C8.95059 59.4162 8.90452 58.6881 9.36723 58.2404Z" fill="#BFD4DD"/>
<path d="M12.4574 65.0132C13.0473 64.879 13.7274 65.1904 13.8756 65.8184C14.16 67.0293 14.4455 68.2391 14.7299 69.45C14.8681 70.0359 14.5476 70.726 13.9247 70.8682C13.3348 71.0024 12.6547 70.6909 12.5065 70.0629C12.2221 68.8531 11.9366 67.6422 11.6522 66.4324C11.515 65.8445 11.8355 65.1544 12.4574 65.0132Z" fill="#BFD4DD"/>
<path d="M3.17375 68.0686C4.17329 67.1462 5.17284 66.2228 6.17137 65.3004C6.39371 65.0951 6.67815 64.9629 6.98662 64.9629C7.26905 64.9629 7.60657 65.0881 7.80187 65.3004C8.2105 65.7451 8.2746 66.4932 7.80187 66.9299C6.80233 67.8523 5.80281 68.7757 4.80428 69.6982C4.58194 69.9035 4.29747 70.0357 3.989 70.0357C3.70656 70.0357 3.36905 69.9105 3.17375 69.6982C2.76612 69.2535 2.70102 68.5053 3.17375 68.0686Z" fill="#BFD4DD"/>
<path d="M6.40854 74.3701C7.05954 74.3991 7.52827 74.8768 7.56132 75.5228C7.62642 76.8048 7.69153 78.0868 7.75663 79.3687C7.78767 79.9717 7.20478 80.5486 6.60385 80.5215C5.95285 80.4925 5.48413 80.0147 5.45108 79.3687C5.38598 78.0868 5.32087 76.8048 5.25577 75.5228C5.22572 74.9189 5.80762 74.343 6.40854 74.3701Z" fill="#BFD4DD"/>
<path d="M12.519 79.2693C12.5921 79.0018 12.7994 78.7124 13.0488 78.5802C13.3162 78.439 13.6407 78.3679 13.9371 78.464C14.2396 78.5622 14.4379 78.7394 14.6262 78.9938C15.6228 80.3469 16.6193 81.7 17.6148 83.0531C17.7811 83.2794 17.8021 83.6831 17.731 83.9414C17.6579 84.2089 17.4506 84.4983 17.2012 84.6305C16.9338 84.7717 16.6093 84.8428 16.3128 84.7467C16.0103 84.6485 15.812 84.4713 15.6238 84.2169C14.6272 82.8638 13.6307 81.5107 12.6352 80.1576C12.4689 79.9313 12.4479 79.5277 12.519 79.2693Z" fill="#BFD4DD"/>
<path d="M19.2797 75.3909C20.0779 74.119 20.8761 72.847 21.6754 71.5751C21.9959 71.0653 22.718 70.8169 23.2518 71.1614C23.7626 71.4909 24.008 72.192 23.6654 72.7379C22.8672 74.0098 22.069 75.2818 21.2698 76.5537C20.9493 77.0635 20.2271 77.3119 19.6933 76.9673C19.1825 76.6378 18.9372 75.9368 19.2797 75.3909Z" fill="#BFD4DD"/>
<path d="M28.7405 70.7322C28.8136 70.4648 29.0209 70.1753 29.2703 70.0431C29.5377 69.9019 29.8623 69.8308 30.1587 69.9269C30.4261 70.0131 30.7286 70.1883 30.8478 70.4567C31.4176 71.7387 31.9865 73.0197 32.5564 74.3017C32.6866 74.5941 32.7607 74.8685 32.6726 75.19C32.5994 75.4574 32.3921 75.7469 32.1427 75.8791C31.8753 76.0203 31.5508 76.0914 31.2544 75.9952C30.987 75.9091 30.6845 75.7338 30.5653 75.4654C29.9954 74.1835 29.4266 72.9025 28.8567 71.6205C28.7265 71.3281 28.6514 71.0537 28.7405 70.7322Z" fill="#BFD4DD"/>
<path d="M37.206 72.8732C38.2717 72.1581 39.3373 71.442 40.4029 70.7269C40.6423 70.5666 41.0199 70.5366 41.2913 70.6107C41.5587 70.6848 41.8482 70.8911 41.9804 71.1405C42.2878 71.7214 42.1026 72.3574 41.5667 72.717C40.5011 73.4321 39.4354 74.1482 38.3698 74.8633C38.1304 75.0235 37.7529 75.0535 37.4814 74.9794C37.214 74.9053 36.9246 74.699 36.7924 74.4496C36.4859 73.8687 36.6712 73.2328 37.206 72.8732Z" fill="#BFD4DD"/>
<path d="M40.8238 81.7838C40.9971 81.5144 41.2194 81.3752 41.5128 81.254C42.8078 80.7182 44.1038 80.1824 45.3998 79.6465C45.6562 79.5404 46.0598 79.6295 46.2882 79.7627C46.5276 79.9029 46.7549 80.1764 46.818 80.4518C46.8851 80.7473 46.8711 81.0778 46.7018 81.3402C46.5285 81.6096 46.3062 81.7488 46.0128 81.87C44.7168 82.4058 43.4218 82.9416 42.1258 83.4774C41.8694 83.5836 41.4658 83.4945 41.2374 83.3613C40.9981 83.2211 40.7707 82.9476 40.7076 82.6722C40.6395 82.3768 40.6545 82.0452 40.8238 81.7838Z" fill="#BFD4DD"/>
<path d="M31.0457 82.4995C31.1199 82.2321 31.3262 81.9426 31.5755 81.8104C32.0883 81.54 32.8776 81.6421 33.152 82.224C33.792 83.5771 34.4319 84.9302 35.0719 86.2833C35.2071 86.5687 35.2742 86.8572 35.1881 87.1717C35.115 87.4391 34.9077 87.7285 34.6583 87.8607C34.1455 88.1311 33.3563 88.029 33.0819 87.4471C32.4419 86.094 31.8019 84.7409 31.1619 83.3879C31.0267 83.1024 30.9596 82.814 31.0457 82.4995Z" fill="#BFD4DD"/>
<path d="M23.0149 82.279C24.4401 82.4052 25.8653 82.5314 27.2915 82.6576C27.8904 82.7107 28.4733 83.1494 28.4443 83.8104C28.4182 84.3893 27.9345 85.0202 27.2915 84.9631C25.8663 84.837 24.4401 84.7107 23.0149 84.5845C22.416 84.5315 21.8331 84.0928 21.8622 83.4318C21.8892 82.8529 22.3719 82.2219 23.0149 82.279Z" fill="#BFD4DD"/>
<path d="M39.5852 93.7812C40.099 92.5052 40.6118 91.2302 41.1246 89.9543C41.2408 89.6648 41.375 89.4285 41.6544 89.2652C41.9018 89.121 42.2653 89.0599 42.5428 89.149C42.8212 89.2392 43.0906 89.4124 43.2318 89.6788C43.367 89.9352 43.4612 90.2858 43.348 90.5672C42.8352 91.8432 42.3214 93.1181 41.8086 94.3941C41.6924 94.6836 41.5582 94.9189 41.2788 95.0832C41.0314 95.2274 40.6679 95.2895 40.3905 95.1993C40.111 95.1092 39.8426 94.9359 39.7014 94.6695C39.5662 94.4131 39.472 94.0626 39.5852 93.7812Z" fill="#BFD4DD"/>
<path d="M36.0527 99.9685C36.1258 99.7011 36.3331 99.4116 36.5825 99.2794C36.8499 99.1382 37.1744 99.0671 37.4708 99.1633C37.7453 99.2524 38.0277 99.4256 38.1599 99.6931L39.6382 102.692C39.7764 102.972 39.8395 103.271 39.7544 103.58C39.6812 103.847 39.4739 104.137 39.2245 104.269C38.9571 104.41 38.6326 104.481 38.3362 104.385C38.0618 104.296 37.7793 104.123 37.6471 103.855L36.1689 100.857C36.0306 100.576 35.9675 100.278 36.0527 99.9685Z" fill="#BFD4DD"/>
<path d="M42.8949 109.091C43.5299 107.665 44.1659 106.239 44.8018 104.813C44.912 104.565 45.2415 104.352 45.4909 104.283C45.7673 104.207 46.1339 104.241 46.3793 104.399C46.6257 104.557 46.842 104.794 46.9091 105.088C46.9822 105.409 46.9261 105.678 46.7929 105.977C46.1579 107.403 45.522 108.829 44.886 110.255C44.7758 110.503 44.4463 110.716 44.1969 110.785C43.9215 110.861 43.5539 110.827 43.3085 110.669C43.0622 110.511 42.8458 110.274 42.7787 109.98C42.7056 109.659 42.7617 109.39 42.8949 109.091Z" fill="#BFD4DD"/>
<path d="M44.0896 98.9176L45.3806 94.648C45.5548 94.0711 46.1958 93.6485 46.7977 93.8428C47.3796 94.0311 47.7893 94.642 47.603 95.261C47.1723 96.6842 46.7427 98.1073 46.312 99.5305C46.1377 100.107 45.4967 100.53 44.8938 100.336C44.3129 100.146 43.9023 99.5355 44.0896 98.9176Z" fill="#BFD4DD"/>
<path d="M33.8739 111.297C34.0532 110.743 34.6852 110.269 35.2921 110.492C36.6452 110.988 37.9993 111.484 39.3523 111.981C39.6398 112.086 39.8822 112.239 40.0414 112.511C40.1856 112.758 40.2467 113.122 40.1576 113.399C39.9783 113.953 39.3453 114.427 38.7404 114.204C37.3863 113.708 36.0333 113.212 34.6802 112.715C34.3927 112.61 34.1503 112.457 33.9911 112.185C33.8459 111.939 33.7848 111.574 33.8739 111.297Z" fill="#BFD4DD"/>
<path d="M44.2092 116.042C44.8882 116.072 45.2929 116.55 45.362 117.195C45.5292 118.758 45.6955 120.322 45.8627 121.886C45.9268 122.488 45.2868 123.065 44.71 123.039C44.0309 123.009 43.6263 122.531 43.5572 121.886C43.3899 120.322 43.2237 118.758 43.0564 117.195C42.9923 116.593 43.6323 116.016 44.2092 116.042Z" fill="#BFD4DD"/>
<path d="M35.517 117.591C35.8495 117.075 36.5436 116.84 37.0934 117.177C38.0198 117.746 38.9463 118.314 39.8727 118.883C40.1231 119.036 40.3234 119.286 40.4025 119.572C40.4786 119.847 40.4446 120.215 40.2863 120.46C39.9538 120.976 39.2588 121.211 38.7099 120.874C37.7835 120.305 36.8571 119.737 35.9307 119.168C35.6803 119.015 35.4799 118.765 35.4008 118.479C35.3247 118.203 35.3597 117.835 35.517 117.591Z" fill="#BFD4DD"/>
<path d="M24.0427 103.626C24.5404 102.273 25.0392 100.921 25.537 99.5676C25.6431 99.2801 25.7954 99.0378 26.0668 98.8785C26.3142 98.7343 26.6777 98.6732 26.9551 98.7623C27.508 98.9416 27.9827 99.5746 27.7604 100.181C27.2626 101.534 26.7639 102.886 26.2661 104.239C26.1599 104.526 26.0077 104.769 25.7363 104.928C25.4889 105.072 25.1254 105.133 24.8479 105.044C24.2941 104.865 23.8193 104.232 24.0427 103.626Z" fill="#BFD4DD"/>
<path d="M19.8527 96.0689C20.8492 95.1435 21.8457 94.218 22.8432 93.2926C23.0646 93.0863 23.351 92.9551 23.6585 92.9551C23.9409 92.9551 24.2785 93.0803 24.4738 93.2926C24.8834 93.7383 24.9455 94.4844 24.4738 94.9221C23.4772 95.8475 22.4797 96.7729 21.4831 97.6984C21.2618 97.9047 20.9754 98.0359 20.6679 98.0359C20.3855 98.0359 20.048 97.9107 19.8527 97.6984C19.443 97.2527 19.3809 96.5065 19.8527 96.0689Z" fill="#BFD4DD"/>
<path d="M20.3758 108.136C20.4499 107.869 20.6562 107.58 20.9056 107.447C21.173 107.306 21.4975 107.235 21.794 107.331C22.0955 107.428 22.2968 107.606 22.4831 107.861C23.2623 108.932 24.0415 110.002 24.8217 111.073C24.9869 111.3 25.0099 111.701 24.9378 111.961C24.8637 112.229 24.6574 112.518 24.408 112.65C24.1406 112.792 23.8161 112.863 23.5196 112.767C23.2182 112.669 23.0169 112.492 22.8306 112.237C22.0514 111.166 21.2722 110.095 20.493 109.025C20.3268 108.796 20.3047 108.396 20.3758 108.136Z" fill="#BFD4DD"/>
<path d="M34.1222 128.514C40.5941 128.433 47.0541 130.431 52.3722 134.118C53.8805 135.163 55.2937 136.341 56.5937 137.636C56.9443 137.986 56.4014 138.529 56.0509 138.179C51.572 133.716 45.711 130.742 39.4804 129.689C37.7107 129.389 35.9169 129.259 34.1232 129.282C33.6274 129.288 33.6274 128.52 34.1222 128.514Z" fill="#34323F"/>
<path d="M22.1542 120.361C24.7893 120.151 27.4293 120.651 29.818 121.778C30.2647 121.989 29.8751 122.651 29.4304 122.441C27.1629 121.371 24.6511 120.93 22.1542 121.13C21.6615 121.17 21.6635 120.401 22.1542 120.361Z" fill="#34323F"/>
<path d="M20.2159 102.251C20.881 102.064 21.547 101.877 22.212 101.691C22.4053 101.637 22.6387 101.758 22.6847 101.959C22.7308 102.163 22.6236 102.374 22.4163 102.432C21.7513 102.618 21.0853 102.805 20.4202 102.992C20.2269 103.046 19.9936 102.925 19.9475 102.723C19.9015 102.519 20.0086 102.309 20.2159 102.251Z" fill="#34323F"/>
<path d="M20.1666 104.846C20.7836 104.85 21.4005 104.854 22.0174 104.859C22.2188 104.86 22.4111 105.034 22.402 105.243C22.393 105.451 22.2328 105.629 22.0174 105.628C21.4005 105.624 20.7836 105.62 20.1666 105.615C19.9653 105.614 19.773 105.44 19.782 105.23C19.791 105.023 19.9513 104.845 20.1666 104.846Z" fill="#34323F"/>
<path d="M64.0033 31.3028C64.4801 30.0219 64.9558 28.7409 65.4325 27.4599C65.5046 27.2656 65.6929 27.1334 65.9053 27.1915C66.0926 27.2426 66.2468 27.469 66.1737 27.6643C65.722 28.8791 65.2703 30.093 64.8186 31.3079C64.8346 31.2808 64.8466 31.2528 64.8687 31.2297C65.5387 30.5226 66.2087 29.8156 66.8787 29.1095C67.017 28.9632 67.2844 28.9592 67.4216 29.1095C67.5658 29.2667 67.5698 29.4971 67.4216 29.6523C66.7515 30.3594 66.0815 31.0665 65.4115 31.7726C65.2733 31.9188 65.0059 31.9228 64.8687 31.7726C64.7795 31.6754 64.7505 31.5502 64.7725 31.432C64.7635 31.4571 64.7535 31.4821 64.7445 31.5072C64.6723 31.7015 64.4841 31.8337 64.2717 31.7756C64.0845 31.7245 63.9302 31.4981 64.0033 31.3028Z" fill="#34323F"/>
<path d="M85.1944 70.0083C88.0799 72.0635 90.9653 74.1177 93.8507 76.1728C94.2503 76.4573 93.8668 77.1243 93.4631 76.8359C90.5777 74.7807 87.6923 72.7265 84.8068 70.6714C84.4072 70.3869 84.7898 69.7199 85.1944 70.0083Z" fill="#34323F"/>
<path d="M87.1068 76.2496C87.269 76.1003 87.4873 76.1083 87.6506 76.2496L89.7869 78.1004C89.9391 78.2326 89.9321 78.51 89.7869 78.6432C89.6246 78.7925 89.4063 78.7844 89.244 78.6432C88.5319 78.0263 87.8198 77.4093 87.1077 76.7924C86.9535 76.6612 86.9605 76.3828 87.1068 76.2496Z" fill="#34323F"/>
<path d="M86.3213 79.1526L90.1622 84.4237C90.4536 84.8243 89.7876 85.2079 89.4992 84.8113L85.6583 79.5402C85.3668 79.1406 86.0328 78.757 86.3213 79.1526Z" fill="#34323F"/>
<path d="M89.919 69.4538C90.0693 69.3036 90.3106 69.3106 90.4629 69.4538C91.4153 70.3532 92.3668 71.2516 93.3192 72.151C93.4705 72.2932 93.4625 72.5506 93.3192 72.6938C93.169 72.844 92.9277 72.837 92.7764 72.6938C91.824 71.7944 90.8725 70.896 89.92 69.9966C89.7678 69.8544 89.7748 69.598 89.919 69.4538Z" fill="#34323F"/>
<path d="M90.1694 67.227C90.2916 67.0378 90.499 66.9997 90.6953 67.0888C91.4665 67.4424 92.2386 67.7949 93.0098 68.1485C93.1931 68.2326 93.2522 68.512 93.148 68.6743C93.0258 68.8636 92.8185 68.9016 92.6222 68.8125C91.851 68.4589 91.0788 68.1064 90.3077 67.7529C90.1244 67.6687 90.0653 67.3893 90.1694 67.227Z" fill="#34323F"/>
</g>
</svg>
