<svg width="198" height="232" viewBox="0 0 198 232" fill="none" xmlns="http://www.w3.org/2000/svg">
<g style="mix-blend-mode:luminosity">
<path d="M99.0004 231.601C153.677 231.601 198.001 222.289 198.001 210.803C198.001 199.316 153.677 190.004 99.0004 190.004C44.324 190.004 0 199.316 0 210.803C0 222.289 44.324 231.601 99.0004 231.601Z" fill="#E9E9E9"/>
<path d="M152.458 91.278C151.24 91.3704 149.91 91.5484 149.087 92.4435C149.123 92.0987 149.153 91.7529 149.183 91.4004C149.184 91.3944 149.184 91.3875 149.184 91.3875C149.433 90.3734 149.956 89.4398 150.519 88.5618C153.518 83.85 157.793 79.9554 162.768 77.4129C167.742 74.8705 173.402 73.6852 178.98 74.0164C176.689 75.7279 175.527 78.5066 174.173 81.0268C172.891 83.4058 171.316 85.683 169.174 87.3261C166.864 89.0941 164.009 90.0294 161.142 90.5112C158.275 90.9939 155.354 91.0632 152.458 91.278Z" fill="#96A3AC"/>
<path d="M153.871 109.218C158.927 101.692 170.109 97.2266 176.465 95.8043C182.396 94.4856 188.594 94.3966 194.559 95.5433C189.436 99.0844 185.961 104.89 180.298 107.476C176.913 109.028 173.078 109.26 169.354 109.111C165.635 108.968 161.921 108.47 158.206 108.664C156.511 108.752 154.74 109.012 153.363 110.019C153.525 109.745 153.695 109.478 153.871 109.218Z" fill="#96A3AC"/>
<path d="M139.692 136.651C139.511 136.645 139.332 136.633 139.153 136.62L139.156 136.523C141.145 132.636 144.249 129.324 147.996 127.086C149.547 126.157 151.193 125.417 152.876 124.773C160.109 122.001 168.028 121.072 175.7 122.08C172.441 123.283 170.383 126.414 168.059 129C164.549 132.922 159.894 135.937 154.726 136.935C149.788 137.886 144.722 136.976 139.692 136.651Z" fill="#96A3AC"/>
<path d="M149.226 90.7905C149.151 91.0737 149.076 91.363 149.007 91.6462L149.001 91.6522C144.983 85.7808 142.946 78.625 142.939 71.5127C142.934 64.3877 144.926 57.3097 148.363 51.0609C149.683 54.4352 151.011 57.8094 152.338 61.1777C153.798 64.8891 155.278 68.7709 154.885 72.7279C154.621 75.3166 153.572 77.7521 152.635 80.173C151.29 83.6423 150.158 87.1869 149.226 90.7905Z" fill="#96A3AC"/>
<path d="M137.627 117.246C137.625 117.265 137.623 117.291 137.614 117.31L137.595 117.314C136.995 114.584 135.715 112.002 133.91 109.856C130.966 106.377 126.795 104.198 123.391 101.168C118.923 97.1874 115.829 91.684 114.758 85.7972C117.448 89.1655 122.115 90.0084 126.004 91.8483C130.589 94.0193 134.362 97.8497 136.464 102.461C138.556 107.053 138.981 112.388 137.627 117.246Z" fill="#96A3AC"/>
<path d="M133.108 136.737C133.103 136.789 133.092 136.832 133.08 136.883C129.5 133.247 124.644 131.131 120.81 127.766C115.834 123.397 112.79 116.911 112.616 110.298C112.855 111.04 113.562 111.514 114.222 111.925C118.97 114.889 123.929 117.693 127.759 121.781C131.513 125.785 134.084 131.35 133.108 136.737Z" fill="#96A3AC"/>
<path d="M155.422 128.431C150.375 129.46 145.268 131.071 141.182 134.325C139.65 135.545 138.284 137.014 137.189 138.652C137.947 135.844 138.867 133.079 139.862 130.391C143.543 120.447 148.255 110.698 149.395 100.029C149.985 94.508 149.571 88.8805 147.602 83.6578C147.31 82.8842 146.141 83.4156 146.432 84.1875C150.07 93.8414 148.038 104.46 144.781 113.911C143.221 118.438 141.372 122.88 139.647 127.359C139.878 118.103 137.191 108.873 131.985 101.185C131.521 100.499 130.526 101.313 130.987 101.994C136.671 110.388 139.222 120.728 138.14 130.803C138.124 130.953 138.164 131.072 138.224 131.175C137.039 134.473 135.984 137.811 135.219 141.237C132.689 134.225 128.315 127.969 122.544 123.206C121.905 122.678 121.148 123.718 121.784 124.242C127.909 129.298 132.456 136.166 134.713 143.782C134.679 143.977 134.639 144.169 134.608 144.365C133.68 150 133.683 155.834 135.308 161.343C135.54 162.125 136.81 161.926 136.576 161.132C135.248 156.63 135.023 152.039 135.494 147.482C135.656 147.4 135.778 147.249 135.782 147.001C135.793 146.141 135.892 145.297 136.067 144.474C136.116 144.396 136.136 144.3 136.133 144.192C136.975 140.602 139.268 137.43 142.196 135.165C146.082 132.159 150.883 130.67 155.634 129.701C156.441 129.534 156.236 128.265 155.422 128.431Z" fill="#96A3AC"/>
<path d="M166.147 103.052C156.358 105.879 147.735 112.185 142.139 120.711C141.686 121.401 142.721 122.163 143.175 121.471C148.577 113.242 156.893 107.053 166.359 104.319C167.143 104.094 166.942 102.822 166.147 103.052Z" fill="#96A3AC"/>
<path d="M148.444 147.075C148.547 149.566 149.197 152.106 150.726 154.076C151.072 153.866 151.417 153.66 151.768 153.451L151.721 153.374C156.562 144.898 156.531 133.849 151.638 125.399C150.827 130.123 150.012 134.84 149.203 139.564C148.777 142.045 148.343 144.555 148.444 147.075Z" fill="#2D728F"/>
<path d="M171.539 106.93C168.856 116.168 169.939 126.44 174.474 134.913C174.682 134.655 174.884 134.402 175.086 134.143C177.85 125.128 176.529 114.928 171.539 106.93Z" fill="#2D728F"/>
<path d="M162.998 146.023C163.197 145.87 163.403 145.72 163.599 145.56C168.476 136.473 168.515 124.929 163.611 115.842C162.234 121.318 160.851 126.816 160.233 132.431C159.704 137.22 159.835 142.398 162.476 146.409C162.657 146.283 162.828 146.153 162.998 146.023Z" fill="#2D728F"/>
<path d="M150.723 154.076C150.449 154.24 150.169 154.402 149.894 154.57C150.211 155.695 150.934 156.702 151.81 157.485C152.909 158.468 154.241 159.146 155.584 159.755C160.675 162.085 166.114 163.65 171.67 164.384C168.916 161.31 166.114 158.194 162.596 156.043C159.076 153.897 154.676 152.817 150.772 154.142C150.754 154.12 150.736 154.098 150.723 154.076Z" fill="#2D728F"/>
<path d="M163.285 146.236C166.743 148.838 171.15 150.171 175.47 149.894C180.078 149.606 184.546 147.499 187.698 144.133C179.674 141.811 170.801 142.58 163.285 146.236Z" fill="#2D728F"/>
<path d="M174.237 135.2C178.092 137.676 183.208 137.667 187.453 135.92C191.746 134.144 195.228 130.796 197.999 127.071C189.564 126.799 181.061 129.709 174.574 135.1C174.542 135.039 174.51 134.976 174.472 134.914C174.399 135.009 174.321 135.108 174.237 135.2Z" fill="#2D728F"/>
<path d="M179.887 127.108C179.906 127.149 179.931 127.191 179.956 127.233C184.26 123.581 187.381 118.547 188.724 113.063C190.076 107.569 189.644 101.647 187.505 96.4068C183.985 103.935 181.351 111.872 179.663 120.009C179.177 122.375 178.798 124.976 179.887 127.108Z" fill="#2D728F"/>
<path d="M139.085 162.362C138.899 161.801 138.714 161.24 138.534 160.677C140.965 159.232 143.417 157.823 145.84 156.365C150.249 153.712 154.506 150.818 158.566 147.657C162.635 144.488 166.536 141.066 170.151 137.386C173.729 133.744 176.957 129.723 178.981 124.997C179.42 123.972 180.925 124.839 180.489 125.856C178.206 131.185 174.395 135.669 170.294 139.697C162.937 146.924 154.657 153.142 145.802 158.41C143.581 159.731 141.322 161.027 139.085 162.362Z" fill="#2D728F"/>
<path d="M51.1956 136.668C50.4845 139.057 49.2291 141.359 47.2617 142.892C46.9784 142.603 46.6951 142.32 46.4059 142.031L46.4692 141.967C43.86 132.561 46.6079 121.86 53.4283 114.871C53.0526 119.65 52.682 124.423 52.3064 129.2C52.1095 131.709 51.9136 134.249 51.1956 136.668Z" fill="#2D728F"/>
<path d="M38.6771 92.078C39.0066 101.692 35.4321 111.382 28.9531 118.48C28.8145 118.179 28.681 117.884 28.5483 117.583C28.0854 108.166 31.8738 98.604 38.6771 92.078Z" fill="#2D728F"/>
<path d="M37.3504 132.07C37.1938 131.873 37.032 131.676 36.8814 131.474C34.3877 121.466 37.1878 110.267 44.1759 102.666C44.164 108.312 44.1528 113.981 43.3715 119.575C42.7066 124.348 41.3066 129.334 37.7603 132.573C37.6165 132.405 37.4839 132.238 37.3504 132.07Z" fill="#2D728F"/>
<path d="M47.2648 142.894C47.4907 143.12 47.7217 143.345 47.9477 143.577C47.3632 144.589 46.415 145.388 45.3735 145.931C44.0659 146.614 42.6086 146.943 41.1563 147.204C35.6495 148.21 29.9912 148.39 24.4262 147.736C27.851 145.434 31.3331 143.102 35.273 141.882C39.2121 140.666 43.7416 140.701 47.2014 142.946C47.2237 142.929 47.2468 142.912 47.2648 142.894Z" fill="#2D728F"/>
<path d="M37.0183 132.207C33.027 133.879 28.4282 134.087 24.3094 132.756C19.9125 131.345 16.1009 128.203 13.8734 124.166C22.2205 123.888 30.6317 126.815 37.0183 132.207Z" fill="#2D728F"/>
<path d="M29.1119 118.815C24.7672 120.267 19.8097 119 16.1248 116.264C12.3997 113.487 9.84869 109.385 8.07812 105.094C16.3217 106.905 23.8472 111.816 28.8106 118.636C28.8569 118.584 28.9031 118.532 28.9553 118.481C29.0023 118.589 29.0537 118.705 29.1119 118.815Z" fill="#2D728F"/>
<path d="M25.6254 109.585C25.5963 109.62 25.5621 109.654 25.527 109.689C22.2529 105.09 20.4652 99.4439 20.5114 93.7984C20.5516 88.141 22.4266 82.5067 25.7871 77.954C27.3489 86.1163 27.9505 94.4582 27.586 102.759C27.4764 105.171 27.2043 107.786 25.6254 109.585Z" fill="#2D728F"/>
<path d="M56.507 153.788C56.8262 153.291 57.1429 152.792 57.4552 152.29C55.4544 150.292 53.4237 148.324 51.4332 146.315C47.8125 142.66 44.3972 138.809 41.2385 134.745C38.0731 130.674 35.1335 126.397 32.5337 121.942C29.9605 117.532 27.8211 112.84 27.0209 107.762C26.8472 106.66 25.1751 107.131 25.3471 108.224C26.2499 113.951 28.842 119.234 31.8269 124.146C37.1814 132.959 43.6775 141.022 50.9668 148.306C52.7956 150.132 54.6663 151.944 56.507 153.788Z" fill="#2D728F"/>
<path d="M178.181 184.818C180.198 186.437 181.676 188.723 182.286 191.236C182.46 191.943 182.524 192.791 182.004 193.291C181.715 193.568 181.31 193.677 180.918 193.735C179.119 194.011 177.211 193.458 175.843 192.27C174.93 191.48 174.262 190.413 173.921 189.257C161.002 192.726 147.402 193.683 134.117 192.045C131.264 191.691 128.341 191.191 125.784 189.905C125.264 190.284 124.743 190.669 124.216 191.048C123.227 191.774 122.167 192.526 120.94 192.642C119.712 192.764 118.312 191.974 118.234 190.74C118.17 189.7 119.024 188.845 119.847 188.196C120.939 187.348 122.089 186.571 123.296 185.89C120.149 171.256 121.157 155.753 126.149 141.639L126.02 141.588C122.127 140.368 119.197 136.558 119.011 132.484C118.992 132.035 119.018 131.534 119.307 131.187C119.653 130.764 120.264 130.68 120.81 130.673C125.038 130.634 129.143 133.307 130.916 137.123C144.189 134.007 158.206 134.084 171.441 137.361C173.021 134.316 174.877 131.257 177.923 129.767C179.227 129.125 180.949 128.881 182.022 129.864C183.326 131.059 182.844 133.231 181.989 134.785C180.627 137.265 178.546 139.346 176.079 140.727C180.154 155.002 180.874 170.222 178.181 184.818Z" fill="#EABBBB"/>
<path d="M161.932 170.279C158.272 162.366 153.755 154.857 148.473 147.921C146.995 145.98 145.459 144.085 143.867 142.236C143.597 141.922 143.144 142.378 143.413 142.691C149.068 149.258 154.004 156.436 158.112 164.067C159.267 166.211 160.355 168.392 161.377 170.602C161.551 170.978 162.105 170.652 161.932 170.279Z" fill="#34323F"/>
<path d="M166.085 143.447C162.641 148.447 159.903 153.913 157.947 159.661C157.814 160.053 158.434 160.222 158.567 159.833C160.504 154.137 163.227 148.727 166.639 143.772C166.875 143.43 166.317 143.108 166.085 143.447Z" fill="#34323F"/>
<path d="M177.786 172.392C177.747 171.983 177.104 171.979 177.143 172.392C177.393 175.044 177.154 177.708 176.428 180.271C176.315 180.67 176.935 180.84 177.048 180.443C177.787 177.829 178.041 175.097 177.786 172.392Z" fill="#34323F"/>
<path d="M175.58 175.774C175.257 177.598 174.934 179.423 174.611 181.247C174.539 181.651 175.159 181.825 175.231 181.418C175.554 179.594 175.877 177.769 176.2 175.945C176.272 175.54 175.652 175.366 175.58 175.774Z" fill="#34323F"/>
<path d="M140.732 137.29C138.691 137.117 136.629 137.376 134.694 138.046C134.306 138.18 134.473 138.8 134.865 138.665C136.752 138.012 138.742 137.764 140.732 137.933C141.143 137.967 141.141 137.324 140.732 137.29Z" fill="#34323F"/>
<path d="M140.05 138.87C138.899 139.267 137.748 139.664 136.597 140.061C136.209 140.195 136.376 140.815 136.768 140.68C137.919 140.283 139.07 139.887 140.221 139.49C140.61 139.356 140.443 138.735 140.05 138.87Z" fill="#34323F"/>
<path d="M180.495 131.282C176.855 131.272 173.675 133.936 173.095 137.538C173.03 137.943 173.649 138.116 173.715 137.709C174.25 134.384 177.116 131.915 180.495 131.925C180.908 131.926 180.909 131.284 180.495 131.282Z" fill="#34323F"/>
<path d="M177.613 186.835C177.226 186.689 177.059 187.31 177.443 187.454C179.082 188.07 179.941 190.095 179.337 191.713C179.192 192.101 179.813 192.269 179.956 191.885C180.691 189.916 179.557 187.565 177.613 186.835Z" fill="#34323F"/>
<path d="M107.003 201.791C104.638 202.407 102.011 201.449 100.309 199.885C98.7094 198.417 97.7844 196.495 97.0707 194.561C70.6858 199.997 42.9908 200.564 16.3424 196.198C15.3207 196.03 14.2672 195.839 13.2523 195.581C12.0962 196.422 10.869 197.178 9.57081 197.846C8.78094 198.25 7.94572 198.631 7.03348 198.714C6.12124 198.804 5.11914 198.546 4.59884 197.89C4.02035 197.167 4.1624 196.181 4.50899 195.363C5.47942 193.111 7.95856 191.429 10.6824 191.115C8.40184 182.973 7.90037 174.466 8.41468 166.077C8.90931 157.928 10.3419 149.853 11.9224 141.8C10.1493 141.312 8.48571 140.545 7.02749 139.547C5.89703 138.773 4.86241 137.815 4.38747 136.633C3.91166 135.445 4.11106 133.994 5.15166 133.131C5.52392 132.823 5.98004 132.598 6.46183 132.447C8.59439 131.774 11.0684 132.542 12.6866 133.926C14.1063 135.137 14.9801 136.745 15.5902 138.399C21.4685 136.857 27.475 135.687 33.5458 134.902C37.8631 134.341 42.2061 133.977 46.5551 133.641C64.4148 132.263 83.0772 131.54 99.8767 136.511C100.063 135.956 100.294 135.407 100.571 134.88C101.303 133.457 102.357 132.156 103.654 131.08C104.874 130.066 106.808 129.242 108.157 130.122C109.038 130.693 109.256 131.742 109.359 132.694C109.461 133.681 109.513 134.689 109.192 135.636C108.742 136.97 107.662 137.962 106.327 138.746C105.55 139.206 104.682 139.598 103.802 139.945C105.633 143.997 106.513 148.39 106.757 152.756C107.104 158.97 106.224 165.175 105.35 171.345C104.431 177.806 103.493 184.335 101.309 190.527C104.136 191.475 106.429 193.346 108.563 195.235C109.07 195.683 109.584 196.148 109.912 196.708C111.025 198.636 109.373 201.169 107.003 201.791Z" fill="#EABBBB"/>
<path d="M18.0449 164.577C16.2016 158.904 15.1285 152.999 14.8649 147.039C14.8469 146.628 14.2043 146.625 14.2222 147.039C14.4884 153.054 15.5649 159.022 17.4254 164.748C17.5529 165.139 18.1733 164.973 18.0449 164.577Z" fill="#34323F"/>
<path d="M15.9057 165.05C15.2254 163.187 14.5442 161.324 13.8639 159.461C13.7236 159.076 13.1023 159.242 13.2443 159.632C13.9247 161.495 14.6058 163.358 15.2862 165.221C15.4274 165.606 16.0487 165.439 15.9057 165.05Z" fill="#34323F"/>
<path d="M27.146 195.189C23.6322 194.951 20.1904 193.994 17.0574 192.386C16.6903 192.198 16.3651 192.752 16.7331 192.941C19.9713 194.603 23.515 195.585 27.146 195.831C27.5593 195.859 27.5576 195.217 27.146 195.189Z" fill="#34323F"/>
<path d="M29.0399 192.766C27.3378 192.569 25.6357 192.372 23.9336 192.174C23.5237 192.126 23.5271 192.77 23.9336 192.817C25.6357 193.014 27.3378 193.211 29.0399 193.409C29.4498 193.457 29.4464 192.814 29.0399 192.766Z" fill="#34323F"/>
<path d="M10.4771 192.602C8.11173 192.624 5.91242 194.495 5.56156 196.846C5.53589 197.019 5.6052 197.189 5.78577 197.241C5.93724 197.285 6.15546 197.188 6.18113 197.017C6.49006 194.945 8.37102 193.265 10.4771 193.245C10.8904 193.241 10.8912 192.598 10.4771 192.602Z" fill="#34323F"/>
<path d="M10.5932 138.554C9.49357 138.515 8.4427 138.013 7.72215 137.18C6.98277 136.326 6.67983 135.165 6.82103 134.054C6.84328 133.881 6.65758 133.735 6.50012 133.733C6.30843 133.732 6.2006 133.883 6.17921 134.054C6.01576 135.336 6.42396 136.658 7.26859 137.635C8.09868 138.593 9.3344 139.15 10.5941 139.196C11.0066 139.211 11.0057 138.568 10.5932 138.554Z" fill="#34323F"/>
<path d="M122.827 44.0839C120.848 49.3836 118.124 54.4009 114.758 58.9433C112.824 61.5577 110.627 64.0573 107.852 65.7535C104.871 67.5719 101.292 68.355 97.8231 68.0084C97.0136 67.9245 96.2108 67.7833 95.4201 67.5779C91.2569 66.486 87.5822 63.6397 85.4882 59.8812C85.4882 59.8812 85.038 69.1705 97.8231 71.5803C97.8231 71.5803 99.2171 72.383 101.311 73.7069C101.311 73.7069 101.844 84.8463 93.8524 85.335C85.9571 85.8168 73.5383 75.943 73.404 66.409H73.475L77.901 56.2973L84.6658 40.8465C84.6658 40.8465 78.8843 34.7886 83.175 29.565C87.4598 24.3423 92.5482 27.6952 93.1524 32.0835C93.1524 32.0835 97.4885 29.9381 107.331 33.5743C115.907 36.7414 122.575 31.345 124.143 29.9056C125.653 34.4797 124.522 39.5483 122.827 44.0839Z" fill="#FFB888"/>
<path d="M132.893 156.085C132.887 156.085 132.887 156.085 132.887 156.085C132.013 159.163 130.729 162.458 128.949 165.972C128.833 165.715 128.672 165.496 128.46 165.342C128.46 165.342 129.398 164.571 128.91 163.852C128.415 163.139 116.884 165.432 116.884 165.432C116.884 165.432 107.729 162.393 105.276 169.363L83.9338 156.085L73.5774 167.636C67.8018 170.61 64.4096 165.252 64.4096 165.252C57.2854 164.886 52.9167 162.349 50.2887 159.779C47.3654 156.914 46.6072 154.003 46.6072 154.003C40.0863 153.463 41.5188 144.624 41.7824 131.499C42.052 118.375 35.5319 86.6773 44.1084 78.8137C52.678 70.9569 73.3968 66.0483 73.3968 66.0483V66.4077C73.532 75.9417 85.95 85.8155 93.8452 85.3337C101.837 84.8459 101.304 73.7056 101.304 73.7056C107.151 77.3803 118.444 85.0385 120.185 90.3314C121.482 94.2568 121.078 103.252 120.506 106.322C120.037 108.872 121.283 120.648 121.283 120.648C121.759 120.931 139.76 131.962 132.893 156.085Z" fill="#EAAAA7"/>
<path d="M90.8212 52.1987C93.2585 52.1987 95.2344 50.2229 95.2344 47.7856C95.2344 45.3482 93.2585 43.3724 90.8212 43.3724C88.3839 43.3724 86.408 45.3482 86.408 47.7856C86.408 50.2229 88.3839 52.1987 90.8212 52.1987Z" fill="#FFA08A"/>
<path d="M121.286 120.651C120.733 120.811 120.11 120.92 119.416 120.965C119.416 120.965 104.8 125.61 103.741 124.299C102.688 122.989 104.294 121.801 104.294 121.801C104.294 121.801 95.364 123.169 95.364 122.039C95.364 120.908 96.7966 119.54 96.7966 119.54C96.7966 119.54 94.4133 119.54 93.9375 118.705C93.4616 117.869 95.4855 115.968 95.4855 115.968C95.4855 115.968 91.9461 114.779 94.9199 113.109C97.8876 111.432 103.04 108.284 103.04 108.284C103.04 108.284 100.232 105.207 103.31 104.089C106.393 102.971 119.473 105.875 119.473 105.875C119.473 105.875 125.011 107.693 125.127 112.986C125.231 117.419 124.126 119.809 121.286 120.651Z" fill="#FFB888"/>
<path d="M128.955 165.976C129.719 167.691 128.589 171.327 128.589 171.327C128.589 171.327 131.178 173.653 127.156 177.758C123.141 181.863 99.1208 177.758 99.1208 177.758L73.5841 167.639L83.9405 156.088L105.282 169.367C107.737 162.397 116.891 165.436 116.891 165.436C116.891 165.436 128.422 163.142 128.917 163.855C129.405 164.575 128.467 165.346 128.467 165.346C128.68 165.501 128.84 165.719 128.955 165.976Z" fill="#FFB888"/>
<path d="M100.816 56.1754C102.384 57.5052 102.859 59.5291 101.869 60.6921C100.886 61.855 98.8117 61.7198 97.2439 60.39C95.6762 59.0601 95.2072 57.0363 96.1905 55.8733C97.1797 54.7103 99.2481 54.8455 100.816 56.1754Z" fill="#E2798A"/>
<path d="M153.587 201.687C153.587 201.687 153.69 201.108 153.664 200.376H153.671C153.671 200.376 162.177 198.308 170.111 198.25C176.343 198.205 182.221 199.406 183.352 203.833C185.909 213.893 184.958 219.842 177.519 220.145C170.073 220.44 152.169 215.166 152.169 215.166L153.587 201.687Z" fill="#96A3AC"/>
<path d="M118.826 215.39C113.898 224.686 96.6742 237.824 88.8174 227.879C81.0634 218.069 94.2336 214.098 94.5733 213.996C94.5801 213.996 94.5802 213.996 94.5802 213.996C103.323 214.811 111.766 215.21 118.826 215.39Z" fill="#96A3AC"/>
<path d="M153.666 200.376C153.691 201.109 153.589 201.686 153.589 201.686L152.169 215.164L151.976 216.956C150.37 220.528 146.798 217.316 146.798 217.316C141.89 220.618 137.695 215.44 137.695 215.44C137.695 215.44 129.985 215.684 118.827 215.389C111.767 215.209 103.325 214.81 94.5813 213.995C94.5813 213.995 94.5813 213.995 94.5744 213.995C69.2559 211.643 41.4197 205.842 37.2633 191.805C29.4065 165.253 50.2914 159.78 50.2914 159.78C52.9186 162.349 57.2872 164.887 64.4123 165.253C64.4123 165.253 67.8045 170.611 73.58 167.636L99.1168 177.755C99.1168 177.755 123.137 181.86 127.152 177.755C131.174 173.65 128.585 171.324 128.585 171.324C128.585 171.324 129.715 167.688 128.951 165.973C130.73 162.459 132.016 159.163 132.889 156.086C132.889 156.086 132.889 156.086 132.896 156.086C133.352 155.894 156.955 146.341 172.515 159.78C187.041 172.314 174.629 191.465 170.112 198.249C162.179 198.308 153.672 200.376 153.672 200.376H153.666Z" fill="#34323F"/>
<path d="M97.8208 68.0093V71.5812C85.0366 69.1723 85.4859 59.883 85.4859 59.883C87.5799 63.6415 91.2546 66.4869 95.4178 67.5797C96.2077 67.7842 97.0113 67.9254 97.8208 68.0093Z" fill="#34323F"/>
<path d="M147.787 54.2399C146.965 52.1578 145.64 50.2529 145.2 48.0305C144.75 45.7636 145.303 43.4402 145.836 41.2391C146.355 39.1006 146.957 36.8944 146.783 34.6729C146.618 32.5566 145.669 30.6679 144.137 29.2097C140.846 26.0802 136.22 25.3631 132.285 23.3905C130.149 22.32 128.397 20.8506 127.196 18.7652C126.014 16.7113 125.29 14.4333 124.124 12.3692C121.991 8.58845 118.801 5.41785 115.051 3.23908C111.194 0.998697 106.768 -0.13519 102.308 0.0128571C97.6904 0.166038 93.1027 1.61913 89.2774 4.21893C85.5745 6.73572 82.4151 10.4446 81.3394 14.8689C81.1562 15.6228 81.0433 16.3921 80.9945 17.1657C78.7507 16.5684 76.2947 17.0143 74.3581 18.3219C72.2118 19.7715 70.7545 22.0812 70.0912 24.5612C68.4413 30.7244 71.2431 36.9389 73.8737 42.3824C75.0213 44.7572 76.1731 47.1302 77.3241 49.5032C77.6938 51.694 77.8042 53.8993 77.4568 56.1046L77.8932 56.2971L84.658 40.8464C84.658 40.8464 78.7729 34.7011 83.1673 29.5649C88.9317 22.8274 93.136 32.0234 93.1446 32.0834C93.1446 32.0834 93.273 32.0235 93.5091 31.9439C98.3314 32.2673 102.624 34.8432 107.308 35.811C111.555 36.6891 116.002 35.9497 119.777 33.8231C121.451 32.8801 122.955 31.6709 124.237 30.2495C125.581 34.7328 124.472 39.6611 122.819 44.0828C120.84 49.3826 118.117 54.3999 114.75 58.9423C112.816 61.5566 110.619 64.0563 107.844 65.7524C104.863 67.5709 101.285 68.3539 97.8153 68.0073V71.5793C97.8153 71.5793 99.2094 72.382 101.303 73.7059C107.15 77.3805 118.443 85.0387 120.184 90.3316C121.481 94.257 121.148 98.5358 120.576 101.606C120.59 101.618 120.603 101.628 120.617 101.64C120.607 101.724 120.627 101.813 120.697 101.893C122.777 104.266 126.081 105.423 129.191 104.908C132.166 104.414 134.785 102.281 135.999 99.5387C136.702 97.9521 136.85 96.2475 136.805 94.53C136.755 92.6541 136.489 90.7483 136.767 88.8785C136.904 87.9603 137.185 87.0788 137.642 86.2684C138.077 85.4965 138.626 84.7982 139.163 84.0965C140.14 82.8197 140.994 81.5104 141.347 79.9204C141.475 79.3427 141.543 78.7531 141.558 78.1627C142.237 74.9245 141.014 71.498 139.591 68.4575C139.279 67.7926 138.954 67.1242 138.635 66.4533C140.087 65.5556 141.657 64.877 143.151 64.0443C144.87 63.0859 146.619 61.8878 147.625 60.1472C148.706 58.2859 148.556 56.1842 147.787 54.2399ZM75.2036 43.6558C73.9088 40.9824 72.5687 38.3159 71.5974 35.503C69.8311 30.3855 69.2937 23.8766 73.5562 19.7904C73.9644 19.3984 74.4154 19.0501 74.8963 18.7497C73.6777 19.9102 72.8228 21.5678 72.3881 23.2177C70.9487 28.6526 72.6645 34.3768 74.495 39.6894C75.3122 42.0513 76.1594 44.4611 76.773 46.8966C76.251 45.8166 75.7273 44.7366 75.2036 43.6558ZM114.049 35.2471C111.947 35.6493 109.782 35.645 107.683 35.2334C105.35 34.7756 103.126 33.9138 100.896 33.1137C99.1212 32.477 97.319 31.8831 95.4671 31.5468C97.6878 31.3012 101.553 31.4415 107.325 33.5741C113.43 35.8282 118.564 33.7452 121.584 31.8378C119.386 33.5416 116.783 34.7242 114.049 35.2471ZM139.131 83.0807C138.159 84.4157 137.048 85.6608 136.502 87.2483C135.34 90.6217 136.685 94.2262 135.949 97.6543C135.334 100.513 133.148 102.981 130.386 103.942C128.284 104.674 125.966 104.475 123.984 103.546C128.458 104.819 132.37 101.186 133.209 98.0223C133.864 95.5423 133.273 92.8638 133.941 90.3906C134.882 86.9043 138.084 84.5295 140.076 81.5403C139.81 82.0735 139.492 82.5861 139.131 83.0807ZM138.94 32.0166C139.018 32.0894 139.102 32.1544 139.178 32.2288C141.386 34.3939 142.656 37.4113 142.756 40.4955C142.808 42.0615 142.537 43.5882 142.026 45.0661C141.499 46.5936 140.781 48.0433 140.152 49.5289C139.57 50.9067 139.065 52.3221 138.881 53.8137C138.659 55.6074 139.087 57.3583 139.174 59.1434C139.257 60.8438 138.835 62.4517 137.809 63.8244C137.737 63.9202 137.659 64.0101 137.583 64.1025C136.788 62.1779 136.197 60.2037 136.208 58.1344C136.241 52.3786 140.879 47.5795 141.707 41.881C142.216 38.4006 141.154 34.7414 138.94 32.0166ZM144.367 62.5467C142.537 63.7996 140.312 64.6699 138.354 65.8508C138.186 65.4889 138.022 65.1252 137.862 64.7597C138.805 63.7243 139.473 62.4398 139.715 61.0517C140.035 59.217 139.563 57.3968 139.466 55.5663C139.376 53.8548 139.782 52.2211 140.393 50.6337C141.583 47.5427 143.301 44.6673 143.4 41.2682C143.493 38.0754 142.377 34.862 140.272 32.4522C138.99 30.9846 137.363 29.855 135.576 29.1036C131.624 26.5911 126.668 25.3682 123.841 21.6491C122.537 19.9273 121.83 17.8392 120.866 15.9061C118.104 10.3744 113.003 6.05796 107.086 4.24631C101.175 2.43467 94.5266 3.15436 89.1362 6.19316C87.0028 7.39893 85.032 9.08478 83.5926 11.0753C84.6186 9.31926 85.9699 7.73611 87.4863 6.40454C90.923 3.38628 95.3122 1.4882 99.8298 0.862638C104.275 0.24649 108.85 0.916543 112.91 2.83687C116.77 4.66306 120.147 7.51703 122.549 11.0513C123.829 12.934 124.687 14.9955 125.621 17.0596C126.573 19.1648 127.744 21.0851 129.607 22.5023C133.153 25.2005 137.774 25.7721 141.546 28.0596C143.311 29.1301 144.938 30.6012 145.678 32.5763C146.459 34.6618 146.166 36.9056 145.699 39.0261C145.224 41.1869 144.557 43.3263 144.419 45.547C144.352 46.6176 144.427 47.7019 144.705 48.7407C144.987 49.795 145.45 50.7929 145.93 51.7701C146.86 53.6691 148.048 55.7237 147.738 57.9213C147.455 59.9358 145.977 61.4454 144.367 62.5467Z" fill="#34323F"/>
<path d="M85.0884 3.16834C81.9452 6.76596 79.9795 11.2792 79.4754 16.0296C79.4318 16.4403 80.0745 16.4369 80.1181 16.0296C80.6025 11.4607 82.5211 7.08258 85.5428 3.62274C85.8132 3.31296 85.3614 2.85684 85.0884 3.16834Z" fill="#34323F"/>
<path d="M79.2792 9.62714C78.6314 11.4533 78.3721 13.4036 78.5184 15.3359C78.5492 15.7458 79.1919 15.7492 79.1611 15.3359C79.0182 13.4541 79.2681 11.5774 79.8988 9.79829C80.0374 9.40806 79.417 9.23948 79.2792 9.62714Z" fill="#34323F"/>
<path d="M143.903 74.8032C143.332 72.1032 142.064 69.5924 140.247 67.5172C139.974 67.2057 139.521 67.6618 139.792 67.9716C141.538 69.9647 142.735 72.3831 143.282 74.9743C143.368 75.3782 143.987 75.2071 143.903 74.8032Z" fill="#34323F"/>
<path d="M144.277 71.2254C143.844 69.5232 142.781 68.0291 141.329 67.0458C140.986 66.813 140.664 67.3693 141.005 67.6004C142.319 68.4903 143.267 69.8596 143.657 71.3957C143.759 71.797 144.378 71.6267 144.277 71.2254Z" fill="#34323F"/>
<path d="M76.6849 20.2199C74.0825 22.9087 72.9846 26.8529 73.8121 30.501C73.9036 30.9041 74.5232 30.7338 74.4317 30.3299C73.6555 26.9086 74.7004 23.1945 77.1393 20.6735C77.4268 20.3774 76.9733 19.9221 76.6849 20.2199Z" fill="white"/>
<path d="M76.1602 36.4226C75.7417 35.3221 75.3232 34.2216 74.9048 33.1202C74.8432 32.9585 74.6883 32.8464 74.5094 32.896C74.3545 32.9388 74.2227 33.1279 74.2852 33.2914C74.7037 34.3919 75.1221 35.4924 75.5406 36.5938C75.6022 36.7555 75.7571 36.8676 75.936 36.818C76.0917 36.7752 76.2226 36.5852 76.1602 36.4226Z" fill="white"/>
<path d="M76.902 32.7658C76.7309 31.8416 76.5589 30.9174 76.3877 29.994C76.3561 29.8237 76.1498 29.7262 75.9924 29.7698C75.8135 29.8194 75.7365 29.994 75.7682 30.1652C75.9393 31.0894 76.1113 32.0136 76.2825 32.937C76.3141 33.1073 76.5204 33.2048 76.6778 33.1612C76.8567 33.1124 76.9337 32.937 76.902 32.7658Z" fill="white"/>
<path d="M138.586 36.6232C138.498 36.2193 137.878 36.3905 137.966 36.7944C138.891 41.033 137.875 45.5676 135.268 49.0292C135.019 49.3595 135.577 49.6804 135.823 49.3535C138.532 45.7542 139.544 41.0201 138.586 36.6232Z" fill="white"/>
<path d="M135.224 45.3419C135.088 45.2623 134.854 45.2974 134.784 45.4574L133.531 48.314C133.462 48.4723 133.485 48.6588 133.647 48.7538C133.783 48.8334 134.017 48.7983 134.087 48.6383L135.34 45.7818C135.409 45.6226 135.386 45.4369 135.224 45.3419Z" fill="white"/>
<path d="M102.744 60.8129C99.5094 59.2135 96.8882 56.5512 95.3376 53.2933C95.1596 52.9202 94.6059 53.2462 94.783 53.6176C96.3756 56.9637 99.0986 59.7252 102.42 61.3674C102.79 61.5505 103.116 60.9969 102.744 60.8129Z" fill="#34323F"/>
<path d="M88.3657 28.8631C87.6247 28.4113 86.6422 28.5533 85.9482 29.0266C85.1207 29.5914 84.698 30.5481 84.4575 31.4877C84.3548 31.8882 84.9744 32.0594 85.0771 31.6589C85.3637 30.5387 86.0715 29.1387 87.4407 29.232C88.7004 29.3184 88.8869 30.8031 88.8535 31.7932C88.8099 33.0974 88.4761 34.3965 87.8908 35.5629C87.6016 36.1388 87.2575 36.7053 86.8408 37.1982C86.4488 37.6612 85.7009 38.2542 85.1027 37.7613C84.5123 37.2752 84.7219 36.3331 84.9033 35.7032C84.9958 35.3806 85.1267 35.0374 85.4159 34.8423C85.7103 34.6429 86.3119 34.7148 86.1262 35.1966C85.9773 35.5826 86.5986 35.7494 86.7458 35.3678C87.0205 34.6558 86.3342 33.9917 85.6333 34.0833C84.7793 34.1945 84.3993 35.0357 84.2213 35.7785C84.0288 36.5812 83.9577 37.5337 84.5936 38.1687C85.2054 38.7797 86.1485 38.6333 86.7843 38.1464C87.4963 37.6013 88.0149 36.7353 88.4162 35.948C88.8424 35.1145 89.1548 34.2193 89.3285 33.2994C89.5886 31.9054 89.794 29.7343 88.3657 28.8631Z" fill="#34323F"/>
<path d="M111.874 44.0843C110.827 47.5202 109.78 50.9569 108.732 54.3928C107.206 54.2952 105.72 53.9008 104.355 53.2076C103.987 53.021 103.662 53.5747 104.031 53.7621C105.569 54.5434 107.239 54.9824 108.963 55.0569C109.106 55.0629 109.233 54.9525 109.273 54.8207C110.347 51.2984 111.42 47.7761 112.494 44.2538C112.615 43.8592 111.995 43.6898 111.874 44.0843Z" fill="#34323F"/>
<path d="M105.099 44.55C102.809 44.3857 100.863 42.77 100.252 40.5647C100.142 40.1668 99.5224 40.3354 99.6328 40.7359C100.323 43.2296 102.523 45.0087 105.099 45.1927C105.511 45.2218 105.509 44.5791 105.099 44.55Z" fill="#34323F"/>
<path d="M117.733 49.5003C115.986 49.6885 114.229 49.045 113.03 47.7579C112.747 47.455 112.294 47.9103 112.575 48.2123C113.878 49.6098 115.832 50.3483 117.733 50.143C118.14 50.0985 118.145 49.4558 117.733 49.5003Z" fill="#34323F"/>
<path d="M104.524 78.5191C104.068 82.0954 102.69 85.6776 99.8861 88.0634C97.3916 90.1866 94.0584 91.1861 90.8142 91.1596C83.6891 91.1006 77.739 86.0224 74.2475 80.1716C71.9892 76.3874 70.5523 72.1874 69.4116 67.9496C69.3046 67.5509 68.6842 67.7203 68.792 68.1208C70.8031 75.5899 73.9189 83.1779 80.2721 87.9847C83.0807 90.1096 86.443 91.5541 89.9807 91.7732C93.3241 91.9803 96.8105 91.1271 99.5395 89.1477C102.978 86.654 104.643 82.6268 105.167 78.52C105.219 78.1101 104.577 78.1135 104.524 78.5191Z" fill="#34323F"/>
<path d="M76.7783 143.182C75.8379 142.777 74.8563 142.498 73.8499 142.347C74.7237 141.621 75.1721 140.38 74.7622 139.277C74.3514 138.17 73.185 137.476 72.0314 137.506C72.776 136.423 73.0661 135.023 72.1358 133.914C71.5111 133.169 70.3661 133.043 69.6105 133.531C70.1308 124.543 70.6511 115.555 71.1714 106.566C71.3237 103.929 71.4769 101.292 71.6292 98.6545C71.6532 98.2411 71.0105 98.2428 70.9866 98.6545C70.4457 108.004 69.904 117.354 69.3632 126.704C69.2109 129.341 69.0577 131.978 68.9053 134.615C68.8848 134.976 69.4556 135.053 69.536 134.701C69.6481 134.21 70.0854 133.904 70.5766 133.86C71.1072 133.812 71.5616 134.132 71.8218 134.578C72.4773 135.702 71.8072 136.955 70.9763 137.767C70.7623 137.976 70.9806 138.431 71.2886 138.304C72.3412 137.87 73.7002 138.351 74.1383 139.439C74.5893 140.559 73.8499 141.917 72.7186 142.247C72.3618 142.351 72.4465 142.856 72.8042 142.878C77.5913 143.173 81.705 146.604 82.8508 151.259C83.1726 152.567 83.2479 153.919 83.0904 155.256C83.0425 155.666 83.6852 155.663 83.7331 155.256C84.3304 150.184 81.4671 145.201 76.7783 143.182Z" fill="#34323F"/>
<path d="M80.0943 151.611C76.5652 156.6 73.0369 161.59 69.5077 166.578C69.2681 166.916 69.8252 167.238 70.0622 166.902C73.5914 161.913 77.1197 156.924 80.6489 151.936C80.8885 151.598 80.3314 151.276 80.0943 151.611Z" fill="#34323F"/>
<path d="M73.6754 166.789C73.2295 166.134 72.7828 165.479 72.337 164.824C72.2428 164.685 72.0503 164.61 71.8971 164.708C71.7593 164.797 71.6806 164.999 71.7816 165.148L73.12 167.114C73.2141 167.252 73.4067 167.328 73.5598 167.229C73.6976 167.139 73.7764 166.937 73.6754 166.789Z" fill="#34323F"/>
<path d="M75.6051 164.207C74.9308 163.997 74.2556 163.786 73.5813 163.576C73.4212 163.525 73.2236 163.635 73.1859 163.8C73.1465 163.974 73.2381 164.141 73.4101 164.195C74.0845 164.406 74.7596 164.616 75.434 164.827C75.594 164.877 75.7917 164.768 75.8294 164.603C75.8687 164.427 75.7763 164.26 75.6051 164.207Z" fill="#34323F"/>
<path d="M77.1325 161.943C76.5138 161.489 75.8942 161.034 75.2755 160.579C75.1394 160.479 74.9109 160.551 74.8356 160.694C74.7475 160.862 74.8057 161.027 74.9512 161.134C75.5699 161.589 76.1895 162.043 76.8082 162.498C76.9442 162.598 77.1727 162.526 77.248 162.383C77.3362 162.215 77.278 162.05 77.1325 161.943Z" fill="#34323F"/>
<path d="M78.7243 159.843C78.2485 159.336 77.7736 158.829 77.2978 158.323C77.1822 158.2 76.958 158.198 76.8434 158.323C76.7227 158.455 76.7201 158.646 76.8434 158.777C77.3192 159.284 77.7941 159.79 78.2699 160.297C78.3854 160.42 78.6096 160.422 78.7243 160.297C78.845 160.165 78.8475 159.974 78.7243 159.843Z" fill="#34323F"/>
<path d="M80.7099 157.292C80.0518 156.941 79.3937 156.59 78.7356 156.238C78.5876 156.159 78.3796 156.196 78.2958 156.353C78.217 156.502 78.253 156.709 78.4113 156.793C79.0694 157.144 79.7275 157.496 80.3855 157.848C80.5336 157.926 80.7415 157.889 80.8254 157.732C80.9033 157.583 80.8682 157.377 80.7099 157.292Z" fill="#34323F"/>
<path d="M82.4553 155.49L80.6728 153.522C80.5598 153.398 80.3322 153.399 80.2184 153.522C80.096 153.656 80.0977 153.843 80.2184 153.977C80.8123 154.632 81.407 155.289 82.0009 155.944C82.1139 156.069 82.3415 156.067 82.4553 155.944C82.5777 155.811 82.576 155.623 82.4553 155.49Z" fill="#34323F"/>
<path d="M91.1684 119.348C85.8515 119.991 80.3807 119.19 75.4771 117.031C74.0925 116.422 72.7584 115.705 71.4816 114.894C71.1316 114.671 70.809 115.227 71.1573 115.448C75.7356 118.358 81.0841 119.999 86.5045 120.192C88.062 120.246 89.6212 120.177 91.1684 119.99C91.574 119.942 91.5783 119.298 91.1684 119.348Z" fill="#34323F"/>
<path d="M84.2003 120.365C80.7687 121.06 77.474 122.347 74.4771 124.156C74.1237 124.37 74.4463 124.926 74.8015 124.711C77.7556 122.928 80.9903 121.67 84.3714 120.984C84.7762 120.902 84.6051 120.283 84.2003 120.365Z" fill="#34323F"/>
<path d="M131.159 146.147C131.19 149.438 130.767 152.713 129.897 155.887C129.788 156.287 130.407 156.457 130.517 156.059C131.401 152.831 131.834 149.493 131.801 146.147C131.797 145.734 131.154 145.733 131.159 146.147Z" fill="#34323F"/>
<path d="M128.269 154.095C128.002 155.196 127.734 156.298 127.467 157.399C127.369 157.801 127.989 157.973 128.086 157.57C128.353 156.469 128.621 155.368 128.888 154.266C128.986 153.865 128.366 153.693 128.269 154.095Z" fill="#34323F"/>
<path d="M98.3249 230.148C94.8727 226.262 91.4215 222.377 87.9693 218.491C87.6938 218.181 87.2411 218.637 87.5149 218.945C90.9671 222.831 94.4183 226.716 97.8705 230.602C98.1452 230.912 98.5987 230.457 98.3249 230.148Z" fill="white"/>
<path d="M105.404 228.558C101.313 224.115 97.2238 219.673 93.1332 215.23C92.8525 214.925 92.399 215.381 92.6788 215.684C96.7693 220.128 100.859 224.57 104.95 229.013C105.23 229.318 105.684 228.862 105.404 228.558Z" fill="white"/>
<path d="M110.036 224.52C106.914 221.214 103.791 217.907 100.669 214.602C100.385 214.3 99.9306 214.756 100.215 215.056C103.337 218.362 106.46 221.669 109.582 224.974C109.866 225.276 110.32 224.82 110.036 224.52Z" fill="white"/>
<path d="M113.491 220.235C111.926 218.704 110.362 217.172 108.797 215.641C108.501 215.352 108.046 215.805 108.342 216.095C109.907 217.626 111.472 219.158 113.037 220.689C113.333 220.978 113.787 220.524 113.491 220.235Z" fill="white"/>
<path d="M155.827 200.019C155.664 205.218 155.502 210.417 155.34 215.615C155.328 216.029 155.97 216.029 155.983 215.615C156.145 210.417 156.307 205.218 156.469 200.019C156.481 199.606 155.839 199.606 155.827 200.019Z" fill="white"/>
<path d="M163.229 199.313C162.772 205.384 162.314 211.453 161.857 217.524C161.826 217.937 162.469 217.935 162.5 217.524C162.957 211.453 163.415 205.384 163.872 199.313C163.902 198.9 163.26 198.903 163.229 199.313Z" fill="white"/>
<path d="M169.407 199.195C168.823 205.542 168.237 211.889 167.653 218.236C167.615 218.648 168.258 218.645 168.296 218.236C168.88 211.889 169.465 205.542 170.05 199.195C170.087 198.783 169.445 198.786 169.407 199.195Z" fill="white"/>
<path d="M175.767 199.663C175.307 206.212 174.847 212.762 174.387 219.311C174.358 219.724 175.001 219.722 175.03 219.311C175.489 212.762 175.95 206.212 176.409 199.663C176.438 199.251 175.795 199.253 175.767 199.663Z" fill="white"/>
<path d="M181.215 202.29C180.819 207.965 180.422 213.64 180.026 219.315C179.997 219.728 180.639 219.726 180.669 219.315C181.065 213.64 181.462 207.964 181.858 202.29C181.887 201.876 181.244 201.878 181.215 202.29Z" fill="white"/>
<path d="M152.046 195.526C150.854 194.892 149.43 194.949 148.258 195.552C148.374 193.745 146.49 192.26 144.802 191.991C143.446 191.773 142.087 192.001 140.733 192.122C139.396 192.241 138.051 192.195 136.725 191.985C134.022 191.557 131.444 190.567 128.947 189.481C128.465 189.271 127.987 189.055 127.506 188.842C132.187 184.41 136.868 179.977 141.549 175.544C142.904 174.261 144.257 172.979 145.612 171.696C145.913 171.411 145.458 170.958 145.158 171.242C140.398 175.749 135.638 180.257 130.878 184.764C129.542 186.03 128.206 187.295 126.869 188.56C125.003 187.729 123.14 186.891 121.26 186.088C116.078 183.873 110.83 181.809 105.526 179.904C100.202 177.992 94.8209 176.236 89.3919 174.647C84.6005 173.244 79.258 171.915 74.3408 173.499C73.7649 173.685 73.2035 173.914 72.6567 174.173C72.2836 174.35 72.6088 174.904 72.981 174.727C77.6047 172.532 82.9292 173.527 87.6573 174.822C92.9091 176.26 98.0993 177.972 103.236 179.771C108.408 181.582 113.526 183.543 118.584 185.65C121.131 186.711 123.663 187.811 126.179 188.945C128.55 190.014 130.927 191.102 133.42 191.865C135.898 192.623 138.448 192.991 141.035 192.735C142.366 192.603 143.75 192.378 145.071 192.698C146.104 192.948 147.109 193.693 147.484 194.715C147.656 195.188 147.652 195.662 147.477 196.133C147.352 196.468 147.793 196.62 148.013 196.445C149.074 195.603 150.645 195.459 151.825 196.138C152.976 196.8 153.619 198.118 153.518 199.427C153.487 199.84 154.129 199.837 154.161 199.427C154.281 197.863 153.441 196.267 152.046 195.526Z" fill="white"/>
<path d="M107.294 37.4434L103.543 36.6698C103.051 36.568 102.479 36.8127 102.358 37.3424C102.249 37.8242 102.504 38.419 103.031 38.5277C104.281 38.7852 105.531 39.0428 106.782 39.3013C107.274 39.4031 107.846 39.1584 107.967 38.6286C108.077 38.1477 107.822 37.553 107.294 37.4434Z" fill="#34323F"/>
<path d="M119.478 44.2887C118.745 43.6118 118.013 42.9357 117.28 42.2588C117.094 42.0868 116.856 41.9764 116.599 41.9764C116.363 41.9764 116.081 42.0817 115.918 42.2588C115.749 42.4428 115.624 42.6833 115.636 42.94C115.647 43.1899 115.729 43.4466 115.918 43.6212C116.651 44.2981 117.383 44.9742 118.116 45.6511C118.301 45.8231 118.54 45.9335 118.797 45.9335C119.033 45.9335 119.315 45.8282 119.478 45.6511C119.647 45.4671 119.772 45.2266 119.76 44.9699C119.749 44.72 119.667 44.4624 119.478 44.2887Z" fill="#34323F"/>
<path d="M114.561 118.361C111.377 119.284 108.194 120.207 105.01 121.13C104.614 121.245 104.783 121.865 105.181 121.75L114.732 118.98C115.128 118.865 114.959 118.245 114.561 118.361Z" fill="#34323F"/>
<path d="M109.434 115.581C105.625 116.617 101.816 117.652 98.0067 118.688C97.6079 118.797 97.7773 119.417 98.1778 119.308C101.987 118.272 105.796 117.237 109.605 116.202C110.003 116.092 109.833 115.472 109.434 115.581Z" fill="#34323F"/>
<path d="M106.827 111.475C103.371 112.615 99.9152 113.757 96.4588 114.898C96.0677 115.027 96.2355 115.647 96.63 115.517C100.086 114.377 103.542 113.235 106.998 112.094C107.389 111.965 107.222 111.345 106.827 111.475Z" fill="#34323F"/>
<path d="M109.453 105.801C107.267 106.131 105.144 106.75 103.116 107.629C102.738 107.792 103.065 108.346 103.44 108.183C105.415 107.328 107.498 106.741 109.624 106.42C110.031 106.359 109.859 105.74 109.453 105.801Z" fill="#34323F"/>
<path d="M127.757 165.667C125.582 167.243 123.408 168.818 121.233 170.394C120.901 170.634 121.222 171.191 121.558 170.948C123.732 169.373 125.907 167.797 128.081 166.222C128.412 165.982 128.092 165.424 127.757 165.667Z" fill="#34323F"/>
<path d="M128.032 170.932C126.77 171.697 125.391 172.232 123.944 172.523C123.539 172.604 123.711 173.224 124.115 173.143C125.612 172.841 127.052 172.278 128.357 171.488C128.709 171.273 128.386 170.717 128.032 170.932Z" fill="#34323F"/>
<path d="M127.644 176.323C126.722 176.381 125.798 176.439 124.876 176.498C124.703 176.509 124.555 176.637 124.555 176.819C124.555 176.984 124.702 177.151 124.876 177.139C125.798 177.081 126.722 177.023 127.644 176.965C127.817 176.954 127.965 176.825 127.965 176.644C127.966 176.479 127.819 176.313 127.644 176.323Z" fill="#34323F"/>
<path d="M63.0784 157.313C63.0134 157.114 62.903 156.942 62.7464 156.797C62.6009 156.64 62.4289 156.53 62.2295 156.465C62.0378 156.364 61.8316 156.318 61.6108 156.326C61.4687 156.345 61.3258 156.364 61.1838 156.383C60.9116 156.459 60.6755 156.597 60.4752 156.797L60.2245 157.122C60.079 157.372 60.0062 157.642 60.0054 157.932V158.111C59.9968 158.332 60.043 158.538 60.144 158.73C60.2091 158.929 60.3195 159.101 60.4761 159.247C60.6215 159.403 60.7935 159.514 60.9929 159.579C61.1846 159.679 61.3909 159.725 61.6117 159.717C61.7537 159.698 61.8966 159.679 62.0387 159.66C62.3108 159.584 62.547 159.446 62.7473 159.247L62.998 158.921C63.1435 158.671 63.2162 158.401 63.2171 158.111V157.932C63.2256 157.711 63.1794 157.505 63.0784 157.313Z" fill="#E2798A"/>
<path d="M71.0787 150.97C69.012 150.97 69.0086 154.183 71.0787 154.183C73.1453 154.182 73.1488 150.97 71.0787 150.97Z" fill="#E2798A"/>
<path d="M61.2581 145.434C59.1914 145.434 59.188 148.646 61.2581 148.646C63.3247 148.646 63.3282 145.434 61.2581 145.434Z" fill="#E2798A"/>
<path d="M52.6787 151.147C50.6121 151.147 50.6087 154.359 52.6787 154.359C54.7463 154.359 54.7497 151.147 52.6787 151.147Z" fill="#E2798A"/>
<path d="M67.5076 136.502C65.4409 136.502 65.4375 139.714 67.5076 139.714C69.5742 139.714 69.5776 136.502 67.5076 136.502Z" fill="#E2798A"/>
<path d="M60.3653 125.252C58.2986 125.252 58.2952 128.464 60.3653 128.464C62.432 128.464 62.4354 125.252 60.3653 125.252Z" fill="#E2798A"/>
<path d="M53.7595 137.038C51.6928 137.038 51.6894 140.251 53.7595 140.251C55.8261 140.25 55.8296 137.038 53.7595 137.038Z" fill="#E2798A"/>
<path d="M49.9935 128.337C49.9285 128.138 49.8181 127.966 49.6615 127.821C49.5528 127.737 49.445 127.653 49.3363 127.57C49.0855 127.424 48.816 127.352 48.5259 127.351C48.3838 127.37 48.2409 127.389 48.0988 127.408C47.8267 127.484 47.5905 127.622 47.3903 127.821C47.2713 127.94 47.1524 128.059 47.0334 128.178C46.8768 128.324 46.7664 128.496 46.7014 128.695C46.6013 128.887 46.555 129.093 46.5627 129.314C46.5542 129.535 46.6004 129.741 46.7014 129.933C46.7664 130.132 46.8768 130.304 47.0334 130.449C47.1421 130.533 47.2499 130.617 47.3586 130.7C47.6093 130.846 47.8789 130.918 48.169 130.919C48.3111 130.9 48.454 130.881 48.596 130.862C48.8682 130.786 49.1044 130.648 49.3046 130.449C49.4236 130.33 49.5425 130.211 49.6615 130.092C49.8181 129.946 49.9285 129.774 49.9935 129.575C50.0945 129.383 50.1398 129.177 50.1321 128.956C50.1398 128.735 50.0936 128.528 49.9935 128.337Z" fill="#E2798A"/>
<path d="M46.3892 143.192C46.3293 143.073 46.2702 142.955 46.2103 142.836C46.1093 142.648 45.9716 142.498 45.797 142.385C45.6421 142.243 45.4598 142.147 45.251 142.097C45.0379 142.03 44.824 142.021 44.6109 142.068C44.397 142.077 44.1984 142.142 44.0136 142.259C43.9049 142.343 43.7971 142.426 43.6884 142.51C43.489 142.71 43.3512 142.946 43.2751 143.218C43.2562 143.36 43.2366 143.503 43.2177 143.645C43.2186 143.935 43.2913 144.206 43.4368 144.456C43.4967 144.574 43.5557 144.693 43.6157 144.812C43.7166 145 43.8544 145.15 44.029 145.263C44.1839 145.405 44.3662 145.501 44.575 145.551C44.788 145.618 45.002 145.627 45.2151 145.579C45.429 145.57 45.6275 145.506 45.8124 145.388C45.9211 145.304 46.0289 145.221 46.1376 145.138C46.337 144.937 46.4748 144.701 46.5509 144.429C46.5697 144.287 46.5894 144.144 46.6083 144.002C46.6074 143.713 46.5347 143.443 46.3892 143.192Z" fill="#E2798A"/>
<path d="M54.8711 117.489C54.8061 117.289 54.6957 117.117 54.5391 116.972C54.3936 116.815 54.2216 116.705 54.0222 116.64C53.8305 116.539 53.6243 116.493 53.4035 116.501C53.2614 116.52 53.1185 116.54 52.9764 116.558C52.7043 116.635 52.4681 116.772 52.2679 116.972C52.184 117.081 52.1001 117.188 52.0171 117.297C51.8717 117.548 51.7989 117.817 51.7981 118.107V118.286C51.7895 118.507 51.8357 118.713 51.9367 118.905C52.0017 119.104 52.1121 119.276 52.2687 119.422C52.4142 119.578 52.5862 119.689 52.7856 119.754C52.9773 119.855 53.1835 119.9 53.4043 119.893C53.5464 119.874 53.6893 119.854 53.8313 119.835C54.1035 119.759 54.3397 119.621 54.5399 119.422C54.6238 119.313 54.7076 119.205 54.7907 119.097C54.9361 118.846 55.0089 118.576 55.0097 118.286V118.107C55.0183 117.886 54.9721 117.68 54.8711 117.489Z" fill="#E2798A"/>
<path d="M65.722 117.215C63.6553 117.215 63.6519 120.427 65.722 120.427C67.7887 120.427 67.7921 117.215 65.722 117.215Z" fill="#E2798A"/>
<path d="M66.0783 102.928C64.0117 102.928 64.0082 106.141 66.0783 106.141C68.1458 106.141 68.1493 102.928 66.0783 102.928Z" fill="#E2798A"/>
<path d="M58.7559 109.536C56.6893 109.536 56.6859 112.749 58.7559 112.749C60.8226 112.748 60.826 109.536 58.7559 109.536Z" fill="#E2798A"/>
<path d="M50.5408 100.25C48.4741 100.25 48.4707 103.463 50.5408 103.463C52.6074 103.462 52.6109 100.25 50.5408 100.25Z" fill="#E2798A"/>
<path d="M46.9156 115.517C46.8557 115.398 46.7949 115.28 46.735 115.161C46.634 114.974 46.4963 114.824 46.3217 114.71C46.1668 114.568 45.9845 114.472 45.7757 114.423C45.5626 114.356 45.3487 114.347 45.1356 114.394C44.9217 114.403 44.7231 114.467 44.5383 114.584C44.4296 114.668 44.3218 114.752 44.2131 114.835C44.0137 115.035 43.8759 115.272 43.7998 115.544C43.7809 115.686 43.7613 115.829 43.7424 115.971C43.7433 116.261 43.816 116.531 43.9615 116.781C44.0214 116.9 44.0822 117.018 44.1421 117.137C44.243 117.325 44.3808 117.474 44.5554 117.588C44.7103 117.73 44.8926 117.826 45.1014 117.876C45.3145 117.942 45.5284 117.952 45.7415 117.904C45.9554 117.895 46.154 117.83 46.3388 117.713C46.4475 117.629 46.5553 117.545 46.664 117.462C46.8634 117.262 47.0012 117.026 47.0773 116.754C47.0962 116.612 47.1158 116.469 47.1347 116.327C47.1338 116.038 47.0611 115.768 46.9156 115.517Z" fill="#E2798A"/>
<path d="M59.1549 98.1999C59.0898 98.0005 58.9795 97.8285 58.8228 97.683C58.6774 97.5264 58.5054 97.416 58.306 97.351C58.1143 97.2508 57.908 97.2046 57.6873 97.2123C57.5452 97.2311 57.4023 97.2508 57.2602 97.2697C56.9881 97.3458 56.7519 97.4836 56.5517 97.683C56.4678 97.7917 56.3839 97.8995 56.3009 98.0082C56.1554 98.2589 56.0827 98.5285 56.0818 98.8186V98.9974C56.0733 99.2182 56.1195 99.4245 56.2205 99.6162C56.2855 99.8156 56.3959 99.9876 56.5525 100.133C56.698 100.29 56.87 100.4 57.0694 100.465C57.2611 100.565 57.4673 100.611 57.6881 100.604C57.8302 100.585 57.9731 100.565 58.1151 100.546C58.3873 100.47 58.6235 100.332 58.8237 100.133L59.0744 99.8079C59.2199 99.5571 59.2927 99.2875 59.2935 98.9974V98.8186C59.3012 98.597 59.255 98.3907 59.1549 98.1999Z" fill="#E2798A"/>
<path d="M47.4454 87.8556C47.3692 87.5835 47.2315 87.3473 47.0321 87.1471C46.9234 87.0632 46.8155 86.9793 46.7069 86.8963C46.4561 86.7509 46.1866 86.6781 45.8965 86.6773H45.7176C45.4968 86.6687 45.2906 86.7149 45.0989 86.8159C44.8995 86.8809 44.7275 86.9913 44.582 87.1479C44.4254 87.2934 44.315 87.4654 44.25 87.6648C44.149 87.8565 44.1036 88.0627 44.1113 88.2835C44.1302 88.4256 44.1499 88.5685 44.1687 88.7106C44.2448 88.9827 44.3826 89.2189 44.582 89.4191C44.6907 89.503 44.7985 89.5868 44.9072 89.6699C45.1579 89.8153 45.4275 89.8881 45.7176 89.8889H45.8965C46.1172 89.8975 46.3235 89.8513 46.5152 89.7503C46.7146 89.6853 46.8866 89.5749 47.0321 89.4183C47.1887 89.2728 47.2991 89.1008 47.3641 88.9014C47.4651 88.7097 47.5104 88.5035 47.5027 88.2827C47.483 88.1406 47.4642 87.9977 47.4454 87.8556Z" fill="#E2798A"/>
<path d="M59.764 76.7668C59.7546 76.5528 59.6904 76.3543 59.5731 76.1694C59.4893 76.0608 59.4054 75.9529 59.3224 75.8442C59.1222 75.6449 58.886 75.5079 58.6138 75.4309C58.4718 75.4121 58.3289 75.3924 58.1868 75.3736C57.8967 75.3744 57.6263 75.4472 57.3764 75.5927C57.1984 75.7125 57.0204 75.8323 56.8424 75.9529C56.655 76.0539 56.5052 76.1917 56.3914 76.3663C56.2494 76.5211 56.1535 76.7034 56.1039 76.9122C56.0371 77.1253 56.0277 77.3393 56.0756 77.5523C56.0851 77.7663 56.1492 77.9648 56.2665 78.1497L56.5172 78.4748C56.7175 78.6742 56.9537 78.8112 57.2258 78.8882C57.3678 78.907 57.5108 78.9267 57.6528 78.9455C57.9429 78.9447 58.2133 78.8719 58.4632 78.7264C58.6412 78.6066 58.8192 78.4868 58.9972 78.3662C59.1846 78.2652 59.3344 78.1274 59.4482 77.9528C59.5903 77.7979 59.6861 77.6157 59.7357 77.4069C59.8025 77.1938 59.8119 76.9807 59.764 76.7668Z" fill="#E2798A"/>
<path d="M57.6268 86.9648C57.5506 86.6927 57.4128 86.4565 57.2134 86.2562C57.1047 86.1724 56.9969 86.0885 56.8882 86.0055C56.6375 85.86 56.3679 85.7873 56.0778 85.7864H55.5421C55.3213 85.7779 55.1151 85.8241 54.9234 85.9251C54.724 85.9901 54.552 86.1005 54.4065 86.2571C54.2499 86.4026 54.1395 86.5746 54.0745 86.774C53.9744 86.9657 53.9282 87.1719 53.9359 87.3927C53.9547 87.5348 53.9744 87.6777 53.9932 87.8197C54.0694 88.0919 54.2071 88.328 54.4065 88.5283C54.5152 88.6122 54.623 88.696 54.7317 88.779C54.9825 88.9245 55.252 88.9973 55.5421 88.9981H56.0778C56.2986 89.0067 56.5049 88.9605 56.6965 88.8595C56.8959 88.7945 57.0679 88.6841 57.2134 88.5275C57.37 88.382 57.4804 88.21 57.5455 88.0106C57.6456 87.8189 57.6918 87.6126 57.6841 87.3919C57.6653 87.249 57.6464 87.1069 57.6268 86.9648Z" fill="#E2798A"/>
<path d="M65.722 91.6766C63.6553 91.6766 63.6519 94.8892 65.722 94.8892C67.7887 94.8883 67.7921 91.6766 65.722 91.6766Z" fill="#E2798A"/>
<path d="M68.5805 80.605C66.5138 80.605 66.5104 83.8175 68.5805 83.8175C70.6471 83.8166 70.6505 80.605 68.5805 80.605Z" fill="#E2798A"/>
<path d="M43.7548 106.678C41.6882 106.678 41.6848 109.89 43.7548 109.89C45.8215 109.889 45.8249 106.678 43.7548 106.678Z" fill="#E2798A"/>
<path d="M75.7227 89.893C73.6561 89.893 73.6526 93.1056 75.7227 93.1056C77.7894 93.1047 77.7928 89.893 75.7227 89.893Z" fill="#E2798A"/>
<path d="M76.4393 101.143C74.3726 101.143 74.3692 104.355 76.4393 104.355C78.5068 104.355 78.5102 101.143 76.4393 101.143Z" fill="#E2798A"/>
<path d="M77.6845 111.68C75.6178 111.68 75.6144 114.893 77.6845 114.893C79.752 114.893 79.7554 111.68 77.6845 111.68Z" fill="#E2798A"/>
<path d="M86.4361 109.714C84.3695 109.714 84.366 112.927 86.4361 112.927C88.5036 112.926 88.5071 109.714 86.4361 109.714Z" fill="#E2798A"/>
<path d="M84.8268 100.787C82.7601 100.787 82.7567 103.999 84.8268 103.999C86.8934 103.998 86.8968 100.787 84.8268 100.787Z" fill="#E2798A"/>
<path d="M92.2703 96.6053C92.1942 96.3332 92.0564 96.097 91.857 95.8968C91.7483 95.8129 91.6405 95.729 91.5318 95.646C91.2811 95.5005 91.0115 95.4278 90.7214 95.4269H90.3646C90.1438 95.4184 89.9375 95.4646 89.7459 95.5656C89.5465 95.6306 89.3744 95.741 89.229 95.8976C89.0724 96.0431 88.962 96.2151 88.8969 96.4145C88.7968 96.6062 88.7506 96.8124 88.7583 97.0332C88.7771 97.1753 88.7968 97.3182 88.8156 97.4602C88.8918 97.7324 89.0296 97.9686 89.229 98.1688L89.5542 98.4195C89.8049 98.565 90.0745 98.6378 90.3646 98.6386H90.7214C90.9422 98.6472 91.1484 98.601 91.3401 98.5C91.5395 98.4349 91.7115 98.3245 91.857 98.1679C92.0136 98.0225 92.124 97.8504 92.189 97.6511C92.29 97.4594 92.3354 97.2531 92.3277 97.0323C92.308 96.8903 92.2892 96.7474 92.2703 96.6053Z" fill="#E2798A"/>
<path d="M95.9004 104.358C93.8337 104.358 93.8303 107.57 95.9004 107.57C97.9671 107.569 97.9705 104.358 95.9004 104.358Z" fill="#E2798A"/>
<path d="M103.583 96.8552C101.516 96.8552 101.513 100.068 103.583 100.068C105.65 100.067 105.653 96.8552 103.583 96.8552Z" fill="#E2798A"/>
<path d="M108.341 88.3897C108.265 88.1176 108.127 87.8814 107.928 87.6812L107.749 87.5023C107.603 87.3457 107.431 87.2353 107.232 87.1703C107.04 87.0693 106.834 87.0239 106.613 87.0316C106.392 87.0231 106.186 87.0693 105.994 87.1703C105.795 87.2353 105.623 87.3457 105.478 87.5023C105.394 87.611 105.31 87.7188 105.227 87.8275C105.081 88.0783 105.009 88.3478 105.008 88.6379C105.027 88.78 105.046 88.9229 105.065 89.0649C105.141 89.3371 105.279 89.5733 105.478 89.7735C105.538 89.8334 105.597 89.8925 105.657 89.9524C105.803 90.109 105.975 90.2194 106.174 90.2844C106.366 90.3845 106.572 90.4307 106.793 90.423C107.014 90.4316 107.22 90.3854 107.412 90.2844C107.611 90.2194 107.783 90.109 107.928 89.9524C108.012 89.8437 108.096 89.7359 108.179 89.6272C108.325 89.3764 108.397 89.1069 108.398 88.8168C108.379 88.6747 108.36 88.5318 108.341 88.3897Z" fill="#E2798A"/>
<path d="M115.549 87.2127C113.483 87.2127 113.479 90.4252 115.549 90.4252C117.616 90.4252 117.62 87.2127 115.549 87.2127Z" fill="#E2798A"/>
<path d="M113.626 97.3074C113.561 97.108 113.451 96.936 113.294 96.7905C113.185 96.7066 113.077 96.6228 112.969 96.5398C112.718 96.3943 112.448 96.3215 112.158 96.3207C112.016 96.3395 111.873 96.3592 111.731 96.378C111.459 96.4542 111.223 96.592 111.023 96.7914C110.963 96.8513 110.904 96.9103 110.844 96.9702C110.687 97.1157 110.577 97.2877 110.512 97.4871C110.412 97.6788 110.366 97.885 110.373 98.1058C110.365 98.3266 110.411 98.5328 110.512 98.7245C110.577 98.9239 110.687 99.0959 110.844 99.2414C110.953 99.3253 111.06 99.4091 111.169 99.4921C111.42 99.6376 111.689 99.7103 111.979 99.7112C112.122 99.6924 112.264 99.6727 112.406 99.6539C112.679 99.5777 112.915 99.4399 113.115 99.2405C113.175 99.1806 113.234 99.1216 113.294 99.0617C113.451 98.9162 113.561 98.7442 113.626 98.5448C113.727 98.3531 113.772 98.1469 113.765 97.9261C113.773 97.7053 113.727 97.4991 113.626 97.3074Z" fill="#E2798A"/>
<path d="M86.9726 123.646C84.9059 123.646 84.9025 126.859 86.9726 126.859C89.0401 126.858 89.0435 123.646 86.9726 123.646Z" fill="#E2798A"/>
<path d="M77.8685 129.54C75.8019 129.54 75.7984 132.752 77.8685 132.752C79.9352 132.752 79.9386 129.54 77.8685 129.54Z" fill="#E2798A"/>
<path d="M84.77 142.325C84.6938 142.053 84.556 141.817 84.3566 141.617C84.248 141.533 84.1401 141.449 84.0315 141.366C83.7807 141.22 83.5112 141.148 83.221 141.147H83.0422C82.8214 141.138 82.6152 141.184 82.4235 141.285C82.2241 141.35 82.0521 141.461 81.9066 141.617C81.75 141.763 81.6396 141.935 81.5746 142.134C81.4736 142.326 81.4282 142.532 81.4359 142.753C81.4548 142.895 81.4744 143.038 81.4933 143.18C81.5694 143.452 81.7072 143.688 81.9066 143.889C82.0153 143.973 82.1231 144.056 82.2318 144.139C82.4825 144.285 82.7521 144.358 83.0422 144.358H83.221C83.4418 144.367 83.6481 144.321 83.8398 144.22C84.0392 144.155 84.2112 144.044 84.3566 143.888C84.5132 143.742 84.6236 143.57 84.6887 143.371C84.7888 143.179 84.835 142.973 84.8273 142.752C84.8076 142.61 84.7888 142.468 84.77 142.325Z" fill="#E2798A"/>
<path d="M86.9726 132.038C84.9059 132.038 84.9025 135.25 86.9726 135.25C89.0401 135.25 89.0435 132.038 86.9726 132.038Z" fill="#E2798A"/>
<path d="M96.0512 142.299C95.9751 142.027 95.8373 141.791 95.6379 141.591C95.519 141.472 95.4 141.353 95.281 141.234C95.1356 141.077 94.9636 140.967 94.7642 140.902C94.5725 140.801 94.3662 140.755 94.1455 140.763C93.9247 140.755 93.7184 140.801 93.5267 140.902C93.3274 140.967 93.1553 141.077 93.0099 141.234C92.926 141.342 92.8421 141.45 92.7591 141.559C92.6136 141.81 92.5409 142.079 92.5401 142.369C92.5589 142.511 92.5786 142.654 92.5974 142.796C92.6736 143.068 92.8113 143.305 93.0107 143.505L93.3676 143.862C93.513 144.018 93.6851 144.129 93.8845 144.194C94.0761 144.294 94.2824 144.34 94.5032 144.332C94.7239 144.341 94.9302 144.295 95.1219 144.194C95.3213 144.129 95.4933 144.018 95.6388 143.862C95.7226 143.753 95.8065 143.645 95.8895 143.537C96.035 143.286 96.1077 143.016 96.1086 142.726C96.0897 142.584 96.0701 142.442 96.0512 142.299Z" fill="#E2798A"/>
<path d="M90.0495 151.599C89.9844 151.399 89.874 151.227 89.7174 151.082C89.6087 150.998 89.5009 150.914 89.3922 150.831C89.1415 150.686 88.8719 150.613 88.5818 150.612C88.4398 150.631 88.2969 150.651 88.1548 150.669C87.8827 150.746 87.6465 150.883 87.4462 151.083L87.2674 151.262C87.1108 151.407 87.0004 151.579 86.9353 151.778C86.8352 151.97 86.789 152.176 86.7967 152.397C86.7881 152.618 86.8344 152.824 86.9353 153.016C87.0004 153.215 87.1108 153.387 87.2674 153.533L87.5926 153.783C87.8433 153.929 88.1129 154.002 88.403 154.003C88.545 153.984 88.6879 153.964 88.83 153.945C89.1021 153.869 89.3383 153.731 89.5386 153.532C89.5985 153.472 89.6575 153.413 89.7174 153.353C89.874 153.208 89.9844 153.036 90.0495 152.836C90.1496 152.644 90.1958 152.438 90.1881 152.217C90.1958 151.997 90.1496 151.79 90.0495 151.599Z" fill="#E2798A"/>
<path d="M100.054 151.957C99.9891 151.758 99.8787 151.586 99.7221 151.44C99.6134 151.356 99.5055 151.272 99.3969 151.189C99.1461 151.044 98.8766 150.971 98.5865 150.97C98.4444 150.989 98.3015 151.009 98.1594 151.028C97.8873 151.104 97.6511 151.242 97.4509 151.441L97.272 151.62C97.1154 151.765 97.005 151.937 96.94 152.137C96.8399 152.328 96.7936 152.535 96.8014 152.755C96.7928 152.976 96.839 153.182 96.94 153.374C97.005 153.574 97.1154 153.746 97.272 153.891C97.3807 153.975 97.4885 154.059 97.5972 154.142C97.8479 154.287 98.1175 154.36 98.4076 154.361C98.5497 154.342 98.6926 154.322 98.8346 154.304C99.1068 154.227 99.343 154.09 99.5432 153.89C99.6031 153.83 99.6622 153.771 99.7221 153.711C99.8787 153.566 99.9891 153.394 100.054 153.194C100.154 153.003 100.2 152.797 100.193 152.576C100.2 152.355 100.154 152.149 100.054 151.957Z" fill="#E2798A"/>
<path d="M99.1191 158.827C97.0524 158.827 97.049 162.04 99.1191 162.04C101.187 162.04 101.19 158.827 99.1191 158.827Z" fill="#E2798A"/>
<path d="M94.6513 125.252C92.5846 125.252 92.5812 128.464 94.6513 128.464C96.7179 128.464 96.7214 125.252 94.6513 125.252Z" fill="#E2798A"/>
<path d="M110.408 127.311C110.343 127.112 110.232 126.94 110.076 126.794C109.93 126.638 109.758 126.527 109.559 126.462C109.367 126.362 109.161 126.316 108.94 126.324C108.798 126.343 108.655 126.362 108.513 126.381C108.241 126.457 108.005 126.595 107.804 126.794C107.721 126.903 107.637 127.011 107.554 127.12C107.408 127.37 107.335 127.64 107.335 127.93V128.109C107.326 128.33 107.372 128.536 107.473 128.728C107.538 128.927 107.649 129.099 107.805 129.244C107.951 129.401 108.123 129.511 108.322 129.576C108.514 129.677 108.72 129.723 108.941 129.715C109.083 129.696 109.226 129.677 109.368 129.658C109.64 129.582 109.876 129.444 110.076 129.244C110.16 129.136 110.244 129.028 110.327 128.919C110.473 128.668 110.545 128.399 110.546 128.109V127.93C110.554 127.708 110.508 127.502 110.408 127.311Z" fill="#E2798A"/>
<path d="M125.37 127.218C123.303 127.218 123.3 130.43 125.37 130.43C127.438 130.43 127.441 127.218 125.37 127.218Z" fill="#E2798A"/>
<path d="M123.945 138.648C121.878 138.648 121.875 141.86 123.945 141.86C126.011 141.859 126.015 138.648 123.945 138.648Z" fill="#E2798A"/>
<path d="M122.374 151.955C122.309 151.755 122.199 151.583 122.042 151.438C121.897 151.281 121.725 151.171 121.525 151.106C121.333 151.005 121.127 150.96 120.906 150.967C120.764 150.986 120.621 151.006 120.479 151.025C120.207 151.101 119.971 151.239 119.771 151.438C119.687 151.547 119.603 151.654 119.52 151.763C119.375 152.014 119.302 152.283 119.301 152.574V152.752C119.292 152.973 119.339 153.179 119.44 153.371C119.505 153.57 119.615 153.742 119.772 153.888C119.917 154.045 120.089 154.155 120.289 154.22C120.48 154.32 120.687 154.366 120.907 154.359C121.049 154.34 121.192 154.32 121.334 154.301C121.606 154.225 121.843 154.087 122.043 153.888C122.127 153.779 122.211 153.671 122.294 153.563C122.439 153.312 122.512 153.042 122.513 152.752V152.574C122.52 152.353 122.475 152.146 122.374 151.955Z" fill="#E2798A"/>
<path d="M115.549 160.078C113.483 160.078 113.479 163.291 115.549 163.291C117.616 163.29 117.62 160.078 115.549 160.078Z" fill="#E2798A"/>
<path d="M125.018 159.898C122.951 159.898 122.948 163.111 125.018 163.111C127.084 163.111 127.088 159.898 125.018 159.898Z" fill="#E2798A"/>
<path d="M127.156 146.146C125.089 146.146 125.086 149.359 127.156 149.359C129.222 149.358 129.226 146.146 127.156 146.146Z" fill="#E2798A"/>
<path d="M115.522 92.5916C114.464 91.6237 113.285 90.7945 112.013 90.1338C111.647 89.9438 111.321 90.4975 111.689 90.6883C116.034 92.945 119.167 97.2144 120.191 101.986C120.484 103.354 120.589 104.752 120.513 106.149C120.491 106.562 121.134 106.56 121.156 106.149C121.432 101.085 119.251 96.0035 115.522 92.5916Z" fill="#34323F"/>
</g>
</svg>
