<svg width="59" height="65" viewBox="0 0 59 65" fill="none" xmlns="http://www.w3.org/2000/svg">
<path fill-rule="evenodd" clip-rule="evenodd" d="M19.4578 60.1197C13.9048 58.5562 8.0911 57.7675 2.4514 57.045C1.23669 56.8935 0.10892 57.7388 0.022155 58.9297C-0.151374 60.1215 0.716781 61.2114 1.84472 61.3628C7.3109 62.0584 12.9501 62.8027 18.2427 64.3079C19.3707 64.6343 20.5859 63.9623 20.933 62.8062C21.28 61.651 20.5857 60.447 19.4578 60.1197Z" fill="#C7B9FD"/>
<path fill-rule="evenodd" clip-rule="evenodd" d="M36.2894 37.9533C27.3527 28.8031 17.288 20.8307 8.52472 11.435C7.74384 10.5575 6.3556 10.5105 5.48795 11.3297C4.62031 12.1497 4.53388 13.5286 5.40153 14.4061C14.1648 23.8288 24.2295 31.8273 33.1662 41.0045C34.0339 41.8611 35.4218 41.8733 36.2894 41.0306C37.0703 40.1888 37.1571 38.8099 36.2894 37.9533Z" fill="#C7B9FD"/>
<path fill-rule="evenodd" clip-rule="evenodd" d="M53.037 2.75839C53.2973 7.99553 53.5571 13.2327 53.8174 18.4707C53.8174 19.6703 54.8591 20.5965 56.0738 20.5382C57.2885 20.479 58.1556 19.4579 58.1556 18.2574C57.8953 13.0116 57.6356 7.76658 57.3753 2.5216C57.2885 1.322 56.2472 0.401847 55.0324 0.467138C53.9045 0.532428 52.9503 1.55966 53.037 2.75839Z" fill="#C7B9FD"/>
</svg>
