<svg width="65" height="59" viewBox="0 0 65 59" fill="none" xmlns="http://www.w3.org/2000/svg">
<path fill-rule="evenodd" clip-rule="evenodd" d="M4.8793 19.4578C6.44278 13.9048 7.23148 8.0911 7.95403 2.45139C8.1055 1.23669 7.26022 0.108917 6.06932 0.0221525C4.87756 -0.151377 3.78765 0.716778 3.63618 1.84472C2.94062 7.3109 2.19632 12.9501 0.691161 18.2427C0.364707 19.3707 1.03675 20.5859 2.19282 20.933C3.34803 21.28 4.55197 20.5857 4.8793 19.4578Z" fill="#C7B9FD"/>
<path fill-rule="evenodd" clip-rule="evenodd" d="M27.0458 36.2894C36.196 27.3527 44.1683 17.288 53.564 8.52472C54.4415 7.74384 54.4885 6.3556 53.6694 5.48795C52.8493 4.62031 51.4704 4.53388 50.5929 5.40153C41.1702 14.1648 33.1717 24.2295 23.9945 33.1662C23.1379 34.0339 23.1257 35.4218 23.9684 36.2894C24.8102 37.0703 26.1891 37.1571 27.0458 36.2894Z" fill="#C7B9FD"/>
<path fill-rule="evenodd" clip-rule="evenodd" d="M62.2406 53.037C57.0035 53.2973 51.7663 53.5571 46.5283 53.8174C45.3287 53.8174 44.4025 54.8591 44.4608 56.0738C44.52 57.2885 45.5411 58.1556 46.7416 58.1556C51.9875 57.8953 57.2324 57.6356 62.4774 57.3753C63.677 57.2885 64.5972 56.2472 64.5319 55.0324C64.4666 53.9045 63.4394 52.9503 62.2406 53.037Z" fill="#C7B9FD"/>
</svg>
