<svg width="314" height="639" viewBox="0 0 314 639" fill="none" xmlns="http://www.w3.org/2000/svg">
<path d="M311.307 163.722H312.418C313.032 163.722 313.53 164.222 313.53 164.839V237.77C313.53 238.386 313.032 238.886 312.418 238.886H311.307V163.722Z" fill="#303030"/>
<path d="M2.22273 254.514L1.11092 254.514C0.496889 254.514 -0.000880225 254.014 -0.000880172 253.398L-0.000876349 209.491C-0.000876295 208.874 0.496894 208.374 1.11092 208.374L2.22273 208.374L2.22273 254.514Z" fill="#303030"/>
<path d="M2.22273 193.49L1.11092 193.49C0.496889 193.49 -0.000880225 192.99 -0.000880172 192.374L-0.000876349 148.466C-0.000876295 147.85 0.496894 147.35 1.11092 147.35L2.22273 147.35L2.22273 193.49Z" fill="#333333"/>
<path d="M2.22273 125.024L1.11092 125.024C0.496893 125.024 -0.000877364 124.525 -0.00087731 123.908L-0.000875431 102.327C-0.000875378 101.71 0.496895 101.21 1.11092 101.21L2.22273 101.21L2.22273 125.024Z" fill="#333333"/>
<path fill-rule="evenodd" clip-rule="evenodd" d="M4.58073 33.4246C2.22273 40.7111 2.22273 49.7146 2.22273 67.7216V570.796C2.22273 588.803 2.22273 597.806 4.58073 605.093C9.34639 619.819 20.8457 631.365 35.5129 636.15C42.7701 638.517 51.7374 638.517 69.672 638.517H243.854C261.789 638.517 270.756 638.517 278.013 636.15C292.68 631.365 304.18 619.819 308.945 605.093C311.303 597.806 311.303 588.803 311.303 570.796V67.7216C311.303 49.7146 311.303 40.7111 308.945 33.4246C304.18 18.6982 292.68 7.15243 278.013 2.36752C270.756 0 261.789 0 243.854 0H69.672C51.7374 0 42.7701 0 35.5129 2.36752C20.8457 7.15243 9.34639 18.6982 4.58073 33.4246ZM80.7906 18.2327V21.5816L80.8435 21.5799L80.7903 21.9537C80.7903 30.7903 87.925 37.9538 96.7261 37.9538H216.801C225.602 37.9538 232.736 30.7903 232.736 21.9537L232.683 21.5799L232.736 21.5816V18.2327C232.736 15.9722 234.561 14.1397 236.813 14.1397L246.36 14.1397C261.284 14.1397 268.747 14.1397 274.698 16.3976C284.053 19.9467 291.437 27.3609 294.972 36.7532C297.221 42.7288 297.221 50.2212 297.221 65.2062V573.311C297.221 588.296 297.221 595.789 294.972 601.764C291.437 611.157 284.053 618.571 274.698 622.12C268.747 624.378 261.284 624.378 246.36 624.378H67.1671C52.2424 624.378 44.78 624.378 38.8285 622.12C29.474 618.571 22.0896 611.157 18.5548 601.764C16.3059 595.789 16.3059 588.296 16.3059 573.311V65.2062C16.3059 50.2212 16.3059 42.7288 18.5548 36.7532C22.0896 27.3609 29.474 19.9467 38.8285 16.3976C44.78 14.1397 52.2424 14.1397 67.1671 14.1397L76.714 14.1397C78.9654 14.1397 80.7906 15.9722 80.7906 18.2327Z" fill="#333333"/>
<path fill-rule="evenodd" clip-rule="evenodd" d="M244.152 1.48836H69.3765C51.6602 1.48836 42.9778 1.49754 35.972 3.78303C21.7561 8.42071 10.6106 19.6112 5.99158 33.8845C3.71528 40.9185 3.70614 49.636 3.70614 67.4238V571.094C3.70614 588.881 3.71528 597.599 5.99158 604.633C10.6106 618.906 21.7561 630.097 35.972 634.734C42.9778 637.02 51.6602 637.029 69.3765 637.029H244.152C261.868 637.029 270.55 637.02 277.556 634.734C291.772 630.097 302.918 618.906 307.537 604.633C309.813 597.599 309.822 588.881 309.822 571.094V67.4238C309.822 49.636 309.813 40.9185 307.537 33.8845C302.918 19.6112 291.772 8.42071 277.556 3.78303C270.55 1.49754 261.868 1.48836 244.152 1.48836ZM5.28666 33.6545C2.96494 40.8289 2.96494 49.6939 2.96494 67.4238V571.094C2.96494 588.824 2.96494 597.689 5.28666 604.863C9.97901 619.363 21.3014 630.731 35.743 635.442C42.8885 637.773 51.7179 637.773 69.3765 637.773H244.152C261.81 637.773 270.64 637.773 277.785 635.442C292.227 630.731 303.549 619.363 308.241 604.863C310.563 597.689 310.563 588.824 310.563 571.094V67.4238C310.563 49.6939 310.563 40.8289 308.241 33.6545C303.549 19.1547 292.227 7.78656 277.785 3.07526C270.64 0.744164 261.81 0.744164 244.152 0.744164H69.3765C51.7179 0.744164 42.8885 0.744164 35.743 3.07526C21.3014 7.78656 9.97901 19.1547 5.28666 33.6545Z" fill="#303030"/>
<path fill-rule="evenodd" clip-rule="evenodd" d="M8.10649 34.5743C5.92987 41.3003 5.92987 49.6112 5.92987 66.233V572.284C5.92987 588.906 5.92987 597.217 8.10649 603.943C12.5056 617.536 23.1203 628.194 36.6593 632.611C43.3582 634.796 51.6357 634.796 68.1907 634.796H245.338C261.893 634.796 270.17 634.796 276.869 632.611C290.408 628.194 301.023 617.536 305.422 603.943C307.598 597.217 307.598 588.906 307.598 572.284V66.233C307.598 49.6112 307.598 41.3003 305.422 34.5743C301.023 20.9807 290.408 10.3231 276.869 5.90622C270.17 3.72082 261.893 3.72082 245.338 3.72082H68.1907C51.6357 3.72082 43.3582 3.72082 36.6593 5.90622C23.1203 10.3231 12.5056 20.9807 8.10649 34.5743ZM80.7909 18.2326V21.5815L80.8438 21.5798L80.7906 21.9535C80.7906 30.7902 87.9253 37.9537 96.7264 37.9537H216.801C225.602 37.9537 232.737 30.7902 232.737 21.9535L232.684 21.5798L232.736 21.5815V18.2326C232.736 15.972 234.562 14.1395 236.813 14.1395L246.36 14.1395C261.285 14.1395 268.747 14.1395 274.699 16.3975C284.053 19.9465 291.438 27.3607 294.972 36.7531C297.221 42.7286 297.221 50.2211 297.221 65.206V573.311C297.221 588.296 297.221 595.789 294.972 601.764C291.438 611.156 284.053 618.571 274.699 622.12C268.747 624.378 261.285 624.378 246.36 624.378H67.1673C52.2427 624.378 44.7803 624.378 38.8288 622.12C29.4743 618.571 22.0899 611.156 18.5551 601.764C16.3062 595.789 16.3062 588.296 16.3062 573.311V65.206C16.3062 50.2211 16.3062 42.7286 18.5551 36.7531C22.0899 27.3607 29.4743 19.9465 38.8288 16.3975C44.7803 14.1395 52.2427 14.1395 67.1674 14.1395L76.7143 14.1395C78.9657 14.1395 80.7909 15.972 80.7909 18.2326Z" fill="#121515"/>
<rect x="245.336" width="4.44719" height="3.72096" fill="#414141"/>
<rect x="307.596" y="64.001" width="3.70606" height="4.46516" fill="#414141"/>
<rect x="2.22273" y="64.0005" width="3.706" height="4.46516" fill="#414141"/>
<rect x="2.22273" y="570.052" width="3.706" height="4.46514" fill="#414141"/>
<rect x="307.596" y="570.051" width="3.70606" height="4.46514" fill="#414141"/>
<rect x="63.7442" y="634.797" width="4.44721" height="3.72096" fill="#414141"/>
<path fill-rule="evenodd" clip-rule="evenodd" d="M188.263 29.768C191.538 29.768 194.193 27.1025 194.193 23.8145C194.193 20.5264 191.538 17.8609 188.263 17.8609C184.989 17.8609 182.334 20.5264 182.334 23.8145C182.334 27.1025 184.989 29.768 188.263 29.768Z" fill="#262C2D"/>
<path fill-rule="evenodd" clip-rule="evenodd" d="M188.263 27.5353C190.309 27.5353 191.969 25.8694 191.969 23.8144C191.969 21.7593 190.309 20.0934 188.263 20.0934C186.216 20.0934 184.557 21.7593 184.557 23.8144C184.557 25.8694 186.216 27.5353 188.263 27.5353Z" fill="#121515"/>
<path opacity="0.4" fill-rule="evenodd" clip-rule="evenodd" d="M188.263 23.0708C188.673 23.0708 189.005 22.7375 189.005 22.3263C189.005 21.9151 188.673 21.5817 188.263 21.5817C187.853 21.5817 187.521 21.9151 187.521 22.3263C187.521 22.7375 187.853 23.0708 188.263 23.0708Z" fill="#636F73"/>
<path fill-rule="evenodd" clip-rule="evenodd" d="M138.606 23.8143C138.606 22.5813 139.605 21.5817 140.838 21.5817H172.692C173.925 21.5817 174.925 22.5813 174.925 23.8143C174.925 25.0473 173.925 26.0469 172.692 26.0469H140.838C139.605 26.0469 138.606 25.0473 138.606 23.8143Z" fill="#262C2D"/>
</svg>
