<svg width="297" height="289" viewBox="0 0 297 289" fill="none" xmlns="http://www.w3.org/2000/svg">
<rect width="295" height="289" transform="translate(1)" fill="#F7F5FF"/>
<path d="M1 4.81665C8.375 4.81665 8.375 9.63332 15.75 9.63332C23.125 9.63332 23.125 4.81665 30.5 4.81665C37.875 4.81665 37.875 9.63332 45.25 9.63332C52.625 9.63332 52.625 4.81665 60 4.81665C67.375 4.81665 67.375 9.63332 74.75 9.63332C82.125 9.63332 82.125 4.81665 89.5 4.81665C96.875 4.81665 96.875 9.63332 104.25 9.63332C111.625 9.63332 111.625 4.81665 119 4.81665C126.375 4.81665 126.375 9.63332 133.75 9.63332C141.125 9.63332 141.125 4.81665 148.5 4.81665C155.875 4.81665 155.875 9.63332 163.25 9.63332C170.625 9.63332 170.625 4.81665 178 4.81665C183.839 4.81665 185.375 9.63332 192.75 9.63332C200.125 9.63332 200.125 4.81665 207.5 4.81665C214.875 4.81665 214.875 9.63332 222.25 9.63332C229.625 9.63332 229.625 4.81665 237 4.81665C244.375 4.81665 244.375 9.63332 251.75 9.63332C259.125 9.63332 259.125 4.81665 266.5 4.81665C273.875 4.81665 273.875 9.63332 281.25 9.63332C288.625 9.63332 288.625 4.81665 296 4.81665" stroke="#E2DBFF" stroke-width="2" stroke-linecap="round"/>
<path d="M1 19.2666C8.375 19.2666 8.375 24.0833 15.75 24.0833C23.125 24.0833 23.125 19.2666 30.5 19.2666C37.875 19.2666 37.875 24.0833 45.25 24.0833C52.625 24.0833 52.625 19.2666 60 19.2666C67.375 19.2666 67.375 24.0833 74.75 24.0833C82.125 24.0833 82.125 19.2666 89.5 19.2666C96.875 19.2666 96.875 24.0833 104.25 24.0833C111.625 24.0833 111.625 19.2666 119 19.2666C126.375 19.2666 126.375 24.0833 133.75 24.0833C141.125 24.0833 141.125 19.2666 148.5 19.2666C155.875 19.2666 155.875 24.0833 163.25 24.0833C170.625 24.0833 170.625 19.2666 178 19.2666C183.839 19.2666 185.375 24.0833 192.75 24.0833C200.125 24.0833 200.125 19.2666 207.5 19.2666C214.875 19.2666 214.875 24.0833 222.25 24.0833C229.625 24.0833 229.625 19.2666 237 19.2666C244.375 19.2666 244.375 24.0833 251.75 24.0833C259.125 24.0833 259.125 19.2666 266.5 19.2666C273.875 19.2666 273.875 24.0833 281.25 24.0833C288.625 24.0833 288.625 19.2666 296 19.2666" stroke="#E2DBFF" stroke-width="2" stroke-linecap="round"/>
<path d="M1 33.7166C8.375 33.7166 8.375 38.5332 15.75 38.5332C23.125 38.5332 23.125 33.7166 30.5 33.7166C37.875 33.7166 37.875 38.5332 45.25 38.5332C52.625 38.5332 52.625 33.7166 60 33.7166C67.375 33.7166 67.375 38.5332 74.75 38.5332C82.125 38.5332 82.125 33.7166 89.5 33.7166C96.875 33.7166 96.875 38.5332 104.25 38.5332C111.625 38.5332 111.625 33.7166 119 33.7166C126.375 33.7166 126.375 38.5332 133.75 38.5332C141.125 38.5332 141.125 33.7166 148.5 33.7166C155.875 33.7166 155.875 38.5332 163.25 38.5332C170.625 38.5332 170.625 33.7166 178 33.7166C183.839 33.7166 185.375 38.5332 192.75 38.5332C200.125 38.5332 200.125 33.7166 207.5 33.7166C214.875 33.7166 214.875 38.5332 222.25 38.5332C229.625 38.5332 229.625 33.7166 237 33.7166C244.375 33.7166 244.375 38.5332 251.75 38.5332C259.125 38.5332 259.125 33.7166 266.5 33.7166C273.875 33.7166 273.875 38.5332 281.25 38.5332C288.625 38.5332 288.625 33.7166 296 33.7166" stroke="#E2DBFF" stroke-width="2" stroke-linecap="round"/>
<path d="M1 48.1667C8.375 48.1667 8.375 52.9834 15.75 52.9834C23.125 52.9834 23.125 48.1667 30.5 48.1667C37.875 48.1667 37.875 52.9834 45.25 52.9834C52.625 52.9834 52.625 48.1667 60 48.1667C67.375 48.1667 67.375 52.9834 74.75 52.9834C82.125 52.9834 82.125 48.1667 89.5 48.1667C96.875 48.1667 96.875 52.9834 104.25 52.9834C111.625 52.9834 111.625 48.1667 119 48.1667C126.375 48.1667 126.375 52.9834 133.75 52.9834C141.125 52.9834 141.125 48.1667 148.5 48.1667C155.875 48.1667 155.875 52.9834 163.25 52.9834C170.625 52.9834 170.625 48.1667 178 48.1667C183.839 48.1667 185.375 52.9834 192.75 52.9834C200.125 52.9834 200.125 48.1667 207.5 48.1667C214.875 48.1667 214.875 52.9834 222.25 52.9834C229.625 52.9834 229.625 48.1667 237 48.1667C244.375 48.1667 244.375 52.9834 251.75 52.9834C259.125 52.9834 259.125 48.1667 266.5 48.1667C273.875 48.1667 273.875 52.9834 281.25 52.9834C288.625 52.9834 288.625 48.1667 296 48.1667" stroke="#E2DBFF" stroke-width="2" stroke-linecap="round"/>
<path d="M1 62.6167C8.375 62.6167 8.375 67.4334 15.75 67.4334C23.125 67.4334 23.125 62.6167 30.5 62.6167C37.875 62.6167 37.875 67.4334 45.25 67.4334C52.625 67.4334 52.625 62.6167 60 62.6167C67.375 62.6167 67.375 67.4334 74.75 67.4334C82.125 67.4334 82.125 62.6167 89.5 62.6167C96.875 62.6167 96.875 67.4334 104.25 67.4334C111.625 67.4334 111.625 62.6167 119 62.6167C126.375 62.6167 126.375 67.4334 133.75 67.4334C141.125 67.4334 141.125 62.6167 148.5 62.6167C155.875 62.6167 155.875 67.4334 163.25 67.4334C170.625 67.4334 170.625 62.6167 178 62.6167C183.839 62.6167 185.375 67.4334 192.75 67.4334C200.125 67.4334 200.125 62.6167 207.5 62.6167C214.875 62.6167 214.875 67.4334 222.25 67.4334C229.625 67.4334 229.625 62.6167 237 62.6167C244.375 62.6167 244.375 67.4334 251.75 67.4334C259.125 67.4334 259.125 62.6167 266.5 62.6167C273.875 62.6167 273.875 67.4334 281.25 67.4334C288.625 67.4334 288.625 62.6167 296 62.6167" stroke="#E2DBFF" stroke-width="2" stroke-linecap="round"/>
<path d="M1 77.0667C8.375 77.0667 8.375 81.8833 15.75 81.8833C23.125 81.8833 23.125 77.0667 30.5 77.0667C37.875 77.0667 37.875 81.8833 45.25 81.8833C52.625 81.8833 52.625 77.0667 60 77.0667C67.375 77.0667 67.375 81.8833 74.75 81.8833C82.125 81.8833 82.125 77.0667 89.5 77.0667C96.875 77.0667 96.875 81.8833 104.25 81.8833C111.625 81.8833 111.625 77.0667 119 77.0667C126.375 77.0667 126.375 81.8833 133.75 81.8833C141.125 81.8833 141.125 77.0667 148.5 77.0667C155.875 77.0667 155.875 81.8833 163.25 81.8833C170.625 81.8833 170.625 77.0667 178 77.0667C183.839 77.0667 185.375 81.8833 192.75 81.8833C200.125 81.8833 200.125 77.0667 207.5 77.0667C214.875 77.0667 214.875 81.8833 222.25 81.8833C229.625 81.8833 229.625 77.0667 237 77.0667C244.375 77.0667 244.375 81.8833 251.75 81.8833C259.125 81.8833 259.125 77.0667 266.5 77.0667C273.875 77.0667 273.875 81.8833 281.25 81.8833C288.625 81.8833 288.625 77.0667 296 77.0667" stroke="#E2DBFF" stroke-width="2" stroke-linecap="round"/>
<path d="M1 91.5166C8.375 91.5166 8.375 96.3333 15.75 96.3333C23.125 96.3333 23.125 91.5166 30.5 91.5166C37.875 91.5166 37.875 96.3333 45.25 96.3333C52.625 96.3333 52.625 91.5166 60 91.5166C67.375 91.5166 67.375 96.3333 74.75 96.3333C82.125 96.3333 82.125 91.5166 89.5 91.5166C96.875 91.5166 96.875 96.3333 104.25 96.3333C111.625 96.3333 111.625 91.5166 119 91.5166C126.375 91.5166 126.375 96.3333 133.75 96.3333C141.125 96.3333 141.125 91.5166 148.5 91.5166C155.875 91.5166 155.875 96.3333 163.25 96.3333C170.625 96.3333 170.625 91.5166 178 91.5166C183.839 91.5166 185.375 96.3333 192.75 96.3333C200.125 96.3333 200.125 91.5166 207.5 91.5166C214.875 91.5166 214.875 96.3333 222.25 96.3333C229.625 96.3333 229.625 91.5166 237 91.5166C244.375 91.5166 244.375 96.3333 251.75 96.3333C259.125 96.3333 259.125 91.5166 266.5 91.5166C273.875 91.5166 273.875 96.3333 281.25 96.3333C288.625 96.3333 288.625 91.5166 296 91.5166" stroke="#E2DBFF" stroke-width="2" stroke-linecap="round"/>
<path d="M1 105.967C8.375 105.967 8.375 110.783 15.75 110.783C23.125 110.783 23.125 105.967 30.5 105.967C37.875 105.967 37.875 110.783 45.25 110.783C52.625 110.783 52.625 105.967 60 105.967C67.375 105.967 67.375 110.783 74.75 110.783C82.125 110.783 82.125 105.967 89.5 105.967C96.875 105.967 96.875 110.783 104.25 110.783C111.625 110.783 111.625 105.967 119 105.967C126.375 105.967 126.375 110.783 133.75 110.783C141.125 110.783 141.125 105.967 148.5 105.967C155.875 105.967 155.875 110.783 163.25 110.783C170.625 110.783 170.625 105.967 178 105.967C183.839 105.967 185.375 110.783 192.75 110.783C200.125 110.783 200.125 105.967 207.5 105.967C214.875 105.967 214.875 110.783 222.25 110.783C229.625 110.783 229.625 105.967 237 105.967C244.375 105.967 244.375 110.783 251.75 110.783C259.125 110.783 259.125 105.967 266.5 105.967C273.875 105.967 273.875 110.783 281.25 110.783C288.625 110.783 288.625 105.967 296 105.967" stroke="#E2DBFF" stroke-width="2" stroke-linecap="round"/>
<path d="M1 120.417C8.375 120.417 8.375 125.233 15.75 125.233C23.125 125.233 23.125 120.417 30.5 120.417C37.875 120.417 37.875 125.233 45.25 125.233C52.625 125.233 52.625 120.417 60 120.417C67.375 120.417 67.375 125.233 74.75 125.233C82.125 125.233 82.125 120.417 89.5 120.417C96.875 120.417 96.875 125.233 104.25 125.233C111.625 125.233 111.625 120.417 119 120.417C126.375 120.417 126.375 125.233 133.75 125.233C141.125 125.233 141.125 120.417 148.5 120.417C155.875 120.417 155.875 125.233 163.25 125.233C170.625 125.233 170.625 120.417 178 120.417C183.839 120.417 185.375 125.233 192.75 125.233C200.125 125.233 200.125 120.417 207.5 120.417C214.875 120.417 214.875 125.233 222.25 125.233C229.625 125.233 229.625 120.417 237 120.417C244.375 120.417 244.375 125.233 251.75 125.233C259.125 125.233 259.125 120.417 266.5 120.417C273.875 120.417 273.875 125.233 281.25 125.233C288.625 125.233 288.625 120.417 296 120.417" stroke="#E2DBFF" stroke-width="2" stroke-linecap="round"/>
<path d="M1 134.867C8.375 134.867 8.375 139.683 15.75 139.683C23.125 139.683 23.125 134.867 30.5 134.867C37.875 134.867 37.875 139.683 45.25 139.683C52.625 139.683 52.625 134.867 60 134.867C67.375 134.867 67.375 139.683 74.75 139.683C82.125 139.683 82.125 134.867 89.5 134.867C96.875 134.867 96.875 139.683 104.25 139.683C111.625 139.683 111.625 134.867 119 134.867C126.375 134.867 126.375 139.683 133.75 139.683C141.125 139.683 141.125 134.867 148.5 134.867C155.875 134.867 155.875 139.683 163.25 139.683C170.625 139.683 170.625 134.867 178 134.867C183.839 134.867 185.375 139.683 192.75 139.683C200.125 139.683 200.125 134.867 207.5 134.867C214.875 134.867 214.875 139.683 222.25 139.683C229.625 139.683 229.625 134.867 237 134.867C244.375 134.867 244.375 139.683 251.75 139.683C259.125 139.683 259.125 134.867 266.5 134.867C273.875 134.867 273.875 139.683 281.25 139.683C288.625 139.683 288.625 134.867 296 134.867" stroke="#E2DBFF" stroke-width="2" stroke-linecap="round"/>
<path d="M1 149.317C8.375 149.317 8.375 154.133 15.75 154.133C23.125 154.133 23.125 149.317 30.5 149.317C37.875 149.317 37.875 154.133 45.25 154.133C52.625 154.133 52.625 149.317 60 149.317C67.375 149.317 67.375 154.133 74.75 154.133C82.125 154.133 82.125 149.317 89.5 149.317C96.875 149.317 96.875 154.133 104.25 154.133C111.625 154.133 111.625 149.317 119 149.317C126.375 149.317 126.375 154.133 133.75 154.133C141.125 154.133 141.125 149.317 148.5 149.317C155.875 149.317 155.875 154.133 163.25 154.133C170.625 154.133 170.625 149.317 178 149.317C183.839 149.317 185.375 154.133 192.75 154.133C200.125 154.133 200.125 149.317 207.5 149.317C214.875 149.317 214.875 154.133 222.25 154.133C229.625 154.133 229.625 149.317 237 149.317C244.375 149.317 244.375 154.133 251.75 154.133C259.125 154.133 259.125 149.317 266.5 149.317C273.875 149.317 273.875 154.133 281.25 154.133C288.625 154.133 288.625 149.317 296 149.317" stroke="#E2DBFF" stroke-width="2" stroke-linecap="round"/>
<path d="M1 163.767C8.375 163.767 8.375 168.583 15.75 168.583C23.125 168.583 23.125 163.767 30.5 163.767C37.875 163.767 37.875 168.583 45.25 168.583C52.625 168.583 52.625 163.767 60 163.767C67.375 163.767 67.375 168.583 74.75 168.583C82.125 168.583 82.125 163.767 89.5 163.767C96.875 163.767 96.875 168.583 104.25 168.583C111.625 168.583 111.625 163.767 119 163.767C126.375 163.767 126.375 168.583 133.75 168.583C141.125 168.583 141.125 163.767 148.5 163.767C155.875 163.767 155.875 168.583 163.25 168.583C170.625 168.583 170.625 163.767 178 163.767C183.839 163.767 185.375 168.583 192.75 168.583C200.125 168.583 200.125 163.767 207.5 163.767C214.875 163.767 214.875 168.583 222.25 168.583C229.625 168.583 229.625 163.767 237 163.767C244.375 163.767 244.375 168.583 251.75 168.583C259.125 168.583 259.125 163.767 266.5 163.767C273.875 163.767 273.875 168.583 281.25 168.583C288.625 168.583 288.625 163.767 296 163.767" stroke="#E2DBFF" stroke-width="2" stroke-linecap="round"/>
<path d="M1 178.217C8.375 178.217 8.375 183.033 15.75 183.033C23.125 183.033 23.125 178.217 30.5 178.217C37.875 178.217 37.875 183.033 45.25 183.033C52.625 183.033 52.625 178.217 60 178.217C67.375 178.217 67.375 183.033 74.75 183.033C82.125 183.033 82.125 178.217 89.5 178.217C96.875 178.217 96.875 183.033 104.25 183.033C111.625 183.033 111.625 178.217 119 178.217C126.375 178.217 126.375 183.033 133.75 183.033C141.125 183.033 141.125 178.217 148.5 178.217C155.875 178.217 155.875 183.033 163.25 183.033C170.625 183.033 170.625 178.217 178 178.217C183.839 178.217 185.375 183.033 192.75 183.033C200.125 183.033 200.125 178.217 207.5 178.217C214.875 178.217 214.875 183.033 222.25 183.033C229.625 183.033 229.625 178.217 237 178.217C244.375 178.217 244.375 183.033 251.75 183.033C259.125 183.033 259.125 178.217 266.5 178.217C273.875 178.217 273.875 183.033 281.25 183.033C288.625 183.033 288.625 178.217 296 178.217" stroke="#E2DBFF" stroke-width="2" stroke-linecap="round"/>
<path d="M1 192.667C8.375 192.667 8.375 197.483 15.75 197.483C23.125 197.483 23.125 192.667 30.5 192.667C37.875 192.667 37.875 197.483 45.25 197.483C52.625 197.483 52.625 192.667 60 192.667C67.375 192.667 67.375 197.483 74.75 197.483C82.125 197.483 82.125 192.667 89.5 192.667C96.875 192.667 96.875 197.483 104.25 197.483C111.625 197.483 111.625 192.667 119 192.667C126.375 192.667 126.375 197.483 133.75 197.483C141.125 197.483 141.125 192.667 148.5 192.667C155.875 192.667 155.875 197.483 163.25 197.483C170.625 197.483 170.625 192.667 178 192.667C183.839 192.667 185.375 197.483 192.75 197.483C200.125 197.483 200.125 192.667 207.5 192.667C214.875 192.667 214.875 197.483 222.25 197.483C229.625 197.483 229.625 192.667 237 192.667C244.375 192.667 244.375 197.483 251.75 197.483C259.125 197.483 259.125 192.667 266.5 192.667C273.875 192.667 273.875 197.483 281.25 197.483C288.625 197.483 288.625 192.667 296 192.667" stroke="#E2DBFF" stroke-width="2" stroke-linecap="round"/>
<path d="M1 207.117C8.375 207.117 8.375 211.933 15.75 211.933C23.125 211.933 23.125 207.117 30.5 207.117C37.875 207.117 37.875 211.933 45.25 211.933C52.625 211.933 52.625 207.117 60 207.117C67.375 207.117 67.375 211.933 74.75 211.933C82.125 211.933 82.125 207.117 89.5 207.117C96.875 207.117 96.875 211.933 104.25 211.933C111.625 211.933 111.625 207.117 119 207.117C126.375 207.117 126.375 211.933 133.75 211.933C141.125 211.933 141.125 207.117 148.5 207.117C155.875 207.117 155.875 211.933 163.25 211.933C170.625 211.933 170.625 207.117 178 207.117C183.839 207.117 185.375 211.933 192.75 211.933C200.125 211.933 200.125 207.117 207.5 207.117C214.875 207.117 214.875 211.933 222.25 211.933C229.625 211.933 229.625 207.117 237 207.117C244.375 207.117 244.375 211.933 251.75 211.933C259.125 211.933 259.125 207.117 266.5 207.117C273.875 207.117 273.875 211.933 281.25 211.933C288.625 211.933 288.625 207.117 296 207.117" stroke="#E2DBFF" stroke-width="2" stroke-linecap="round"/>
<path d="M1 221.567C8.375 221.567 8.375 226.383 15.75 226.383C23.125 226.383 23.125 221.567 30.5 221.567C37.875 221.567 37.875 226.383 45.25 226.383C52.625 226.383 52.625 221.567 60 221.567C67.375 221.567 67.375 226.383 74.75 226.383C82.125 226.383 82.125 221.567 89.5 221.567C96.875 221.567 96.875 226.383 104.25 226.383C111.625 226.383 111.625 221.567 119 221.567C126.375 221.567 126.375 226.383 133.75 226.383C141.125 226.383 141.125 221.567 148.5 221.567C155.875 221.567 155.875 226.383 163.25 226.383C170.625 226.383 170.625 221.567 178 221.567C183.839 221.567 185.375 226.383 192.75 226.383C200.125 226.383 200.125 221.567 207.5 221.567C214.875 221.567 214.875 226.383 222.25 226.383C229.625 226.383 229.625 221.567 237 221.567C244.375 221.567 244.375 226.383 251.75 226.383C259.125 226.383 259.125 221.567 266.5 221.567C273.875 221.567 273.875 226.383 281.25 226.383C288.625 226.383 288.625 221.567 296 221.567" stroke="#E2DBFF" stroke-width="2" stroke-linecap="round"/>
<path d="M1 236.017C8.375 236.017 8.375 240.833 15.75 240.833C23.125 240.833 23.125 236.017 30.5 236.017C37.875 236.017 37.875 240.833 45.25 240.833C52.625 240.833 52.625 236.017 60 236.017C67.375 236.017 67.375 240.833 74.75 240.833C82.125 240.833 82.125 236.017 89.5 236.017C96.875 236.017 96.875 240.833 104.25 240.833C111.625 240.833 111.625 236.017 119 236.017C126.375 236.017 126.375 240.833 133.75 240.833C141.125 240.833 141.125 236.017 148.5 236.017C155.875 236.017 155.875 240.833 163.25 240.833C170.625 240.833 170.625 236.017 178 236.017C183.839 236.017 185.375 240.833 192.75 240.833C200.125 240.833 200.125 236.017 207.5 236.017C214.875 236.017 214.875 240.833 222.25 240.833C229.625 240.833 229.625 236.017 237 236.017C244.375 236.017 244.375 240.833 251.75 240.833C259.125 240.833 259.125 236.017 266.5 236.017C273.875 236.017 273.875 240.833 281.25 240.833C288.625 240.833 288.625 236.017 296 236.017" stroke="#E2DBFF" stroke-width="2" stroke-linecap="round"/>
<path d="M1 250.467C8.375 250.467 8.375 255.283 15.75 255.283C23.125 255.283 23.125 250.467 30.5 250.467C37.875 250.467 37.875 255.283 45.25 255.283C52.625 255.283 52.625 250.467 60 250.467C67.375 250.467 67.375 255.283 74.75 255.283C82.125 255.283 82.125 250.467 89.5 250.467C96.875 250.467 96.875 255.283 104.25 255.283C111.625 255.283 111.625 250.467 119 250.467C126.375 250.467 126.375 255.283 133.75 255.283C141.125 255.283 141.125 250.467 148.5 250.467C155.875 250.467 155.875 255.283 163.25 255.283C170.625 255.283 170.625 250.467 178 250.467C183.839 250.467 185.375 255.283 192.75 255.283C200.125 255.283 200.125 250.467 207.5 250.467C214.875 250.467 214.875 255.283 222.25 255.283C229.625 255.283 229.625 250.467 237 250.467C244.375 250.467 244.375 255.283 251.75 255.283C259.125 255.283 259.125 250.467 266.5 250.467C273.875 250.467 273.875 255.283 281.25 255.283C288.625 255.283 288.625 250.467 296 250.467" stroke="#E2DBFF" stroke-width="2" stroke-linecap="round"/>
<path d="M1 264.917C8.375 264.917 8.375 269.733 15.75 269.733C23.125 269.733 23.125 264.917 30.5 264.917C37.875 264.917 37.875 269.733 45.25 269.733C52.625 269.733 52.625 264.917 60 264.917C67.375 264.917 67.375 269.733 74.75 269.733C82.125 269.733 82.125 264.917 89.5 264.917C96.875 264.917 96.875 269.733 104.25 269.733C111.625 269.733 111.625 264.917 119 264.917C126.375 264.917 126.375 269.733 133.75 269.733C141.125 269.733 141.125 264.917 148.5 264.917C155.875 264.917 155.875 269.733 163.25 269.733C170.625 269.733 170.625 264.917 178 264.917C183.839 264.917 185.375 269.733 192.75 269.733C200.125 269.733 200.125 264.917 207.5 264.917C214.875 264.917 214.875 269.733 222.25 269.733C229.625 269.733 229.625 264.917 237 264.917C244.375 264.917 244.375 269.733 251.75 269.733C259.125 269.733 259.125 264.917 266.5 264.917C273.875 264.917 273.875 269.733 281.25 269.733C288.625 269.733 288.625 264.917 296 264.917" stroke="#E2DBFF" stroke-width="2" stroke-linecap="round"/>
<path d="M1 279.367C8.375 279.367 8.375 284.183 15.75 284.183C23.125 284.183 23.125 279.367 30.5 279.367C37.875 279.367 37.875 284.183 45.25 284.183C52.625 284.183 52.625 279.367 60 279.367C67.375 279.367 67.375 284.183 74.75 284.183C82.125 284.183 82.125 279.367 89.5 279.367C96.875 279.367 96.875 284.183 104.25 284.183C111.625 284.183 111.625 279.367 119 279.367C126.375 279.367 126.375 284.183 133.75 284.183C141.125 284.183 141.125 279.367 148.5 279.367C155.875 279.367 155.875 284.183 163.25 284.183C170.625 284.183 170.625 279.367 178 279.367C183.839 279.367 185.375 284.183 192.75 284.183C200.125 284.183 200.125 279.367 207.5 279.367C214.875 279.367 214.875 284.183 222.25 284.183C229.625 284.183 229.625 279.367 237 279.367C244.375 279.367 244.375 284.183 251.75 284.183C259.125 284.183 259.125 279.367 266.5 279.367C273.875 279.367 273.875 284.183 281.25 284.183C288.625 284.183 288.625 279.367 296 279.367" stroke="#E2DBFF" stroke-width="2" stroke-linecap="round"/>
</svg>
