<svg width="322" height="320" viewBox="0 0 322 320" fill="none" xmlns="http://www.w3.org/2000/svg">
<path d="M1 5.3335C9 5.3335 9 10.6668 17 10.6668C25 10.6668 25 5.3335 33 5.3335C41 5.3335 41 10.6668 49 10.6668C57 10.6668 57 5.3335 65 5.3335C73 5.3335 73 10.6668 81 10.6668C89 10.6668 89 5.3335 97 5.3335C105 5.3335 105 10.6668 113 10.6668C121 10.6668 121 5.3335 129 5.3335C137 5.3335 137 10.6668 145 10.6668C153 10.6668 153 5.3335 161 5.3335C169 5.3335 169 10.6668 177 10.6668C185 10.6668 185 5.3335 193 5.3335C199.333 5.3335 201 10.6668 209 10.6668C217 10.6668 217 5.3335 225 5.3335C233 5.3335 233 10.6668 241 10.6668C249 10.6668 249 5.3335 257 5.3335C265 5.3335 265 10.6668 273 10.6668C281 10.6668 281 5.3335 289 5.3335C297 5.3335 297 10.6668 305 10.6668C313 10.6668 313 5.3335 321 5.3335" stroke="#F1F1F1" stroke-width="2" stroke-linecap="round"/>
<path d="M1 21.3335C9 21.3335 9 26.6668 17 26.6668C25 26.6668 25 21.3335 33 21.3335C41 21.3335 41 26.6668 49 26.6668C57 26.6668 57 21.3335 65 21.3335C73 21.3335 73 26.6668 81 26.6668C89 26.6668 89 21.3335 97 21.3335C105 21.3335 105 26.6668 113 26.6668C121 26.6668 121 21.3335 129 21.3335C137 21.3335 137 26.6668 145 26.6668C153 26.6668 153 21.3335 161 21.3335C169 21.3335 169 26.6668 177 26.6668C185 26.6668 185 21.3335 193 21.3335C199.333 21.3335 201 26.6668 209 26.6668C217 26.6668 217 21.3335 225 21.3335C233 21.3335 233 26.6668 241 26.6668C249 26.6668 249 21.3335 257 21.3335C265 21.3335 265 26.6668 273 26.6668C281 26.6668 281 21.3335 289 21.3335C297 21.3335 297 26.6668 305 26.6668C313 26.6668 313 21.3335 321 21.3335" stroke="#F1F1F1" stroke-width="2" stroke-linecap="round"/>
<path d="M1 37.3335C9 37.3335 9 42.6668 17 42.6668C25 42.6668 25 37.3335 33 37.3335C41 37.3335 41 42.6668 49 42.6668C57 42.6668 57 37.3335 65 37.3335C73 37.3335 73 42.6668 81 42.6668C89 42.6668 89 37.3335 97 37.3335C105 37.3335 105 42.6668 113 42.6668C121 42.6668 121 37.3335 129 37.3335C137 37.3335 137 42.6668 145 42.6668C153 42.6668 153 37.3335 161 37.3335C169 37.3335 169 42.6668 177 42.6668C185 42.6668 185 37.3335 193 37.3335C199.333 37.3335 201 42.6668 209 42.6668C217 42.6668 217 37.3335 225 37.3335C233 37.3335 233 42.6668 241 42.6668C249 42.6668 249 37.3335 257 37.3335C265 37.3335 265 42.6668 273 42.6668C281 42.6668 281 37.3335 289 37.3335C297 37.3335 297 42.6668 305 42.6668C313 42.6668 313 37.3335 321 37.3335" stroke="#F1F1F1" stroke-width="2" stroke-linecap="round"/>
<path d="M1 53.3335C9 53.3335 9 58.6668 17 58.6668C25 58.6668 25 53.3335 33 53.3335C41 53.3335 41 58.6668 49 58.6668C57 58.6668 57 53.3335 65 53.3335C73 53.3335 73 58.6668 81 58.6668C89 58.6668 89 53.3335 97 53.3335C105 53.3335 105 58.6668 113 58.6668C121 58.6668 121 53.3335 129 53.3335C137 53.3335 137 58.6668 145 58.6668C153 58.6668 153 53.3335 161 53.3335C169 53.3335 169 58.6668 177 58.6668C185 58.6668 185 53.3335 193 53.3335C199.333 53.3335 201 58.6668 209 58.6668C217 58.6668 217 53.3335 225 53.3335C233 53.3335 233 58.6668 241 58.6668C249 58.6668 249 53.3335 257 53.3335C265 53.3335 265 58.6668 273 58.6668C281 58.6668 281 53.3335 289 53.3335C297 53.3335 297 58.6668 305 58.6668C313 58.6668 313 53.3335 321 53.3335" stroke="#F1F1F1" stroke-width="2" stroke-linecap="round"/>
<path d="M1 69.3335C9 69.3335 9 74.6668 17 74.6668C25 74.6668 25 69.3335 33 69.3335C41 69.3335 41 74.6668 49 74.6668C57 74.6668 57 69.3335 65 69.3335C73 69.3335 73 74.6668 81 74.6668C89 74.6668 89 69.3335 97 69.3335C105 69.3335 105 74.6668 113 74.6668C121 74.6668 121 69.3335 129 69.3335C137 69.3335 137 74.6668 145 74.6668C153 74.6668 153 69.3335 161 69.3335C169 69.3335 169 74.6668 177 74.6668C185 74.6668 185 69.3335 193 69.3335C199.333 69.3335 201 74.6668 209 74.6668C217 74.6668 217 69.3335 225 69.3335C233 69.3335 233 74.6668 241 74.6668C249 74.6668 249 69.3335 257 69.3335C265 69.3335 265 74.6668 273 74.6668C281 74.6668 281 69.3335 289 69.3335C297 69.3335 297 74.6668 305 74.6668C313 74.6668 313 69.3335 321 69.3335" stroke="#F1F1F1" stroke-width="2" stroke-linecap="round"/>
<path d="M1 85.3335C9 85.3335 9 90.6668 17 90.6668C25 90.6668 25 85.3335 33 85.3335C41 85.3335 41 90.6668 49 90.6668C57 90.6668 57 85.3335 65 85.3335C73 85.3335 73 90.6668 81 90.6668C89 90.6668 89 85.3335 97 85.3335C105 85.3335 105 90.6668 113 90.6668C121 90.6668 121 85.3335 129 85.3335C137 85.3335 137 90.6668 145 90.6668C153 90.6668 153 85.3335 161 85.3335C169 85.3335 169 90.6668 177 90.6668C185 90.6668 185 85.3335 193 85.3335C199.333 85.3335 201 90.6668 209 90.6668C217 90.6668 217 85.3335 225 85.3335C233 85.3335 233 90.6668 241 90.6668C249 90.6668 249 85.3335 257 85.3335C265 85.3335 265 90.6668 273 90.6668C281 90.6668 281 85.3335 289 85.3335C297 85.3335 297 90.6668 305 90.6668C313 90.6668 313 85.3335 321 85.3335" stroke="#F1F1F1" stroke-width="2" stroke-linecap="round"/>
<path d="M1 101.333C9 101.333 9 106.667 17 106.667C25 106.667 25 101.333 33 101.333C41 101.333 41 106.667 49 106.667C57 106.667 57 101.333 65 101.333C73 101.333 73 106.667 81 106.667C89 106.667 89 101.333 97 101.333C105 101.333 105 106.667 113 106.667C121 106.667 121 101.333 129 101.333C137 101.333 137 106.667 145 106.667C153 106.667 153 101.333 161 101.333C169 101.333 169 106.667 177 106.667C185 106.667 185 101.333 193 101.333C199.333 101.333 201 106.667 209 106.667C217 106.667 217 101.333 225 101.333C233 101.333 233 106.667 241 106.667C249 106.667 249 101.333 257 101.333C265 101.333 265 106.667 273 106.667C281 106.667 281 101.333 289 101.333C297 101.333 297 106.667 305 106.667C313 106.667 313 101.333 321 101.333" stroke="#F1F1F1" stroke-width="2" stroke-linecap="round"/>
<path d="M1 117.333C9 117.333 9 122.667 17 122.667C25 122.667 25 117.333 33 117.333C41 117.333 41 122.667 49 122.667C57 122.667 57 117.333 65 117.333C73 117.333 73 122.667 81 122.667C89 122.667 89 117.333 97 117.333C105 117.333 105 122.667 113 122.667C121 122.667 121 117.333 129 117.333C137 117.333 137 122.667 145 122.667C153 122.667 153 117.333 161 117.333C169 117.333 169 122.667 177 122.667C185 122.667 185 117.333 193 117.333C199.333 117.333 201 122.667 209 122.667C217 122.667 217 117.333 225 117.333C233 117.333 233 122.667 241 122.667C249 122.667 249 117.333 257 117.333C265 117.333 265 122.667 273 122.667C281 122.667 281 117.333 289 117.333C297 117.333 297 122.667 305 122.667C313 122.667 313 117.333 321 117.333" stroke="#F1F1F1" stroke-width="2" stroke-linecap="round"/>
<path d="M1 133.333C9 133.333 9 138.667 17 138.667C25 138.667 25 133.333 33 133.333C41 133.333 41 138.667 49 138.667C57 138.667 57 133.333 65 133.333C73 133.333 73 138.667 81 138.667C89 138.667 89 133.333 97 133.333C105 133.333 105 138.667 113 138.667C121 138.667 121 133.333 129 133.333C137 133.333 137 138.667 145 138.667C153 138.667 153 133.333 161 133.333C169 133.333 169 138.667 177 138.667C185 138.667 185 133.333 193 133.333C199.333 133.333 201 138.667 209 138.667C217 138.667 217 133.333 225 133.333C233 133.333 233 138.667 241 138.667C249 138.667 249 133.333 257 133.333C265 133.333 265 138.667 273 138.667C281 138.667 281 133.333 289 133.333C297 133.333 297 138.667 305 138.667C313 138.667 313 133.333 321 133.333" stroke="#F1F1F1" stroke-width="2" stroke-linecap="round"/>
<path d="M1 149.333C9 149.333 9 154.667 17 154.667C25 154.667 25 149.333 33 149.333C41 149.333 41 154.667 49 154.667C57 154.667 57 149.333 65 149.333C73 149.333 73 154.667 81 154.667C89 154.667 89 149.333 97 149.333C105 149.333 105 154.667 113 154.667C121 154.667 121 149.333 129 149.333C137 149.333 137 154.667 145 154.667C153 154.667 153 149.333 161 149.333C169 149.333 169 154.667 177 154.667C185 154.667 185 149.333 193 149.333C199.333 149.333 201 154.667 209 154.667C217 154.667 217 149.333 225 149.333C233 149.333 233 154.667 241 154.667C249 154.667 249 149.333 257 149.333C265 149.333 265 154.667 273 154.667C281 154.667 281 149.333 289 149.333C297 149.333 297 154.667 305 154.667C313 154.667 313 149.333 321 149.333" stroke="#F1F1F1" stroke-width="2" stroke-linecap="round"/>
<path d="M1 165.333C9 165.333 9 170.667 17 170.667C25 170.667 25 165.333 33 165.333C41 165.333 41 170.667 49 170.667C57 170.667 57 165.333 65 165.333C73 165.333 73 170.667 81 170.667C89 170.667 89 165.333 97 165.333C105 165.333 105 170.667 113 170.667C121 170.667 121 165.333 129 165.333C137 165.333 137 170.667 145 170.667C153 170.667 153 165.333 161 165.333C169 165.333 169 170.667 177 170.667C185 170.667 185 165.333 193 165.333C199.333 165.333 201 170.667 209 170.667C217 170.667 217 165.333 225 165.333C233 165.333 233 170.667 241 170.667C249 170.667 249 165.333 257 165.333C265 165.333 265 170.667 273 170.667C281 170.667 281 165.333 289 165.333C297 165.333 297 170.667 305 170.667C313 170.667 313 165.333 321 165.333" stroke="#F1F1F1" stroke-width="2" stroke-linecap="round"/>
<path d="M1 181.333C9 181.333 9 186.667 17 186.667C25 186.667 25 181.333 33 181.333C41 181.333 41 186.667 49 186.667C57 186.667 57 181.333 65 181.333C73 181.333 73 186.667 81 186.667C89 186.667 89 181.333 97 181.333C105 181.333 105 186.667 113 186.667C121 186.667 121 181.333 129 181.333C137 181.333 137 186.667 145 186.667C153 186.667 153 181.333 161 181.333C169 181.333 169 186.667 177 186.667C185 186.667 185 181.333 193 181.333C199.333 181.333 201 186.667 209 186.667C217 186.667 217 181.333 225 181.333C233 181.333 233 186.667 241 186.667C249 186.667 249 181.333 257 181.333C265 181.333 265 186.667 273 186.667C281 186.667 281 181.333 289 181.333C297 181.333 297 186.667 305 186.667C313 186.667 313 181.333 321 181.333" stroke="#F1F1F1" stroke-width="2" stroke-linecap="round"/>
<path d="M1 197.333C9 197.333 9 202.667 17 202.667C25 202.667 25 197.333 33 197.333C41 197.333 41 202.667 49 202.667C57 202.667 57 197.333 65 197.333C73 197.333 73 202.667 81 202.667C89 202.667 89 197.333 97 197.333C105 197.333 105 202.667 113 202.667C121 202.667 121 197.333 129 197.333C137 197.333 137 202.667 145 202.667C153 202.667 153 197.333 161 197.333C169 197.333 169 202.667 177 202.667C185 202.667 185 197.333 193 197.333C199.333 197.333 201 202.667 209 202.667C217 202.667 217 197.333 225 197.333C233 197.333 233 202.667 241 202.667C249 202.667 249 197.333 257 197.333C265 197.333 265 202.667 273 202.667C281 202.667 281 197.333 289 197.333C297 197.333 297 202.667 305 202.667C313 202.667 313 197.333 321 197.333" stroke="#F1F1F1" stroke-width="2" stroke-linecap="round"/>
<path d="M1 213.333C9 213.333 9 218.667 17 218.667C25 218.667 25 213.333 33 213.333C41 213.333 41 218.667 49 218.667C57 218.667 57 213.333 65 213.333C73 213.333 73 218.667 81 218.667C89 218.667 89 213.333 97 213.333C105 213.333 105 218.667 113 218.667C121 218.667 121 213.333 129 213.333C137 213.333 137 218.667 145 218.667C153 218.667 153 213.333 161 213.333C169 213.333 169 218.667 177 218.667C185 218.667 185 213.333 193 213.333C199.333 213.333 201 218.667 209 218.667C217 218.667 217 213.333 225 213.333C233 213.333 233 218.667 241 218.667C249 218.667 249 213.333 257 213.333C265 213.333 265 218.667 273 218.667C281 218.667 281 213.333 289 213.333C297 213.333 297 218.667 305 218.667C313 218.667 313 213.333 321 213.333" stroke="#F1F1F1" stroke-width="2" stroke-linecap="round"/>
<path d="M1 229.333C9 229.333 9 234.667 17 234.667C25 234.667 25 229.333 33 229.333C41 229.333 41 234.667 49 234.667C57 234.667 57 229.333 65 229.333C73 229.333 73 234.667 81 234.667C89 234.667 89 229.333 97 229.333C105 229.333 105 234.667 113 234.667C121 234.667 121 229.333 129 229.333C137 229.333 137 234.667 145 234.667C153 234.667 153 229.333 161 229.333C169 229.333 169 234.667 177 234.667C185 234.667 185 229.333 193 229.333C199.333 229.333 201 234.667 209 234.667C217 234.667 217 229.333 225 229.333C233 229.333 233 234.667 241 234.667C249 234.667 249 229.333 257 229.333C265 229.333 265 234.667 273 234.667C281 234.667 281 229.333 289 229.333C297 229.333 297 234.667 305 234.667C313 234.667 313 229.333 321 229.333" stroke="#F1F1F1" stroke-width="2" stroke-linecap="round"/>
<path d="M1 245.333C9 245.333 9 250.667 17 250.667C25 250.667 25 245.333 33 245.333C41 245.333 41 250.667 49 250.667C57 250.667 57 245.333 65 245.333C73 245.333 73 250.667 81 250.667C89 250.667 89 245.333 97 245.333C105 245.333 105 250.667 113 250.667C121 250.667 121 245.333 129 245.333C137 245.333 137 250.667 145 250.667C153 250.667 153 245.333 161 245.333C169 245.333 169 250.667 177 250.667C185 250.667 185 245.333 193 245.333C199.333 245.333 201 250.667 209 250.667C217 250.667 217 245.333 225 245.333C233 245.333 233 250.667 241 250.667C249 250.667 249 245.333 257 245.333C265 245.333 265 250.667 273 250.667C281 250.667 281 245.333 289 245.333C297 245.333 297 250.667 305 250.667C313 250.667 313 245.333 321 245.333" stroke="#F1F1F1" stroke-width="2" stroke-linecap="round"/>
<path d="M1 261.333C9 261.333 9 266.667 17 266.667C25 266.667 25 261.333 33 261.333C41 261.333 41 266.667 49 266.667C57 266.667 57 261.333 65 261.333C73 261.333 73 266.667 81 266.667C89 266.667 89 261.333 97 261.333C105 261.333 105 266.667 113 266.667C121 266.667 121 261.333 129 261.333C137 261.333 137 266.667 145 266.667C153 266.667 153 261.333 161 261.333C169 261.333 169 266.667 177 266.667C185 266.667 185 261.333 193 261.333C199.333 261.333 201 266.667 209 266.667C217 266.667 217 261.333 225 261.333C233 261.333 233 266.667 241 266.667C249 266.667 249 261.333 257 261.333C265 261.333 265 266.667 273 266.667C281 266.667 281 261.333 289 261.333C297 261.333 297 266.667 305 266.667C313 266.667 313 261.333 321 261.333" stroke="#F1F1F1" stroke-width="2" stroke-linecap="round"/>
<path d="M1 277.333C9 277.333 9 282.667 17 282.667C25 282.667 25 277.333 33 277.333C41 277.333 41 282.667 49 282.667C57 282.667 57 277.333 65 277.333C73 277.333 73 282.667 81 282.667C89 282.667 89 277.333 97 277.333C105 277.333 105 282.667 113 282.667C121 282.667 121 277.333 129 277.333C137 277.333 137 282.667 145 282.667C153 282.667 153 277.333 161 277.333C169 277.333 169 282.667 177 282.667C185 282.667 185 277.333 193 277.333C199.333 277.333 201 282.667 209 282.667C217 282.667 217 277.333 225 277.333C233 277.333 233 282.667 241 282.667C249 282.667 249 277.333 257 277.333C265 277.333 265 282.667 273 282.667C281 282.667 281 277.333 289 277.333C297 277.333 297 282.667 305 282.667C313 282.667 313 277.333 321 277.333" stroke="#F1F1F1" stroke-width="2" stroke-linecap="round"/>
<path d="M1 293.333C9 293.333 9 298.667 17 298.667C25 298.667 25 293.333 33 293.333C41 293.333 41 298.667 49 298.667C57 298.667 57 293.333 65 293.333C73 293.333 73 298.667 81 298.667C89 298.667 89 293.333 97 293.333C105 293.333 105 298.667 113 298.667C121 298.667 121 293.333 129 293.333C137 293.333 137 298.667 145 298.667C153 298.667 153 293.333 161 293.333C169 293.333 169 298.667 177 298.667C185 298.667 185 293.333 193 293.333C199.333 293.333 201 298.667 209 298.667C217 298.667 217 293.333 225 293.333C233 293.333 233 298.667 241 298.667C249 298.667 249 293.333 257 293.333C265 293.333 265 298.667 273 298.667C281 298.667 281 293.333 289 293.333C297 293.333 297 298.667 305 298.667C313 298.667 313 293.333 321 293.333" stroke="#F1F1F1" stroke-width="2" stroke-linecap="round"/>
<path d="M1 309.333C9 309.333 9 314.667 17 314.667C25 314.667 25 309.333 33 309.333C41 309.333 41 314.667 49 314.667C57 314.667 57 309.333 65 309.333C73 309.333 73 314.667 81 314.667C89 314.667 89 309.333 97 309.333C105 309.333 105 314.667 113 314.667C121 314.667 121 309.333 129 309.333C137 309.333 137 314.667 145 314.667C153 314.667 153 309.333 161 309.333C169 309.333 169 314.667 177 314.667C185 314.667 185 309.333 193 309.333C199.333 309.333 201 314.667 209 314.667C217 314.667 217 309.333 225 309.333C233 309.333 233 314.667 241 314.667C249 314.667 249 309.333 257 309.333C265 309.333 265 314.667 273 314.667C281 314.667 281 309.333 289 309.333C297 309.333 297 314.667 305 314.667C313 314.667 313 309.333 321 309.333" stroke="#F1F1F1" stroke-width="2" stroke-linecap="round"/>
</svg>
