<svg width="142" height="86" viewBox="0 0 142 86" fill="none" xmlns="http://www.w3.org/2000/svg">
<path d="M52.0449 28.362L31.7983 0.380541C31.6169 0.129555 31.3465 0.0154698 31.0704 0.0040614V0.000639003C31.0476 -0.00164269 31.0237 0.00291944 31.0008 0.00291944C30.9769 0.00291944 30.9541 -0.000501841 30.9301 0.000639003V0.0040614C30.654 0.0154698 30.3836 0.130696 30.2022 0.380541L9.95567 28.362C9.95567 28.362 -8.62527 51.9171 4.98158 71.7256C14.6172 85.9108 30.9849 85.7135 30.9849 85.7135C30.9849 85.7135 30.9974 85.7135 30.9997 85.7135C31.002 85.7135 31.0145 85.7135 31.0145 85.7135C31.0145 85.7135 47.3811 85.9108 57.0178 71.7256C70.6258 51.9171 52.0437 28.362 52.0437 28.362H52.0449Z" fill="#FFF1B6"/>
<path d="M21.4297 26.1545C21.4297 26.1545 26.397 17.8503 34.6225 17.8503C42.848 17.8503 46.1861 26.62 46.1085 29.8018C46.0309 32.9836 44.6345 40.3558 50.3764 43.9255C56.1194 47.4952 58.214 53.9775 56.3521 62.2999C54.4891 70.6224 47.7376 78.0721 38.4249 79.934C29.1122 81.797 16.4625 79.6237 10.0213 72.0964C6.49037 67.9699 4.89547 62.2817 4.99244 56.5763C5.11109 49.5807 8.27466 42.9717 13.4598 38.2737C15.3684 36.5442 16.1499 35.7034 21.4297 26.1534V26.1545Z" fill="#8383ED"/>
<path d="M42.6721 27.3616C42.6721 27.3616 43.6806 27.4802 43.6509 28.637C43.6213 29.7939 43.392 32.695 42.4051 33.8587C41.9625 34.2854 41.5369 34.6938 41.246 34.9744C41.0007 35.2094 40.8627 35.5346 40.8627 35.8746V39.0803C40.8627 39.6371 40.4109 40.0888 39.8542 40.0888H39.0533C39.0533 40.0888 38.5787 40.1482 38.3414 40.86C38.1041 41.5719 36.9177 41.8092 36.9177 41.8092C36.9177 41.8092 36.2651 41.8686 36.3541 42.9957C36.4431 44.1229 35.4642 44.8941 33.8328 44.5085C32.2014 44.1229 29.6197 42.2838 29.6197 42.2838C29.6197 42.2838 28.1662 41.8982 28.9078 43.144C29.6493 44.3898 33.2396 45.9619 34.96 46.8529C36.6804 47.7428 39.1731 49.4928 39.5291 50.7991C39.5291 50.7991 35.1379 55.2792 37.5714 59.5505C37.5714 59.5505 34.3679 62.1014 30.6293 59.5505C26.8908 56.9996 26.1196 55.4412 22.7084 50.2503C19.3486 45.1382 18.2945 45.0823 16.8228 43.6334C16.8011 43.6015 16.8148 43.557 16.8525 43.5513C17.5279 43.4612 22.1802 42.4378 24.6057 36.9447C26.9786 30.8332 27.1269 31.3671 28.9671 31.4264C30.8062 31.4857 33.7735 33.1616 39.2906 29.6763L42.6721 27.3627V27.3616Z" fill="#FFCDBB"/>
<path d="M40.2919 52.3745C40.2919 52.3745 40.7585 49.9753 44.6248 48.6748C48.4911 47.3753 51.6239 50.0084 52.224 52.0745C52.8241 54.1405 52.8492 55.9203 51.4505 57.5848C50.0518 59.2492 48.9201 60.9149 44.3579 60.948C39.7956 60.981 38.2635 58.1506 38.2635 58.1506C38.2635 58.1506 37.1648 56.121 38.6628 54.6379C40.1618 53.1549 40.293 52.3734 40.293 52.3734L40.2919 52.3745Z" fill="#FFCDBB"/>
<path d="M36.5288 62.0867C36.5288 62.0867 43.5427 60.1849 45.9134 62.9515C45.9134 62.9515 46.3081 63.8402 45.3943 64.8042C44.4805 65.7671 43.6899 66.2371 43.1959 66.3843C42.7019 66.5326 38.2572 66.4584 36.2071 67.9153C34.157 69.3721 31.6882 71.7428 26.2053 70.5826C20.7224 69.4223 16.4499 63.766 16.6724 59.6179C16.6724 59.6179 21.2905 71.5705 30.8485 69.2991C30.8485 69.2991 27.7614 68.9535 29.1692 67.0026C30.577 65.0518 34.3555 62.705 36.5288 62.0879V62.0867Z" fill="#FFCDBB"/>
<path d="M45.7605 67.646C45.7605 67.646 45.7924 67.6871 45.7856 67.7738C45.7491 68.2392 45.4833 69.857 43.9899 71.5089C42.5718 73.0787 40.127 73.3092 40.127 73.3092C40.127 73.3092 37.9491 73.4255 37.5419 72.7866C37.1357 72.1478 40.0802 72.4067 42.0265 70.8096C43.9728 69.2124 45.2677 67.1817 45.7616 67.646H45.7605Z" fill="#FFCDBB"/>
<path d="M7.5275 71.5225C-6.99659 50.3792 12.8359 25.2384 12.8359 25.2384L31.0905 0.00976597C31.0825 0.00976597 31.0757 0.00520224 31.0688 0.0040614V0.000639003C31.046 -0.00164269 31.0221 0.00291944 30.9992 0.00291944C30.9753 0.00291944 30.9525 -0.000501841 30.9296 0.000639003V0.0040614C30.6524 0.0154698 30.3832 0.130696 30.2018 0.380541L9.95522 28.362C9.95522 28.362 -8.62572 51.9171 4.98228 71.7256C12.2563 82.4335 23.3613 84.9445 28.3707 85.5332C22.3551 84.1231 13.6652 80.5557 7.52864 71.5236L7.5275 71.5225Z" fill="#FFEB99"/>
</svg>
