<svg width="56" height="56" viewBox="0 0 56 56" fill="none" xmlns="http://www.w3.org/2000/svg">
<rect width="56" height="56" rx="28" fill="#8383ED"/>
<path fill-rule="evenodd" clip-rule="evenodd" d="M28 15C29.3807 15 30.5 13.8807 30.5 12.5C30.5 11.1193 29.3807 10 28 10C26.6193 10 25.5 11.1193 25.5 12.5C25.5 13.8807 26.6193 15 28 15ZM28 17C30.4853 17 32.5 14.9853 32.5 12.5C32.5 10.0147 30.4853 8 28 8C25.5147 8 23.5 10.0147 23.5 12.5C23.5 14.9853 25.5147 17 28 17Z" fill="white"/>
<path fill-rule="evenodd" clip-rule="evenodd" d="M23.5795 19.3065C23.8527 19.1874 24.3587 19 25 19H27C27.571 19 28.0274 19.1643 28.1506 19.2086L28.1587 19.2115C28.359 19.2835 28.5444 19.3671 28.6974 19.4416C29.0096 19.5936 29.3512 19.7884 29.7009 20.0088C30.4068 20.4536 31.269 21.0806 32.1694 21.8729C33.9469 23.4371 36.053 25.8048 37.2854 28.8858C38.0686 30.8438 38.0132 32.7332 37.2845 34.3777C36.603 35.9159 35.4491 36.9814 34.467 37.675C31.4171 39.829 31.274 41.2291 30.498 45.1087C30.4408 46.7152 29.1204 48 27.5 48C25.8431 48 24.5 46.6569 24.5 45C24.5 39.8673 24.4976 36.8134 24.2657 33.9253C22.9604 34.8767 21.1265 34.6238 20.1297 33.3389C19.8867 33.0258 19.2142 32.0796 18.6137 31.1692C18.3095 30.7081 17.9889 30.2037 17.7346 29.7575C17.6101 29.539 17.4725 29.2842 17.3572 29.028C17.2998 28.9005 17.2274 28.7275 17.1645 28.529C17.1154 28.3742 17 27.9883 17 27.5C17 26.7844 17.2607 26.228 17.3175 26.1067L17.3182 26.1053L17.3189 26.1038L17.3207 26.1C17.4153 25.8945 17.5211 25.7097 17.6049 25.5706C17.7778 25.284 17.9924 24.9715 18.2114 24.6694C18.6569 24.0545 19.2401 23.3184 19.8472 22.6101C20.4476 21.9096 21.1257 21.1727 21.7606 20.5859C22.0722 20.298 22.4386 19.9851 22.8257 19.7252C23.0199 19.5948 23.2768 19.4386 23.5795 19.3065ZM25 21C24.265 21 23.6254 21.5858 23.1181 22.0547C22.5627 22.568 21.9408 23.2407 21.3657 23.9117C20.7883 24.5853 20.2398 25.2786 19.8308 25.8429C19.5794 26.1899 19.3173 26.546 19.137 26.9372C19.0555 27.1141 19 27.3039 19 27.5C19 27.9569 19.2535 28.3834 19.4723 28.7673C19.6949 29.158 19.9881 29.6207 20.2832 30.0679C20.8707 30.9585 21.5115 31.8573 21.7099 32.113C22.0484 32.5493 22.6766 32.6286 23.113 32.2901C23.5493 31.9516 23.6286 31.3234 23.2901 30.887C23.1363 30.6888 22.5271 29.8375 21.9527 28.9666C21.7553 28.6674 21.5691 28.3766 21.4109 28.1169L21.0645 27.5483L21.4554 27.0094C21.8273 26.4968 22.339 25.8493 22.8842 25.2133C23.007 25.0701 23.13 24.9291 23.2521 24.7919L24.5898 23.2881L24.9803 25.2625C26.4921 32.9082 26.5 35.4231 26.5 45C26.5 45.5523 26.9477 46 27.5 46C28.1212 46 28.5 45.479 28.5 44.901C29.3162 40.8201 29.795 38.5261 33.3132 36.0413C34.1284 35.4656 34.9735 34.6563 35.456 33.5674C35.9541 32.4433 36.023 31.115 35.4285 29.6286C34.351 26.935 32.4823 24.8124 30.8481 23.3743C30.0272 22.6519 29.2502 22.0887 28.6347 21.7008C28.2701 21.4711 27.8903 21.2402 27.4827 21.0938C27.3277 21.0381 27.1654 21 27 21H25Z" fill="white"/>
</svg>
