<svg width="319" height="130" viewBox="0 0 319 130" fill="none" xmlns="http://www.w3.org/2000/svg">
<path d="M0 0H319V130H0V0Z" fill="url(#paint0_linear_307_7330)"/>
<path d="M95.0195 77.0442V75.5207L97.4653 75.197V56.1069C97.1983 56.0554 96.9275 56.0118 96.65 55.9761C96.3725 55.9404 96.1017 55.9021 95.8348 55.8612C95.5679 55.8202 95.297 55.7792 95.0195 55.7383V54.1844H100.835L110.956 69.197L112.709 72.4421V56.1056L110.018 55.737V54.1831H117.278V55.737L114.817 56.1056V77.0415H112.371L101.956 61.7211L99.5727 57.629V75.2261L102.511 75.5181V77.0415H95.0195V77.0442Z" fill="#8383ED"/>
<path d="M123.184 77.3821C122.261 77.3821 121.41 77.2024 120.63 76.843C119.851 76.4836 119.223 75.9379 118.746 75.2046C118.269 74.4713 118.031 73.5464 118.031 72.4286C118.031 71.3927 118.31 70.514 118.87 69.7899C119.429 69.0672 120.19 68.4845 121.155 68.0445C122.118 67.6032 123.211 67.2755 124.432 67.0601C125.652 66.8448 126.924 66.7272 128.246 66.706V65.6133C128.246 64.6897 128.146 63.9617 127.946 63.4292C127.747 62.8967 127.395 62.5162 126.893 62.2916C126.391 62.0656 125.672 61.9533 124.739 61.9533C123.54 61.9533 122.491 62.1436 121.593 62.5228C120.696 62.902 120.001 63.2257 119.51 63.4913L118.725 61.8767C118.93 61.6917 119.374 61.4182 120.055 61.0535C120.737 60.6902 121.56 60.3559 122.525 60.0533C123.488 59.7507 124.499 59.6001 125.555 59.6001C127 59.6001 128.147 59.8075 128.993 60.2224C129.838 60.6373 130.443 61.2887 130.808 62.1766C131.172 63.0632 131.354 64.2207 131.354 65.645V75.4741H133.169V76.843C132.943 76.8945 132.643 76.9566 132.27 77.028C131.896 77.0993 131.501 77.1641 131.086 77.2209C130.671 77.2777 130.288 77.3055 129.94 77.3055C129.406 77.3055 129.027 77.2235 128.801 77.0597C128.575 76.8959 128.463 76.5114 128.463 75.9062V74.9218C128.207 75.1782 127.827 75.5019 127.324 75.8904C126.822 76.2801 126.219 76.6263 125.516 76.9289C124.813 77.2315 124.037 77.3821 123.186 77.3821H123.184ZM124.521 75.2746C125.065 75.2746 125.688 75.1134 126.39 74.7897C127.091 74.4673 127.71 74.0749 128.244 73.6124V68.3207C126.706 68.3312 125.438 68.5003 124.443 68.828C123.449 69.157 122.707 69.5997 122.221 70.1586C121.734 70.7175 121.49 71.3504 121.49 72.0586C121.49 72.8276 121.624 73.4486 121.891 73.9203C122.158 74.392 122.518 74.7355 122.976 74.9509C123.431 75.1663 123.947 75.2746 124.521 75.2746Z" fill="#8383ED"/>
<path d="M134.984 77.0439V75.5363L137.277 75.3368V62.3392L135.062 61.8014V60.1247L139.308 59.5869H139.384L140.046 60.1247V60.6783L139.97 63.4015H140.046C140.139 63.2377 140.328 62.9575 140.616 62.5638C140.902 62.1687 141.29 61.7512 141.777 61.3099C142.265 60.8686 142.846 60.492 143.523 60.1789C144.199 59.8657 144.968 59.7098 145.83 59.7098C146.127 59.7098 146.362 59.7283 146.538 59.764C146.712 59.7996 146.855 59.8327 146.969 59.8644V63.1716C146.846 63.0897 146.628 63.0104 146.314 62.9338C146.001 62.8571 145.6 62.8188 145.107 62.8188C144.276 62.8188 143.569 62.9245 142.984 63.1346C142.399 63.3447 141.909 63.5865 141.514 63.8573C141.119 64.1295 140.778 64.3727 140.492 64.588V75.309L144.383 75.5706V77.0478H134.984V77.0439Z" fill="#8383ED"/>
<path d="M148.812 77.044V75.5205L151.304 75.2589V62.338L148.997 61.8002V60.1393L153.766 59.5857H153.828L154.535 60.1235V75.2906L156.981 75.5219V77.0453H148.812V77.044ZM152.673 56.9088C152.017 56.9088 151.522 56.7092 151.19 56.3089C150.857 55.9085 150.69 55.4421 150.69 54.9096C150.69 54.3151 150.872 53.7839 151.236 53.3175C151.599 52.8511 152.157 52.6172 152.905 52.6172H152.935C153.581 52.6172 154.071 52.8127 154.404 53.2012C154.737 53.591 154.904 54.0574 154.904 54.6005C154.904 55.195 154.721 55.7288 154.358 56.2005C153.993 56.6722 153.442 56.9074 152.704 56.9074H152.673V56.9088Z" fill="#8383ED"/>
<path d="M170.447 77.3825C168.735 77.3825 167.219 77.1103 165.902 76.5672C164.584 76.0242 163.473 75.2472 162.571 74.2365C161.668 73.227 160.989 72.0061 160.532 70.5751C160.076 69.1442 159.848 67.5428 159.848 65.7683C159.848 63.9938 160.126 62.4095 160.685 60.9535C161.244 59.4974 162.026 58.2408 163.031 57.1851C164.036 56.1294 165.209 55.3142 166.553 54.7394C167.897 54.1646 169.358 53.8779 170.937 53.8779C171.645 53.8779 172.319 53.9162 172.96 53.9929C173.601 54.0695 174.204 54.1594 174.768 54.2624C175.332 54.3655 175.853 54.4619 176.329 54.5544C176.806 54.6469 177.224 54.7183 177.583 54.7698L177.291 60.3536H175.246L174.477 56.4465C174.313 56.3025 174.049 56.1651 173.684 56.0316C173.32 55.8982 172.864 55.7885 172.315 55.7013C171.767 55.6141 171.129 55.5705 170.401 55.5705C169.109 55.5705 167.952 55.9418 166.932 56.6857C165.912 57.4296 165.104 58.521 164.509 59.9625C163.915 61.404 163.617 63.1746 163.617 65.2767C163.617 66.7024 163.759 68.0435 164.04 69.2988C164.322 70.5553 164.748 71.6626 165.316 72.6218C165.886 73.5811 166.609 74.3316 167.486 74.876C168.363 75.419 169.395 75.6912 170.586 75.6912C171.365 75.6912 172.009 75.645 172.516 75.5525C173.024 75.46 173.44 75.3292 173.762 75.16C174.086 74.9909 174.365 74.8086 174.601 74.6143L175.909 71.4763L177.817 71.722L177.095 76.2144C176.664 76.2356 176.246 76.3069 175.841 76.4298C175.435 76.5527 174.998 76.6888 174.526 76.8381C174.054 76.9874 173.49 77.1142 172.833 77.2226C172.177 77.3296 171.383 77.3838 170.45 77.3838L170.447 77.3825Z" fill="#FF9E88"/>
<path d="M185.091 77.3826C184.168 77.3826 183.316 77.2029 182.536 76.8435C181.757 76.4841 181.129 75.9384 180.652 75.2051C180.175 74.4718 179.938 73.5469 179.938 72.429C179.938 71.3931 180.216 70.5145 180.775 69.7904C181.334 69.0677 182.095 68.485 183.06 68.045C184.023 67.6037 185.116 67.276 186.337 67.0606C187.557 66.8452 188.829 66.7277 190.151 66.7065V65.6138C190.151 64.6902 190.051 63.9622 189.851 63.4297C189.652 62.8972 189.3 62.5167 188.798 62.2921C188.296 62.0661 187.577 61.9538 186.644 61.9538C185.445 61.9538 184.396 62.1441 183.498 62.5233C182.601 62.9025 181.906 63.2262 181.415 63.4918L180.63 61.8772C180.835 61.6922 181.279 61.4187 181.96 61.054C182.642 60.6907 183.465 60.3564 184.429 60.0538C185.392 59.7512 186.403 59.6006 187.458 59.6006C188.904 59.6006 190.051 59.808 190.896 60.2229C191.742 60.6378 192.347 61.2892 192.712 62.1771C193.075 63.0637 193.257 64.2212 193.257 65.6455V75.4746H195.073V76.8435C194.847 76.895 194.547 76.9571 194.173 77.0285C193.799 77.0998 193.404 77.1646 192.989 77.2214C192.574 77.2782 192.191 77.306 191.844 77.306C191.31 77.306 190.931 77.224 190.705 77.0602C190.479 76.8963 190.366 76.5119 190.366 75.9067V74.9223C190.11 75.1787 189.731 75.5024 189.228 75.8908C188.725 76.2806 188.123 76.6268 187.42 76.9294C186.717 77.232 185.94 77.3826 185.089 77.3826H185.091ZM186.429 75.2751C186.972 75.2751 187.596 75.1139 188.297 74.7902C189 74.4678 189.617 74.0754 190.151 73.6129V68.3211C188.613 68.3317 187.346 68.5008 186.351 68.8285C185.356 69.1575 184.615 69.6002 184.129 70.1591C183.641 70.718 183.398 71.3509 183.398 72.0591C183.398 72.8281 183.531 73.4491 183.798 73.9208C184.065 74.3925 184.426 74.736 184.883 74.9514C185.339 75.1668 185.854 75.2751 186.429 75.2751Z" fill="#FF9E88"/>
<path d="M196.887 77.0439V75.5363L199.179 75.3368V62.3392L196.965 61.8014V60.1247L201.21 59.5869H201.287L201.949 60.1247V60.6783L201.872 63.4015H201.949C202.041 63.2377 202.23 62.9575 202.518 62.5638C202.805 62.1687 203.192 61.7512 203.68 61.3099C204.167 60.8686 204.748 60.492 205.425 60.1789C206.101 59.8657 206.87 59.7098 207.732 59.7098C208.029 59.7098 208.264 59.7283 208.44 59.764C208.615 59.7996 208.757 59.8327 208.871 59.8644V63.1716C208.748 63.0897 208.53 63.0104 208.217 62.9338C207.904 62.8571 207.502 62.8188 207.009 62.8188C206.178 62.8188 205.471 62.9245 204.886 63.1346C204.302 63.3447 203.812 63.5865 203.417 63.8573C203.021 64.1295 202.681 64.3727 202.394 64.588V75.309L206.285 75.5706V77.0478H196.887V77.0439Z" fill="#FF9E88"/>
<path d="M217.472 77.3823C215.749 77.3823 214.321 77.0031 213.188 76.2433C212.055 75.4849 211.209 74.4332 210.65 73.0894C210.091 71.7457 209.812 70.1971 209.812 68.4437C209.812 67.0894 210.009 65.8646 210.404 64.7679C210.8 63.6712 211.356 62.7291 212.073 61.9456C212.791 61.1608 213.639 60.5582 214.619 60.1381C215.598 59.7179 216.673 59.5078 217.842 59.5078C219.759 59.5078 221.247 60.0363 222.303 61.092C223.358 62.1478 223.917 63.6659 223.979 65.6452C223.979 66.261 223.966 66.7987 223.941 67.2599C223.915 67.721 223.862 68.1319 223.78 68.49H213.196C213.217 69.4743 213.34 70.3794 213.565 71.2052C213.791 72.031 214.124 72.7459 214.565 73.351C215.007 73.9562 215.55 74.4226 216.196 74.7503C216.842 75.0793 217.59 75.2431 218.442 75.2431C219.294 75.2431 220.175 75.0898 221.057 74.782C221.938 74.4741 222.611 74.1306 223.072 73.7514L223.672 75.1057C223.312 75.4849 222.807 75.8496 222.156 76.1984C221.505 76.5472 220.771 76.8313 219.956 77.052C219.141 77.2726 218.312 77.3823 217.472 77.3823ZM213.212 66.8608H220.596C220.615 66.6864 220.634 66.471 220.65 66.2147C220.666 65.9584 220.672 65.7324 220.672 65.5382C220.672 64.2869 220.413 63.259 219.895 62.4543C219.377 61.6496 218.503 61.2466 217.273 61.2466C216.728 61.2466 216.221 61.3391 215.749 61.5241C215.277 61.7091 214.86 62.017 214.495 62.4477C214.131 62.8784 213.841 63.4558 213.626 64.1786C213.41 64.9013 213.272 65.7959 213.211 66.8621L213.212 66.8608Z" fill="#FF9E88"/>
<defs>
<linearGradient id="paint0_linear_307_7330" x1="159.5" y1="43" x2="159.5" y2="244" gradientUnits="userSpaceOnUse">
<stop stop-color="white"/>
<stop offset="1" stop-color="#B1B1FF"/>
</linearGradient>
</defs>
</svg>
