<svg width="18" height="17" viewBox="0 0 18 17" fill="none" xmlns="http://www.w3.org/2000/svg">
<path d="M8.44272 0.313062C8.61621 -0.104054 9.2071 -0.104054 9.38059 0.313062L11.4792 5.3588C11.5524 5.53465 11.7177 5.65479 11.9076 5.67001L17.3549 6.10672C17.8052 6.14282 17.9878 6.70479 17.6447 6.99869L13.4944 10.5538C13.3498 10.6777 13.2866 10.8721 13.3308 11.0574L14.5988 16.373C14.7036 16.8125 14.2256 17.1598 13.84 16.9243L9.17639 14.0757C9.01386 13.9765 8.80945 13.9765 8.64693 14.0757L3.98328 16.9243C3.59775 17.1598 3.11971 16.8125 3.22453 16.373L4.4925 11.0574C4.53669 10.8721 4.47353 10.6777 4.32889 10.5538L0.178621 6.99869C-0.164469 6.70479 0.0181262 6.14282 0.468438 6.10672L5.91574 5.67001C6.10558 5.65479 6.27095 5.53465 6.34408 5.3588L8.44272 0.313062Z" fill="white"/>
</svg>
