<svg width="56" height="56" viewBox="0 0 56 56" fill="none" xmlns="http://www.w3.org/2000/svg">
<rect width="56" height="56" rx="28" fill="#8383ED"/>
<path d="M28.5 20.75V28.5H34.3125M40.125 28.5C40.125 30.0266 39.8243 31.5383 39.2401 32.9487C38.6559 34.3591 37.7996 35.6406 36.7201 36.7201C35.6406 37.7996 34.3591 38.6559 32.9487 39.2401C31.5383 39.8243 30.0266 40.125 28.5 40.125C26.9734 40.125 25.4617 39.8243 24.0513 39.2401C22.6409 38.6559 21.3594 37.7996 20.2799 36.7201C19.2004 35.6406 18.3441 34.3591 17.7599 32.9487C17.1757 31.5383 16.875 30.0266 16.875 28.5C16.875 25.4169 18.0998 22.46 20.2799 20.2799C22.46 18.0998 25.4169 16.875 28.5 16.875C31.5831 16.875 34.54 18.0998 36.7201 20.2799C38.9002 22.46 40.125 25.4169 40.125 28.5Z" stroke="white" stroke-width="1.5" stroke-linecap="round" stroke-linejoin="round"/>
</svg>
