<svg width="50" height="45" viewBox="0 0 50 45" fill="none" xmlns="http://www.w3.org/2000/svg">
<path d="M7.2363 41.7418C7.07858 42.5571 7.61162 43.3458 8.42688 43.5035C9.24214 43.6613 10.0309 43.1282 10.1886 42.313L8.71245 42.0274L7.2363 41.7418ZM48.697 2.99365C49.5199 2.88242 50.0968 2.12516 49.9856 1.30227C49.8743 0.479382 49.1171 -0.097527 48.2942 0.0137089L48.4956 1.50368L48.697 2.99365ZM2.79257 31.6003C2.3647 30.8887 1.44094 30.6586 0.729287 31.0865C0.0176381 31.5144 -0.212407 32.4381 0.215467 33.1498L1.50402 32.375L2.79257 31.6003ZM6.99187 41.5025L5.70332 42.2773L5.70404 42.2785L6.99187 41.5025ZM10.6169 42.5558L10.0025 41.1835L10.0012 41.1841L10.6169 42.5558ZM21.5616 39.3031C22.3195 38.9638 22.6588 38.0743 22.3195 37.3165C21.9802 36.5586 21.0908 36.2192 20.3329 36.5586L20.9472 37.9308L21.5616 39.3031ZM8.71245 42.0274C10.1886 42.313 10.1885 42.3133 10.1885 42.3136C10.1885 42.3136 10.1885 42.3138 10.1885 42.3138C10.1885 42.3138 10.1885 42.3135 10.1886 42.313C10.1888 42.3119 10.1892 42.3098 10.1899 42.3066C10.1911 42.3003 10.1932 42.2898 10.1961 42.2753C10.202 42.2462 10.2114 42.2008 10.2243 42.1398C10.2502 42.0179 10.2905 41.8338 10.3464 41.5937C10.4582 41.1134 10.6325 40.4094 10.8794 39.5301C11.3736 37.7702 12.1564 35.3153 13.3073 32.5499C15.6187 26.9962 19.3677 20.3045 25.1415 15.4318L24.1718 14.2828L23.2021 13.1338C16.9147 18.44 12.9341 25.6206 10.5311 31.3945C9.32482 34.2929 8.50427 36.8655 7.98433 38.7173C7.72419 39.6438 7.53879 40.3916 7.41768 40.9117C7.35712 41.1718 7.31259 41.3751 7.2828 41.5155C7.26791 41.5856 7.25669 41.6401 7.249 41.6781C7.24515 41.6971 7.24218 41.7119 7.24007 41.7226C7.23902 41.7279 7.23818 41.7322 7.23755 41.7354C7.23724 41.737 7.23697 41.7383 7.23677 41.7394C7.23666 41.7399 7.23655 41.7405 7.23649 41.7408C7.23639 41.7413 7.2363 41.7418 8.71245 42.0274ZM24.1718 14.2828L25.1415 15.4318C36.9818 5.43925 46.3923 3.30519 48.697 2.99365L48.4956 1.50368L48.2942 0.0137089C45.4289 0.401027 35.484 2.76854 23.2021 13.1338L24.1718 14.2828ZM1.50402 32.375L0.215467 33.1498L5.70332 42.2773L6.99187 41.5025L8.28042 40.7278L2.79257 31.6003L1.50402 32.375ZM6.99187 41.5025L5.70404 42.2785C6.84898 44.1787 9.24087 44.8213 11.2325 43.9275L10.6169 42.5558L10.0012 41.1841C9.29851 41.4995 8.58501 41.2333 8.2797 40.7266L6.99187 41.5025ZM10.6169 42.5558L11.2312 43.9281L21.5616 39.3031L20.9472 37.9308L20.3329 36.5586L10.0025 41.1835L10.6169 42.5558Z" fill="#8383ED"/>
</svg>
