<svg width="14" height="14" viewBox="0 0 14 14" fill="none" xmlns="http://www.w3.org/2000/svg">
<path d="M5.16503 13.6483C4.88272 12.1483 3.97706 10.8581 3.03015 9.67322C2.08324 8.48829 1.05657 7.33253 0.459796 5.93335C-0.137343 4.53454 -0.232448 2.80374 0.648902 1.53366C1.56048 0.220205 3.38941 -0.294105 4.8961 0.164111C6.84276 0.756872 8.15447 2.90586 7.80526 4.93066C8.57935 4.20536 9.91388 3.52966 10.9169 3.19824C11.9196 2.86719 13.1745 3.07894 13.7224 3.96453C14.1116 4.59381 14.062 5.42691 13.7648 6.11733C13.4675 6.80774 12.9536 7.38304 12.4294 7.9239C10.6678 9.7422 7.3158 12.3202 5.16503 13.6483Z" fill="#8B5FBE"/>
</svg>
