<svg width="14" height="13" viewBox="0 0 14 13" fill="none" xmlns="http://www.w3.org/2000/svg">
<path d="M10.6685 13.0002C9.57447 11.9326 8.09004 11.3956 6.63228 10.9685C5.17452 10.5414 3.66813 10.1841 2.37426 9.37998C1.08031 8.57639 0.00709416 7.21191 -0.000555019 5.66373C-0.00835639 4.0626 1.19554 2.58923 2.69442 2.09858C4.63142 1.46526 6.94265 2.47307 7.8206 4.3341C8.03826 3.29428 8.74396 1.97287 9.37583 1.12436C10.0076 0.276369 11.1583 -0.27158 12.1168 0.139521C12.7977 0.431698 13.2362 1.14329 13.3894 1.88031C13.5427 2.61734 13.4521 3.38457 13.3333 4.12946C12.9344 6.63334 11.6683 10.6746 10.6685 13.0002Z" fill="#8B5FBE"/>
</svg>
