<svg width="56" height="56" viewBox="0 0 56 56" fill="none" xmlns="http://www.w3.org/2000/svg">
<rect width="56" height="56" rx="28" fill="#8383ED"/>
<path d="M42.6641 28.6667V24.6592C42.6641 24.4199 42.6641 24.3003 42.6276 24.1946C42.5954 24.1012 42.5428 24.0161 42.4737 23.9455C42.3955 23.8657 41.3155 23.3257 41.1014 23.2187M17.3307 24.6667V33.7422C17.3307 34.238 17.3307 34.486 17.4081 34.7031C17.4765 34.895 17.5879 35.0687 17.7339 35.2108C17.899 35.3716 18.1244 35.4749 18.5752 35.6815L27.1085 39.5926C27.4355 39.7425 27.599 39.8174 27.7693 39.847C27.9202 39.8732 28.0746 39.8732 28.2255 39.847C28.3958 39.8174 28.5593 39.7425 28.8863 39.5926L37.4196 35.6815C37.8704 35.4749 38.0958 35.3716 38.2609 35.2108C38.4069 35.0687 38.5183 34.895 38.5867 34.7031C38.6641 34.486 38.6641 34.238 38.6641 33.7422V24.6667M14.6641 23.3333L27.5204 16.9052C27.6953 16.8177 27.7827 16.774 27.8745 16.7568C27.9557 16.7416 28.0391 16.7416 28.1203 16.7568C28.2121 16.774 28.2995 16.8177 28.4744 16.9052L41.3307 23.3333L28.4744 29.7615C28.2995 29.8489 28.2121 29.8927 28.1203 29.9099C28.0391 29.9251 27.9557 29.9251 27.8745 29.9099C27.7827 29.8927 27.6953 29.8489 27.5204 29.7615L14.6641 23.3333Z" stroke="white" stroke-width="2" stroke-linecap="round" stroke-linejoin="round"/>
</svg>
